M48
; DRILL file KiCad 10.0.0 date 2026-06-12T19:37:37
; FORMAT={-:-/ absolute / metric / decimal}
; #@! TF.CreationDate,2026-06-12T19:37:37+05:30
; #@! TF.GenerationSoftware,Kicad,Pcbnew,10.0.0
; #@! TF.FileFunction,Plated,1,6,PTH
FMAT,2
METRIC
; #@! TA.AperFunction,Plated,PTH,ViaDrill
T1C0.300
; #@! TA.AperFunction,Plated,PTH,ViaDrill
T2C0.350
; #@! TA.AperFunction,Plated,PTH,ViaDrill
T3C0.400
; #@! TA.AperFunction,Plated,PTH,ViaDrill
T4C0.500
; #@! TA.AperFunction,Plated,PTH,ComponentDrill
T5C0.500
; #@! TA.AperFunction,Plated,PTH,ViaDrill
T6C0.600
; #@! TA.AperFunction,Plated,PTH,ViaDrill
T7C0.800
; #@! TA.AperFunction,Plated,PTH,ComponentDrill
T8C0.800
; #@! TA.AperFunction,Plated,PTH,ComponentDrill
T9C0.900
; #@! TA.AperFunction,Plated,PTH,ComponentDrill
T10C0.950
; #@! TA.AperFunction,Plated,PTH,ComponentDrill
T11C1.000
; #@! TA.AperFunction,Plated,PTH,ComponentDrill
T12C1.200
; #@! TA.AperFunction,Plated,PTH,ComponentDrill
T13C3.200
%
G90
G05
T1
X58.844Y-79.55
X60.431Y-78.6
X67.294Y-52.479
X67.294Y-54.529
X69.519Y-70.204
X84.15Y-87.385
X85.25Y-113.78
X85.25Y-116.32
X85.25Y-118.86
X85.26Y-111.24
X85.499Y-131.616
X85.499Y-132.916
X85.499Y-134.216
X85.499Y-135.516
X85.966Y-130.966
X85.966Y-132.266
X85.966Y-133.566
X85.966Y-134.866
X87.559Y-126.666
X88.169Y-134.216
X88.268Y-132.916
X88.268Y-135.516
X88.734Y-130.966
X88.734Y-132.266
X88.734Y-133.566
X88.734Y-134.866
X89.0Y-96.1
X90.0Y-122.5
X91.025Y-103.225
X91.025Y-108.85
X91.029Y-82.35
X102.75Y-107.85
X102.77Y-76.35
X104.167Y-99.401
X104.167Y-101.451
X104.175Y-73.804
X104.175Y-75.854
X104.18Y-124.995
X104.18Y-127.045
X106.667Y-104.446
X106.675Y-78.849
X106.68Y-130.04
X111.617Y-99.366
X111.617Y-103.176
X111.617Y-104.446
X111.617Y-105.716
X111.625Y-73.769
X111.625Y-75.039
X111.625Y-77.579
X111.625Y-78.849
X111.625Y-80.119
X111.63Y-124.96
X111.63Y-128.77
X111.63Y-130.04
X111.63Y-131.31
X114.367Y-102.976
X114.375Y-77.379
X114.38Y-128.57
X115.652Y-102.376
X115.66Y-76.779
X115.665Y-127.97
X115.942Y-105.301
X115.942Y-107.751
X115.95Y-79.704
X115.95Y-82.154
X116.455Y-101.126
X116.455Y-103.826
X116.462Y-75.529
X116.462Y-78.229
X116.468Y-126.72
X116.468Y-129.42
X117.405Y-103.826
X117.412Y-78.229
X117.417Y-129.42
X119.55Y-111.55
X119.57Y-85.95
X139.987Y-87.301
X139.995Y-61.704
X140.0Y-112.895
X142.057Y-88.758
X142.07Y-63.16
X142.085Y-114.35
X146.58Y-109.201
X146.588Y-83.604
X146.593Y-134.795
X149.042Y-107.026
X149.05Y-81.429
X149.055Y-132.62
T2
X119.967Y-94.696
X119.967Y-95.733
X119.967Y-96.77
X119.967Y-97.807
X119.967Y-98.844
X119.967Y-99.881
X119.967Y-105.066
X119.967Y-106.103
X119.967Y-107.14
X119.967Y-108.177
X119.967Y-109.214
X119.967Y-110.251
X119.975Y-69.099
X119.975Y-70.136
X119.975Y-71.173
X119.975Y-72.21
X119.975Y-73.247
X119.975Y-74.284
X119.975Y-79.469
X119.975Y-80.506
X119.975Y-81.543
X119.975Y-82.58
X119.975Y-83.617
X119.975Y-84.654
X119.98Y-120.29
X119.98Y-121.327
X119.98Y-122.364
X119.98Y-123.401
X119.98Y-124.438
X119.98Y-125.475
X119.98Y-130.66
X119.98Y-131.697
X119.98Y-132.734
X119.98Y-133.771
X119.98Y-134.808
X119.98Y-135.845
X120.981Y-94.696
X120.981Y-95.733
X120.981Y-96.77
X120.981Y-97.807
X120.981Y-98.844
X120.981Y-99.881
X120.981Y-105.066
X120.981Y-106.103
X120.981Y-107.14
X120.981Y-108.177
X120.981Y-109.214
X120.981Y-110.251
X120.989Y-69.099
X120.989Y-70.136
X120.989Y-71.173
X120.989Y-72.21
X120.989Y-73.247
X120.989Y-74.284
X120.989Y-79.469
X120.989Y-80.506
X120.989Y-81.543
X120.989Y-82.58
X120.989Y-83.617
X120.989Y-84.654
X120.994Y-120.29
X120.994Y-121.327
X120.994Y-122.364
X120.994Y-123.401
X120.994Y-124.438
X120.994Y-125.475
X120.994Y-130.66
X120.994Y-131.697
X120.994Y-132.734
X120.994Y-133.771
X120.994Y-134.808
X120.994Y-135.845
X121.995Y-94.696
X121.995Y-95.733
X121.995Y-96.77
X121.995Y-97.807
X121.995Y-98.844
X121.995Y-99.881
X121.995Y-105.066
X121.995Y-106.103
X121.995Y-107.14
X121.995Y-108.177
X121.995Y-109.214
X121.995Y-110.251
X122.003Y-69.099
X122.003Y-70.136
X122.003Y-71.173
X122.003Y-72.21
X122.003Y-73.247
X122.003Y-74.284
X122.003Y-79.469
X122.003Y-80.506
X122.003Y-81.543
X122.003Y-82.58
X122.003Y-83.617
X122.003Y-84.654
X122.008Y-120.29
X122.008Y-121.327
X122.008Y-122.364
X122.008Y-123.401
X122.008Y-124.438
X122.008Y-125.475
X122.008Y-130.66
X122.008Y-131.697
X122.008Y-132.734
X122.008Y-133.771
X122.008Y-134.808
X122.008Y-135.845
X123.009Y-94.696
X123.009Y-95.733
X123.009Y-96.77
X123.009Y-97.807
X123.009Y-98.844
X123.009Y-99.881
X123.009Y-105.066
X123.009Y-106.103
X123.009Y-107.14
X123.009Y-108.177
X123.009Y-109.214
X123.009Y-110.251
X123.017Y-69.099
X123.017Y-70.136
X123.017Y-71.173
X123.017Y-72.21
X123.017Y-73.247
X123.017Y-74.284
X123.017Y-79.469
X123.017Y-80.506
X123.017Y-81.543
X123.017Y-82.58
X123.017Y-83.617
X123.017Y-84.654
X123.022Y-120.29
X123.022Y-121.327
X123.022Y-122.364
X123.022Y-123.401
X123.022Y-124.438
X123.022Y-125.475
X123.022Y-130.66
X123.022Y-131.697
X123.022Y-132.734
X123.022Y-133.771
X123.022Y-134.808
X123.022Y-135.845
X124.023Y-94.696
X124.023Y-95.733
X124.023Y-96.77
X124.023Y-97.807
X124.023Y-98.844
X124.023Y-99.881
X124.023Y-105.066
X124.023Y-106.103
X124.023Y-107.14
X124.023Y-108.177
X124.023Y-109.214
X124.023Y-110.251
X124.031Y-69.099
X124.031Y-70.136
X124.031Y-71.173
X124.031Y-72.21
X124.031Y-73.247
X124.031Y-74.284
X124.031Y-79.469
X124.031Y-80.506
X124.031Y-81.543
X124.031Y-82.58
X124.031Y-83.617
X124.031Y-84.654
X124.036Y-120.29
X124.036Y-121.327
X124.036Y-122.364
X124.036Y-123.401
X124.036Y-124.438
X124.036Y-125.475
X124.036Y-130.66
X124.036Y-131.697
X124.036Y-132.734
X124.036Y-133.771
X124.036Y-134.808
X124.036Y-135.845
X125.037Y-94.696
X125.037Y-95.733
X125.037Y-96.77
X125.037Y-97.807
X125.037Y-98.844
X125.037Y-99.881
X125.037Y-105.066
X125.037Y-106.103
X125.037Y-107.14
X125.037Y-108.177
X125.037Y-109.214
X125.037Y-110.251
X125.045Y-69.099
X125.045Y-70.136
X125.045Y-71.173
X125.045Y-72.21
X125.045Y-73.247
X125.045Y-74.284
X125.045Y-79.469
X125.045Y-80.506
X125.045Y-81.543
X125.045Y-82.58
X125.045Y-83.617
X125.045Y-84.654
X125.05Y-120.29
X125.05Y-121.327
X125.05Y-122.364
X125.05Y-123.401
X125.05Y-124.438
X125.05Y-125.475
X125.05Y-130.66
X125.05Y-131.697
X125.05Y-132.734
X125.05Y-133.771
X125.05Y-134.808
X125.05Y-135.845
X126.051Y-94.696
X126.051Y-98.844
X126.051Y-99.881
X126.051Y-105.066
X126.051Y-106.103
X126.051Y-107.14
X126.051Y-108.177
X126.051Y-109.214
X126.051Y-110.251
X126.059Y-69.099
X126.059Y-73.247
X126.059Y-74.284
X126.059Y-79.469
X126.059Y-80.506
X126.059Y-81.543
X126.059Y-82.58
X126.059Y-83.617
X126.059Y-84.654
X126.064Y-120.29
X126.064Y-124.438
X126.064Y-125.475
X126.064Y-130.66
X126.064Y-131.697
X126.064Y-132.734
X126.064Y-133.771
X126.064Y-134.808
X126.064Y-135.845
X127.065Y-94.696
X127.065Y-98.844
X127.065Y-99.881
X127.065Y-105.066
X127.065Y-106.103
X127.065Y-107.14
X127.065Y-108.177
X127.065Y-109.214
X127.065Y-110.251
X127.073Y-69.099
X127.073Y-73.247
X127.073Y-74.284
X127.073Y-79.469
X127.073Y-80.506
X127.073Y-81.543
X127.073Y-82.58
X127.073Y-83.617
X127.073Y-84.654
X127.078Y-120.29
X127.078Y-124.438
X127.078Y-125.475
X127.078Y-130.66
X127.078Y-131.697
X127.078Y-132.734
X127.078Y-133.771
X127.078Y-134.808
X127.078Y-135.845
X128.079Y-94.696
X128.079Y-98.844
X128.079Y-99.881
X128.079Y-105.066
X128.079Y-106.103
X128.079Y-107.14
X128.079Y-108.177
X128.079Y-109.214
X128.079Y-110.251
X128.087Y-69.099
X128.087Y-73.247
X128.087Y-74.284
X128.087Y-79.469
X128.087Y-80.506
X128.087Y-81.543
X128.087Y-82.58
X128.087Y-83.617
X128.087Y-84.654
X128.092Y-120.29
X128.092Y-124.438
X128.092Y-125.475
X128.092Y-130.66
X128.092Y-131.697
X128.092Y-132.734
X128.092Y-133.771
X128.092Y-134.808
X128.092Y-135.845
X129.092Y-96.756
X129.092Y-97.793
X129.093Y-94.696
X129.093Y-95.733
X129.093Y-98.844
X129.093Y-99.881
X129.093Y-105.066
X129.093Y-106.103
X129.093Y-107.14
X129.093Y-108.177
X129.093Y-109.214
X129.093Y-110.251
X129.1Y-71.159
X129.1Y-72.196
X129.101Y-69.099
X129.101Y-70.136
X129.101Y-73.247
X129.101Y-74.284
X129.101Y-79.469
X129.101Y-80.506
X129.101Y-81.543
X129.101Y-82.58
X129.101Y-83.617
X129.101Y-84.654
X129.105Y-122.35
X129.105Y-123.387
X129.106Y-120.29
X129.106Y-121.327
X129.106Y-124.438
X129.106Y-125.475
X129.106Y-130.66
X129.106Y-131.697
X129.106Y-132.734
X129.106Y-133.771
X129.106Y-134.808
X129.106Y-135.845
X130.107Y-94.696
X130.107Y-95.733
X130.107Y-96.77
X130.107Y-97.807
X130.107Y-98.844
X130.107Y-99.881
X130.107Y-105.066
X130.107Y-106.103
X130.107Y-107.14
X130.107Y-108.177
X130.107Y-109.214
X130.107Y-110.251
X130.115Y-69.099
X130.115Y-70.136
X130.115Y-71.173
X130.115Y-72.21
X130.115Y-73.247
X130.115Y-74.284
X130.115Y-79.469
X130.115Y-80.506
X130.115Y-81.543
X130.115Y-82.58
X130.115Y-83.617
X130.115Y-84.654
X130.12Y-120.29
X130.12Y-121.327
X130.12Y-122.364
X130.12Y-123.401
X130.12Y-124.438
X130.12Y-125.475
X130.12Y-130.66
X130.12Y-131.697
X130.12Y-132.734
X130.12Y-133.771
X130.12Y-134.808
X130.12Y-135.845
X131.121Y-94.696
X131.121Y-95.733
X131.121Y-96.77
X131.121Y-97.807
X131.121Y-98.844
X131.121Y-99.881
X131.121Y-105.066
X131.121Y-106.103
X131.121Y-107.14
X131.121Y-108.177
X131.121Y-109.214
X131.121Y-110.251
X131.129Y-69.099
X131.129Y-70.136
X131.129Y-71.173
X131.129Y-72.21
X131.129Y-73.247
X131.129Y-74.284
X131.129Y-79.469
X131.129Y-80.506
X131.129Y-81.543
X131.129Y-82.58
X131.129Y-83.617
X131.129Y-84.654
X131.134Y-120.29
X131.134Y-121.327
X131.134Y-122.364
X131.134Y-123.401
X131.134Y-124.438
X131.134Y-125.475
X131.134Y-130.66
X131.134Y-131.697
X131.134Y-132.734
X131.134Y-133.771
X131.134Y-134.808
X131.134Y-135.845
X132.135Y-94.696
X132.135Y-95.733
X132.135Y-96.77
X132.135Y-97.807
X132.135Y-98.844
X132.135Y-99.881
X132.135Y-105.066
X132.135Y-106.103
X132.135Y-107.14
X132.135Y-108.177
X132.135Y-109.214
X132.135Y-110.251
X132.143Y-69.099
X132.143Y-70.136
X132.143Y-71.173
X132.143Y-72.21
X132.143Y-73.247
X132.143Y-74.284
X132.143Y-79.469
X132.143Y-80.506
X132.143Y-81.543
X132.143Y-82.58
X132.143Y-83.617
X132.143Y-84.654
X132.148Y-120.29
X132.148Y-121.327
X132.148Y-122.364
X132.148Y-123.401
X132.148Y-124.438
X132.148Y-125.475
X132.148Y-130.66
X132.148Y-131.697
X132.148Y-132.734
X132.148Y-133.771
X132.148Y-134.808
X132.148Y-135.845
X133.149Y-94.696
X133.149Y-95.733
X133.149Y-96.77
X133.149Y-97.807
X133.149Y-98.844
X133.149Y-99.881
X133.149Y-105.066
X133.149Y-106.103
X133.149Y-107.14
X133.149Y-108.177
X133.149Y-109.214
X133.149Y-110.251
X133.157Y-69.099
X133.157Y-70.136
X133.157Y-71.173
X133.157Y-72.21
X133.157Y-73.247
X133.157Y-74.284
X133.157Y-79.469
X133.157Y-80.506
X133.157Y-81.543
X133.157Y-82.58
X133.157Y-83.617
X133.157Y-84.654
X133.162Y-120.29
X133.162Y-121.327
X133.162Y-122.364
X133.162Y-123.401
X133.162Y-124.438
X133.162Y-125.475
X133.162Y-130.66
X133.162Y-131.697
X133.162Y-132.734
X133.162Y-133.771
X133.162Y-134.808
X133.162Y-135.845
X134.163Y-94.696
X134.163Y-95.733
X134.163Y-96.77
X134.163Y-97.807
X134.163Y-98.844
X134.163Y-99.881
X134.163Y-105.066
X134.163Y-106.103
X134.163Y-107.14
X134.163Y-108.177
X134.163Y-109.214
X134.163Y-110.251
X134.171Y-69.099
X134.171Y-70.136
X134.171Y-71.173
X134.171Y-72.21
X134.171Y-73.247
X134.171Y-74.284
X134.171Y-79.469
X134.171Y-80.506
X134.171Y-81.543
X134.171Y-82.58
X134.171Y-83.617
X134.171Y-84.654
X134.176Y-120.29
X134.176Y-121.327
X134.176Y-122.364
X134.176Y-123.401
X134.176Y-124.438
X134.176Y-125.475
X134.176Y-130.66
X134.176Y-131.697
X134.176Y-132.734
X134.176Y-133.771
X134.176Y-134.808
X134.176Y-135.845
X135.177Y-94.696
X135.177Y-95.733
X135.177Y-96.77
X135.177Y-97.807
X135.177Y-98.844
X135.177Y-99.881
X135.177Y-105.066
X135.177Y-106.103
X135.177Y-107.14
X135.177Y-108.177
X135.177Y-109.214
X135.177Y-110.251
X135.185Y-69.099
X135.185Y-70.136
X135.185Y-71.173
X135.185Y-72.21
X135.185Y-73.247
X135.185Y-74.284
X135.185Y-79.469
X135.185Y-80.506
X135.185Y-81.543
X135.185Y-82.58
X135.185Y-83.617
X135.185Y-84.654
X135.19Y-120.29
X135.19Y-121.327
X135.19Y-122.364
X135.19Y-123.401
X135.19Y-124.438
X135.19Y-125.475
X135.19Y-130.66
X135.19Y-131.697
X135.19Y-132.734
X135.19Y-133.771
X135.19Y-134.808
X135.19Y-135.845
X136.191Y-96.762
X136.191Y-97.799
X136.191Y-94.696
X136.191Y-95.733
X136.191Y-98.844
X136.191Y-99.881
X136.191Y-105.066
X136.191Y-106.103
X136.191Y-107.14
X136.191Y-108.177
X136.191Y-109.214
X136.191Y-110.251
X136.198Y-71.165
X136.198Y-72.202
X136.199Y-69.099
X136.199Y-70.136
X136.199Y-73.247
X136.199Y-74.284
X136.199Y-79.469
X136.199Y-80.506
X136.199Y-81.543
X136.199Y-82.58
X136.199Y-83.617
X136.199Y-84.654
X136.203Y-122.356
X136.203Y-123.393
X136.204Y-120.29
X136.204Y-121.327
X136.204Y-124.438
X136.204Y-125.475
X136.204Y-130.66
X136.204Y-131.697
X136.204Y-132.734
X136.204Y-133.771
X136.204Y-134.808
X136.204Y-135.845
X137.205Y-96.762
X137.205Y-97.799
X137.205Y-94.696
X137.205Y-95.733
X137.205Y-98.844
X137.205Y-99.881
X137.205Y-105.066
X137.205Y-106.103
X137.205Y-107.14
X137.205Y-108.177
X137.205Y-109.214
X137.205Y-110.251
X137.212Y-71.165
X137.212Y-72.202
X137.213Y-69.099
X137.213Y-70.136
X137.213Y-73.247
X137.213Y-74.284
X137.213Y-79.469
X137.213Y-80.506
X137.213Y-81.543
X137.213Y-82.58
X137.213Y-83.617
X137.213Y-84.654
X137.217Y-122.356
X137.217Y-123.393
X137.218Y-120.29
X137.218Y-121.327
X137.218Y-124.438
X137.218Y-125.475
X137.218Y-130.66
X137.218Y-131.697
X137.218Y-132.734
X137.218Y-133.771
X137.218Y-134.808
X137.218Y-135.845
X138.219Y-94.696
X138.219Y-95.733
X138.219Y-96.77
X138.219Y-97.807
X138.219Y-98.844
X138.219Y-99.881
X138.219Y-105.066
X138.219Y-106.103
X138.219Y-107.14
X138.219Y-108.177
X138.219Y-109.214
X138.219Y-110.251
X138.227Y-69.099
X138.227Y-70.136
X138.227Y-71.173
X138.227Y-72.21
X138.227Y-73.247
X138.227Y-74.284
X138.227Y-79.469
X138.227Y-80.506
X138.227Y-81.543
X138.227Y-82.58
X138.227Y-83.617
X138.227Y-84.654
X138.232Y-120.29
X138.232Y-121.327
X138.232Y-122.364
X138.232Y-123.401
X138.232Y-124.438
X138.232Y-125.475
X138.232Y-130.66
X138.232Y-131.697
X138.232Y-132.734
X138.232Y-133.771
X138.232Y-134.808
X138.232Y-135.845
X139.344Y-105.066
X139.344Y-106.103
X139.344Y-107.14
X139.344Y-108.177
X139.344Y-109.214
X139.344Y-110.251
X139.352Y-79.469
X139.352Y-80.506
X139.352Y-81.543
X139.352Y-82.58
X139.352Y-83.617
X139.352Y-84.654
X139.357Y-130.66
X139.357Y-131.697
X139.357Y-132.734
X139.357Y-133.771
X139.357Y-134.808
X139.357Y-135.845
X140.469Y-105.066
X140.469Y-106.103
X140.469Y-107.14
X140.469Y-108.177
X140.469Y-109.214
X140.469Y-110.251
X140.477Y-79.469
X140.477Y-80.506
X140.477Y-81.543
X140.477Y-82.58
X140.477Y-83.617
X140.477Y-84.654
X140.482Y-130.66
X140.482Y-131.697
X140.482Y-132.734
X140.482Y-133.771
X140.482Y-134.808
X140.482Y-135.845
X141.594Y-105.066
X141.594Y-106.103
X141.594Y-107.14
X141.594Y-108.177
X141.594Y-109.214
X141.594Y-110.251
X141.602Y-79.469
X141.602Y-80.506
X141.602Y-81.543
X141.602Y-82.58
X141.602Y-83.617
X141.602Y-84.654
X141.607Y-130.66
X141.607Y-131.697
X141.607Y-132.734
X141.607Y-133.771
X141.607Y-134.808
X141.607Y-135.845
X142.579Y-109.214
X142.579Y-110.251
X142.587Y-83.617
X142.587Y-84.654
X142.592Y-134.808
X142.592Y-135.845
X143.844Y-105.066
X143.852Y-79.469
X143.857Y-130.66
X144.094Y-109.214
X144.094Y-110.251
X144.102Y-83.617
X144.102Y-84.654
X144.107Y-134.808
X144.107Y-135.845
X144.969Y-105.066
X144.969Y-109.214
X144.969Y-110.251
X144.977Y-79.469
X144.977Y-83.617
X144.977Y-84.654
X144.982Y-130.66
X144.982Y-134.808
X144.982Y-135.845
T3
X79.388Y-92.435
X79.438Y-87.385
X79.438Y-89.915
X118.517Y-106.776
X118.525Y-81.179
X118.53Y-132.37
X147.492Y-107.026
X147.5Y-81.429
X147.505Y-132.62
T4
X54.084Y-65.4
X55.398Y-71.315
X55.408Y-68.047
X56.044Y-80.5
X59.719Y-66.85
X59.719Y-67.85
X59.719Y-68.85
X60.719Y-66.85
X60.719Y-67.85
X60.719Y-68.85
X61.719Y-66.85
X61.719Y-67.85
X61.719Y-68.85
X67.194Y-56.429
X74.619Y-70.204
X87.99Y-99.17
X87.99Y-100.17
X87.99Y-101.17
X88.99Y-98.92
X88.99Y-99.92
X88.99Y-100.92
X89.99Y-99.17
X89.99Y-100.17
X89.99Y-101.17
X92.05Y-76.3
X92.051Y-60.6
X92.051Y-62.1
X92.051Y-63.6
X92.051Y-65.1
X92.051Y-66.6
X92.051Y-68.1
X92.051Y-69.6
X92.051Y-70.6
X92.051Y-72.6
X92.051Y-73.41
X92.051Y-77.1
X92.051Y-78.6
X92.051Y-80.1
X92.051Y-81.6
X92.051Y-83.1
X92.051Y-84.6
X92.051Y-86.1
X92.051Y-87.6
X92.051Y-89.1
X92.051Y-90.6
X92.051Y-92.1
X92.051Y-93.6
X92.051Y-95.1
X92.051Y-96.6
X92.051Y-98.1
X92.051Y-99.6
X92.051Y-101.1
X92.051Y-102.6
X92.051Y-104.1
X92.051Y-105.6
X92.051Y-107.1
X92.051Y-108.6
X92.051Y-110.1
X92.051Y-111.6
X92.051Y-113.1
X92.051Y-114.6
X92.051Y-116.1
X92.051Y-117.6
X92.45Y-127.2
X92.45Y-128.7
X92.45Y-130.2
X92.45Y-131.7
X92.45Y-133.2
X92.45Y-134.7
X92.45Y-136.2
X93.55Y-76.3
X93.551Y-60.6
X93.551Y-62.1
X93.551Y-63.6
X93.551Y-65.1
X93.551Y-66.6
X93.551Y-68.1
X93.551Y-69.6
X93.551Y-70.6
X93.551Y-72.6
X93.551Y-73.41
X93.551Y-77.1
X93.551Y-81.6
X93.551Y-83.1
X93.551Y-84.6
X93.551Y-86.1
X93.551Y-87.6
X93.551Y-89.1
X93.551Y-90.6
X93.551Y-92.1
X93.551Y-93.6
X93.551Y-95.1
X93.551Y-96.6
X93.551Y-98.1
X93.551Y-99.6
X93.551Y-101.1
X93.551Y-105.6
X93.551Y-107.1
X93.551Y-108.6
X93.551Y-110.1
X93.551Y-111.6
X93.551Y-113.1
X93.551Y-114.6
X93.551Y-116.1
X93.551Y-117.6
X93.551Y-119.1
X93.95Y-127.2
X93.95Y-128.7
X93.95Y-130.2
X93.95Y-131.7
X93.95Y-133.2
X93.95Y-134.7
X93.95Y-136.2
X95.05Y-76.3
X95.051Y-60.6
X95.051Y-62.1
X95.051Y-63.6
X95.051Y-65.1
X95.051Y-66.6
X95.051Y-68.1
X95.051Y-69.6
X95.051Y-70.6
X95.051Y-72.6
X95.051Y-73.41
X95.051Y-77.1
X95.051Y-81.6
X95.051Y-83.1
X95.051Y-84.6
X95.051Y-86.1
X95.051Y-87.6
X95.051Y-89.1
X95.051Y-90.6
X95.051Y-92.1
X95.051Y-93.6
X95.051Y-95.1
X95.051Y-96.6
X95.051Y-98.1
X95.051Y-99.6
X95.051Y-101.1
X95.051Y-105.6
X95.051Y-107.1
X95.051Y-108.6
X95.051Y-110.1
X95.051Y-111.6
X95.051Y-113.1
X95.051Y-114.6
X95.051Y-116.1
X95.051Y-117.6
X95.051Y-119.1
X95.45Y-127.2
X95.45Y-128.7
X95.45Y-130.2
X95.45Y-131.7
X95.45Y-133.2
X95.45Y-134.7
X95.45Y-136.2
X96.55Y-76.3
X96.551Y-60.6
X96.551Y-62.1
X96.551Y-63.6
X96.551Y-65.1
X96.551Y-66.6
X96.551Y-68.1
X96.551Y-69.6
X96.551Y-70.6
X96.551Y-72.6
X96.551Y-73.41
X96.551Y-77.1
X96.551Y-78.6
X96.551Y-80.1
X96.551Y-81.6
X96.551Y-83.1
X96.551Y-84.6
X96.551Y-86.1
X96.551Y-87.6
X96.551Y-89.1
X96.551Y-90.6
X96.551Y-92.1
X96.551Y-93.6
X96.551Y-95.1
X96.551Y-96.6
X96.551Y-98.1
X96.551Y-99.6
X96.551Y-101.1
X96.551Y-102.6
X96.551Y-104.1
X96.551Y-105.6
X96.551Y-107.1
X96.551Y-108.6
X96.551Y-110.1
X96.551Y-111.6
X96.551Y-113.1
X96.551Y-114.6
X96.551Y-116.1
X96.551Y-117.6
X96.551Y-119.1
X96.95Y-127.2
X96.95Y-128.7
X96.95Y-130.2
X96.95Y-131.7
X96.95Y-133.2
X96.95Y-134.7
X96.95Y-136.2
X98.05Y-76.3
X98.051Y-60.6
X98.051Y-62.1
X98.051Y-63.6
X98.051Y-65.1
X98.051Y-66.6
X98.051Y-68.1
X98.051Y-69.6
X98.051Y-70.6
X98.051Y-72.6
X98.051Y-73.41
X98.051Y-77.1
X98.051Y-78.6
X98.051Y-80.1
X98.051Y-81.6
X98.051Y-83.1
X98.051Y-84.6
X98.051Y-86.1
X98.051Y-87.6
X98.051Y-89.1
X98.051Y-90.6
X98.051Y-92.1
X98.051Y-93.6
X98.051Y-95.1
X98.051Y-96.6
X98.051Y-98.1
X98.051Y-99.6
X98.051Y-101.1
X98.051Y-102.6
X98.051Y-104.1
X98.051Y-105.6
X98.051Y-107.1
X98.051Y-108.6
X98.051Y-110.1
X98.051Y-111.6
X98.051Y-113.1
X98.051Y-114.6
X98.051Y-116.1
X98.051Y-117.6
X98.051Y-119.1
X98.45Y-127.2
X98.45Y-128.7
X98.45Y-130.2
X98.45Y-131.7
X98.45Y-133.2
X98.45Y-134.7
X98.45Y-136.2
X99.55Y-76.3
X99.551Y-60.6
X99.551Y-62.1
X99.551Y-63.6
X99.551Y-65.1
X99.551Y-66.6
X99.551Y-68.1
X99.551Y-69.6
X99.551Y-70.6
X99.551Y-72.6
X99.551Y-73.41
X99.551Y-77.1
X99.551Y-78.6
X99.551Y-80.1
X99.551Y-81.6
X99.551Y-83.1
X99.551Y-84.6
X99.551Y-86.1
X99.551Y-87.6
X99.551Y-89.1
X99.551Y-90.6
X99.551Y-92.1
X99.551Y-93.6
X99.551Y-95.1
X99.551Y-96.6
X99.551Y-98.1
X99.551Y-99.6
X99.551Y-101.1
X99.551Y-102.6
X99.551Y-104.1
X99.551Y-105.6
X99.551Y-107.1
X99.551Y-108.6
X99.551Y-110.1
X99.551Y-111.6
X99.551Y-113.1
X99.551Y-114.6
X99.551Y-116.1
X99.551Y-117.6
X99.551Y-119.1
X99.95Y-127.2
X99.95Y-128.7
X99.95Y-130.2
X99.95Y-131.7
X99.95Y-133.2
X99.95Y-134.7
X99.95Y-136.2
X101.05Y-76.3
X101.051Y-60.6
X101.051Y-62.1
X101.051Y-63.6
X101.051Y-65.1
X101.051Y-66.6
X101.051Y-68.1
X101.051Y-69.6
X101.051Y-70.6
X101.051Y-72.6
X101.051Y-73.41
X101.051Y-77.1
X101.051Y-78.6
X101.051Y-80.1
X101.051Y-81.6
X101.051Y-83.1
X101.051Y-84.6
X101.051Y-86.1
X101.051Y-87.6
X101.051Y-89.1
X101.051Y-90.6
X101.051Y-92.1
X101.051Y-93.6
X101.051Y-95.1
X101.051Y-96.6
X101.051Y-98.1
X101.051Y-99.6
X101.051Y-101.1
X101.051Y-102.6
X101.051Y-104.1
X101.051Y-105.6
X101.051Y-107.1
X101.051Y-108.6
X101.051Y-110.1
X101.051Y-111.6
X101.051Y-113.1
X101.051Y-114.6
X101.051Y-116.1
X101.051Y-117.6
X101.051Y-119.1
X101.45Y-127.2
X101.45Y-128.7
X101.45Y-130.2
X101.45Y-131.7
X101.45Y-133.2
X101.45Y-134.7
X101.45Y-136.2
X102.18Y-87.6
X102.18Y-89.1
X102.18Y-90.6
X102.18Y-92.1
X102.18Y-93.6
X102.25Y-113.1
X102.25Y-114.6
X102.25Y-116.1
X102.25Y-117.6
X102.25Y-119.1
X103.25Y-61.1
X103.25Y-62.6
X103.25Y-64.1
X103.25Y-65.6
X103.25Y-67.1
X104.075Y-61.1
X104.075Y-62.6
X104.075Y-64.1
X104.075Y-65.6
X104.075Y-67.1
X104.076Y-86.8
X104.076Y-88.3
X104.076Y-89.8
X104.076Y-91.3
X104.076Y-92.8
X104.15Y-112.311
X104.15Y-113.811
X104.15Y-115.311
X104.15Y-116.811
X104.15Y-118.311
X104.899Y-61.1
X104.899Y-62.6
X104.899Y-64.1
X104.899Y-65.6
X104.899Y-67.1
X104.9Y-86.8
X104.9Y-88.3
X104.9Y-89.8
X104.9Y-91.3
X104.9Y-92.8
X104.974Y-112.311
X104.974Y-113.811
X104.974Y-115.311
X104.974Y-116.811
X104.974Y-118.311
X105.724Y-61.1
X105.724Y-62.6
X105.724Y-64.1
X105.724Y-65.6
X105.724Y-67.1
X105.725Y-86.8
X105.725Y-88.3
X105.725Y-89.8
X105.725Y-91.3
X105.725Y-92.8
X105.799Y-112.311
X105.799Y-113.811
X105.799Y-115.311
X105.799Y-116.811
X105.799Y-118.311
X106.549Y-61.1
X106.549Y-62.6
X106.549Y-64.1
X106.549Y-65.6
X106.549Y-67.1
X106.55Y-86.8
X106.55Y-88.3
X106.55Y-89.8
X106.55Y-91.3
X106.55Y-92.8
X106.624Y-112.311
X106.624Y-113.811
X106.624Y-115.311
X106.624Y-116.811
X106.624Y-118.311
X107.374Y-61.1
X107.374Y-62.6
X107.374Y-64.1
X107.374Y-65.6
X107.374Y-67.1
X107.375Y-86.8
X107.375Y-88.3
X107.375Y-89.8
X107.375Y-91.3
X107.375Y-92.8
X107.449Y-112.311
X107.449Y-113.811
X107.449Y-115.311
X107.449Y-116.811
X107.449Y-118.311
X108.199Y-61.1
X108.199Y-62.6
X108.199Y-64.1
X108.199Y-65.6
X108.199Y-67.1
X108.2Y-86.8
X108.2Y-88.3
X108.2Y-89.8
X108.2Y-91.3
X108.2Y-92.8
X108.274Y-112.311
X108.274Y-113.811
X108.274Y-115.311
X108.274Y-116.811
X108.274Y-118.311
X109.024Y-61.1
X109.024Y-62.6
X109.024Y-64.1
X109.024Y-65.6
X109.024Y-67.1
X109.025Y-86.8
X109.025Y-88.3
X109.025Y-89.8
X109.025Y-91.3
X109.025Y-92.8
X109.099Y-112.311
X109.099Y-113.811
X109.099Y-115.311
X109.099Y-116.811
X109.099Y-118.311
X109.849Y-61.1
X109.849Y-62.6
X109.849Y-64.1
X109.849Y-65.6
X109.849Y-67.1
X109.85Y-86.8
X109.85Y-88.3
X109.85Y-89.8
X109.85Y-91.3
X109.85Y-92.8
X109.924Y-112.311
X109.924Y-113.811
X109.924Y-115.311
X109.924Y-116.811
X109.924Y-118.311
X110.674Y-61.1
X110.674Y-62.6
X110.674Y-64.1
X110.674Y-65.6
X110.674Y-67.1
X110.675Y-86.8
X110.675Y-88.3
X110.675Y-89.8
X110.675Y-91.3
X110.675Y-92.8
X110.749Y-112.311
X110.749Y-113.811
X110.749Y-115.311
X110.749Y-116.811
X110.749Y-118.311
X123.499Y-112.311
X123.499Y-113.811
X123.499Y-115.311
X123.499Y-116.811
X123.499Y-118.311
X123.524Y-61.1
X123.524Y-62.6
X123.524Y-64.1
X123.524Y-65.6
X123.524Y-67.1
X123.525Y-86.8
X123.525Y-88.3
X123.525Y-89.8
X123.525Y-91.3
X123.525Y-92.8
X125.025Y-112.311
X125.025Y-113.811
X125.025Y-115.311
X125.025Y-116.811
X125.025Y-118.311
X125.05Y-61.1
X125.05Y-62.6
X125.05Y-64.1
X125.05Y-65.6
X125.05Y-67.1
X125.051Y-86.8
X125.051Y-88.3
X125.051Y-89.8
X125.051Y-91.3
X125.051Y-92.8
X126.55Y-115.3
X126.551Y-61.1
X126.551Y-62.6
X126.551Y-64.1
X126.551Y-86.8
X126.551Y-88.3
X126.551Y-89.8
X126.551Y-112.3
X126.551Y-113.8
X128.05Y-115.3
X128.051Y-61.1
X128.051Y-62.6
X128.051Y-64.1
X128.051Y-86.8
X128.051Y-88.3
X128.051Y-89.8
X128.051Y-112.3
X128.051Y-113.8
X129.551Y-61.1
X129.551Y-62.6
X129.551Y-64.1
X129.551Y-65.6
X129.551Y-67.1
X129.551Y-86.8
X129.551Y-88.3
X129.551Y-89.8
X129.551Y-91.3
X129.551Y-92.8
X129.551Y-112.3
X129.551Y-113.8
X129.551Y-115.3
X129.551Y-116.8
X129.551Y-118.3
X131.051Y-61.1
X131.051Y-62.6
X131.051Y-64.1
X131.051Y-65.6
X131.051Y-67.1
X131.051Y-86.8
X131.051Y-88.3
X131.051Y-89.8
X131.051Y-91.3
X131.051Y-92.8
X131.051Y-112.3
X131.051Y-113.8
X131.051Y-115.3
X131.051Y-116.8
X131.051Y-118.3
X132.551Y-61.1
X132.551Y-62.6
X132.551Y-64.1
X132.551Y-65.6
X132.551Y-67.1
X132.551Y-86.8
X132.551Y-88.3
X132.551Y-89.8
X132.551Y-91.3
X132.551Y-92.8
X132.551Y-112.3
X132.551Y-113.8
X132.551Y-115.3
X132.551Y-116.8
X132.551Y-118.3
X134.051Y-61.1
X134.051Y-62.6
X134.051Y-64.1
X134.051Y-65.6
X134.051Y-67.1
X134.051Y-86.8
X134.051Y-88.3
X134.051Y-89.8
X134.051Y-91.3
X134.051Y-92.8
X134.051Y-112.3
X134.051Y-113.8
X134.051Y-115.3
X134.051Y-116.8
X134.051Y-118.3
X135.25Y-112.3
X135.25Y-113.8
X135.502Y-86.8
X135.502Y-88.3
X135.508Y-61.1
X135.508Y-62.6
X135.508Y-64.1
X136.75Y-112.3
X136.75Y-113.8
X136.75Y-115.3
X137.002Y-86.8
X137.002Y-88.3
X137.002Y-89.8
X137.008Y-61.1
X137.008Y-62.6
X137.008Y-64.1
X138.25Y-115.3
X138.502Y-89.8
X138.508Y-64.1
X138.508Y-65.6
X140.492Y-94.951
X140.492Y-96.076
X140.492Y-97.201
X140.492Y-98.326
X140.492Y-99.451
X140.492Y-100.576
X140.492Y-101.701
X140.492Y-102.826
X140.5Y-69.354
X140.5Y-70.479
X140.5Y-71.604
X140.5Y-72.729
X140.5Y-73.854
X140.5Y-74.979
X140.5Y-76.104
X140.5Y-77.229
X140.505Y-120.545
X140.505Y-121.67
X140.505Y-122.795
X140.505Y-123.92
X140.505Y-125.045
X140.505Y-126.17
X140.505Y-127.295
X140.505Y-128.42
X141.617Y-93.826
X141.617Y-94.951
X141.617Y-96.076
X141.617Y-97.201
X141.617Y-98.326
X141.617Y-99.451
X141.617Y-100.576
X141.617Y-101.701
X141.617Y-102.826
X141.625Y-68.229
X141.625Y-69.354
X141.625Y-70.479
X141.625Y-71.604
X141.625Y-72.729
X141.625Y-73.854
X141.625Y-74.979
X141.625Y-76.104
X141.625Y-77.229
X141.63Y-119.42
X141.63Y-120.545
X141.63Y-121.67
X141.63Y-122.795
X141.63Y-123.92
X141.63Y-125.045
X141.63Y-126.17
X141.63Y-127.295
X141.63Y-128.42
X142.742Y-93.826
X142.742Y-94.951
X142.742Y-96.076
X142.742Y-97.201
X142.742Y-98.326
X142.742Y-99.451
X142.742Y-100.576
X142.742Y-101.701
X142.742Y-102.826
X142.75Y-68.229
X142.75Y-69.354
X142.75Y-70.479
X142.75Y-71.604
X142.75Y-72.729
X142.75Y-73.854
X142.75Y-74.979
X142.75Y-76.104
X142.75Y-77.229
X142.755Y-119.42
X142.755Y-120.545
X142.755Y-121.67
X142.755Y-122.795
X142.755Y-123.92
X142.755Y-125.045
X142.755Y-126.17
X142.755Y-127.295
X142.755Y-128.42
X143.867Y-87.076
X143.867Y-88.201
X143.867Y-89.326
X143.867Y-90.451
X143.867Y-91.576
X143.867Y-92.701
X143.867Y-93.826
X143.867Y-94.951
X143.867Y-96.076
X143.867Y-97.201
X143.867Y-98.326
X143.867Y-99.451
X143.867Y-100.576
X143.867Y-101.701
X143.867Y-102.826
X143.875Y-61.479
X143.875Y-62.604
X143.875Y-63.729
X143.875Y-64.854
X143.875Y-65.979
X143.875Y-67.104
X143.875Y-68.229
X143.875Y-69.354
X143.875Y-70.479
X143.875Y-71.604
X143.875Y-72.729
X143.875Y-73.854
X143.875Y-74.979
X143.875Y-76.104
X143.875Y-77.229
X143.88Y-112.67
X143.88Y-113.795
X143.88Y-114.92
X143.88Y-116.045
X143.88Y-117.17
X143.88Y-118.295
X143.88Y-119.42
X143.88Y-120.545
X143.88Y-121.67
X143.88Y-122.795
X143.88Y-123.92
X143.88Y-125.045
X143.88Y-126.17
X143.88Y-127.295
X143.88Y-128.42
X144.992Y-87.076
X144.992Y-88.201
X144.992Y-89.326
X144.992Y-90.451
X144.992Y-91.576
X144.992Y-92.701
X144.992Y-93.826
X144.992Y-94.951
X144.992Y-96.076
X144.992Y-97.201
X144.992Y-98.326
X144.992Y-99.451
X144.992Y-100.576
X144.992Y-101.701
X144.992Y-102.826
X145.0Y-61.479
X145.0Y-62.604
X145.0Y-63.729
X145.0Y-64.854
X145.0Y-65.979
X145.0Y-67.104
X145.0Y-68.229
X145.0Y-69.354
X145.0Y-70.479
X145.0Y-71.604
X145.0Y-72.729
X145.0Y-73.854
X145.0Y-74.979
X145.0Y-76.104
X145.0Y-77.229
X145.005Y-112.67
X145.005Y-113.795
X145.005Y-114.92
X145.005Y-116.045
X145.005Y-117.17
X145.005Y-118.295
X145.005Y-119.42
X145.005Y-120.545
X145.005Y-121.67
X145.005Y-122.795
X145.005Y-123.92
X145.005Y-125.045
X145.005Y-126.17
X145.005Y-127.295
X145.005Y-128.42
X146.117Y-87.076
X146.117Y-88.201
X146.117Y-89.326
X146.117Y-90.451
X146.117Y-91.576
X146.117Y-92.701
X146.117Y-93.826
X146.117Y-94.951
X146.117Y-96.076
X146.117Y-97.201
X146.117Y-98.326
X146.117Y-99.451
X146.117Y-100.576
X146.117Y-101.701
X146.117Y-102.826
X146.125Y-61.479
X146.125Y-62.604
X146.125Y-63.729
X146.125Y-64.854
X146.125Y-65.979
X146.125Y-67.104
X146.125Y-68.229
X146.125Y-69.354
X146.125Y-70.479
X146.125Y-71.604
X146.125Y-72.729
X146.125Y-73.854
X146.125Y-74.979
X146.125Y-76.104
X146.125Y-77.229
X146.13Y-112.67
X146.13Y-113.795
X146.13Y-114.92
X146.13Y-116.045
X146.13Y-117.17
X146.13Y-118.295
X146.13Y-119.42
X146.13Y-120.545
X146.13Y-121.67
X146.13Y-122.795
X146.13Y-123.92
X146.13Y-125.045
X146.13Y-126.17
X146.13Y-127.295
X146.13Y-128.42
X147.242Y-87.076
X147.242Y-88.201
X147.242Y-89.326
X147.242Y-90.451
X147.242Y-91.576
X147.242Y-92.701
X147.242Y-93.826
X147.242Y-94.951
X147.242Y-96.076
X147.242Y-97.201
X147.242Y-98.326
X147.242Y-99.451
X147.242Y-100.576
X147.242Y-101.701
X147.242Y-102.826
X147.25Y-61.479
X147.25Y-62.604
X147.25Y-63.729
X147.25Y-64.854
X147.25Y-65.979
X147.25Y-67.104
X147.25Y-68.229
X147.25Y-69.354
X147.25Y-70.479
X147.25Y-71.604
X147.25Y-72.729
X147.25Y-73.854
X147.25Y-74.979
X147.25Y-76.104
X147.25Y-77.229
X147.255Y-112.67
X147.255Y-113.795
X147.255Y-114.92
X147.255Y-116.045
X147.255Y-117.17
X147.255Y-118.295
X147.255Y-119.42
X147.255Y-120.545
X147.255Y-121.67
X147.255Y-122.795
X147.255Y-123.92
X147.255Y-125.045
X147.255Y-126.17
X147.255Y-127.295
X147.255Y-128.42
X148.367Y-87.076
X148.367Y-88.201
X148.367Y-89.326
X148.367Y-90.451
X148.367Y-91.576
X148.367Y-92.701
X148.367Y-93.826
X148.367Y-94.951
X148.367Y-96.076
X148.367Y-97.201
X148.367Y-98.326
X148.367Y-99.451
X148.367Y-100.576
X148.367Y-101.701
X148.367Y-102.826
X148.367Y-103.951
X148.367Y-105.076
X148.375Y-61.479
X148.375Y-62.604
X148.375Y-63.729
X148.375Y-64.854
X148.375Y-65.979
X148.375Y-67.104
X148.375Y-68.229
X148.375Y-69.354
X148.375Y-70.479
X148.375Y-71.604
X148.375Y-72.729
X148.375Y-73.854
X148.375Y-74.979
X148.375Y-76.104
X148.375Y-77.229
X148.375Y-78.354
X148.375Y-79.479
X148.38Y-112.67
X148.38Y-113.795
X148.38Y-114.92
X148.38Y-116.045
X148.38Y-117.17
X148.38Y-118.295
X148.38Y-119.42
X148.38Y-120.545
X148.38Y-121.67
X148.38Y-122.795
X148.38Y-123.92
X148.38Y-125.045
X148.38Y-126.17
X148.38Y-127.295
X148.38Y-128.42
X148.38Y-129.545
X148.38Y-130.67
T5
X144.1Y-56.5
X144.1Y-142.0
X144.803Y-54.803
X144.803Y-58.197
X144.803Y-140.303
X144.803Y-143.697
X146.5Y-54.1
X146.5Y-58.9
X146.5Y-139.6
X146.5Y-144.4
X148.197Y-54.803
X148.197Y-58.197
X148.197Y-140.303
X148.197Y-143.697
X148.9Y-56.5
X148.9Y-142.0
T6
X58.169Y-82.55
X62.694Y-81.875
X64.95Y-74.62
X68.19Y-143.109
X68.19Y-145.626
X68.19Y-138.02
X68.191Y-132.952
X68.199Y-120.242
X68.2Y-130.406
X68.203Y-117.706
X68.208Y-115.162
X68.21Y-102.464
X68.21Y-105.006
X68.215Y-112.624
X70.719Y-55.004
X70.719Y-56.004
X70.719Y-57.004
X71.719Y-55.004
X71.719Y-56.004
X71.719Y-57.004
X72.312Y-87.385
X72.312Y-89.915
X72.312Y-92.435
X72.719Y-55.004
X72.719Y-56.004
X72.719Y-57.004
X73.719Y-55.004
X73.719Y-56.004
X73.719Y-57.004
X74.719Y-55.004
X74.719Y-56.004
X74.719Y-57.004
X75.86Y-89.92
X76.59Y-145.626
X76.598Y-135.496
X76.62Y-99.926
X76.62Y-107.544
X76.63Y-105.006
X109.142Y-100.276
X109.142Y-106.076
X109.15Y-74.679
X109.15Y-80.479
X109.155Y-125.87
X109.155Y-131.67
X118.516Y-84.406
X118.53Y-110.0
T7
X63.134Y-110.057
X63.135Y-105.029
T8
X55.591Y-138.041
X55.591Y-145.661
X58.131Y-138.041
X58.131Y-145.661
X105.426Y-96.489
X105.434Y-70.892
X105.439Y-122.083
X115.586Y-96.489
X115.594Y-70.892
X115.599Y-122.083
T9
X64.775Y-97.386
X64.775Y-99.926
X64.775Y-102.466
X64.775Y-105.006
X64.775Y-107.546
X64.775Y-110.086
X64.775Y-112.626
X64.775Y-115.166
X64.775Y-117.706
X64.775Y-120.246
X64.775Y-122.786
X64.775Y-125.326
X64.775Y-127.866
X64.775Y-130.406
X64.775Y-132.946
X64.775Y-135.486
X64.775Y-138.026
X64.775Y-140.566
X64.775Y-143.106
X64.775Y-145.646
X79.99Y-97.386
X79.99Y-99.926
X79.99Y-102.466
X79.99Y-105.006
X79.99Y-107.546
X79.99Y-110.086
X79.99Y-112.626
X79.99Y-115.166
X79.99Y-117.706
X79.99Y-120.246
X79.99Y-122.786
X79.99Y-125.326
X79.99Y-127.866
X79.99Y-130.406
X79.99Y-132.946
X79.99Y-135.486
X79.99Y-138.026
X79.99Y-140.566
X79.99Y-143.106
X79.99Y-145.646
X87.117Y-139.609
X87.117Y-141.768
X87.117Y-143.927
X87.117Y-146.086
T10
X58.099Y-105.926
X58.099Y-108.426
X58.099Y-110.926
X58.099Y-113.426
X58.099Y-115.926
T11
X55.574Y-124.326
X55.574Y-131.326
X55.924Y-93.446
X55.924Y-95.986
X55.924Y-98.526
X55.924Y-101.066
X58.074Y-124.326
X58.074Y-131.326
X59.719Y-93.461
X59.719Y-96.001
X59.719Y-98.541
X59.719Y-101.081
T12
X86.83Y-79.32
X88.981Y-103.22
X93.981Y-103.22
X94.33Y-79.32
X127.052Y-91.771
X127.052Y-96.771
X127.059Y-66.174
X127.059Y-71.174
X127.064Y-117.366
X127.064Y-122.366
T13
X146.5Y-56.5
X146.5Y-142.0
M30
