%TF.GenerationSoftware,KiCad,Pcbnew,10.0.0*%
%TF.CreationDate,2026-06-10T22:40:30+05:30*%
%TF.ProjectId,Custom ESC,43757374-6f6d-4204-9553-432e6b696361,rev?*%
%TF.SameCoordinates,Original*%
%TF.FileFunction,Paste,Bot*%
%TF.FilePolarity,Positive*%
%FSLAX46Y46*%
G04 Gerber Fmt 4.6, Leading zero omitted, Abs format (unit mm)*
G04 Created by KiCad (PCBNEW 10.0.0) date 2026-06-10 22:40:30*
%MOMM*%
%LPD*%
G01*
G04 APERTURE LIST*
G04 Aperture macros list*
%AMRoundRect*
0 Rectangle with rounded corners*
0 $1 Rounding radius*
0 $2 $3 $4 $5 $6 $7 $8 $9 X,Y pos of 4 corners*
0 Add a 4 corners polygon primitive as box body*
4,1,4,$2,$3,$4,$5,$6,$7,$8,$9,$2,$3,0*
0 Add four circle primitives for the rounded corners*
1,1,$1+$1,$2,$3*
1,1,$1+$1,$4,$5*
1,1,$1+$1,$6,$7*
1,1,$1+$1,$8,$9*
0 Add four rect primitives between the rounded corners*
20,1,$1+$1,$2,$3,$4,$5,0*
20,1,$1+$1,$4,$5,$6,$7,0*
20,1,$1+$1,$6,$7,$8,$9,0*
20,1,$1+$1,$8,$9,$2,$3,0*%
%AMOutline4P*
0 Free polygon, 4 corners , with rotation*
0 The origin of the aperture is its center*
0 number of corners: always 4*
0 $1 to $8 corner X, Y*
0 $9 Rotation angle, in degrees counterclockwise*
0 create outline with 4 corners*
4,1,4,$1,$2,$3,$4,$5,$6,$7,$8,$1,$2,$9*%
G04 Aperture macros list end*
%ADD10RoundRect,0.237500X-0.237500X0.250000X-0.237500X-0.250000X0.237500X-0.250000X0.237500X0.250000X0*%
%ADD11RoundRect,0.250000X-0.400000X-0.625000X0.400000X-0.625000X0.400000X0.625000X-0.400000X0.625000X0*%
%ADD12RoundRect,0.250000X0.400000X0.625000X-0.400000X0.625000X-0.400000X-0.625000X0.400000X-0.625000X0*%
%ADD13RoundRect,0.237500X0.250000X0.237500X-0.250000X0.237500X-0.250000X-0.237500X0.250000X-0.237500X0*%
%ADD14Outline4P,-2.150000X-1.800000X2.150000X-0.800000X2.150000X0.800000X-2.150000X1.800000X0.000000*%
%ADD15Outline4P,-2.150000X-1.800000X2.150000X-0.800000X2.150000X0.800000X-2.150000X1.800000X180.000000*%
%ADD16RoundRect,0.237500X-0.250000X-0.237500X0.250000X-0.237500X0.250000X0.237500X-0.250000X0.237500X0*%
%ADD17RoundRect,0.237500X0.237500X-0.250000X0.237500X0.250000X-0.237500X0.250000X-0.237500X-0.250000X0*%
%ADD18Outline4P,-1.800000X-1.150000X1.800000X-0.550000X1.800000X0.550000X-1.800000X1.150000X270.000000*%
%ADD19Outline4P,-1.800000X-1.150000X1.800000X-0.550000X1.800000X0.550000X-1.800000X1.150000X90.000000*%
%ADD20RoundRect,0.250000X0.625000X-0.400000X0.625000X0.400000X-0.625000X0.400000X-0.625000X-0.400000X0*%
G04 APERTURE END LIST*
D10*
%TO.C,TH5*%
X143340000Y-131832774D03*
X143340000Y-133657774D03*
%TD*%
%TO.C,R24*%
X113925000Y-74491732D03*
X113925000Y-76316732D03*
%TD*%
D11*
%TO.C,R45*%
X145955000Y-132620274D03*
X149055000Y-132620274D03*
%TD*%
%TO.C,R1*%
X74312500Y-87385000D03*
X77412500Y-87385000D03*
%TD*%
%TO.C,R2*%
X74312500Y-89915000D03*
X77412500Y-89915000D03*
%TD*%
D12*
%TO.C,R43*%
X115955000Y-130895274D03*
X112855000Y-130895274D03*
%TD*%
D13*
%TO.C,TH4*%
X129999850Y-102474155D03*
X128174850Y-102474155D03*
%TD*%
D14*
%TO.C,D7*%
X137042350Y-92526219D03*
D15*
X143442350Y-92526219D03*
%TD*%
D13*
%TO.C,TH2*%
X130007500Y-76877168D03*
X128182500Y-76877168D03*
%TD*%
D12*
%TO.C,R15*%
X115950000Y-79704232D03*
X112850000Y-79704232D03*
%TD*%
D10*
%TO.C,R18*%
X105500000Y-74029232D03*
X105500000Y-75854232D03*
%TD*%
D16*
%TO.C,R39*%
X146579850Y-109201219D03*
X148404850Y-109201219D03*
%TD*%
D11*
%TO.C,R31*%
X145942350Y-107026219D03*
X149042350Y-107026219D03*
%TD*%
D10*
%TO.C,R52*%
X113930000Y-125682774D03*
X113930000Y-127507774D03*
%TD*%
D12*
%TO.C,R41*%
X141555000Y-112895274D03*
X138455000Y-112895274D03*
%TD*%
D17*
%TO.C,R56*%
X69518553Y-73053764D03*
X69518553Y-71228764D03*
%TD*%
D13*
%TO.C,R10*%
X82350000Y-87385000D03*
X80525000Y-87385000D03*
%TD*%
%TO.C,R11*%
X82350000Y-89915000D03*
X80525000Y-89915000D03*
%TD*%
D12*
%TO.C,R27*%
X141542350Y-87301219D03*
X138442350Y-87301219D03*
%TD*%
D13*
%TO.C,R61*%
X85528429Y-139610954D03*
X83703429Y-139610954D03*
%TD*%
D16*
%TO.C,R53*%
X146592500Y-134795274D03*
X148417500Y-134795274D03*
%TD*%
D12*
%TO.C,R13*%
X141550000Y-61704232D03*
X138450000Y-61704232D03*
%TD*%
D10*
%TO.C,R38*%
X113917350Y-100088719D03*
X113917350Y-101913719D03*
%TD*%
D12*
%TO.C,R14*%
X115950000Y-82154232D03*
X112850000Y-82154232D03*
%TD*%
D10*
%TO.C,TH3*%
X143327350Y-106238719D03*
X143327350Y-108063719D03*
%TD*%
D13*
%TO.C,R63*%
X85529508Y-146094857D03*
X83704508Y-146094857D03*
%TD*%
D10*
%TO.C,R32*%
X105492350Y-99626219D03*
X105492350Y-101451219D03*
%TD*%
D18*
%TO.C,D1*%
X109150000Y-74679232D03*
D19*
X109150000Y-80479232D03*
%TD*%
D16*
%TO.C,R25*%
X146587500Y-83604232D03*
X148412500Y-83604232D03*
%TD*%
D12*
%TO.C,R28*%
X115942350Y-107751219D03*
X112842350Y-107751219D03*
%TD*%
%TO.C,R42*%
X115955000Y-133345274D03*
X112855000Y-133345274D03*
%TD*%
D18*
%TO.C,D9*%
X109155000Y-125870274D03*
D19*
X109155000Y-131670274D03*
%TD*%
D20*
%TO.C,R55*%
X69518553Y-68728764D03*
X69518553Y-65628764D03*
%TD*%
D18*
%TO.C,D5*%
X109142350Y-100276219D03*
D19*
X109142350Y-106076219D03*
%TD*%
D13*
%TO.C,R62*%
X85528744Y-143931581D03*
X83703744Y-143931581D03*
%TD*%
%TO.C,R59*%
X59299025Y-80500264D03*
X57474025Y-80500264D03*
%TD*%
%TO.C,R12*%
X82300000Y-92435000D03*
X80475000Y-92435000D03*
%TD*%
%TO.C,R58*%
X57166053Y-65400000D03*
X55341053Y-65400000D03*
%TD*%
D17*
%TO.C,R57*%
X65492801Y-56352299D03*
X65492801Y-54527299D03*
%TD*%
D14*
%TO.C,D11*%
X137055000Y-118120274D03*
D15*
X143455000Y-118120274D03*
%TD*%
D12*
%TO.C,R29*%
X115942350Y-105301219D03*
X112842350Y-105301219D03*
%TD*%
D10*
%TO.C,R46*%
X105505000Y-125220274D03*
X105505000Y-127045274D03*
%TD*%
D11*
%TO.C,R17*%
X145950000Y-81429232D03*
X149050000Y-81429232D03*
%TD*%
D10*
%TO.C,TH1*%
X143335000Y-80641732D03*
X143335000Y-82466732D03*
%TD*%
D14*
%TO.C,D3*%
X137050000Y-66929232D03*
D15*
X143450000Y-66929232D03*
%TD*%
D13*
%TO.C,TH6*%
X130012500Y-128068210D03*
X128187500Y-128068210D03*
%TD*%
D11*
%TO.C,R3*%
X74312500Y-92435000D03*
X77412500Y-92435000D03*
%TD*%
M02*
