%TF.GenerationSoftware,KiCad,Pcbnew,10.0.0*%
%TF.CreationDate,2026-06-13T20:17:56+05:30*%
%TF.ProjectId,Custom ESC,43757374-6f6d-4204-9553-432e6b696361,rev?*%
%TF.SameCoordinates,Original*%
%TF.FileFunction,Soldermask,Bot*%
%TF.FilePolarity,Negative*%
%FSLAX46Y46*%
G04 Gerber Fmt 4.6, Leading zero omitted, Abs format (unit mm)*
G04 Created by KiCad (PCBNEW 10.0.0) date 2026-06-13 20:17:56*
%MOMM*%
%LPD*%
G01*
G04 APERTURE LIST*
%ADD10C,1.600000*%
%ADD11R,1.700000X1.700000*%
%ADD12C,1.700000*%
%ADD13C,2.400000*%
%ADD14O,1.700000X2.000000*%
%ADD15R,1.800000X1.800000*%
%ADD16C,1.800000*%
%ADD17C,0.800000*%
%ADD18C,6.400000*%
%ADD19O,1.950000X1.700000*%
%ADD20C,1.500000*%
%ADD21R,1.500000X1.000000*%
%ADD22R,1.000000X1.500000*%
%TA.AperFunction,Profile*%
%ADD23C,0.050000*%
%TD*%
G04 APERTURE END LIST*
%TO.C,JP9*%
G36*
X77089740Y-137283849D02*
G01*
X77389740Y-137283849D01*
X77389740Y-138783849D01*
X77089740Y-138783849D01*
X77089740Y-137283849D01*
G37*
%TO.C,JP26*%
G36*
X67415190Y-111873560D02*
G01*
X67715190Y-111873560D01*
X67715190Y-113373560D01*
X67415190Y-113373560D01*
X67415190Y-111873560D01*
G37*
%TO.C,JP7*%
G36*
X67389518Y-142358773D02*
G01*
X67689518Y-142358773D01*
X67689518Y-143858773D01*
X67389518Y-143858773D01*
X67389518Y-142358773D01*
G37*
%TO.C,JP6*%
G36*
X77089740Y-142351447D02*
G01*
X77389740Y-142351447D01*
X77389740Y-143851447D01*
X77089740Y-143851447D01*
X77089740Y-142351447D01*
G37*
%TO.C,JP18*%
G36*
X77109739Y-119486447D02*
G01*
X77409739Y-119486447D01*
X77409739Y-120986447D01*
X77109739Y-120986447D01*
X77109739Y-119486447D01*
G37*
%TO.C,JP17*%
G36*
X67401502Y-122042288D02*
G01*
X67701502Y-122042288D01*
X67701502Y-123542288D01*
X67401502Y-123542288D01*
X67401502Y-122042288D01*
G37*
%TO.C,JP11*%
G36*
X77097582Y-134746236D02*
G01*
X77397582Y-134746236D01*
X77397582Y-136246236D01*
X77097582Y-136246236D01*
X77097582Y-134746236D01*
G37*
%TO.C,JP2*%
G36*
X116152350Y-101626219D02*
G01*
X116452350Y-101626219D01*
X116452350Y-103126219D01*
X116152350Y-103126219D01*
X116152350Y-101626219D01*
G37*
%TO.C,JP5*%
G36*
X67389740Y-144876447D02*
G01*
X67689740Y-144876447D01*
X67689740Y-146376447D01*
X67389740Y-146376447D01*
X67389740Y-144876447D01*
G37*
%TO.C,JP25*%
G36*
X77119740Y-111875883D02*
G01*
X77419740Y-111875883D01*
X77419740Y-113375883D01*
X77119740Y-113375883D01*
X77119740Y-111875883D01*
G37*
%TO.C,JP13*%
G36*
X67399740Y-129656447D02*
G01*
X67699740Y-129656447D01*
X67699740Y-131156447D01*
X67399740Y-131156447D01*
X67399740Y-129656447D01*
G37*
%TO.C,JP20*%
G36*
X77115951Y-116948188D02*
G01*
X77415951Y-116948188D01*
X77415951Y-118448188D01*
X77115951Y-118448188D01*
X77115951Y-116948188D01*
G37*
%TO.C,JP16*%
G36*
X77105273Y-122036447D02*
G01*
X77405273Y-122036447D01*
X77405273Y-123536447D01*
X77105273Y-123536447D01*
X77105273Y-122036447D01*
G37*
%TO.C,JP30*%
G36*
X67409740Y-104256447D02*
G01*
X67709740Y-104256447D01*
X67709740Y-105756447D01*
X67409740Y-105756447D01*
X67409740Y-104256447D01*
G37*
%TO.C,JP4*%
G36*
X77089740Y-144876447D02*
G01*
X77389740Y-144876447D01*
X77389740Y-146376447D01*
X77089740Y-146376447D01*
X77089740Y-144876447D01*
G37*
%TO.C,JP33*%
G36*
X67409740Y-99176447D02*
G01*
X67709740Y-99176447D01*
X67709740Y-100676447D01*
X67409740Y-100676447D01*
X67409740Y-99176447D01*
G37*
%TO.C,JP21*%
G36*
X67402519Y-116956447D02*
G01*
X67702519Y-116956447D01*
X67702519Y-118456447D01*
X67402519Y-118456447D01*
X67402519Y-116956447D01*
G37*
%TO.C,JP1*%
G36*
X116160000Y-76029232D02*
G01*
X116460000Y-76029232D01*
X116460000Y-77529232D01*
X116160000Y-77529232D01*
X116160000Y-76029232D01*
G37*
%TO.C,JP31*%
G36*
X67409740Y-101714023D02*
G01*
X67709740Y-101714023D01*
X67709740Y-103214023D01*
X67409740Y-103214023D01*
X67409740Y-101714023D01*
G37*
%TO.C,JP29*%
G36*
X77129740Y-104256447D02*
G01*
X77429740Y-104256447D01*
X77429740Y-105756447D01*
X77129740Y-105756447D01*
X77129740Y-104256447D01*
G37*
%TO.C,JP3*%
G36*
X116165000Y-127220274D02*
G01*
X116465000Y-127220274D01*
X116465000Y-128720274D01*
X116165000Y-128720274D01*
X116165000Y-127220274D01*
G37*
%TO.C,JP15*%
G36*
X67408163Y-124578888D02*
G01*
X67708163Y-124578888D01*
X67708163Y-126078888D01*
X67408163Y-126078888D01*
X67408163Y-124578888D01*
G37*
%TO.C,JP34*%
G36*
X55099264Y-112676170D02*
G01*
X56599264Y-112676170D01*
X56599264Y-114176170D01*
X55099264Y-114176170D01*
X55099264Y-112676170D01*
G37*
%TO.C,JP10*%
G36*
X67390042Y-137269718D02*
G01*
X67690042Y-137269718D01*
X67690042Y-138769718D01*
X67390042Y-138769718D01*
X67390042Y-137269718D01*
G37*
%TO.C,JP8*%
G36*
X77089702Y-139811433D02*
G01*
X77389702Y-139811433D01*
X77389702Y-141311433D01*
X77089702Y-141311433D01*
X77089702Y-139811433D01*
G37*
%TO.C,JP24*%
G36*
X86366650Y-136436170D02*
G01*
X87866650Y-136436170D01*
X87866650Y-137936170D01*
X86366650Y-137936170D01*
X86366650Y-136436170D01*
G37*
%TO.C,JP22*%
G36*
X77119740Y-114416447D02*
G01*
X77419740Y-114416447D01*
X77419740Y-115916447D01*
X77119740Y-115916447D01*
X77119740Y-114416447D01*
G37*
%TO.C,JP23*%
G36*
X67408375Y-114412317D02*
G01*
X67708375Y-114412317D01*
X67708375Y-115912317D01*
X67408375Y-115912317D01*
X67408375Y-114412317D01*
G37*
%TO.C,JP28*%
G36*
X77119740Y-106794156D02*
G01*
X77419740Y-106794156D01*
X77419740Y-108294156D01*
X77119740Y-108294156D01*
X77119740Y-106794156D01*
G37*
%TO.C,JP27*%
G36*
X77119740Y-109336601D02*
G01*
X77419740Y-109336601D01*
X77419740Y-110836601D01*
X77119740Y-110836601D01*
X77119740Y-109336601D01*
G37*
%TO.C,JP32*%
G36*
X77119740Y-99176447D02*
G01*
X77419740Y-99176447D01*
X77419740Y-100676447D01*
X77119740Y-100676447D01*
X77119740Y-99176447D01*
G37*
%TO.C,JP12*%
G36*
X67391348Y-132201533D02*
G01*
X67691348Y-132201533D01*
X67691348Y-133701533D01*
X67391348Y-133701533D01*
X67391348Y-132201533D01*
G37*
%TO.C,JP19*%
G36*
X67398792Y-119492431D02*
G01*
X67698792Y-119492431D01*
X67698792Y-120992431D01*
X67398792Y-120992431D01*
X67398792Y-119492431D01*
G37*
%TO.C,JP14*%
G36*
X67409740Y-127116447D02*
G01*
X67709740Y-127116447D01*
X67709740Y-128616447D01*
X67409740Y-128616447D01*
X67409740Y-127116447D01*
G37*
%TD*%
%TO.C,TH3*%
G36*
G01*
X143089850Y-105751219D02*
X143564850Y-105751219D01*
G75*
G02*
X143802350Y-105988719I0J-237500D01*
G01*
X143802350Y-106488719D01*
G75*
G02*
X143564850Y-106726219I-237500J0D01*
G01*
X143089850Y-106726219D01*
G75*
G02*
X142852350Y-106488719I0J237500D01*
G01*
X142852350Y-105988719D01*
G75*
G02*
X143089850Y-105751219I237500J0D01*
G01*
G37*
G36*
G01*
X143089850Y-107576219D02*
X143564850Y-107576219D01*
G75*
G02*
X143802350Y-107813719I0J-237500D01*
G01*
X143802350Y-108313719D01*
G75*
G02*
X143564850Y-108551219I-237500J0D01*
G01*
X143089850Y-108551219D01*
G75*
G02*
X142852350Y-108313719I0J237500D01*
G01*
X142852350Y-107813719D01*
G75*
G02*
X143089850Y-107576219I237500J0D01*
G01*
G37*
%TD*%
D10*
%TO.C,R16*%
X105433682Y-70891799D03*
X115593682Y-70891799D03*
%TD*%
D11*
%TO.C,MCU1*%
X79989740Y-145646447D03*
D12*
X79989740Y-143106447D03*
X79989740Y-140566447D03*
X79989740Y-138026447D03*
X79989740Y-135486447D03*
X79989740Y-132946447D03*
X79989740Y-130406447D03*
X79989740Y-127866447D03*
X79989740Y-125326447D03*
X79989740Y-122786447D03*
X79989740Y-120246447D03*
X79989740Y-117706447D03*
X79989740Y-115166447D03*
X79989740Y-112626447D03*
X79989740Y-110086447D03*
X79989740Y-107546447D03*
X79989740Y-105006447D03*
X79989740Y-102466447D03*
X79989740Y-99926447D03*
X79989740Y-97386447D03*
X64775140Y-97386447D03*
X64775140Y-99926447D03*
X64775140Y-102466447D03*
X64775140Y-105006447D03*
X64775140Y-107546447D03*
X64775140Y-110086447D03*
X64775140Y-112626447D03*
X64775140Y-115166447D03*
X64775140Y-117706447D03*
X64775140Y-120246447D03*
X64775140Y-122786447D03*
X64775140Y-125326447D03*
X64775140Y-127866447D03*
X64775140Y-130406447D03*
X64775140Y-132946447D03*
X64775140Y-135486447D03*
X64775140Y-138026447D03*
X64775140Y-140566447D03*
X64775140Y-143106447D03*
D11*
X64775140Y-145646447D03*
%TD*%
%TO.C,C2*%
G36*
G01*
X95530000Y-78370001D02*
X95530000Y-80269999D01*
G75*
G02*
X95279999Y-80520000I-250001J0D01*
G01*
X93380001Y-80520000D01*
G75*
G02*
X93130000Y-80269999I0J250001D01*
G01*
X93130000Y-78370001D01*
G75*
G02*
X93380001Y-78120000I250001J0D01*
G01*
X95279999Y-78120000D01*
G75*
G02*
X95530000Y-78370001I0J-250001D01*
G01*
G37*
D13*
X86830000Y-79320000D03*
%TD*%
%TO.C,C3*%
G36*
G01*
X95180835Y-102270001D02*
X95180835Y-104169999D01*
G75*
G02*
X94930834Y-104420000I-250001J0D01*
G01*
X93030836Y-104420000D01*
G75*
G02*
X92780835Y-104169999I0J250001D01*
G01*
X92780835Y-102270001D01*
G75*
G02*
X93030836Y-102020000I250001J0D01*
G01*
X94930834Y-102020000D01*
G75*
G02*
X95180835Y-102270001I0J-250001D01*
G01*
G37*
X88980835Y-103220000D03*
%TD*%
D10*
%TO.C,R44*%
X105438682Y-122082841D03*
X115598682Y-122082841D03*
%TD*%
%TO.C,J2*%
G36*
G01*
X54723553Y-125076170D02*
X54723553Y-123576170D01*
G75*
G02*
X54973553Y-123326170I250000J0D01*
G01*
X56173553Y-123326170D01*
G75*
G02*
X56423553Y-123576170I0J-250000D01*
G01*
X56423553Y-125076170D01*
G75*
G02*
X56173553Y-125326170I-250000J0D01*
G01*
X54973553Y-125326170D01*
G75*
G02*
X54723553Y-125076170I0J250000D01*
G01*
G37*
D14*
X58073553Y-124326170D03*
%TD*%
D15*
%TO.C,D18*%
X87116650Y-139608808D03*
D16*
X87116650Y-141767808D03*
X87116650Y-143926808D03*
X87116650Y-146085808D03*
%TD*%
D17*
%TO.C,REF\u002A\u002A*%
X144100000Y-56500000D03*
X144802944Y-54802944D03*
X144802944Y-58197056D03*
X146500000Y-54100000D03*
D18*
X146500000Y-56500000D03*
D17*
X146500000Y-58900000D03*
X148197056Y-54802944D03*
X148197056Y-58197056D03*
X148900000Y-56500000D03*
%TD*%
D10*
%TO.C,R30*%
X115586032Y-96488786D03*
X105426032Y-96488786D03*
%TD*%
%TO.C,J4*%
G36*
G01*
X54723553Y-132076170D02*
X54723553Y-130576170D01*
G75*
G02*
X54973553Y-130326170I250000J0D01*
G01*
X56173553Y-130326170D01*
G75*
G02*
X56423553Y-130576170I0J-250000D01*
G01*
X56423553Y-132076170D01*
G75*
G02*
X56173553Y-132326170I-250000J0D01*
G01*
X54973553Y-132326170D01*
G75*
G02*
X54723553Y-132076170I0J250000D01*
G01*
G37*
D14*
X58073553Y-131326170D03*
%TD*%
D11*
%TO.C,J1*%
X59718553Y-93461170D03*
D12*
X59718553Y-96001170D03*
X59718553Y-98541170D03*
X59718553Y-101081170D03*
%TD*%
%TO.C,SW1*%
G36*
G01*
X57581053Y-137241170D02*
X58681053Y-137241170D01*
G75*
G02*
X58931053Y-137491170I0J-250000D01*
G01*
X58931053Y-138591170D01*
G75*
G02*
X58681053Y-138841170I-250000J0D01*
G01*
X57581053Y-138841170D01*
G75*
G02*
X57331053Y-138591170I0J250000D01*
G01*
X57331053Y-137491170D01*
G75*
G02*
X57581053Y-137241170I250000J0D01*
G01*
G37*
D10*
X55591053Y-138041170D03*
X55591053Y-145661170D03*
X58131053Y-145661170D03*
%TD*%
D11*
%TO.C,J5*%
X55923553Y-93446170D03*
D12*
X55923553Y-95986170D03*
X55923553Y-98526170D03*
X55923553Y-101066170D03*
%TD*%
%TO.C,J3*%
G36*
G01*
X57374264Y-105076170D02*
X58824264Y-105076170D01*
G75*
G02*
X59074264Y-105326170I0J-250000D01*
G01*
X59074264Y-106526170D01*
G75*
G02*
X58824264Y-106776170I-250000J0D01*
G01*
X57374264Y-106776170D01*
G75*
G02*
X57124264Y-106526170I0J250000D01*
G01*
X57124264Y-105326170D01*
G75*
G02*
X57374264Y-105076170I250000J0D01*
G01*
G37*
D19*
X58099264Y-108426170D03*
X58099264Y-110926170D03*
X58099264Y-113426170D03*
X58099264Y-115926170D03*
%TD*%
D17*
%TO.C,REF\u002A\u002A*%
X144100000Y-142000000D03*
X144802944Y-140302944D03*
X144802944Y-143697056D03*
X146500000Y-139600000D03*
D18*
X146500000Y-142000000D03*
D17*
X146500000Y-144400000D03*
X148197056Y-140302944D03*
X148197056Y-143697056D03*
X148900000Y-142000000D03*
%TD*%
%TO.C,TH5*%
G36*
G01*
X143102500Y-131345274D02*
X143577500Y-131345274D01*
G75*
G02*
X143815000Y-131582774I0J-237500D01*
G01*
X143815000Y-132082774D01*
G75*
G02*
X143577500Y-132320274I-237500J0D01*
G01*
X143102500Y-132320274D01*
G75*
G02*
X142865000Y-132082774I0J237500D01*
G01*
X142865000Y-131582774D01*
G75*
G02*
X143102500Y-131345274I237500J0D01*
G01*
G37*
G36*
G01*
X143102500Y-133170274D02*
X143577500Y-133170274D01*
G75*
G02*
X143815000Y-133407774I0J-237500D01*
G01*
X143815000Y-133907774D01*
G75*
G02*
X143577500Y-134145274I-237500J0D01*
G01*
X143102500Y-134145274D01*
G75*
G02*
X142865000Y-133907774I0J237500D01*
G01*
X142865000Y-133407774D01*
G75*
G02*
X143102500Y-133170274I237500J0D01*
G01*
G37*
%TD*%
D20*
%TO.C,TP2*%
X77253553Y-132946447D03*
%TD*%
%TO.C,R24*%
G36*
G01*
X113687500Y-74004232D02*
X114162500Y-74004232D01*
G75*
G02*
X114400000Y-74241732I0J-237500D01*
G01*
X114400000Y-74741732D01*
G75*
G02*
X114162500Y-74979232I-237500J0D01*
G01*
X113687500Y-74979232D01*
G75*
G02*
X113450000Y-74741732I0J237500D01*
G01*
X113450000Y-74241732D01*
G75*
G02*
X113687500Y-74004232I237500J0D01*
G01*
G37*
G36*
G01*
X113687500Y-75829232D02*
X114162500Y-75829232D01*
G75*
G02*
X114400000Y-76066732I0J-237500D01*
G01*
X114400000Y-76566732D01*
G75*
G02*
X114162500Y-76804232I-237500J0D01*
G01*
X113687500Y-76804232D01*
G75*
G02*
X113450000Y-76566732I0J237500D01*
G01*
X113450000Y-76066732D01*
G75*
G02*
X113687500Y-75829232I237500J0D01*
G01*
G37*
%TD*%
%TO.C,TP5*%
X77253553Y-125326447D03*
%TD*%
%TO.C,X1*%
X89899150Y-134216170D03*
%TD*%
%TO.C,R45*%
G36*
G01*
X145305000Y-133245274D02*
X145305000Y-131995274D01*
G75*
G02*
X145555000Y-131745274I250000J0D01*
G01*
X146355000Y-131745274D01*
G75*
G02*
X146605000Y-131995274I0J-250000D01*
G01*
X146605000Y-133245274D01*
G75*
G02*
X146355000Y-133495274I-250000J0D01*
G01*
X145555000Y-133495274D01*
G75*
G02*
X145305000Y-133245274I0J250000D01*
G01*
G37*
G36*
G01*
X148405000Y-133245274D02*
X148405000Y-131995274D01*
G75*
G02*
X148655000Y-131745274I250000J0D01*
G01*
X149455000Y-131745274D01*
G75*
G02*
X149705000Y-131995274I0J-250000D01*
G01*
X149705000Y-133245274D01*
G75*
G02*
X149455000Y-133495274I-250000J0D01*
G01*
X148655000Y-133495274D01*
G75*
G02*
X148405000Y-133245274I0J250000D01*
G01*
G37*
%TD*%
%TO.C,R1*%
G36*
G01*
X73662500Y-88010000D02*
X73662500Y-86760000D01*
G75*
G02*
X73912500Y-86510000I250000J0D01*
G01*
X74712500Y-86510000D01*
G75*
G02*
X74962500Y-86760000I0J-250000D01*
G01*
X74962500Y-88010000D01*
G75*
G02*
X74712500Y-88260000I-250000J0D01*
G01*
X73912500Y-88260000D01*
G75*
G02*
X73662500Y-88010000I0J250000D01*
G01*
G37*
G36*
G01*
X76762500Y-88010000D02*
X76762500Y-86760000D01*
G75*
G02*
X77012500Y-86510000I250000J0D01*
G01*
X77812500Y-86510000D01*
G75*
G02*
X78062500Y-86760000I0J-250000D01*
G01*
X78062500Y-88010000D01*
G75*
G02*
X77812500Y-88260000I-250000J0D01*
G01*
X77012500Y-88260000D01*
G75*
G02*
X76762500Y-88010000I0J250000D01*
G01*
G37*
%TD*%
%TO.C,R2*%
G36*
G01*
X73662500Y-90540000D02*
X73662500Y-89290000D01*
G75*
G02*
X73912500Y-89040000I250000J0D01*
G01*
X74712500Y-89040000D01*
G75*
G02*
X74962500Y-89290000I0J-250000D01*
G01*
X74962500Y-90540000D01*
G75*
G02*
X74712500Y-90790000I-250000J0D01*
G01*
X73912500Y-90790000D01*
G75*
G02*
X73662500Y-90540000I0J250000D01*
G01*
G37*
G36*
G01*
X76762500Y-90540000D02*
X76762500Y-89290000D01*
G75*
G02*
X77012500Y-89040000I250000J0D01*
G01*
X77812500Y-89040000D01*
G75*
G02*
X78062500Y-89290000I0J-250000D01*
G01*
X78062500Y-90540000D01*
G75*
G02*
X77812500Y-90790000I-250000J0D01*
G01*
X77012500Y-90790000D01*
G75*
G02*
X76762500Y-90540000I0J250000D01*
G01*
G37*
%TD*%
%TO.C,R43*%
G36*
G01*
X116605000Y-130270274D02*
X116605000Y-131520274D01*
G75*
G02*
X116355000Y-131770274I-250000J0D01*
G01*
X115555000Y-131770274D01*
G75*
G02*
X115305000Y-131520274I0J250000D01*
G01*
X115305000Y-130270274D01*
G75*
G02*
X115555000Y-130020274I250000J0D01*
G01*
X116355000Y-130020274D01*
G75*
G02*
X116605000Y-130270274I0J-250000D01*
G01*
G37*
G36*
G01*
X113505000Y-130270274D02*
X113505000Y-131520274D01*
G75*
G02*
X113255000Y-131770274I-250000J0D01*
G01*
X112455000Y-131770274D01*
G75*
G02*
X112205000Y-131520274I0J250000D01*
G01*
X112205000Y-130270274D01*
G75*
G02*
X112455000Y-130020274I250000J0D01*
G01*
X113255000Y-130020274D01*
G75*
G02*
X113505000Y-130270274I0J-250000D01*
G01*
G37*
%TD*%
%TO.C,TH4*%
G36*
G01*
X128662350Y-102236655D02*
X128662350Y-102711655D01*
G75*
G02*
X128424850Y-102949155I-237500J0D01*
G01*
X127924850Y-102949155D01*
G75*
G02*
X127687350Y-102711655I0J237500D01*
G01*
X127687350Y-102236655D01*
G75*
G02*
X127924850Y-101999155I237500J0D01*
G01*
X128424850Y-101999155D01*
G75*
G02*
X128662350Y-102236655I0J-237500D01*
G01*
G37*
G36*
G01*
X130487350Y-102236655D02*
X130487350Y-102711655D01*
G75*
G02*
X130249850Y-102949155I-237500J0D01*
G01*
X129749850Y-102949155D01*
G75*
G02*
X129512350Y-102711655I0J237500D01*
G01*
X129512350Y-102236655D01*
G75*
G02*
X129749850Y-101999155I237500J0D01*
G01*
X130249850Y-101999155D01*
G75*
G02*
X130487350Y-102236655I0J-237500D01*
G01*
G37*
%TD*%
%TO.C,TP7*%
X67561623Y-107556164D03*
%TD*%
%TO.C,JP9*%
G36*
X77089740Y-138783849D02*
G01*
X76589740Y-138783849D01*
X76589740Y-138779571D01*
X76524477Y-138779571D01*
X76398398Y-138745789D01*
X76285359Y-138680526D01*
X76193063Y-138588230D01*
X76127800Y-138475191D01*
X76094018Y-138349112D01*
X76094018Y-138283849D01*
X76089740Y-138283849D01*
X76089740Y-137783849D01*
X76094018Y-137783849D01*
X76094018Y-137718586D01*
X76127800Y-137592507D01*
X76193063Y-137479468D01*
X76285359Y-137387172D01*
X76398398Y-137321909D01*
X76524477Y-137288127D01*
X76589740Y-137288127D01*
X76589740Y-137283849D01*
X77089740Y-137283849D01*
X77089740Y-138783849D01*
G37*
G36*
X77889740Y-137288127D02*
G01*
X77955003Y-137288127D01*
X78081082Y-137321909D01*
X78194121Y-137387172D01*
X78286417Y-137479468D01*
X78351680Y-137592507D01*
X78385462Y-137718586D01*
X78385462Y-137783849D01*
X78389740Y-137783849D01*
X78389740Y-138283849D01*
X78385462Y-138283849D01*
X78385462Y-138349112D01*
X78351680Y-138475191D01*
X78286417Y-138588230D01*
X78194121Y-138680526D01*
X78081082Y-138745789D01*
X77955003Y-138779571D01*
X77889740Y-138779571D01*
X77889740Y-138783849D01*
X77389740Y-138783849D01*
X77389740Y-137283849D01*
X77889740Y-137283849D01*
X77889740Y-137288127D01*
G37*
%TD*%
%TO.C,D7*%
G36*
X145592350Y-90726219D02*
G01*
X141292350Y-91726219D01*
X141292350Y-93326219D01*
X145592350Y-94326219D01*
X145592350Y-90726219D01*
G37*
G36*
X134892350Y-94326219D02*
G01*
X139192350Y-93326219D01*
X139192350Y-91726219D01*
X134892350Y-90726219D01*
X134892350Y-94326219D01*
G37*
%TD*%
%TO.C,JP26*%
G36*
X67715190Y-111873560D02*
G01*
X68215190Y-111873560D01*
X68215190Y-111877838D01*
X68280453Y-111877838D01*
X68406532Y-111911620D01*
X68519571Y-111976883D01*
X68611867Y-112069179D01*
X68677130Y-112182218D01*
X68710912Y-112308297D01*
X68710912Y-112373560D01*
X68715190Y-112373560D01*
X68715190Y-112873560D01*
X68710912Y-112873560D01*
X68710912Y-112938823D01*
X68677130Y-113064902D01*
X68611867Y-113177941D01*
X68519571Y-113270237D01*
X68406532Y-113335500D01*
X68280453Y-113369282D01*
X68215190Y-113369282D01*
X68215190Y-113373560D01*
X67715190Y-113373560D01*
X67715190Y-111873560D01*
G37*
G36*
X66915190Y-113369282D02*
G01*
X66849927Y-113369282D01*
X66723848Y-113335500D01*
X66610809Y-113270237D01*
X66518513Y-113177941D01*
X66453250Y-113064902D01*
X66419468Y-112938823D01*
X66419468Y-112873560D01*
X66415190Y-112873560D01*
X66415190Y-112373560D01*
X66419468Y-112373560D01*
X66419468Y-112308297D01*
X66453250Y-112182218D01*
X66518513Y-112069179D01*
X66610809Y-111976883D01*
X66723848Y-111911620D01*
X66849927Y-111877838D01*
X66915190Y-111877838D01*
X66915190Y-111873560D01*
X67415190Y-111873560D01*
X67415190Y-113373560D01*
X66915190Y-113373560D01*
X66915190Y-113369282D01*
G37*
%TD*%
%TO.C,JP7*%
G36*
X67689518Y-142358773D02*
G01*
X68189518Y-142358773D01*
X68189518Y-142363051D01*
X68254781Y-142363051D01*
X68380860Y-142396833D01*
X68493899Y-142462096D01*
X68586195Y-142554392D01*
X68651458Y-142667431D01*
X68685240Y-142793510D01*
X68685240Y-142858773D01*
X68689518Y-142858773D01*
X68689518Y-143358773D01*
X68685240Y-143358773D01*
X68685240Y-143424036D01*
X68651458Y-143550115D01*
X68586195Y-143663154D01*
X68493899Y-143755450D01*
X68380860Y-143820713D01*
X68254781Y-143854495D01*
X68189518Y-143854495D01*
X68189518Y-143858773D01*
X67689518Y-143858773D01*
X67689518Y-142358773D01*
G37*
G36*
X66889518Y-143854495D02*
G01*
X66824255Y-143854495D01*
X66698176Y-143820713D01*
X66585137Y-143755450D01*
X66492841Y-143663154D01*
X66427578Y-143550115D01*
X66393796Y-143424036D01*
X66393796Y-143358773D01*
X66389518Y-143358773D01*
X66389518Y-142858773D01*
X66393796Y-142858773D01*
X66393796Y-142793510D01*
X66427578Y-142667431D01*
X66492841Y-142554392D01*
X66585137Y-142462096D01*
X66698176Y-142396833D01*
X66824255Y-142363051D01*
X66889518Y-142363051D01*
X66889518Y-142358773D01*
X67389518Y-142358773D01*
X67389518Y-143858773D01*
X66889518Y-143858773D01*
X66889518Y-143854495D01*
G37*
%TD*%
%TO.C,TH2*%
G36*
G01*
X130495000Y-76639668D02*
X130495000Y-77114668D01*
G75*
G02*
X130257500Y-77352168I-237500J0D01*
G01*
X129757500Y-77352168D01*
G75*
G02*
X129520000Y-77114668I0J237500D01*
G01*
X129520000Y-76639668D01*
G75*
G02*
X129757500Y-76402168I237500J0D01*
G01*
X130257500Y-76402168D01*
G75*
G02*
X130495000Y-76639668I0J-237500D01*
G01*
G37*
G36*
G01*
X128670000Y-76639668D02*
X128670000Y-77114668D01*
G75*
G02*
X128432500Y-77352168I-237500J0D01*
G01*
X127932500Y-77352168D01*
G75*
G02*
X127695000Y-77114668I0J237500D01*
G01*
X127695000Y-76639668D01*
G75*
G02*
X127932500Y-76402168I237500J0D01*
G01*
X128432500Y-76402168D01*
G75*
G02*
X128670000Y-76639668I0J-237500D01*
G01*
G37*
%TD*%
%TO.C,JP6*%
G36*
X77089740Y-143851447D02*
G01*
X76589740Y-143851447D01*
X76589740Y-143847169D01*
X76524477Y-143847169D01*
X76398398Y-143813387D01*
X76285359Y-143748124D01*
X76193063Y-143655828D01*
X76127800Y-143542789D01*
X76094018Y-143416710D01*
X76094018Y-143351447D01*
X76089740Y-143351447D01*
X76089740Y-142851447D01*
X76094018Y-142851447D01*
X76094018Y-142786184D01*
X76127800Y-142660105D01*
X76193063Y-142547066D01*
X76285359Y-142454770D01*
X76398398Y-142389507D01*
X76524477Y-142355725D01*
X76589740Y-142355725D01*
X76589740Y-142351447D01*
X77089740Y-142351447D01*
X77089740Y-143851447D01*
G37*
G36*
X77889740Y-142355725D02*
G01*
X77955003Y-142355725D01*
X78081082Y-142389507D01*
X78194121Y-142454770D01*
X78286417Y-142547066D01*
X78351680Y-142660105D01*
X78385462Y-142786184D01*
X78385462Y-142851447D01*
X78389740Y-142851447D01*
X78389740Y-143351447D01*
X78385462Y-143351447D01*
X78385462Y-143416710D01*
X78351680Y-143542789D01*
X78286417Y-143655828D01*
X78194121Y-143748124D01*
X78081082Y-143813387D01*
X77955003Y-143847169D01*
X77889740Y-143847169D01*
X77889740Y-143851447D01*
X77389740Y-143851447D01*
X77389740Y-142351447D01*
X77889740Y-142351447D01*
X77889740Y-142355725D01*
G37*
%TD*%
%TO.C,R15*%
G36*
G01*
X116600000Y-79079232D02*
X116600000Y-80329232D01*
G75*
G02*
X116350000Y-80579232I-250000J0D01*
G01*
X115550000Y-80579232D01*
G75*
G02*
X115300000Y-80329232I0J250000D01*
G01*
X115300000Y-79079232D01*
G75*
G02*
X115550000Y-78829232I250000J0D01*
G01*
X116350000Y-78829232D01*
G75*
G02*
X116600000Y-79079232I0J-250000D01*
G01*
G37*
G36*
G01*
X113500000Y-79079232D02*
X113500000Y-80329232D01*
G75*
G02*
X113250000Y-80579232I-250000J0D01*
G01*
X112450000Y-80579232D01*
G75*
G02*
X112200000Y-80329232I0J250000D01*
G01*
X112200000Y-79079232D01*
G75*
G02*
X112450000Y-78829232I250000J0D01*
G01*
X113250000Y-78829232D01*
G75*
G02*
X113500000Y-79079232I0J-250000D01*
G01*
G37*
%TD*%
%TO.C,JP18*%
G36*
X77109739Y-120986447D02*
G01*
X76609739Y-120986447D01*
X76609739Y-120982169D01*
X76544476Y-120982169D01*
X76418397Y-120948387D01*
X76305358Y-120883124D01*
X76213062Y-120790828D01*
X76147799Y-120677789D01*
X76114017Y-120551710D01*
X76114017Y-120486447D01*
X76109739Y-120486447D01*
X76109739Y-119986447D01*
X76114017Y-119986447D01*
X76114017Y-119921184D01*
X76147799Y-119795105D01*
X76213062Y-119682066D01*
X76305358Y-119589770D01*
X76418397Y-119524507D01*
X76544476Y-119490725D01*
X76609739Y-119490725D01*
X76609739Y-119486447D01*
X77109739Y-119486447D01*
X77109739Y-120986447D01*
G37*
G36*
X77909739Y-119490725D02*
G01*
X77975002Y-119490725D01*
X78101081Y-119524507D01*
X78214120Y-119589770D01*
X78306416Y-119682066D01*
X78371679Y-119795105D01*
X78405461Y-119921184D01*
X78405461Y-119986447D01*
X78409739Y-119986447D01*
X78409739Y-120486447D01*
X78405461Y-120486447D01*
X78405461Y-120551710D01*
X78371679Y-120677789D01*
X78306416Y-120790828D01*
X78214120Y-120883124D01*
X78101081Y-120948387D01*
X77975002Y-120982169D01*
X77909739Y-120982169D01*
X77909739Y-120986447D01*
X77409739Y-120986447D01*
X77409739Y-119486447D01*
X77909739Y-119486447D01*
X77909739Y-119490725D01*
G37*
%TD*%
%TO.C,R18*%
G36*
G01*
X105262500Y-73541732D02*
X105737500Y-73541732D01*
G75*
G02*
X105975000Y-73779232I0J-237500D01*
G01*
X105975000Y-74279232D01*
G75*
G02*
X105737500Y-74516732I-237500J0D01*
G01*
X105262500Y-74516732D01*
G75*
G02*
X105025000Y-74279232I0J237500D01*
G01*
X105025000Y-73779232D01*
G75*
G02*
X105262500Y-73541732I237500J0D01*
G01*
G37*
G36*
G01*
X105262500Y-75366732D02*
X105737500Y-75366732D01*
G75*
G02*
X105975000Y-75604232I0J-237500D01*
G01*
X105975000Y-76104232D01*
G75*
G02*
X105737500Y-76341732I-237500J0D01*
G01*
X105262500Y-76341732D01*
G75*
G02*
X105025000Y-76104232I0J237500D01*
G01*
X105025000Y-75604232D01*
G75*
G02*
X105262500Y-75366732I237500J0D01*
G01*
G37*
%TD*%
%TO.C,R39*%
G36*
G01*
X147917350Y-109438719D02*
X147917350Y-108963719D01*
G75*
G02*
X148154850Y-108726219I237500J0D01*
G01*
X148654850Y-108726219D01*
G75*
G02*
X148892350Y-108963719I0J-237500D01*
G01*
X148892350Y-109438719D01*
G75*
G02*
X148654850Y-109676219I-237500J0D01*
G01*
X148154850Y-109676219D01*
G75*
G02*
X147917350Y-109438719I0J237500D01*
G01*
G37*
G36*
G01*
X146092350Y-109438719D02*
X146092350Y-108963719D01*
G75*
G02*
X146329850Y-108726219I237500J0D01*
G01*
X146829850Y-108726219D01*
G75*
G02*
X147067350Y-108963719I0J-237500D01*
G01*
X147067350Y-109438719D01*
G75*
G02*
X146829850Y-109676219I-237500J0D01*
G01*
X146329850Y-109676219D01*
G75*
G02*
X146092350Y-109438719I0J237500D01*
G01*
G37*
%TD*%
%TO.C,JP17*%
G36*
X67701502Y-122042288D02*
G01*
X68201502Y-122042288D01*
X68201502Y-122046566D01*
X68266765Y-122046566D01*
X68392844Y-122080348D01*
X68505883Y-122145611D01*
X68598179Y-122237907D01*
X68663442Y-122350946D01*
X68697224Y-122477025D01*
X68697224Y-122542288D01*
X68701502Y-122542288D01*
X68701502Y-123042288D01*
X68697224Y-123042288D01*
X68697224Y-123107551D01*
X68663442Y-123233630D01*
X68598179Y-123346669D01*
X68505883Y-123438965D01*
X68392844Y-123504228D01*
X68266765Y-123538010D01*
X68201502Y-123538010D01*
X68201502Y-123542288D01*
X67701502Y-123542288D01*
X67701502Y-122042288D01*
G37*
G36*
X66901502Y-123538010D02*
G01*
X66836239Y-123538010D01*
X66710160Y-123504228D01*
X66597121Y-123438965D01*
X66504825Y-123346669D01*
X66439562Y-123233630D01*
X66405780Y-123107551D01*
X66405780Y-123042288D01*
X66401502Y-123042288D01*
X66401502Y-122542288D01*
X66405780Y-122542288D01*
X66405780Y-122477025D01*
X66439562Y-122350946D01*
X66504825Y-122237907D01*
X66597121Y-122145611D01*
X66710160Y-122080348D01*
X66836239Y-122046566D01*
X66901502Y-122046566D01*
X66901502Y-122042288D01*
X67401502Y-122042288D01*
X67401502Y-123542288D01*
X66901502Y-123542288D01*
X66901502Y-123538010D01*
G37*
%TD*%
%TO.C,TP8*%
X67563553Y-97386170D03*
%TD*%
%TO.C,C7*%
G36*
G01*
X126109353Y-64974486D02*
X128009351Y-64974486D01*
G75*
G02*
X128259352Y-65224487I0J-250001D01*
G01*
X128259352Y-67124485D01*
G75*
G02*
X128009351Y-67374486I-250001J0D01*
G01*
X126109353Y-67374486D01*
G75*
G02*
X125859352Y-67124485I0J250001D01*
G01*
X125859352Y-65224487D01*
G75*
G02*
X126109353Y-64974486I250001J0D01*
G01*
G37*
D13*
X127059352Y-71174486D03*
%TD*%
%TO.C,R31*%
G36*
G01*
X148392350Y-107651219D02*
X148392350Y-106401219D01*
G75*
G02*
X148642350Y-106151219I250000J0D01*
G01*
X149442350Y-106151219D01*
G75*
G02*
X149692350Y-106401219I0J-250000D01*
G01*
X149692350Y-107651219D01*
G75*
G02*
X149442350Y-107901219I-250000J0D01*
G01*
X148642350Y-107901219D01*
G75*
G02*
X148392350Y-107651219I0J250000D01*
G01*
G37*
G36*
G01*
X145292350Y-107651219D02*
X145292350Y-106401219D01*
G75*
G02*
X145542350Y-106151219I250000J0D01*
G01*
X146342350Y-106151219D01*
G75*
G02*
X146592350Y-106401219I0J-250000D01*
G01*
X146592350Y-107651219D01*
G75*
G02*
X146342350Y-107901219I-250000J0D01*
G01*
X145542350Y-107901219D01*
G75*
G02*
X145292350Y-107651219I0J250000D01*
G01*
G37*
%TD*%
%TO.C,R52*%
G36*
G01*
X113692500Y-125195274D02*
X114167500Y-125195274D01*
G75*
G02*
X114405000Y-125432774I0J-237500D01*
G01*
X114405000Y-125932774D01*
G75*
G02*
X114167500Y-126170274I-237500J0D01*
G01*
X113692500Y-126170274D01*
G75*
G02*
X113455000Y-125932774I0J237500D01*
G01*
X113455000Y-125432774D01*
G75*
G02*
X113692500Y-125195274I237500J0D01*
G01*
G37*
G36*
G01*
X113692500Y-127020274D02*
X114167500Y-127020274D01*
G75*
G02*
X114405000Y-127257774I0J-237500D01*
G01*
X114405000Y-127757774D01*
G75*
G02*
X114167500Y-127995274I-237500J0D01*
G01*
X113692500Y-127995274D01*
G75*
G02*
X113455000Y-127757774I0J237500D01*
G01*
X113455000Y-127257774D01*
G75*
G02*
X113692500Y-127020274I237500J0D01*
G01*
G37*
%TD*%
%TO.C,JP11*%
G36*
X77097582Y-136246236D02*
G01*
X76597582Y-136246236D01*
X76597582Y-136241958D01*
X76532319Y-136241958D01*
X76406240Y-136208176D01*
X76293201Y-136142913D01*
X76200905Y-136050617D01*
X76135642Y-135937578D01*
X76101860Y-135811499D01*
X76101860Y-135746236D01*
X76097582Y-135746236D01*
X76097582Y-135246236D01*
X76101860Y-135246236D01*
X76101860Y-135180973D01*
X76135642Y-135054894D01*
X76200905Y-134941855D01*
X76293201Y-134849559D01*
X76406240Y-134784296D01*
X76532319Y-134750514D01*
X76597582Y-134750514D01*
X76597582Y-134746236D01*
X77097582Y-134746236D01*
X77097582Y-136246236D01*
G37*
G36*
X77897582Y-134750514D02*
G01*
X77962845Y-134750514D01*
X78088924Y-134784296D01*
X78201963Y-134849559D01*
X78294259Y-134941855D01*
X78359522Y-135054894D01*
X78393304Y-135180973D01*
X78393304Y-135246236D01*
X78397582Y-135246236D01*
X78397582Y-135746236D01*
X78393304Y-135746236D01*
X78393304Y-135811499D01*
X78359522Y-135937578D01*
X78294259Y-136050617D01*
X78201963Y-136142913D01*
X78088924Y-136208176D01*
X77962845Y-136241958D01*
X77897582Y-136241958D01*
X77897582Y-136246236D01*
X77397582Y-136246236D01*
X77397582Y-134746236D01*
X77897582Y-134746236D01*
X77897582Y-134750514D01*
G37*
%TD*%
%TO.C,JP2*%
G36*
X115652350Y-103121941D02*
G01*
X115587087Y-103121941D01*
X115461008Y-103088159D01*
X115347969Y-103022896D01*
X115255673Y-102930600D01*
X115190410Y-102817561D01*
X115156628Y-102691482D01*
X115156628Y-102626219D01*
X115152350Y-102626219D01*
X115152350Y-102126219D01*
X115156628Y-102126219D01*
X115156628Y-102060956D01*
X115190410Y-101934877D01*
X115255673Y-101821838D01*
X115347969Y-101729542D01*
X115461008Y-101664279D01*
X115587087Y-101630497D01*
X115652350Y-101630497D01*
X115652350Y-101626219D01*
X116152350Y-101626219D01*
X116152350Y-103126219D01*
X115652350Y-103126219D01*
X115652350Y-103121941D01*
G37*
G36*
X116452350Y-101626219D02*
G01*
X116952350Y-101626219D01*
X116952350Y-101630497D01*
X117017613Y-101630497D01*
X117143692Y-101664279D01*
X117256731Y-101729542D01*
X117349027Y-101821838D01*
X117414290Y-101934877D01*
X117448072Y-102060956D01*
X117448072Y-102126219D01*
X117452350Y-102126219D01*
X117452350Y-102626219D01*
X117448072Y-102626219D01*
X117448072Y-102691482D01*
X117414290Y-102817561D01*
X117349027Y-102930600D01*
X117256731Y-103022896D01*
X117143692Y-103088159D01*
X117017613Y-103121941D01*
X116952350Y-103121941D01*
X116952350Y-103126219D01*
X116452350Y-103126219D01*
X116452350Y-101626219D01*
G37*
%TD*%
%TO.C,JP5*%
G36*
X67689740Y-144876447D02*
G01*
X68189740Y-144876447D01*
X68189740Y-144880725D01*
X68255003Y-144880725D01*
X68381082Y-144914507D01*
X68494121Y-144979770D01*
X68586417Y-145072066D01*
X68651680Y-145185105D01*
X68685462Y-145311184D01*
X68685462Y-145376447D01*
X68689740Y-145376447D01*
X68689740Y-145876447D01*
X68685462Y-145876447D01*
X68685462Y-145941710D01*
X68651680Y-146067789D01*
X68586417Y-146180828D01*
X68494121Y-146273124D01*
X68381082Y-146338387D01*
X68255003Y-146372169D01*
X68189740Y-146372169D01*
X68189740Y-146376447D01*
X67689740Y-146376447D01*
X67689740Y-144876447D01*
G37*
G36*
X66889740Y-146372169D02*
G01*
X66824477Y-146372169D01*
X66698398Y-146338387D01*
X66585359Y-146273124D01*
X66493063Y-146180828D01*
X66427800Y-146067789D01*
X66394018Y-145941710D01*
X66394018Y-145876447D01*
X66389740Y-145876447D01*
X66389740Y-145376447D01*
X66394018Y-145376447D01*
X66394018Y-145311184D01*
X66427800Y-145185105D01*
X66493063Y-145072066D01*
X66585359Y-144979770D01*
X66698398Y-144914507D01*
X66824477Y-144880725D01*
X66889740Y-144880725D01*
X66889740Y-144876447D01*
X67389740Y-144876447D01*
X67389740Y-146376447D01*
X66889740Y-146376447D01*
X66889740Y-146372169D01*
G37*
%TD*%
%TO.C,JP25*%
G36*
X77119740Y-113375883D02*
G01*
X76619740Y-113375883D01*
X76619740Y-113371605D01*
X76554477Y-113371605D01*
X76428398Y-113337823D01*
X76315359Y-113272560D01*
X76223063Y-113180264D01*
X76157800Y-113067225D01*
X76124018Y-112941146D01*
X76124018Y-112875883D01*
X76119740Y-112875883D01*
X76119740Y-112375883D01*
X76124018Y-112375883D01*
X76124018Y-112310620D01*
X76157800Y-112184541D01*
X76223063Y-112071502D01*
X76315359Y-111979206D01*
X76428398Y-111913943D01*
X76554477Y-111880161D01*
X76619740Y-111880161D01*
X76619740Y-111875883D01*
X77119740Y-111875883D01*
X77119740Y-113375883D01*
G37*
G36*
X77919740Y-111880161D02*
G01*
X77985003Y-111880161D01*
X78111082Y-111913943D01*
X78224121Y-111979206D01*
X78316417Y-112071502D01*
X78381680Y-112184541D01*
X78415462Y-112310620D01*
X78415462Y-112375883D01*
X78419740Y-112375883D01*
X78419740Y-112875883D01*
X78415462Y-112875883D01*
X78415462Y-112941146D01*
X78381680Y-113067225D01*
X78316417Y-113180264D01*
X78224121Y-113272560D01*
X78111082Y-113337823D01*
X77985003Y-113371605D01*
X77919740Y-113371605D01*
X77919740Y-113375883D01*
X77419740Y-113375883D01*
X77419740Y-111875883D01*
X77919740Y-111875883D01*
X77919740Y-111880161D01*
G37*
%TD*%
%TO.C,JP13*%
G36*
X67699740Y-129656447D02*
G01*
X68199740Y-129656447D01*
X68199740Y-129660725D01*
X68265003Y-129660725D01*
X68391082Y-129694507D01*
X68504121Y-129759770D01*
X68596417Y-129852066D01*
X68661680Y-129965105D01*
X68695462Y-130091184D01*
X68695462Y-130156447D01*
X68699740Y-130156447D01*
X68699740Y-130656447D01*
X68695462Y-130656447D01*
X68695462Y-130721710D01*
X68661680Y-130847789D01*
X68596417Y-130960828D01*
X68504121Y-131053124D01*
X68391082Y-131118387D01*
X68265003Y-131152169D01*
X68199740Y-131152169D01*
X68199740Y-131156447D01*
X67699740Y-131156447D01*
X67699740Y-129656447D01*
G37*
G36*
X66899740Y-131152169D02*
G01*
X66834477Y-131152169D01*
X66708398Y-131118387D01*
X66595359Y-131053124D01*
X66503063Y-130960828D01*
X66437800Y-130847789D01*
X66404018Y-130721710D01*
X66404018Y-130656447D01*
X66399740Y-130656447D01*
X66399740Y-130156447D01*
X66404018Y-130156447D01*
X66404018Y-130091184D01*
X66437800Y-129965105D01*
X66503063Y-129852066D01*
X66595359Y-129759770D01*
X66708398Y-129694507D01*
X66834477Y-129660725D01*
X66899740Y-129660725D01*
X66899740Y-129656447D01*
X67399740Y-129656447D01*
X67399740Y-131156447D01*
X66899740Y-131156447D01*
X66899740Y-131152169D01*
G37*
%TD*%
%TO.C,JP20*%
G36*
X77115951Y-118448188D02*
G01*
X76615951Y-118448188D01*
X76615951Y-118443910D01*
X76550688Y-118443910D01*
X76424609Y-118410128D01*
X76311570Y-118344865D01*
X76219274Y-118252569D01*
X76154011Y-118139530D01*
X76120229Y-118013451D01*
X76120229Y-117948188D01*
X76115951Y-117948188D01*
X76115951Y-117448188D01*
X76120229Y-117448188D01*
X76120229Y-117382925D01*
X76154011Y-117256846D01*
X76219274Y-117143807D01*
X76311570Y-117051511D01*
X76424609Y-116986248D01*
X76550688Y-116952466D01*
X76615951Y-116952466D01*
X76615951Y-116948188D01*
X77115951Y-116948188D01*
X77115951Y-118448188D01*
G37*
G36*
X77915951Y-116952466D02*
G01*
X77981214Y-116952466D01*
X78107293Y-116986248D01*
X78220332Y-117051511D01*
X78312628Y-117143807D01*
X78377891Y-117256846D01*
X78411673Y-117382925D01*
X78411673Y-117448188D01*
X78415951Y-117448188D01*
X78415951Y-117948188D01*
X78411673Y-117948188D01*
X78411673Y-118013451D01*
X78377891Y-118139530D01*
X78312628Y-118252569D01*
X78220332Y-118344865D01*
X78107293Y-118410128D01*
X77981214Y-118443910D01*
X77915951Y-118443910D01*
X77915951Y-118448188D01*
X77415951Y-118448188D01*
X77415951Y-116948188D01*
X77915951Y-116948188D01*
X77915951Y-116952466D01*
G37*
%TD*%
%TO.C,R41*%
G36*
G01*
X142205000Y-112270274D02*
X142205000Y-113520274D01*
G75*
G02*
X141955000Y-113770274I-250000J0D01*
G01*
X141155000Y-113770274D01*
G75*
G02*
X140905000Y-113520274I0J250000D01*
G01*
X140905000Y-112270274D01*
G75*
G02*
X141155000Y-112020274I250000J0D01*
G01*
X141955000Y-112020274D01*
G75*
G02*
X142205000Y-112270274I0J-250000D01*
G01*
G37*
G36*
G01*
X139105000Y-112270274D02*
X139105000Y-113520274D01*
G75*
G02*
X138855000Y-113770274I-250000J0D01*
G01*
X138055000Y-113770274D01*
G75*
G02*
X137805000Y-113520274I0J250000D01*
G01*
X137805000Y-112270274D01*
G75*
G02*
X138055000Y-112020274I250000J0D01*
G01*
X138855000Y-112020274D01*
G75*
G02*
X139105000Y-112270274I0J-250000D01*
G01*
G37*
%TD*%
%TO.C,JP16*%
G36*
X77105273Y-123536447D02*
G01*
X76605273Y-123536447D01*
X76605273Y-123532169D01*
X76540010Y-123532169D01*
X76413931Y-123498387D01*
X76300892Y-123433124D01*
X76208596Y-123340828D01*
X76143333Y-123227789D01*
X76109551Y-123101710D01*
X76109551Y-123036447D01*
X76105273Y-123036447D01*
X76105273Y-122536447D01*
X76109551Y-122536447D01*
X76109551Y-122471184D01*
X76143333Y-122345105D01*
X76208596Y-122232066D01*
X76300892Y-122139770D01*
X76413931Y-122074507D01*
X76540010Y-122040725D01*
X76605273Y-122040725D01*
X76605273Y-122036447D01*
X77105273Y-122036447D01*
X77105273Y-123536447D01*
G37*
G36*
X77905273Y-122040725D02*
G01*
X77970536Y-122040725D01*
X78096615Y-122074507D01*
X78209654Y-122139770D01*
X78301950Y-122232066D01*
X78367213Y-122345105D01*
X78400995Y-122471184D01*
X78400995Y-122536447D01*
X78405273Y-122536447D01*
X78405273Y-123036447D01*
X78400995Y-123036447D01*
X78400995Y-123101710D01*
X78367213Y-123227789D01*
X78301950Y-123340828D01*
X78209654Y-123433124D01*
X78096615Y-123498387D01*
X77970536Y-123532169D01*
X77905273Y-123532169D01*
X77905273Y-123536447D01*
X77405273Y-123536447D01*
X77405273Y-122036447D01*
X77905273Y-122036447D01*
X77905273Y-122040725D01*
G37*
%TD*%
%TO.C,R56*%
G36*
G01*
X69756053Y-73541264D02*
X69281053Y-73541264D01*
G75*
G02*
X69043553Y-73303764I0J237500D01*
G01*
X69043553Y-72803764D01*
G75*
G02*
X69281053Y-72566264I237500J0D01*
G01*
X69756053Y-72566264D01*
G75*
G02*
X69993553Y-72803764I0J-237500D01*
G01*
X69993553Y-73303764D01*
G75*
G02*
X69756053Y-73541264I-237500J0D01*
G01*
G37*
G36*
G01*
X69756053Y-71716264D02*
X69281053Y-71716264D01*
G75*
G02*
X69043553Y-71478764I0J237500D01*
G01*
X69043553Y-70978764D01*
G75*
G02*
X69281053Y-70741264I237500J0D01*
G01*
X69756053Y-70741264D01*
G75*
G02*
X69993553Y-70978764I0J-237500D01*
G01*
X69993553Y-71478764D01*
G75*
G02*
X69756053Y-71716264I-237500J0D01*
G01*
G37*
%TD*%
%TO.C,R10*%
G36*
G01*
X82837500Y-87147500D02*
X82837500Y-87622500D01*
G75*
G02*
X82600000Y-87860000I-237500J0D01*
G01*
X82100000Y-87860000D01*
G75*
G02*
X81862500Y-87622500I0J237500D01*
G01*
X81862500Y-87147500D01*
G75*
G02*
X82100000Y-86910000I237500J0D01*
G01*
X82600000Y-86910000D01*
G75*
G02*
X82837500Y-87147500I0J-237500D01*
G01*
G37*
G36*
G01*
X81012500Y-87147500D02*
X81012500Y-87622500D01*
G75*
G02*
X80775000Y-87860000I-237500J0D01*
G01*
X80275000Y-87860000D01*
G75*
G02*
X80037500Y-87622500I0J237500D01*
G01*
X80037500Y-87147500D01*
G75*
G02*
X80275000Y-86910000I237500J0D01*
G01*
X80775000Y-86910000D01*
G75*
G02*
X81012500Y-87147500I0J-237500D01*
G01*
G37*
%TD*%
%TO.C,R11*%
G36*
G01*
X82837500Y-89677500D02*
X82837500Y-90152500D01*
G75*
G02*
X82600000Y-90390000I-237500J0D01*
G01*
X82100000Y-90390000D01*
G75*
G02*
X81862500Y-90152500I0J237500D01*
G01*
X81862500Y-89677500D01*
G75*
G02*
X82100000Y-89440000I237500J0D01*
G01*
X82600000Y-89440000D01*
G75*
G02*
X82837500Y-89677500I0J-237500D01*
G01*
G37*
G36*
G01*
X81012500Y-89677500D02*
X81012500Y-90152500D01*
G75*
G02*
X80775000Y-90390000I-237500J0D01*
G01*
X80275000Y-90390000D01*
G75*
G02*
X80037500Y-90152500I0J237500D01*
G01*
X80037500Y-89677500D01*
G75*
G02*
X80275000Y-89440000I237500J0D01*
G01*
X80775000Y-89440000D01*
G75*
G02*
X81012500Y-89677500I0J-237500D01*
G01*
G37*
%TD*%
D20*
%TO.C,TP3*%
X77253553Y-130406447D03*
%TD*%
%TO.C,R27*%
G36*
G01*
X139092350Y-86676219D02*
X139092350Y-87926219D01*
G75*
G02*
X138842350Y-88176219I-250000J0D01*
G01*
X138042350Y-88176219D01*
G75*
G02*
X137792350Y-87926219I0J250000D01*
G01*
X137792350Y-86676219D01*
G75*
G02*
X138042350Y-86426219I250000J0D01*
G01*
X138842350Y-86426219D01*
G75*
G02*
X139092350Y-86676219I0J-250000D01*
G01*
G37*
G36*
G01*
X142192350Y-86676219D02*
X142192350Y-87926219D01*
G75*
G02*
X141942350Y-88176219I-250000J0D01*
G01*
X141142350Y-88176219D01*
G75*
G02*
X140892350Y-87926219I0J250000D01*
G01*
X140892350Y-86676219D01*
G75*
G02*
X141142350Y-86426219I250000J0D01*
G01*
X141942350Y-86426219D01*
G75*
G02*
X142192350Y-86676219I0J-250000D01*
G01*
G37*
%TD*%
%TO.C,C15*%
G36*
G01*
X126114353Y-116165528D02*
X128014351Y-116165528D01*
G75*
G02*
X128264352Y-116415529I0J-250001D01*
G01*
X128264352Y-118315527D01*
G75*
G02*
X128014351Y-118565528I-250001J0D01*
G01*
X126114353Y-118565528D01*
G75*
G02*
X125864352Y-118315527I0J250001D01*
G01*
X125864352Y-116415529D01*
G75*
G02*
X126114353Y-116165528I250001J0D01*
G01*
G37*
D13*
X127064352Y-122365528D03*
%TD*%
%TO.C,C11*%
X127051702Y-96771473D03*
G36*
G01*
X126101703Y-90571473D02*
X128001701Y-90571473D01*
G75*
G02*
X128251702Y-90821474I0J-250001D01*
G01*
X128251702Y-92721472D01*
G75*
G02*
X128001701Y-92971473I-250001J0D01*
G01*
X126101703Y-92971473D01*
G75*
G02*
X125851702Y-92721472I0J250001D01*
G01*
X125851702Y-90821474D01*
G75*
G02*
X126101703Y-90571473I250001J0D01*
G01*
G37*
%TD*%
%TO.C,R61*%
G36*
G01*
X86015929Y-139373454D02*
X86015929Y-139848454D01*
G75*
G02*
X85778429Y-140085954I-237500J0D01*
G01*
X85278429Y-140085954D01*
G75*
G02*
X85040929Y-139848454I0J237500D01*
G01*
X85040929Y-139373454D01*
G75*
G02*
X85278429Y-139135954I237500J0D01*
G01*
X85778429Y-139135954D01*
G75*
G02*
X86015929Y-139373454I0J-237500D01*
G01*
G37*
G36*
G01*
X84190929Y-139373454D02*
X84190929Y-139848454D01*
G75*
G02*
X83953429Y-140085954I-237500J0D01*
G01*
X83453429Y-140085954D01*
G75*
G02*
X83215929Y-139848454I0J237500D01*
G01*
X83215929Y-139373454D01*
G75*
G02*
X83453429Y-139135954I237500J0D01*
G01*
X83953429Y-139135954D01*
G75*
G02*
X84190929Y-139373454I0J-237500D01*
G01*
G37*
%TD*%
%TO.C,R53*%
G36*
G01*
X146105000Y-135032774D02*
X146105000Y-134557774D01*
G75*
G02*
X146342500Y-134320274I237500J0D01*
G01*
X146842500Y-134320274D01*
G75*
G02*
X147080000Y-134557774I0J-237500D01*
G01*
X147080000Y-135032774D01*
G75*
G02*
X146842500Y-135270274I-237500J0D01*
G01*
X146342500Y-135270274D01*
G75*
G02*
X146105000Y-135032774I0J237500D01*
G01*
G37*
G36*
G01*
X147930000Y-135032774D02*
X147930000Y-134557774D01*
G75*
G02*
X148167500Y-134320274I237500J0D01*
G01*
X148667500Y-134320274D01*
G75*
G02*
X148905000Y-134557774I0J-237500D01*
G01*
X148905000Y-135032774D01*
G75*
G02*
X148667500Y-135270274I-237500J0D01*
G01*
X148167500Y-135270274D01*
G75*
G02*
X147930000Y-135032774I0J237500D01*
G01*
G37*
%TD*%
%TO.C,JP30*%
G36*
X67709740Y-104256447D02*
G01*
X68209740Y-104256447D01*
X68209740Y-104260725D01*
X68275003Y-104260725D01*
X68401082Y-104294507D01*
X68514121Y-104359770D01*
X68606417Y-104452066D01*
X68671680Y-104565105D01*
X68705462Y-104691184D01*
X68705462Y-104756447D01*
X68709740Y-104756447D01*
X68709740Y-105256447D01*
X68705462Y-105256447D01*
X68705462Y-105321710D01*
X68671680Y-105447789D01*
X68606417Y-105560828D01*
X68514121Y-105653124D01*
X68401082Y-105718387D01*
X68275003Y-105752169D01*
X68209740Y-105752169D01*
X68209740Y-105756447D01*
X67709740Y-105756447D01*
X67709740Y-104256447D01*
G37*
G36*
X66909740Y-105752169D02*
G01*
X66844477Y-105752169D01*
X66718398Y-105718387D01*
X66605359Y-105653124D01*
X66513063Y-105560828D01*
X66447800Y-105447789D01*
X66414018Y-105321710D01*
X66414018Y-105256447D01*
X66409740Y-105256447D01*
X66409740Y-104756447D01*
X66414018Y-104756447D01*
X66414018Y-104691184D01*
X66447800Y-104565105D01*
X66513063Y-104452066D01*
X66605359Y-104359770D01*
X66718398Y-104294507D01*
X66844477Y-104260725D01*
X66909740Y-104260725D01*
X66909740Y-104256447D01*
X67409740Y-104256447D01*
X67409740Y-105756447D01*
X66909740Y-105756447D01*
X66909740Y-105752169D01*
G37*
%TD*%
%TO.C,JP4*%
G36*
X77089740Y-146376447D02*
G01*
X76589740Y-146376447D01*
X76589740Y-146372169D01*
X76524477Y-146372169D01*
X76398398Y-146338387D01*
X76285359Y-146273124D01*
X76193063Y-146180828D01*
X76127800Y-146067789D01*
X76094018Y-145941710D01*
X76094018Y-145876447D01*
X76089740Y-145876447D01*
X76089740Y-145376447D01*
X76094018Y-145376447D01*
X76094018Y-145311184D01*
X76127800Y-145185105D01*
X76193063Y-145072066D01*
X76285359Y-144979770D01*
X76398398Y-144914507D01*
X76524477Y-144880725D01*
X76589740Y-144880725D01*
X76589740Y-144876447D01*
X77089740Y-144876447D01*
X77089740Y-146376447D01*
G37*
G36*
X77889740Y-144880725D02*
G01*
X77955003Y-144880725D01*
X78081082Y-144914507D01*
X78194121Y-144979770D01*
X78286417Y-145072066D01*
X78351680Y-145185105D01*
X78385462Y-145311184D01*
X78385462Y-145376447D01*
X78389740Y-145376447D01*
X78389740Y-145876447D01*
X78385462Y-145876447D01*
X78385462Y-145941710D01*
X78351680Y-146067789D01*
X78286417Y-146180828D01*
X78194121Y-146273124D01*
X78081082Y-146338387D01*
X77955003Y-146372169D01*
X77889740Y-146372169D01*
X77889740Y-146376447D01*
X77389740Y-146376447D01*
X77389740Y-144876447D01*
X77889740Y-144876447D01*
X77889740Y-144880725D01*
G37*
%TD*%
D20*
%TO.C,Y1*%
X84189150Y-132906170D03*
%TD*%
%TO.C,JP33*%
G36*
X67709740Y-99176447D02*
G01*
X68209740Y-99176447D01*
X68209740Y-99180725D01*
X68275003Y-99180725D01*
X68401082Y-99214507D01*
X68514121Y-99279770D01*
X68606417Y-99372066D01*
X68671680Y-99485105D01*
X68705462Y-99611184D01*
X68705462Y-99676447D01*
X68709740Y-99676447D01*
X68709740Y-100176447D01*
X68705462Y-100176447D01*
X68705462Y-100241710D01*
X68671680Y-100367789D01*
X68606417Y-100480828D01*
X68514121Y-100573124D01*
X68401082Y-100638387D01*
X68275003Y-100672169D01*
X68209740Y-100672169D01*
X68209740Y-100676447D01*
X67709740Y-100676447D01*
X67709740Y-99176447D01*
G37*
G36*
X66909740Y-100672169D02*
G01*
X66844477Y-100672169D01*
X66718398Y-100638387D01*
X66605359Y-100573124D01*
X66513063Y-100480828D01*
X66447800Y-100367789D01*
X66414018Y-100241710D01*
X66414018Y-100176447D01*
X66409740Y-100176447D01*
X66409740Y-99676447D01*
X66414018Y-99676447D01*
X66414018Y-99611184D01*
X66447800Y-99485105D01*
X66513063Y-99372066D01*
X66605359Y-99279770D01*
X66718398Y-99214507D01*
X66844477Y-99180725D01*
X66909740Y-99180725D01*
X66909740Y-99176447D01*
X67409740Y-99176447D01*
X67409740Y-100676447D01*
X66909740Y-100676447D01*
X66909740Y-100672169D01*
G37*
%TD*%
%TO.C,JP21*%
G36*
X67702519Y-116956447D02*
G01*
X68202519Y-116956447D01*
X68202519Y-116960725D01*
X68267782Y-116960725D01*
X68393861Y-116994507D01*
X68506900Y-117059770D01*
X68599196Y-117152066D01*
X68664459Y-117265105D01*
X68698241Y-117391184D01*
X68698241Y-117456447D01*
X68702519Y-117456447D01*
X68702519Y-117956447D01*
X68698241Y-117956447D01*
X68698241Y-118021710D01*
X68664459Y-118147789D01*
X68599196Y-118260828D01*
X68506900Y-118353124D01*
X68393861Y-118418387D01*
X68267782Y-118452169D01*
X68202519Y-118452169D01*
X68202519Y-118456447D01*
X67702519Y-118456447D01*
X67702519Y-116956447D01*
G37*
G36*
X66902519Y-118452169D02*
G01*
X66837256Y-118452169D01*
X66711177Y-118418387D01*
X66598138Y-118353124D01*
X66505842Y-118260828D01*
X66440579Y-118147789D01*
X66406797Y-118021710D01*
X66406797Y-117956447D01*
X66402519Y-117956447D01*
X66402519Y-117456447D01*
X66406797Y-117456447D01*
X66406797Y-117391184D01*
X66440579Y-117265105D01*
X66505842Y-117152066D01*
X66598138Y-117059770D01*
X66711177Y-116994507D01*
X66837256Y-116960725D01*
X66902519Y-116960725D01*
X66902519Y-116956447D01*
X67402519Y-116956447D01*
X67402519Y-118456447D01*
X66902519Y-118456447D01*
X66902519Y-118452169D01*
G37*
%TD*%
%TO.C,JP1*%
G36*
X116460000Y-76029232D02*
G01*
X116960000Y-76029232D01*
X116960000Y-76033510D01*
X117025263Y-76033510D01*
X117151342Y-76067292D01*
X117264381Y-76132555D01*
X117356677Y-76224851D01*
X117421940Y-76337890D01*
X117455722Y-76463969D01*
X117455722Y-76529232D01*
X117460000Y-76529232D01*
X117460000Y-77029232D01*
X117455722Y-77029232D01*
X117455722Y-77094495D01*
X117421940Y-77220574D01*
X117356677Y-77333613D01*
X117264381Y-77425909D01*
X117151342Y-77491172D01*
X117025263Y-77524954D01*
X116960000Y-77524954D01*
X116960000Y-77529232D01*
X116460000Y-77529232D01*
X116460000Y-76029232D01*
G37*
G36*
X115660000Y-77524954D02*
G01*
X115594737Y-77524954D01*
X115468658Y-77491172D01*
X115355619Y-77425909D01*
X115263323Y-77333613D01*
X115198060Y-77220574D01*
X115164278Y-77094495D01*
X115164278Y-77029232D01*
X115160000Y-77029232D01*
X115160000Y-76529232D01*
X115164278Y-76529232D01*
X115164278Y-76463969D01*
X115198060Y-76337890D01*
X115263323Y-76224851D01*
X115355619Y-76132555D01*
X115468658Y-76067292D01*
X115594737Y-76033510D01*
X115660000Y-76033510D01*
X115660000Y-76029232D01*
X116160000Y-76029232D01*
X116160000Y-77529232D01*
X115660000Y-77529232D01*
X115660000Y-77524954D01*
G37*
%TD*%
%TO.C,JP31*%
G36*
X67709740Y-101714023D02*
G01*
X68209740Y-101714023D01*
X68209740Y-101718301D01*
X68275003Y-101718301D01*
X68401082Y-101752083D01*
X68514121Y-101817346D01*
X68606417Y-101909642D01*
X68671680Y-102022681D01*
X68705462Y-102148760D01*
X68705462Y-102214023D01*
X68709740Y-102214023D01*
X68709740Y-102714023D01*
X68705462Y-102714023D01*
X68705462Y-102779286D01*
X68671680Y-102905365D01*
X68606417Y-103018404D01*
X68514121Y-103110700D01*
X68401082Y-103175963D01*
X68275003Y-103209745D01*
X68209740Y-103209745D01*
X68209740Y-103214023D01*
X67709740Y-103214023D01*
X67709740Y-101714023D01*
G37*
G36*
X66909740Y-103209745D02*
G01*
X66844477Y-103209745D01*
X66718398Y-103175963D01*
X66605359Y-103110700D01*
X66513063Y-103018404D01*
X66447800Y-102905365D01*
X66414018Y-102779286D01*
X66414018Y-102714023D01*
X66409740Y-102714023D01*
X66409740Y-102214023D01*
X66414018Y-102214023D01*
X66414018Y-102148760D01*
X66447800Y-102022681D01*
X66513063Y-101909642D01*
X66605359Y-101817346D01*
X66718398Y-101752083D01*
X66844477Y-101718301D01*
X66909740Y-101718301D01*
X66909740Y-101714023D01*
X67409740Y-101714023D01*
X67409740Y-103214023D01*
X66909740Y-103214023D01*
X66909740Y-103209745D01*
G37*
%TD*%
%TO.C,R13*%
G36*
G01*
X142200000Y-61079232D02*
X142200000Y-62329232D01*
G75*
G02*
X141950000Y-62579232I-250000J0D01*
G01*
X141150000Y-62579232D01*
G75*
G02*
X140900000Y-62329232I0J250000D01*
G01*
X140900000Y-61079232D01*
G75*
G02*
X141150000Y-60829232I250000J0D01*
G01*
X141950000Y-60829232D01*
G75*
G02*
X142200000Y-61079232I0J-250000D01*
G01*
G37*
G36*
G01*
X139100000Y-61079232D02*
X139100000Y-62329232D01*
G75*
G02*
X138850000Y-62579232I-250000J0D01*
G01*
X138050000Y-62579232D01*
G75*
G02*
X137800000Y-62329232I0J250000D01*
G01*
X137800000Y-61079232D01*
G75*
G02*
X138050000Y-60829232I250000J0D01*
G01*
X138850000Y-60829232D01*
G75*
G02*
X139100000Y-61079232I0J-250000D01*
G01*
G37*
%TD*%
%TO.C,R38*%
G36*
G01*
X113679850Y-101426219D02*
X114154850Y-101426219D01*
G75*
G02*
X114392350Y-101663719I0J-237500D01*
G01*
X114392350Y-102163719D01*
G75*
G02*
X114154850Y-102401219I-237500J0D01*
G01*
X113679850Y-102401219D01*
G75*
G02*
X113442350Y-102163719I0J237500D01*
G01*
X113442350Y-101663719D01*
G75*
G02*
X113679850Y-101426219I237500J0D01*
G01*
G37*
G36*
G01*
X113679850Y-99601219D02*
X114154850Y-99601219D01*
G75*
G02*
X114392350Y-99838719I0J-237500D01*
G01*
X114392350Y-100338719D01*
G75*
G02*
X114154850Y-100576219I-237500J0D01*
G01*
X113679850Y-100576219D01*
G75*
G02*
X113442350Y-100338719I0J237500D01*
G01*
X113442350Y-99838719D01*
G75*
G02*
X113679850Y-99601219I237500J0D01*
G01*
G37*
%TD*%
%TO.C,R14*%
G36*
G01*
X116600000Y-81529232D02*
X116600000Y-82779232D01*
G75*
G02*
X116350000Y-83029232I-250000J0D01*
G01*
X115550000Y-83029232D01*
G75*
G02*
X115300000Y-82779232I0J250000D01*
G01*
X115300000Y-81529232D01*
G75*
G02*
X115550000Y-81279232I250000J0D01*
G01*
X116350000Y-81279232D01*
G75*
G02*
X116600000Y-81529232I0J-250000D01*
G01*
G37*
G36*
G01*
X113500000Y-81529232D02*
X113500000Y-82779232D01*
G75*
G02*
X113250000Y-83029232I-250000J0D01*
G01*
X112450000Y-83029232D01*
G75*
G02*
X112200000Y-82779232I0J250000D01*
G01*
X112200000Y-81529232D01*
G75*
G02*
X112450000Y-81279232I250000J0D01*
G01*
X113250000Y-81279232D01*
G75*
G02*
X113500000Y-81529232I0J-250000D01*
G01*
G37*
%TD*%
%TO.C,JP29*%
G36*
X77129740Y-105756447D02*
G01*
X76629740Y-105756447D01*
X76629740Y-105752169D01*
X76564477Y-105752169D01*
X76438398Y-105718387D01*
X76325359Y-105653124D01*
X76233063Y-105560828D01*
X76167800Y-105447789D01*
X76134018Y-105321710D01*
X76134018Y-105256447D01*
X76129740Y-105256447D01*
X76129740Y-104756447D01*
X76134018Y-104756447D01*
X76134018Y-104691184D01*
X76167800Y-104565105D01*
X76233063Y-104452066D01*
X76325359Y-104359770D01*
X76438398Y-104294507D01*
X76564477Y-104260725D01*
X76629740Y-104260725D01*
X76629740Y-104256447D01*
X77129740Y-104256447D01*
X77129740Y-105756447D01*
G37*
G36*
X77929740Y-104260725D02*
G01*
X77995003Y-104260725D01*
X78121082Y-104294507D01*
X78234121Y-104359770D01*
X78326417Y-104452066D01*
X78391680Y-104565105D01*
X78425462Y-104691184D01*
X78425462Y-104756447D01*
X78429740Y-104756447D01*
X78429740Y-105256447D01*
X78425462Y-105256447D01*
X78425462Y-105321710D01*
X78391680Y-105447789D01*
X78326417Y-105560828D01*
X78234121Y-105653124D01*
X78121082Y-105718387D01*
X77995003Y-105752169D01*
X77929740Y-105752169D01*
X77929740Y-105756447D01*
X77429740Y-105756447D01*
X77429740Y-104256447D01*
X77929740Y-104256447D01*
X77929740Y-104260725D01*
G37*
%TD*%
%TO.C,JP3*%
G36*
X116465000Y-127220274D02*
G01*
X116965000Y-127220274D01*
X116965000Y-127224552D01*
X117030263Y-127224552D01*
X117156342Y-127258334D01*
X117269381Y-127323597D01*
X117361677Y-127415893D01*
X117426940Y-127528932D01*
X117460722Y-127655011D01*
X117460722Y-127720274D01*
X117465000Y-127720274D01*
X117465000Y-128220274D01*
X117460722Y-128220274D01*
X117460722Y-128285537D01*
X117426940Y-128411616D01*
X117361677Y-128524655D01*
X117269381Y-128616951D01*
X117156342Y-128682214D01*
X117030263Y-128715996D01*
X116965000Y-128715996D01*
X116965000Y-128720274D01*
X116465000Y-128720274D01*
X116465000Y-127220274D01*
G37*
G36*
X115665000Y-128715996D02*
G01*
X115599737Y-128715996D01*
X115473658Y-128682214D01*
X115360619Y-128616951D01*
X115268323Y-128524655D01*
X115203060Y-128411616D01*
X115169278Y-128285537D01*
X115169278Y-128220274D01*
X115165000Y-128220274D01*
X115165000Y-127720274D01*
X115169278Y-127720274D01*
X115169278Y-127655011D01*
X115203060Y-127528932D01*
X115268323Y-127415893D01*
X115360619Y-127323597D01*
X115473658Y-127258334D01*
X115599737Y-127224552D01*
X115665000Y-127224552D01*
X115665000Y-127220274D01*
X116165000Y-127220274D01*
X116165000Y-128720274D01*
X115665000Y-128720274D01*
X115665000Y-128715996D01*
G37*
%TD*%
%TO.C,JP15*%
G36*
X67708163Y-124578888D02*
G01*
X68208163Y-124578888D01*
X68208163Y-124583166D01*
X68273426Y-124583166D01*
X68399505Y-124616948D01*
X68512544Y-124682211D01*
X68604840Y-124774507D01*
X68670103Y-124887546D01*
X68703885Y-125013625D01*
X68703885Y-125078888D01*
X68708163Y-125078888D01*
X68708163Y-125578888D01*
X68703885Y-125578888D01*
X68703885Y-125644151D01*
X68670103Y-125770230D01*
X68604840Y-125883269D01*
X68512544Y-125975565D01*
X68399505Y-126040828D01*
X68273426Y-126074610D01*
X68208163Y-126074610D01*
X68208163Y-126078888D01*
X67708163Y-126078888D01*
X67708163Y-124578888D01*
G37*
G36*
X66908163Y-126074610D02*
G01*
X66842900Y-126074610D01*
X66716821Y-126040828D01*
X66603782Y-125975565D01*
X66511486Y-125883269D01*
X66446223Y-125770230D01*
X66412441Y-125644151D01*
X66412441Y-125578888D01*
X66408163Y-125578888D01*
X66408163Y-125078888D01*
X66412441Y-125078888D01*
X66412441Y-125013625D01*
X66446223Y-124887546D01*
X66511486Y-124774507D01*
X66603782Y-124682211D01*
X66716821Y-124616948D01*
X66842900Y-124583166D01*
X66908163Y-124583166D01*
X66908163Y-124578888D01*
X67408163Y-124578888D01*
X67408163Y-126078888D01*
X66908163Y-126078888D01*
X66908163Y-126074610D01*
G37*
%TD*%
%TO.C,R63*%
G36*
G01*
X86017008Y-145857357D02*
X86017008Y-146332357D01*
G75*
G02*
X85779508Y-146569857I-237500J0D01*
G01*
X85279508Y-146569857D01*
G75*
G02*
X85042008Y-146332357I0J237500D01*
G01*
X85042008Y-145857357D01*
G75*
G02*
X85279508Y-145619857I237500J0D01*
G01*
X85779508Y-145619857D01*
G75*
G02*
X86017008Y-145857357I0J-237500D01*
G01*
G37*
G36*
G01*
X84192008Y-145857357D02*
X84192008Y-146332357D01*
G75*
G02*
X83954508Y-146569857I-237500J0D01*
G01*
X83454508Y-146569857D01*
G75*
G02*
X83217008Y-146332357I0J237500D01*
G01*
X83217008Y-145857357D01*
G75*
G02*
X83454508Y-145619857I237500J0D01*
G01*
X83954508Y-145619857D01*
G75*
G02*
X84192008Y-145857357I0J-237500D01*
G01*
G37*
%TD*%
%TO.C,R32*%
G36*
G01*
X105254850Y-100963719D02*
X105729850Y-100963719D01*
G75*
G02*
X105967350Y-101201219I0J-237500D01*
G01*
X105967350Y-101701219D01*
G75*
G02*
X105729850Y-101938719I-237500J0D01*
G01*
X105254850Y-101938719D01*
G75*
G02*
X105017350Y-101701219I0J237500D01*
G01*
X105017350Y-101201219D01*
G75*
G02*
X105254850Y-100963719I237500J0D01*
G01*
G37*
G36*
G01*
X105254850Y-99138719D02*
X105729850Y-99138719D01*
G75*
G02*
X105967350Y-99376219I0J-237500D01*
G01*
X105967350Y-99876219D01*
G75*
G02*
X105729850Y-100113719I-237500J0D01*
G01*
X105254850Y-100113719D01*
G75*
G02*
X105017350Y-99876219I0J237500D01*
G01*
X105017350Y-99376219D01*
G75*
G02*
X105254850Y-99138719I237500J0D01*
G01*
G37*
%TD*%
%TO.C,C20*%
G36*
G01*
X75950001Y-53750000D02*
X77549999Y-53750000D01*
G75*
G02*
X77800000Y-54000001I0J-250001D01*
G01*
X77800000Y-57999999D01*
G75*
G02*
X77549999Y-58250000I-250001J0D01*
G01*
X75950001Y-58250000D01*
G75*
G02*
X75700000Y-57999999I0J250001D01*
G01*
X75700000Y-54000001D01*
G75*
G02*
X75950001Y-53750000I250001J0D01*
G01*
G37*
G36*
G01*
X75950001Y-60950000D02*
X77549999Y-60950000D01*
G75*
G02*
X77800000Y-61200001I0J-250001D01*
G01*
X77800000Y-65199999D01*
G75*
G02*
X77549999Y-65450000I-250001J0D01*
G01*
X75950001Y-65450000D01*
G75*
G02*
X75700000Y-65199999I0J250001D01*
G01*
X75700000Y-61200001D01*
G75*
G02*
X75950001Y-60950000I250001J0D01*
G01*
G37*
%TD*%
%TO.C,D1*%
G36*
X108000000Y-72879232D02*
G01*
X108600000Y-76479232D01*
X109700000Y-76479232D01*
X110300000Y-72879232D01*
X108000000Y-72879232D01*
G37*
G36*
X110300000Y-82279232D02*
G01*
X109700000Y-78679232D01*
X108600000Y-78679232D01*
X108000000Y-82279232D01*
X110300000Y-82279232D01*
G37*
%TD*%
%TO.C,TP1*%
X67533553Y-135496170D03*
%TD*%
%TO.C,R25*%
G36*
G01*
X146100000Y-83841732D02*
X146100000Y-83366732D01*
G75*
G02*
X146337500Y-83129232I237500J0D01*
G01*
X146837500Y-83129232D01*
G75*
G02*
X147075000Y-83366732I0J-237500D01*
G01*
X147075000Y-83841732D01*
G75*
G02*
X146837500Y-84079232I-237500J0D01*
G01*
X146337500Y-84079232D01*
G75*
G02*
X146100000Y-83841732I0J237500D01*
G01*
G37*
G36*
G01*
X147925000Y-83841732D02*
X147925000Y-83366732D01*
G75*
G02*
X148162500Y-83129232I237500J0D01*
G01*
X148662500Y-83129232D01*
G75*
G02*
X148900000Y-83366732I0J-237500D01*
G01*
X148900000Y-83841732D01*
G75*
G02*
X148662500Y-84079232I-237500J0D01*
G01*
X148162500Y-84079232D01*
G75*
G02*
X147925000Y-83841732I0J237500D01*
G01*
G37*
%TD*%
%TO.C,R28*%
G36*
G01*
X113492350Y-107126219D02*
X113492350Y-108376219D01*
G75*
G02*
X113242350Y-108626219I-250000J0D01*
G01*
X112442350Y-108626219D01*
G75*
G02*
X112192350Y-108376219I0J250000D01*
G01*
X112192350Y-107126219D01*
G75*
G02*
X112442350Y-106876219I250000J0D01*
G01*
X113242350Y-106876219D01*
G75*
G02*
X113492350Y-107126219I0J-250000D01*
G01*
G37*
G36*
G01*
X116592350Y-107126219D02*
X116592350Y-108376219D01*
G75*
G02*
X116342350Y-108626219I-250000J0D01*
G01*
X115542350Y-108626219D01*
G75*
G02*
X115292350Y-108376219I0J250000D01*
G01*
X115292350Y-107126219D01*
G75*
G02*
X115542350Y-106876219I250000J0D01*
G01*
X116342350Y-106876219D01*
G75*
G02*
X116592350Y-107126219I0J-250000D01*
G01*
G37*
%TD*%
%TO.C,R42*%
G36*
G01*
X116605000Y-132720274D02*
X116605000Y-133970274D01*
G75*
G02*
X116355000Y-134220274I-250000J0D01*
G01*
X115555000Y-134220274D01*
G75*
G02*
X115305000Y-133970274I0J250000D01*
G01*
X115305000Y-132720274D01*
G75*
G02*
X115555000Y-132470274I250000J0D01*
G01*
X116355000Y-132470274D01*
G75*
G02*
X116605000Y-132720274I0J-250000D01*
G01*
G37*
G36*
G01*
X113505000Y-132720274D02*
X113505000Y-133970274D01*
G75*
G02*
X113255000Y-134220274I-250000J0D01*
G01*
X112455000Y-134220274D01*
G75*
G02*
X112205000Y-133970274I0J250000D01*
G01*
X112205000Y-132720274D01*
G75*
G02*
X112455000Y-132470274I250000J0D01*
G01*
X113255000Y-132470274D01*
G75*
G02*
X113505000Y-132720274I0J-250000D01*
G01*
G37*
%TD*%
%TO.C,D9*%
G36*
X108005000Y-124070274D02*
G01*
X108605000Y-127670274D01*
X109705000Y-127670274D01*
X110305000Y-124070274D01*
X108005000Y-124070274D01*
G37*
G36*
X110305000Y-133470274D02*
G01*
X109705000Y-129870274D01*
X108605000Y-129870274D01*
X108005000Y-133470274D01*
X110305000Y-133470274D01*
G37*
%TD*%
%TO.C,JP34*%
G36*
X56599264Y-114176170D02*
G01*
X56599264Y-114726170D01*
X56594986Y-114726170D01*
X56594986Y-114791433D01*
X56561204Y-114917512D01*
X56495941Y-115030551D01*
X56403645Y-115122847D01*
X56290606Y-115188110D01*
X56164527Y-115221892D01*
X56099264Y-115221892D01*
X56099264Y-115226170D01*
X55599264Y-115226170D01*
X55599264Y-115221892D01*
X55534001Y-115221892D01*
X55407922Y-115188110D01*
X55294883Y-115122847D01*
X55202587Y-115030551D01*
X55137324Y-114917512D01*
X55103542Y-114791433D01*
X55103542Y-114726170D01*
X55099264Y-114726170D01*
X55099264Y-114176170D01*
X56599264Y-114176170D01*
G37*
D21*
X55849264Y-113426170D03*
G36*
X55103542Y-112126170D02*
G01*
X55103542Y-112060907D01*
X55137324Y-111934828D01*
X55202587Y-111821789D01*
X55294883Y-111729493D01*
X55407922Y-111664230D01*
X55534001Y-111630448D01*
X55599264Y-111630448D01*
X55599264Y-111626170D01*
X56099264Y-111626170D01*
X56099264Y-111630448D01*
X56164527Y-111630448D01*
X56290606Y-111664230D01*
X56403645Y-111729493D01*
X56495941Y-111821789D01*
X56561204Y-111934828D01*
X56594986Y-112060907D01*
X56594986Y-112126170D01*
X56599264Y-112126170D01*
X56599264Y-112676170D01*
X55099264Y-112676170D01*
X55099264Y-112126170D01*
X55103542Y-112126170D01*
G37*
%TD*%
%TO.C,JP10*%
G36*
X67690042Y-137269718D02*
G01*
X68190042Y-137269718D01*
X68190042Y-137273996D01*
X68255305Y-137273996D01*
X68381384Y-137307778D01*
X68494423Y-137373041D01*
X68586719Y-137465337D01*
X68651982Y-137578376D01*
X68685764Y-137704455D01*
X68685764Y-137769718D01*
X68690042Y-137769718D01*
X68690042Y-138269718D01*
X68685764Y-138269718D01*
X68685764Y-138334981D01*
X68651982Y-138461060D01*
X68586719Y-138574099D01*
X68494423Y-138666395D01*
X68381384Y-138731658D01*
X68255305Y-138765440D01*
X68190042Y-138765440D01*
X68190042Y-138769718D01*
X67690042Y-138769718D01*
X67690042Y-137269718D01*
G37*
G36*
X66890042Y-138765440D02*
G01*
X66824779Y-138765440D01*
X66698700Y-138731658D01*
X66585661Y-138666395D01*
X66493365Y-138574099D01*
X66428102Y-138461060D01*
X66394320Y-138334981D01*
X66394320Y-138269718D01*
X66390042Y-138269718D01*
X66390042Y-137769718D01*
X66394320Y-137769718D01*
X66394320Y-137704455D01*
X66428102Y-137578376D01*
X66493365Y-137465337D01*
X66585661Y-137373041D01*
X66698700Y-137307778D01*
X66824779Y-137273996D01*
X66890042Y-137273996D01*
X66890042Y-137269718D01*
X67390042Y-137269718D01*
X67390042Y-138769718D01*
X66890042Y-138769718D01*
X66890042Y-138765440D01*
G37*
%TD*%
%TO.C,R55*%
G36*
G01*
X70143553Y-69378764D02*
X68893553Y-69378764D01*
G75*
G02*
X68643553Y-69128764I0J250000D01*
G01*
X68643553Y-68328764D01*
G75*
G02*
X68893553Y-68078764I250000J0D01*
G01*
X70143553Y-68078764D01*
G75*
G02*
X70393553Y-68328764I0J-250000D01*
G01*
X70393553Y-69128764D01*
G75*
G02*
X70143553Y-69378764I-250000J0D01*
G01*
G37*
G36*
G01*
X70143553Y-66278764D02*
X68893553Y-66278764D01*
G75*
G02*
X68643553Y-66028764I0J250000D01*
G01*
X68643553Y-65228764D01*
G75*
G02*
X68893553Y-64978764I250000J0D01*
G01*
X70143553Y-64978764D01*
G75*
G02*
X70393553Y-65228764I0J-250000D01*
G01*
X70393553Y-66028764D01*
G75*
G02*
X70143553Y-66278764I-250000J0D01*
G01*
G37*
%TD*%
%TO.C,JP8*%
G36*
X77089702Y-141311433D02*
G01*
X76589702Y-141311433D01*
X76589702Y-141307155D01*
X76524439Y-141307155D01*
X76398360Y-141273373D01*
X76285321Y-141208110D01*
X76193025Y-141115814D01*
X76127762Y-141002775D01*
X76093980Y-140876696D01*
X76093980Y-140811433D01*
X76089702Y-140811433D01*
X76089702Y-140311433D01*
X76093980Y-140311433D01*
X76093980Y-140246170D01*
X76127762Y-140120091D01*
X76193025Y-140007052D01*
X76285321Y-139914756D01*
X76398360Y-139849493D01*
X76524439Y-139815711D01*
X76589702Y-139815711D01*
X76589702Y-139811433D01*
X77089702Y-139811433D01*
X77089702Y-141311433D01*
G37*
G36*
X77889702Y-139815711D02*
G01*
X77954965Y-139815711D01*
X78081044Y-139849493D01*
X78194083Y-139914756D01*
X78286379Y-140007052D01*
X78351642Y-140120091D01*
X78385424Y-140246170D01*
X78385424Y-140311433D01*
X78389702Y-140311433D01*
X78389702Y-140811433D01*
X78385424Y-140811433D01*
X78385424Y-140876696D01*
X78351642Y-141002775D01*
X78286379Y-141115814D01*
X78194083Y-141208110D01*
X78081044Y-141273373D01*
X77954965Y-141307155D01*
X77889702Y-141307155D01*
X77889702Y-141311433D01*
X77389702Y-141311433D01*
X77389702Y-139811433D01*
X77889702Y-139811433D01*
X77889702Y-139815711D01*
G37*
%TD*%
%TO.C,D5*%
G36*
X110292350Y-107876219D02*
G01*
X109692350Y-104276219D01*
X108592350Y-104276219D01*
X107992350Y-107876219D01*
X110292350Y-107876219D01*
G37*
G36*
X107992350Y-98476219D02*
G01*
X108592350Y-102076219D01*
X109692350Y-102076219D01*
X110292350Y-98476219D01*
X107992350Y-98476219D01*
G37*
%TD*%
%TO.C,R62*%
G36*
G01*
X86016244Y-143694081D02*
X86016244Y-144169081D01*
G75*
G02*
X85778744Y-144406581I-237500J0D01*
G01*
X85278744Y-144406581D01*
G75*
G02*
X85041244Y-144169081I0J237500D01*
G01*
X85041244Y-143694081D01*
G75*
G02*
X85278744Y-143456581I237500J0D01*
G01*
X85778744Y-143456581D01*
G75*
G02*
X86016244Y-143694081I0J-237500D01*
G01*
G37*
G36*
G01*
X84191244Y-143694081D02*
X84191244Y-144169081D01*
G75*
G02*
X83953744Y-144406581I-237500J0D01*
G01*
X83453744Y-144406581D01*
G75*
G02*
X83216244Y-144169081I0J237500D01*
G01*
X83216244Y-143694081D01*
G75*
G02*
X83453744Y-143456581I237500J0D01*
G01*
X83953744Y-143456581D01*
G75*
G02*
X84191244Y-143694081I0J-237500D01*
G01*
G37*
%TD*%
D20*
%TO.C,TP4*%
X77253553Y-127866447D03*
%TD*%
%TO.C,R59*%
G36*
G01*
X59786525Y-80262764D02*
X59786525Y-80737764D01*
G75*
G02*
X59549025Y-80975264I-237500J0D01*
G01*
X59049025Y-80975264D01*
G75*
G02*
X58811525Y-80737764I0J237500D01*
G01*
X58811525Y-80262764D01*
G75*
G02*
X59049025Y-80025264I237500J0D01*
G01*
X59549025Y-80025264D01*
G75*
G02*
X59786525Y-80262764I0J-237500D01*
G01*
G37*
G36*
G01*
X57961525Y-80262764D02*
X57961525Y-80737764D01*
G75*
G02*
X57724025Y-80975264I-237500J0D01*
G01*
X57224025Y-80975264D01*
G75*
G02*
X56986525Y-80737764I0J237500D01*
G01*
X56986525Y-80262764D01*
G75*
G02*
X57224025Y-80025264I237500J0D01*
G01*
X57724025Y-80025264D01*
G75*
G02*
X57961525Y-80262764I0J-237500D01*
G01*
G37*
%TD*%
%TO.C,R12*%
G36*
G01*
X82787500Y-92197500D02*
X82787500Y-92672500D01*
G75*
G02*
X82550000Y-92910000I-237500J0D01*
G01*
X82050000Y-92910000D01*
G75*
G02*
X81812500Y-92672500I0J237500D01*
G01*
X81812500Y-92197500D01*
G75*
G02*
X82050000Y-91960000I237500J0D01*
G01*
X82550000Y-91960000D01*
G75*
G02*
X82787500Y-92197500I0J-237500D01*
G01*
G37*
G36*
G01*
X80962500Y-92197500D02*
X80962500Y-92672500D01*
G75*
G02*
X80725000Y-92910000I-237500J0D01*
G01*
X80225000Y-92910000D01*
G75*
G02*
X79987500Y-92672500I0J237500D01*
G01*
X79987500Y-92197500D01*
G75*
G02*
X80225000Y-91960000I237500J0D01*
G01*
X80725000Y-91960000D01*
G75*
G02*
X80962500Y-92197500I0J-237500D01*
G01*
G37*
%TD*%
%TO.C,JP24*%
G36*
X86366650Y-137936170D02*
G01*
X85816650Y-137936170D01*
X85816650Y-137931892D01*
X85751387Y-137931892D01*
X85625308Y-137898110D01*
X85512269Y-137832847D01*
X85419973Y-137740551D01*
X85354710Y-137627512D01*
X85320928Y-137501433D01*
X85320928Y-137436170D01*
X85316650Y-137436170D01*
X85316650Y-136936170D01*
X85320928Y-136936170D01*
X85320928Y-136870907D01*
X85354710Y-136744828D01*
X85419973Y-136631789D01*
X85512269Y-136539493D01*
X85625308Y-136474230D01*
X85751387Y-136440448D01*
X85816650Y-136440448D01*
X85816650Y-136436170D01*
X86366650Y-136436170D01*
X86366650Y-137936170D01*
G37*
D22*
X87116650Y-137186170D03*
G36*
X88416650Y-136440448D02*
G01*
X88481913Y-136440448D01*
X88607992Y-136474230D01*
X88721031Y-136539493D01*
X88813327Y-136631789D01*
X88878590Y-136744828D01*
X88912372Y-136870907D01*
X88912372Y-136936170D01*
X88916650Y-136936170D01*
X88916650Y-137436170D01*
X88912372Y-137436170D01*
X88912372Y-137501433D01*
X88878590Y-137627512D01*
X88813327Y-137740551D01*
X88721031Y-137832847D01*
X88607992Y-137898110D01*
X88481913Y-137931892D01*
X88416650Y-137931892D01*
X88416650Y-137936170D01*
X87866650Y-137936170D01*
X87866650Y-136436170D01*
X88416650Y-136436170D01*
X88416650Y-136440448D01*
G37*
%TD*%
%TO.C,R58*%
G36*
G01*
X57653553Y-65162500D02*
X57653553Y-65637500D01*
G75*
G02*
X57416053Y-65875000I-237500J0D01*
G01*
X56916053Y-65875000D01*
G75*
G02*
X56678553Y-65637500I0J237500D01*
G01*
X56678553Y-65162500D01*
G75*
G02*
X56916053Y-64925000I237500J0D01*
G01*
X57416053Y-64925000D01*
G75*
G02*
X57653553Y-65162500I0J-237500D01*
G01*
G37*
G36*
G01*
X55828553Y-65162500D02*
X55828553Y-65637500D01*
G75*
G02*
X55591053Y-65875000I-237500J0D01*
G01*
X55091053Y-65875000D01*
G75*
G02*
X54853553Y-65637500I0J237500D01*
G01*
X54853553Y-65162500D01*
G75*
G02*
X55091053Y-64925000I237500J0D01*
G01*
X55591053Y-64925000D01*
G75*
G02*
X55828553Y-65162500I0J-237500D01*
G01*
G37*
%TD*%
%TO.C,JP22*%
G36*
X77119740Y-115916447D02*
G01*
X76619740Y-115916447D01*
X76619740Y-115912169D01*
X76554477Y-115912169D01*
X76428398Y-115878387D01*
X76315359Y-115813124D01*
X76223063Y-115720828D01*
X76157800Y-115607789D01*
X76124018Y-115481710D01*
X76124018Y-115416447D01*
X76119740Y-115416447D01*
X76119740Y-114916447D01*
X76124018Y-114916447D01*
X76124018Y-114851184D01*
X76157800Y-114725105D01*
X76223063Y-114612066D01*
X76315359Y-114519770D01*
X76428398Y-114454507D01*
X76554477Y-114420725D01*
X76619740Y-114420725D01*
X76619740Y-114416447D01*
X77119740Y-114416447D01*
X77119740Y-115916447D01*
G37*
G36*
X77919740Y-114420725D02*
G01*
X77985003Y-114420725D01*
X78111082Y-114454507D01*
X78224121Y-114519770D01*
X78316417Y-114612066D01*
X78381680Y-114725105D01*
X78415462Y-114851184D01*
X78415462Y-114916447D01*
X78419740Y-114916447D01*
X78419740Y-115416447D01*
X78415462Y-115416447D01*
X78415462Y-115481710D01*
X78381680Y-115607789D01*
X78316417Y-115720828D01*
X78224121Y-115813124D01*
X78111082Y-115878387D01*
X77985003Y-115912169D01*
X77919740Y-115912169D01*
X77919740Y-115916447D01*
X77419740Y-115916447D01*
X77419740Y-114416447D01*
X77919740Y-114416447D01*
X77919740Y-114420725D01*
G37*
%TD*%
%TO.C,R57*%
G36*
G01*
X65730301Y-56839799D02*
X65255301Y-56839799D01*
G75*
G02*
X65017801Y-56602299I0J237500D01*
G01*
X65017801Y-56102299D01*
G75*
G02*
X65255301Y-55864799I237500J0D01*
G01*
X65730301Y-55864799D01*
G75*
G02*
X65967801Y-56102299I0J-237500D01*
G01*
X65967801Y-56602299D01*
G75*
G02*
X65730301Y-56839799I-237500J0D01*
G01*
G37*
G36*
G01*
X65730301Y-55014799D02*
X65255301Y-55014799D01*
G75*
G02*
X65017801Y-54777299I0J237500D01*
G01*
X65017801Y-54277299D01*
G75*
G02*
X65255301Y-54039799I237500J0D01*
G01*
X65730301Y-54039799D01*
G75*
G02*
X65967801Y-54277299I0J-237500D01*
G01*
X65967801Y-54777299D01*
G75*
G02*
X65730301Y-55014799I-237500J0D01*
G01*
G37*
%TD*%
%TO.C,D11*%
G36*
X134905000Y-119920274D02*
G01*
X139205000Y-118920274D01*
X139205000Y-117320274D01*
X134905000Y-116320274D01*
X134905000Y-119920274D01*
G37*
G36*
X145605000Y-116320274D02*
G01*
X141305000Y-117320274D01*
X141305000Y-118920274D01*
X145605000Y-119920274D01*
X145605000Y-116320274D01*
G37*
%TD*%
%TO.C,R29*%
G36*
G01*
X113492350Y-104676219D02*
X113492350Y-105926219D01*
G75*
G02*
X113242350Y-106176219I-250000J0D01*
G01*
X112442350Y-106176219D01*
G75*
G02*
X112192350Y-105926219I0J250000D01*
G01*
X112192350Y-104676219D01*
G75*
G02*
X112442350Y-104426219I250000J0D01*
G01*
X113242350Y-104426219D01*
G75*
G02*
X113492350Y-104676219I0J-250000D01*
G01*
G37*
G36*
G01*
X116592350Y-104676219D02*
X116592350Y-105926219D01*
G75*
G02*
X116342350Y-106176219I-250000J0D01*
G01*
X115542350Y-106176219D01*
G75*
G02*
X115292350Y-105926219I0J250000D01*
G01*
X115292350Y-104676219D01*
G75*
G02*
X115542350Y-104426219I250000J0D01*
G01*
X116342350Y-104426219D01*
G75*
G02*
X116592350Y-104676219I0J-250000D01*
G01*
G37*
%TD*%
%TO.C,JP23*%
G36*
X67708375Y-114412317D02*
G01*
X68208375Y-114412317D01*
X68208375Y-114416595D01*
X68273638Y-114416595D01*
X68399717Y-114450377D01*
X68512756Y-114515640D01*
X68605052Y-114607936D01*
X68670315Y-114720975D01*
X68704097Y-114847054D01*
X68704097Y-114912317D01*
X68708375Y-114912317D01*
X68708375Y-115412317D01*
X68704097Y-115412317D01*
X68704097Y-115477580D01*
X68670315Y-115603659D01*
X68605052Y-115716698D01*
X68512756Y-115808994D01*
X68399717Y-115874257D01*
X68273638Y-115908039D01*
X68208375Y-115908039D01*
X68208375Y-115912317D01*
X67708375Y-115912317D01*
X67708375Y-114412317D01*
G37*
G36*
X66908375Y-115908039D02*
G01*
X66843112Y-115908039D01*
X66717033Y-115874257D01*
X66603994Y-115808994D01*
X66511698Y-115716698D01*
X66446435Y-115603659D01*
X66412653Y-115477580D01*
X66412653Y-115412317D01*
X66408375Y-115412317D01*
X66408375Y-114912317D01*
X66412653Y-114912317D01*
X66412653Y-114847054D01*
X66446435Y-114720975D01*
X66511698Y-114607936D01*
X66603994Y-114515640D01*
X66717033Y-114450377D01*
X66843112Y-114416595D01*
X66908375Y-114416595D01*
X66908375Y-114412317D01*
X67408375Y-114412317D01*
X67408375Y-115912317D01*
X66908375Y-115912317D01*
X66908375Y-115908039D01*
G37*
%TD*%
%TO.C,R46*%
G36*
G01*
X105267500Y-124732774D02*
X105742500Y-124732774D01*
G75*
G02*
X105980000Y-124970274I0J-237500D01*
G01*
X105980000Y-125470274D01*
G75*
G02*
X105742500Y-125707774I-237500J0D01*
G01*
X105267500Y-125707774D01*
G75*
G02*
X105030000Y-125470274I0J237500D01*
G01*
X105030000Y-124970274D01*
G75*
G02*
X105267500Y-124732774I237500J0D01*
G01*
G37*
G36*
G01*
X105267500Y-126557774D02*
X105742500Y-126557774D01*
G75*
G02*
X105980000Y-126795274I0J-237500D01*
G01*
X105980000Y-127295274D01*
G75*
G02*
X105742500Y-127532774I-237500J0D01*
G01*
X105267500Y-127532774D01*
G75*
G02*
X105030000Y-127295274I0J237500D01*
G01*
X105030000Y-126795274D01*
G75*
G02*
X105267500Y-126557774I237500J0D01*
G01*
G37*
%TD*%
%TO.C,JP28*%
G36*
X77119740Y-108294156D02*
G01*
X76619740Y-108294156D01*
X76619740Y-108289878D01*
X76554477Y-108289878D01*
X76428398Y-108256096D01*
X76315359Y-108190833D01*
X76223063Y-108098537D01*
X76157800Y-107985498D01*
X76124018Y-107859419D01*
X76124018Y-107794156D01*
X76119740Y-107794156D01*
X76119740Y-107294156D01*
X76124018Y-107294156D01*
X76124018Y-107228893D01*
X76157800Y-107102814D01*
X76223063Y-106989775D01*
X76315359Y-106897479D01*
X76428398Y-106832216D01*
X76554477Y-106798434D01*
X76619740Y-106798434D01*
X76619740Y-106794156D01*
X77119740Y-106794156D01*
X77119740Y-108294156D01*
G37*
G36*
X77919740Y-106798434D02*
G01*
X77985003Y-106798434D01*
X78111082Y-106832216D01*
X78224121Y-106897479D01*
X78316417Y-106989775D01*
X78381680Y-107102814D01*
X78415462Y-107228893D01*
X78415462Y-107294156D01*
X78419740Y-107294156D01*
X78419740Y-107794156D01*
X78415462Y-107794156D01*
X78415462Y-107859419D01*
X78381680Y-107985498D01*
X78316417Y-108098537D01*
X78224121Y-108190833D01*
X78111082Y-108256096D01*
X77985003Y-108289878D01*
X77919740Y-108289878D01*
X77919740Y-108294156D01*
X77419740Y-108294156D01*
X77419740Y-106794156D01*
X77919740Y-106794156D01*
X77919740Y-106798434D01*
G37*
%TD*%
%TO.C,JP27*%
G36*
X77119740Y-110836601D02*
G01*
X76619740Y-110836601D01*
X76619740Y-110832323D01*
X76554477Y-110832323D01*
X76428398Y-110798541D01*
X76315359Y-110733278D01*
X76223063Y-110640982D01*
X76157800Y-110527943D01*
X76124018Y-110401864D01*
X76124018Y-110336601D01*
X76119740Y-110336601D01*
X76119740Y-109836601D01*
X76124018Y-109836601D01*
X76124018Y-109771338D01*
X76157800Y-109645259D01*
X76223063Y-109532220D01*
X76315359Y-109439924D01*
X76428398Y-109374661D01*
X76554477Y-109340879D01*
X76619740Y-109340879D01*
X76619740Y-109336601D01*
X77119740Y-109336601D01*
X77119740Y-110836601D01*
G37*
G36*
X77919740Y-109340879D02*
G01*
X77985003Y-109340879D01*
X78111082Y-109374661D01*
X78224121Y-109439924D01*
X78316417Y-109532220D01*
X78381680Y-109645259D01*
X78415462Y-109771338D01*
X78415462Y-109836601D01*
X78419740Y-109836601D01*
X78419740Y-110336601D01*
X78415462Y-110336601D01*
X78415462Y-110401864D01*
X78381680Y-110527943D01*
X78316417Y-110640982D01*
X78224121Y-110733278D01*
X78111082Y-110798541D01*
X77985003Y-110832323D01*
X77919740Y-110832323D01*
X77919740Y-110836601D01*
X77419740Y-110836601D01*
X77419740Y-109336601D01*
X77919740Y-109336601D01*
X77919740Y-109340879D01*
G37*
%TD*%
%TO.C,R17*%
G36*
G01*
X145300000Y-82054232D02*
X145300000Y-80804232D01*
G75*
G02*
X145550000Y-80554232I250000J0D01*
G01*
X146350000Y-80554232D01*
G75*
G02*
X146600000Y-80804232I0J-250000D01*
G01*
X146600000Y-82054232D01*
G75*
G02*
X146350000Y-82304232I-250000J0D01*
G01*
X145550000Y-82304232D01*
G75*
G02*
X145300000Y-82054232I0J250000D01*
G01*
G37*
G36*
G01*
X148400000Y-82054232D02*
X148400000Y-80804232D01*
G75*
G02*
X148650000Y-80554232I250000J0D01*
G01*
X149450000Y-80554232D01*
G75*
G02*
X149700000Y-80804232I0J-250000D01*
G01*
X149700000Y-82054232D01*
G75*
G02*
X149450000Y-82304232I-250000J0D01*
G01*
X148650000Y-82304232D01*
G75*
G02*
X148400000Y-82054232I0J250000D01*
G01*
G37*
%TD*%
%TO.C,JP32*%
G36*
X77119740Y-100676447D02*
G01*
X76619740Y-100676447D01*
X76619740Y-100672169D01*
X76554477Y-100672169D01*
X76428398Y-100638387D01*
X76315359Y-100573124D01*
X76223063Y-100480828D01*
X76157800Y-100367789D01*
X76124018Y-100241710D01*
X76124018Y-100176447D01*
X76119740Y-100176447D01*
X76119740Y-99676447D01*
X76124018Y-99676447D01*
X76124018Y-99611184D01*
X76157800Y-99485105D01*
X76223063Y-99372066D01*
X76315359Y-99279770D01*
X76428398Y-99214507D01*
X76554477Y-99180725D01*
X76619740Y-99180725D01*
X76619740Y-99176447D01*
X77119740Y-99176447D01*
X77119740Y-100676447D01*
G37*
G36*
X77919740Y-99180725D02*
G01*
X77985003Y-99180725D01*
X78111082Y-99214507D01*
X78224121Y-99279770D01*
X78316417Y-99372066D01*
X78381680Y-99485105D01*
X78415462Y-99611184D01*
X78415462Y-99676447D01*
X78419740Y-99676447D01*
X78419740Y-100176447D01*
X78415462Y-100176447D01*
X78415462Y-100241710D01*
X78381680Y-100367789D01*
X78316417Y-100480828D01*
X78224121Y-100573124D01*
X78111082Y-100638387D01*
X77985003Y-100672169D01*
X77919740Y-100672169D01*
X77919740Y-100676447D01*
X77419740Y-100676447D01*
X77419740Y-99176447D01*
X77919740Y-99176447D01*
X77919740Y-99180725D01*
G37*
%TD*%
%TO.C,TH1*%
G36*
G01*
X143097500Y-80154232D02*
X143572500Y-80154232D01*
G75*
G02*
X143810000Y-80391732I0J-237500D01*
G01*
X143810000Y-80891732D01*
G75*
G02*
X143572500Y-81129232I-237500J0D01*
G01*
X143097500Y-81129232D01*
G75*
G02*
X142860000Y-80891732I0J237500D01*
G01*
X142860000Y-80391732D01*
G75*
G02*
X143097500Y-80154232I237500J0D01*
G01*
G37*
G36*
G01*
X143097500Y-81979232D02*
X143572500Y-81979232D01*
G75*
G02*
X143810000Y-82216732I0J-237500D01*
G01*
X143810000Y-82716732D01*
G75*
G02*
X143572500Y-82954232I-237500J0D01*
G01*
X143097500Y-82954232D01*
G75*
G02*
X142860000Y-82716732I0J237500D01*
G01*
X142860000Y-82216732D01*
G75*
G02*
X143097500Y-81979232I237500J0D01*
G01*
G37*
%TD*%
%TO.C,D3*%
G36*
X134900000Y-68729232D02*
G01*
X139200000Y-67729232D01*
X139200000Y-66129232D01*
X134900000Y-65129232D01*
X134900000Y-68729232D01*
G37*
G36*
X145600000Y-65129232D02*
G01*
X141300000Y-66129232D01*
X141300000Y-67729232D01*
X145600000Y-68729232D01*
X145600000Y-65129232D01*
G37*
%TD*%
D20*
%TO.C,TP6*%
X67562749Y-110082117D03*
%TD*%
%TO.C,JP12*%
G36*
X67691348Y-132201533D02*
G01*
X68191348Y-132201533D01*
X68191348Y-132205811D01*
X68256611Y-132205811D01*
X68382690Y-132239593D01*
X68495729Y-132304856D01*
X68588025Y-132397152D01*
X68653288Y-132510191D01*
X68687070Y-132636270D01*
X68687070Y-132701533D01*
X68691348Y-132701533D01*
X68691348Y-133201533D01*
X68687070Y-133201533D01*
X68687070Y-133266796D01*
X68653288Y-133392875D01*
X68588025Y-133505914D01*
X68495729Y-133598210D01*
X68382690Y-133663473D01*
X68256611Y-133697255D01*
X68191348Y-133697255D01*
X68191348Y-133701533D01*
X67691348Y-133701533D01*
X67691348Y-132201533D01*
G37*
G36*
X66891348Y-133697255D02*
G01*
X66826085Y-133697255D01*
X66700006Y-133663473D01*
X66586967Y-133598210D01*
X66494671Y-133505914D01*
X66429408Y-133392875D01*
X66395626Y-133266796D01*
X66395626Y-133201533D01*
X66391348Y-133201533D01*
X66391348Y-132701533D01*
X66395626Y-132701533D01*
X66395626Y-132636270D01*
X66429408Y-132510191D01*
X66494671Y-132397152D01*
X66586967Y-132304856D01*
X66700006Y-132239593D01*
X66826085Y-132205811D01*
X66891348Y-132205811D01*
X66891348Y-132201533D01*
X67391348Y-132201533D01*
X67391348Y-133701533D01*
X66891348Y-133701533D01*
X66891348Y-133697255D01*
G37*
%TD*%
%TO.C,TH6*%
G36*
G01*
X130500000Y-127830710D02*
X130500000Y-128305710D01*
G75*
G02*
X130262500Y-128543210I-237500J0D01*
G01*
X129762500Y-128543210D01*
G75*
G02*
X129525000Y-128305710I0J237500D01*
G01*
X129525000Y-127830710D01*
G75*
G02*
X129762500Y-127593210I237500J0D01*
G01*
X130262500Y-127593210D01*
G75*
G02*
X130500000Y-127830710I0J-237500D01*
G01*
G37*
G36*
G01*
X128675000Y-127830710D02*
X128675000Y-128305710D01*
G75*
G02*
X128437500Y-128543210I-237500J0D01*
G01*
X127937500Y-128543210D01*
G75*
G02*
X127700000Y-128305710I0J237500D01*
G01*
X127700000Y-127830710D01*
G75*
G02*
X127937500Y-127593210I237500J0D01*
G01*
X128437500Y-127593210D01*
G75*
G02*
X128675000Y-127830710I0J-237500D01*
G01*
G37*
%TD*%
%TO.C,JP19*%
G36*
X67698792Y-119492431D02*
G01*
X68198792Y-119492431D01*
X68198792Y-119496709D01*
X68264055Y-119496709D01*
X68390134Y-119530491D01*
X68503173Y-119595754D01*
X68595469Y-119688050D01*
X68660732Y-119801089D01*
X68694514Y-119927168D01*
X68694514Y-119992431D01*
X68698792Y-119992431D01*
X68698792Y-120492431D01*
X68694514Y-120492431D01*
X68694514Y-120557694D01*
X68660732Y-120683773D01*
X68595469Y-120796812D01*
X68503173Y-120889108D01*
X68390134Y-120954371D01*
X68264055Y-120988153D01*
X68198792Y-120988153D01*
X68198792Y-120992431D01*
X67698792Y-120992431D01*
X67698792Y-119492431D01*
G37*
G36*
X66898792Y-120988153D02*
G01*
X66833529Y-120988153D01*
X66707450Y-120954371D01*
X66594411Y-120889108D01*
X66502115Y-120796812D01*
X66436852Y-120683773D01*
X66403070Y-120557694D01*
X66403070Y-120492431D01*
X66398792Y-120492431D01*
X66398792Y-119992431D01*
X66403070Y-119992431D01*
X66403070Y-119927168D01*
X66436852Y-119801089D01*
X66502115Y-119688050D01*
X66594411Y-119595754D01*
X66707450Y-119530491D01*
X66833529Y-119496709D01*
X66898792Y-119496709D01*
X66898792Y-119492431D01*
X67398792Y-119492431D01*
X67398792Y-120992431D01*
X66898792Y-120992431D01*
X66898792Y-120988153D01*
G37*
%TD*%
%TO.C,JP14*%
G36*
X67709740Y-127116447D02*
G01*
X68209740Y-127116447D01*
X68209740Y-127120725D01*
X68275003Y-127120725D01*
X68401082Y-127154507D01*
X68514121Y-127219770D01*
X68606417Y-127312066D01*
X68671680Y-127425105D01*
X68705462Y-127551184D01*
X68705462Y-127616447D01*
X68709740Y-127616447D01*
X68709740Y-128116447D01*
X68705462Y-128116447D01*
X68705462Y-128181710D01*
X68671680Y-128307789D01*
X68606417Y-128420828D01*
X68514121Y-128513124D01*
X68401082Y-128578387D01*
X68275003Y-128612169D01*
X68209740Y-128612169D01*
X68209740Y-128616447D01*
X67709740Y-128616447D01*
X67709740Y-127116447D01*
G37*
G36*
X66909740Y-128612169D02*
G01*
X66844477Y-128612169D01*
X66718398Y-128578387D01*
X66605359Y-128513124D01*
X66513063Y-128420828D01*
X66447800Y-128307789D01*
X66414018Y-128181710D01*
X66414018Y-128116447D01*
X66409740Y-128116447D01*
X66409740Y-127616447D01*
X66414018Y-127616447D01*
X66414018Y-127551184D01*
X66447800Y-127425105D01*
X66513063Y-127312066D01*
X66605359Y-127219770D01*
X66718398Y-127154507D01*
X66844477Y-127120725D01*
X66909740Y-127120725D01*
X66909740Y-127116447D01*
X67409740Y-127116447D01*
X67409740Y-128616447D01*
X66909740Y-128616447D01*
X66909740Y-128612169D01*
G37*
%TD*%
%TO.C,R3*%
G36*
G01*
X73662500Y-93060000D02*
X73662500Y-91810000D01*
G75*
G02*
X73912500Y-91560000I250000J0D01*
G01*
X74712500Y-91560000D01*
G75*
G02*
X74962500Y-91810000I0J-250000D01*
G01*
X74962500Y-93060000D01*
G75*
G02*
X74712500Y-93310000I-250000J0D01*
G01*
X73912500Y-93310000D01*
G75*
G02*
X73662500Y-93060000I0J250000D01*
G01*
G37*
G36*
G01*
X76762500Y-93060000D02*
X76762500Y-91810000D01*
G75*
G02*
X77012500Y-91560000I250000J0D01*
G01*
X77812500Y-91560000D01*
G75*
G02*
X78062500Y-91810000I0J-250000D01*
G01*
X78062500Y-93060000D01*
G75*
G02*
X77812500Y-93310000I-250000J0D01*
G01*
X77012500Y-93310000D01*
G75*
G02*
X76762500Y-93060000I0J250000D01*
G01*
G37*
%TD*%
G36*
X102031385Y-111334185D02*
G01*
X102098410Y-111353919D01*
X102144126Y-111406756D01*
X102155285Y-111456725D01*
X102156787Y-111584279D01*
X104601061Y-111586074D01*
X104601067Y-111586076D01*
X106457072Y-111587440D01*
X125771807Y-111601639D01*
X125779917Y-111601910D01*
X126094040Y-111622731D01*
X126110119Y-111624860D01*
X126414873Y-111685711D01*
X126430538Y-111689921D01*
X126724732Y-111790029D01*
X126739712Y-111796247D01*
X127018321Y-111933896D01*
X127032362Y-111942016D01*
X127290623Y-112114855D01*
X127303484Y-112124739D01*
X127536978Y-112329812D01*
X127548439Y-112341290D01*
X127753166Y-112575082D01*
X127763031Y-112587957D01*
X127935489Y-112846470D01*
X127943589Y-112860523D01*
X128080833Y-113139344D01*
X128087029Y-113154334D01*
X128186702Y-113448670D01*
X128190888Y-113464340D01*
X128251290Y-113769176D01*
X128253395Y-113785259D01*
X128273755Y-114099421D01*
X128274015Y-114107531D01*
X128271843Y-117062061D01*
X128271571Y-117070179D01*
X128250708Y-117384625D01*
X128248575Y-117400720D01*
X128187606Y-117705756D01*
X128183388Y-117721435D01*
X128083088Y-118015885D01*
X128076858Y-118030878D01*
X127938946Y-118309701D01*
X127930811Y-118323751D01*
X127757651Y-118582167D01*
X127747749Y-118595035D01*
X127542308Y-118828613D01*
X127530810Y-118840076D01*
X127296613Y-119044810D01*
X127283716Y-119054672D01*
X127024789Y-119227045D01*
X127010714Y-119235139D01*
X126731464Y-119372213D01*
X126716453Y-119378397D01*
X126421709Y-119477806D01*
X126406017Y-119481977D01*
X126100792Y-119542027D01*
X126084690Y-119544111D01*
X125770193Y-119564022D01*
X125762075Y-119564270D01*
X107278678Y-119522049D01*
X94111227Y-119491970D01*
X94103129Y-119491686D01*
X93789498Y-119470440D01*
X93773445Y-119468293D01*
X93469214Y-119407145D01*
X93453578Y-119402923D01*
X93159917Y-119302647D01*
X93144963Y-119296423D01*
X92866881Y-119158728D01*
X92852867Y-119150609D01*
X92595096Y-118977839D01*
X92582260Y-118967962D01*
X92349212Y-118763074D01*
X92337772Y-118751608D01*
X92133412Y-118518087D01*
X92123565Y-118505228D01*
X91951392Y-118247075D01*
X91943304Y-118233043D01*
X91806239Y-117954635D01*
X91800050Y-117939668D01*
X91700445Y-117645781D01*
X91696259Y-117630134D01*
X91635809Y-117325772D01*
X91633698Y-117309714D01*
X91613167Y-116996016D01*
X91612902Y-116987918D01*
X91612902Y-111644588D01*
X91629606Y-111587699D01*
X91629462Y-111450761D01*
X91649076Y-111383701D01*
X91701832Y-111337890D01*
X91753553Y-111326630D01*
X102031385Y-111334185D01*
G37*
G36*
X101730581Y-85789312D02*
G01*
X101797606Y-85809046D01*
X101843322Y-85861883D01*
X101854481Y-85911852D01*
X101855983Y-86039405D01*
X125759604Y-86056978D01*
X125767714Y-86057249D01*
X126081861Y-86078071D01*
X126097940Y-86080200D01*
X126402686Y-86141050D01*
X126418351Y-86145260D01*
X126712545Y-86245368D01*
X126727525Y-86251586D01*
X127006134Y-86389235D01*
X127020175Y-86397355D01*
X127278440Y-86570196D01*
X127291302Y-86580080D01*
X127524792Y-86785150D01*
X127536252Y-86796628D01*
X127740976Y-87030417D01*
X127750841Y-87043292D01*
X127923302Y-87301809D01*
X127931402Y-87315862D01*
X128068646Y-87594683D01*
X128074842Y-87609673D01*
X128174515Y-87904009D01*
X128178701Y-87919679D01*
X128239103Y-88224515D01*
X128241208Y-88240598D01*
X128261568Y-88554760D01*
X128261828Y-88562870D01*
X128259656Y-91517400D01*
X128259384Y-91525518D01*
X128238521Y-91839964D01*
X128236388Y-91856059D01*
X128175419Y-92161095D01*
X128171201Y-92176774D01*
X128070901Y-92471224D01*
X128064671Y-92486217D01*
X127926759Y-92765040D01*
X127918624Y-92779090D01*
X127745464Y-93037506D01*
X127735562Y-93050374D01*
X127530121Y-93283952D01*
X127518623Y-93295415D01*
X127284426Y-93500149D01*
X127271529Y-93510011D01*
X127012602Y-93682384D01*
X126998527Y-93690478D01*
X126719277Y-93827552D01*
X126704265Y-93833736D01*
X126409521Y-93933144D01*
X126393830Y-93937315D01*
X126088605Y-93997366D01*
X126072503Y-93999450D01*
X125758006Y-94019361D01*
X125749888Y-94019609D01*
X115060126Y-93995191D01*
X101949314Y-93965242D01*
X101949313Y-93965242D01*
X101950776Y-94089502D01*
X101931882Y-94156768D01*
X101879620Y-94203141D01*
X101826502Y-94214961D01*
X91734923Y-94191909D01*
X91667928Y-94172071D01*
X91622294Y-94119163D01*
X91611206Y-94068039D01*
X91611051Y-93920007D01*
X91603531Y-93906213D01*
X91600715Y-93879937D01*
X91600715Y-86085282D01*
X91602811Y-86078140D01*
X91602766Y-86030847D01*
X91602634Y-85906090D01*
X91622248Y-85839030D01*
X91675003Y-85793219D01*
X91726725Y-85781959D01*
X101730581Y-85789312D01*
G37*
G36*
X101426855Y-60125965D02*
G01*
X101493880Y-60145699D01*
X101539596Y-60198536D01*
X101546221Y-60216708D01*
X101547814Y-60222430D01*
X101552348Y-60254226D01*
X101553783Y-60376059D01*
X101553783Y-60376060D01*
X125763889Y-60393858D01*
X125771999Y-60394129D01*
X126086146Y-60414951D01*
X126102225Y-60417080D01*
X126406971Y-60477930D01*
X126422636Y-60482140D01*
X126716830Y-60582248D01*
X126731810Y-60588466D01*
X127010419Y-60726115D01*
X127024460Y-60734235D01*
X127282725Y-60907076D01*
X127295587Y-60916960D01*
X127529077Y-61122030D01*
X127540537Y-61133508D01*
X127745261Y-61367297D01*
X127755126Y-61380172D01*
X127927587Y-61638689D01*
X127935687Y-61652742D01*
X128072931Y-61931563D01*
X128079127Y-61946553D01*
X128178800Y-62240889D01*
X128182986Y-62256559D01*
X128243388Y-62561395D01*
X128245493Y-62577478D01*
X128265853Y-62891640D01*
X128266113Y-62899750D01*
X128263941Y-65854280D01*
X128263669Y-65862398D01*
X128242806Y-66176844D01*
X128240673Y-66192939D01*
X128179704Y-66497975D01*
X128175486Y-66513654D01*
X128075186Y-66808104D01*
X128068956Y-66823097D01*
X127931044Y-67101920D01*
X127922909Y-67115970D01*
X127749749Y-67374386D01*
X127739847Y-67387254D01*
X127534406Y-67620832D01*
X127522908Y-67632295D01*
X127288711Y-67837029D01*
X127275814Y-67846891D01*
X127016887Y-68019264D01*
X127002812Y-68027358D01*
X126723562Y-68164432D01*
X126708550Y-68170616D01*
X126413806Y-68270024D01*
X126398115Y-68274195D01*
X126092890Y-68334246D01*
X126076788Y-68336330D01*
X125762291Y-68356241D01*
X125754173Y-68356489D01*
X114914164Y-68331728D01*
X101647110Y-68301422D01*
X101647109Y-68301422D01*
X101648572Y-68425682D01*
X101629678Y-68492948D01*
X101577416Y-68539321D01*
X101524298Y-68551141D01*
X91707972Y-68528718D01*
X91640977Y-68508880D01*
X91595343Y-68455972D01*
X91584255Y-68404848D01*
X91578166Y-62606695D01*
X91578423Y-62598579D01*
X91598712Y-62284187D01*
X91600815Y-62268094D01*
X91661202Y-61963041D01*
X91665390Y-61947359D01*
X91765100Y-61652818D01*
X91771299Y-61637818D01*
X91908629Y-61358818D01*
X91916735Y-61344756D01*
X92089335Y-61086074D01*
X92099207Y-61073191D01*
X92304102Y-60839285D01*
X92315573Y-60827802D01*
X92549280Y-60622647D01*
X92562153Y-60612761D01*
X92820642Y-60439897D01*
X92834695Y-60431777D01*
X93113547Y-60294156D01*
X93128541Y-60287940D01*
X93422993Y-60187915D01*
X93438670Y-60183712D01*
X93743651Y-60123006D01*
X93759757Y-60120885D01*
X93764049Y-60120604D01*
X93772241Y-60120339D01*
X101426855Y-60125965D01*
G37*
G36*
X130607552Y-129740395D02*
G01*
X130772072Y-129756495D01*
X130795885Y-129761212D01*
X130948279Y-129807292D01*
X130970714Y-129816559D01*
X131111199Y-129891439D01*
X131131400Y-129904898D01*
X131259340Y-130009586D01*
X131268357Y-130017734D01*
X131538745Y-130287270D01*
X131538746Y-130287270D01*
X131901902Y-130286796D01*
X131901906Y-130286796D01*
X140900754Y-130275056D01*
X140911562Y-130275514D01*
X141112439Y-130292824D01*
X141133730Y-130296549D01*
X141323310Y-130347081D01*
X141343632Y-130354448D01*
X141521541Y-130437127D01*
X141540272Y-130447909D01*
X141701134Y-130560232D01*
X141717711Y-130574104D01*
X141856622Y-130712653D01*
X141870537Y-130729193D01*
X141983275Y-130889753D01*
X141994106Y-130908457D01*
X142077255Y-131086163D01*
X142084675Y-131106465D01*
X142135700Y-131295904D01*
X142139481Y-131317185D01*
X142157317Y-131518021D01*
X142157803Y-131528828D01*
X142162271Y-134947048D01*
X142161814Y-134957851D01*
X142144517Y-135158661D01*
X142140794Y-135179945D01*
X142090303Y-135369447D01*
X142082943Y-135389760D01*
X142000325Y-135567624D01*
X141989550Y-135586352D01*
X141877312Y-135747174D01*
X141863450Y-135763747D01*
X141725001Y-135902645D01*
X141708473Y-135916561D01*
X141548017Y-136029317D01*
X141529324Y-136040152D01*
X141351727Y-136123347D01*
X141331437Y-136130773D01*
X141142097Y-136181877D01*
X141120826Y-136185668D01*
X140920089Y-136203613D01*
X140909287Y-136204106D01*
X138372720Y-136209000D01*
X120828065Y-136242846D01*
X120817242Y-136242394D01*
X120616075Y-136225161D01*
X120594754Y-136221438D01*
X120404916Y-136170892D01*
X120384568Y-136163520D01*
X120206412Y-136080736D01*
X120187654Y-136069937D01*
X120026599Y-135957431D01*
X120010005Y-135943534D01*
X119870966Y-135804736D01*
X119857042Y-135788168D01*
X119744262Y-135627321D01*
X119733430Y-135608582D01*
X119650331Y-135430562D01*
X119642923Y-135410226D01*
X119592046Y-135220477D01*
X119588286Y-135199162D01*
X119570702Y-134998029D01*
X119570231Y-134987207D01*
X119570966Y-130999751D01*
X119571439Y-130988949D01*
X119589034Y-130788173D01*
X119592788Y-130766896D01*
X119643559Y-130577467D01*
X119650950Y-130557164D01*
X119733826Y-130379436D01*
X119744628Y-130360726D01*
X119857101Y-130200071D01*
X119870987Y-130183517D01*
X120009632Y-130044832D01*
X120026179Y-130030943D01*
X120186805Y-129918416D01*
X120205514Y-129907608D01*
X120383214Y-129824680D01*
X120403514Y-129817283D01*
X120592928Y-129766454D01*
X120614203Y-129762694D01*
X120814963Y-129745039D01*
X120825766Y-129744562D01*
X130595415Y-129739805D01*
X130607552Y-129740395D01*
G37*
G36*
X101428150Y-60104161D02*
G01*
X101449995Y-60109968D01*
X101505309Y-60141617D01*
X101509463Y-60145723D01*
X101541747Y-60200645D01*
X101547812Y-60222423D01*
X101552349Y-60254230D01*
X101553783Y-60376059D01*
X101681344Y-60376152D01*
X101748369Y-60395885D01*
X101794086Y-60448722D01*
X101805245Y-60498692D01*
X101895653Y-68176245D01*
X101876760Y-68243512D01*
X101824498Y-68289885D01*
X101771380Y-68301705D01*
X101647109Y-68301422D01*
X101647108Y-68301422D01*
X101855982Y-86039405D01*
X101983543Y-86039498D01*
X102050568Y-86059231D01*
X102096285Y-86112069D01*
X102107444Y-86162038D01*
X102197858Y-93840065D01*
X102178965Y-93907332D01*
X102126703Y-93953705D01*
X102073585Y-93965525D01*
X101949314Y-93965242D01*
X101949313Y-93965242D01*
X102156787Y-111584279D01*
X102284348Y-111584372D01*
X102351373Y-111604105D01*
X102397090Y-111656943D01*
X102408249Y-111706912D01*
X102498668Y-119385386D01*
X102479775Y-119452653D01*
X102427513Y-119499026D01*
X102374394Y-119510846D01*
X94111226Y-119491970D01*
X94103128Y-119491686D01*
X93789498Y-119470440D01*
X93773445Y-119468293D01*
X93469214Y-119407145D01*
X93453578Y-119402923D01*
X93159917Y-119302647D01*
X93144963Y-119296423D01*
X92866881Y-119158728D01*
X92852867Y-119150609D01*
X92595096Y-118977839D01*
X92582260Y-118967962D01*
X92349212Y-118763074D01*
X92337772Y-118751608D01*
X92133412Y-118518087D01*
X92123565Y-118505228D01*
X91951392Y-118247075D01*
X91943304Y-118233043D01*
X91806239Y-117954635D01*
X91800050Y-117939668D01*
X91700445Y-117645781D01*
X91696259Y-117630134D01*
X91635809Y-117325772D01*
X91633698Y-117309714D01*
X91613167Y-116996016D01*
X91612902Y-116987918D01*
X91612902Y-111644588D01*
X91629606Y-111587698D01*
X91611051Y-93920007D01*
X91603531Y-93906213D01*
X91600715Y-93879937D01*
X91600715Y-86085278D01*
X91602817Y-86078118D01*
X91602754Y-86019933D01*
X91602754Y-86019928D01*
X91585048Y-69159315D01*
X91578166Y-62606691D01*
X91578423Y-62598575D01*
X91598712Y-62284187D01*
X91600815Y-62268094D01*
X91661202Y-61963041D01*
X91665390Y-61947359D01*
X91765100Y-61652818D01*
X91771299Y-61637818D01*
X91908629Y-61358818D01*
X91916735Y-61344756D01*
X92089335Y-61086074D01*
X92099207Y-61073191D01*
X92304102Y-60839285D01*
X92315573Y-60827802D01*
X92549280Y-60622647D01*
X92562153Y-60612761D01*
X92820642Y-60439897D01*
X92834695Y-60431777D01*
X93113547Y-60294156D01*
X93128541Y-60287940D01*
X93422993Y-60187915D01*
X93438670Y-60183712D01*
X93743650Y-60123006D01*
X93759741Y-60120886D01*
X94074104Y-60100267D01*
X94082220Y-60100001D01*
X94521267Y-60100001D01*
X101396294Y-60099999D01*
X101428150Y-60104161D01*
G37*
G36*
X130597552Y-104145121D02*
G01*
X130762072Y-104161221D01*
X130785885Y-104165938D01*
X130938279Y-104212018D01*
X130960714Y-104221285D01*
X131101199Y-104296165D01*
X131121400Y-104309624D01*
X131249340Y-104414312D01*
X131258357Y-104422460D01*
X131528745Y-104691996D01*
X131528746Y-104691996D01*
X132794582Y-104690345D01*
X140890755Y-104679785D01*
X140901563Y-104680243D01*
X141102439Y-104697553D01*
X141123730Y-104701278D01*
X141313305Y-104751809D01*
X141333626Y-104759176D01*
X141511546Y-104841859D01*
X141530279Y-104852641D01*
X141691139Y-104964964D01*
X141707714Y-104978836D01*
X141846620Y-105117379D01*
X141860536Y-105133919D01*
X141973277Y-105294483D01*
X141984109Y-105313188D01*
X142067255Y-105490890D01*
X142074674Y-105511191D01*
X142125700Y-105700633D01*
X142129481Y-105721914D01*
X142147317Y-105922749D01*
X142147803Y-105933556D01*
X142152271Y-109351771D01*
X142151814Y-109362574D01*
X142134517Y-109563386D01*
X142130794Y-109584669D01*
X142080304Y-109774170D01*
X142072944Y-109794484D01*
X141990326Y-109972345D01*
X141979551Y-109991073D01*
X141867312Y-110151897D01*
X141853450Y-110168470D01*
X141715001Y-110307368D01*
X141698473Y-110321284D01*
X141538017Y-110434040D01*
X141519325Y-110444875D01*
X141341728Y-110528071D01*
X141321436Y-110535497D01*
X141132096Y-110586600D01*
X141110827Y-110590391D01*
X140910090Y-110608337D01*
X140899287Y-110608830D01*
X120818066Y-110647572D01*
X120807243Y-110647120D01*
X120606074Y-110629887D01*
X120584754Y-110626164D01*
X120394918Y-110575619D01*
X120374568Y-110568246D01*
X120196411Y-110485461D01*
X120177654Y-110474663D01*
X120016599Y-110362157D01*
X120000005Y-110348260D01*
X119860966Y-110209462D01*
X119847042Y-110192894D01*
X119734262Y-110032047D01*
X119723430Y-110013308D01*
X119640331Y-109835288D01*
X119632923Y-109814952D01*
X119582046Y-109625203D01*
X119578286Y-109603888D01*
X119560702Y-109402754D01*
X119560231Y-109391932D01*
X119560966Y-105404477D01*
X119561439Y-105393675D01*
X119579034Y-105192899D01*
X119582788Y-105171622D01*
X119633559Y-104982193D01*
X119640950Y-104961890D01*
X119723826Y-104784162D01*
X119734628Y-104765452D01*
X119847101Y-104604797D01*
X119860987Y-104588243D01*
X119999632Y-104449558D01*
X120016179Y-104435669D01*
X120176805Y-104323142D01*
X120195514Y-104312334D01*
X120373214Y-104229406D01*
X120393514Y-104222009D01*
X120582928Y-104171180D01*
X120604203Y-104167420D01*
X120804963Y-104149765D01*
X120815766Y-104149288D01*
X130585415Y-104144531D01*
X130597552Y-104145121D01*
G37*
G36*
X130607552Y-78545121D02*
G01*
X130772072Y-78561221D01*
X130795885Y-78565938D01*
X130948279Y-78612018D01*
X130970714Y-78621285D01*
X131111199Y-78696165D01*
X131131400Y-78709624D01*
X131259340Y-78814312D01*
X131268357Y-78822459D01*
X131538747Y-79091996D01*
X131901902Y-79091521D01*
X131901906Y-79091521D01*
X134388376Y-79088271D01*
X140990771Y-79079639D01*
X141001579Y-79080097D01*
X141202454Y-79097407D01*
X141223744Y-79101132D01*
X141413319Y-79151662D01*
X141433641Y-79159029D01*
X141611561Y-79241712D01*
X141630294Y-79252494D01*
X141791151Y-79364814D01*
X141807727Y-79378686D01*
X141946640Y-79517237D01*
X141960554Y-79533776D01*
X142073293Y-79694335D01*
X142084126Y-79713041D01*
X142167273Y-79890745D01*
X142174692Y-79911046D01*
X142225718Y-80100487D01*
X142229499Y-80121768D01*
X142247335Y-80322604D01*
X142247821Y-80333411D01*
X142252289Y-83751627D01*
X142251832Y-83762430D01*
X142234535Y-83963240D01*
X142230812Y-83984524D01*
X142180321Y-84174026D01*
X142172961Y-84194339D01*
X142090343Y-84372203D01*
X142079568Y-84390932D01*
X141967329Y-84551754D01*
X141953467Y-84568326D01*
X141815018Y-84707224D01*
X141798490Y-84721140D01*
X141638034Y-84833896D01*
X141619341Y-84844731D01*
X141441744Y-84927926D01*
X141421454Y-84935352D01*
X141232113Y-84986456D01*
X141210842Y-84990247D01*
X141010106Y-85008192D01*
X140999304Y-85008685D01*
X120947222Y-85047344D01*
X120947221Y-85047344D01*
X120828062Y-85047573D01*
X120817241Y-85047121D01*
X120616075Y-85029889D01*
X120594753Y-85026166D01*
X120404915Y-84975619D01*
X120384566Y-84968247D01*
X120206406Y-84885461D01*
X120187649Y-84874661D01*
X120026603Y-84762160D01*
X120010009Y-84748265D01*
X119870966Y-84609464D01*
X119857042Y-84592895D01*
X119744262Y-84432048D01*
X119733430Y-84413309D01*
X119650331Y-84235289D01*
X119642923Y-84214953D01*
X119592046Y-84025205D01*
X119588286Y-84003890D01*
X119570702Y-83802756D01*
X119570231Y-83791934D01*
X119570966Y-79804477D01*
X119571439Y-79793675D01*
X119589034Y-79592899D01*
X119592788Y-79571622D01*
X119643559Y-79382193D01*
X119650950Y-79361890D01*
X119733826Y-79184162D01*
X119744628Y-79165452D01*
X119857101Y-79004797D01*
X119870987Y-78988243D01*
X120009632Y-78849558D01*
X120026179Y-78835669D01*
X120186805Y-78723142D01*
X120205514Y-78712334D01*
X120383214Y-78629406D01*
X120403514Y-78622009D01*
X120592928Y-78571180D01*
X120614203Y-78567420D01*
X120814963Y-78549765D01*
X120825766Y-78549288D01*
X130595415Y-78544531D01*
X130607552Y-78545121D01*
G37*
D23*
X50000000Y-52500000D02*
X50000000Y-146000000D01*
X50000000Y-52500000D02*
G75*
G02*
X54000000Y-48500000I4000000J0D01*
G01*
X54000000Y-150000000D02*
G75*
G02*
X50000000Y-146000000I0J4000000D01*
G01*
X54000000Y-150000000D02*
X88656887Y-150000000D01*
X78999998Y-48499996D02*
X54000000Y-48500000D01*
X78999998Y-48499996D02*
G75*
G02*
X88653417Y-52496580I2J-13656804D01*
G01*
X98310317Y-146003427D02*
G75*
G02*
X88656887Y-149999980I-9653417J9660327D01*
G01*
X98313612Y-56500000D02*
G75*
G02*
X88656895Y-52500026I88J13656800D01*
G01*
X98313776Y-145999962D02*
G75*
G02*
X107970501Y-141999979I9656824J-9656838D01*
G01*
X136850000Y-56500000D02*
X98313612Y-56500000D01*
X136850000Y-142000000D02*
X107970582Y-141999996D01*
X136850000Y-142000000D02*
G75*
G02*
X143671561Y-144828439I-6900J-9656900D01*
G01*
X143671575Y-53671575D02*
G75*
G02*
X136850000Y-56500019I-6828475J6828475D01*
G01*
X143671573Y-53671573D02*
G75*
G02*
X150500000Y-56500000I2828427J-2828427D01*
G01*
X150500000Y-142000000D02*
G75*
G02*
X143671573Y-144828427I-4000000J0D01*
G01*
X150500000Y-142000000D02*
X150500000Y-56500000D01*
M02*
