%TF.GenerationSoftware,KiCad,Pcbnew,10.0.0*%
%TF.CreationDate,2026-06-10T22:40:30+05:30*%
%TF.ProjectId,Custom ESC,43757374-6f6d-4204-9553-432e6b696361,rev?*%
%TF.SameCoordinates,Original*%
%TF.FileFunction,Paste,Top*%
%TF.FilePolarity,Positive*%
%FSLAX46Y46*%
G04 Gerber Fmt 4.6, Leading zero omitted, Abs format (unit mm)*
G04 Created by KiCad (PCBNEW 10.0.0) date 2026-06-10 22:40:30*
%MOMM*%
%LPD*%
G01*
G04 APERTURE LIST*
G04 Aperture macros list*
%AMRoundRect*
0 Rectangle with rounded corners*
0 $1 Rounding radius*
0 $2 $3 $4 $5 $6 $7 $8 $9 X,Y pos of 4 corners*
0 Add a 4 corners polygon primitive as box body*
4,1,4,$2,$3,$4,$5,$6,$7,$8,$9,$2,$3,0*
0 Add four circle primitives for the rounded corners*
1,1,$1+$1,$2,$3*
1,1,$1+$1,$4,$5*
1,1,$1+$1,$6,$7*
1,1,$1+$1,$8,$9*
0 Add four rect primitives between the rounded corners*
20,1,$1+$1,$2,$3,$4,$5,0*
20,1,$1+$1,$4,$5,$6,$7,0*
20,1,$1+$1,$6,$7,$8,$9,0*
20,1,$1+$1,$8,$9,$2,$3,0*%
%AMOutline4P*
0 Free polygon, 4 corners , with rotation*
0 The origin of the aperture is its center*
0 number of corners: always 4*
0 $1 to $8 corner X, Y*
0 $9 Rotation angle, in degrees counterclockwise*
0 create outline with 4 corners*
4,1,4,$1,$2,$3,$4,$5,$6,$7,$8,$1,$2,$9*%
G04 Aperture macros list end*
%ADD10RoundRect,0.249999X1.425001X-0.450001X1.425001X0.450001X-1.425001X0.450001X-1.425001X-0.450001X0*%
%ADD11RoundRect,0.237500X0.250000X0.237500X-0.250000X0.237500X-0.250000X-0.237500X0.250000X-0.237500X0*%
%ADD12RoundRect,1.000000X-4.000000X-4.000000X4.000000X-4.000000X4.000000X4.000000X-4.000000X4.000000X0*%
%ADD13RoundRect,0.100000X-0.637500X-0.100000X0.637500X-0.100000X0.637500X0.100000X-0.637500X0.100000X0*%
%ADD14RoundRect,0.150000X0.825000X0.150000X-0.825000X0.150000X-0.825000X-0.150000X0.825000X-0.150000X0*%
%ADD15RoundRect,0.250000X0.400000X0.625000X-0.400000X0.625000X-0.400000X-0.625000X0.400000X-0.625000X0*%
%ADD16RoundRect,0.250000X-0.325000X-0.450000X0.325000X-0.450000X0.325000X0.450000X-0.325000X0.450000X0*%
%ADD17RoundRect,0.250000X-0.400000X-0.625000X0.400000X-0.625000X0.400000X0.625000X-0.400000X0.625000X0*%
%ADD18RoundRect,0.250000X0.450000X-0.325000X0.450000X0.325000X-0.450000X0.325000X-0.450000X-0.325000X0*%
%ADD19Outline4P,-2.150000X-1.800000X2.150000X-0.800000X2.150000X0.800000X-2.150000X1.800000X180.000000*%
%ADD20Outline4P,-2.150000X-1.800000X2.150000X-0.800000X2.150000X0.800000X-2.150000X1.800000X0.000000*%
%ADD21RoundRect,0.150000X0.512500X0.150000X-0.512500X0.150000X-0.512500X-0.150000X0.512500X-0.150000X0*%
%ADD22RoundRect,0.250000X0.475000X-0.337500X0.475000X0.337500X-0.475000X0.337500X-0.475000X-0.337500X0*%
%ADD23RoundRect,0.162500X0.162500X-0.617500X0.162500X0.617500X-0.162500X0.617500X-0.162500X-0.617500X0*%
%ADD24RoundRect,0.237500X0.237500X-0.300000X0.237500X0.300000X-0.237500X0.300000X-0.237500X-0.300000X0*%
%ADD25RoundRect,0.250000X0.337500X0.475000X-0.337500X0.475000X-0.337500X-0.475000X0.337500X-0.475000X0*%
%ADD26RoundRect,0.250000X-1.275000X-1.125000X1.275000X-1.125000X1.275000X1.125000X-1.275000X1.125000X0*%
%ADD27RoundRect,0.250000X-0.850000X-0.350000X0.850000X-0.350000X0.850000X0.350000X-0.850000X0.350000X0*%
%ADD28RoundRect,0.237500X-0.300000X-0.237500X0.300000X-0.237500X0.300000X0.237500X-0.300000X0.237500X0*%
%ADD29RoundRect,0.250000X0.650000X-0.412500X0.650000X0.412500X-0.650000X0.412500X-0.650000X-0.412500X0*%
%ADD30RoundRect,0.250000X-2.375000X2.025000X-2.375000X-2.025000X2.375000X-2.025000X2.375000X2.025000X0*%
%ADD31RoundRect,0.250000X-0.300000X2.050000X-0.300000X-2.050000X0.300000X-2.050000X0.300000X2.050000X0*%
%ADD32RoundRect,0.250000X-1.125000X1.275000X-1.125000X-1.275000X1.125000X-1.275000X1.125000X1.275000X0*%
%ADD33RoundRect,0.250000X-0.350000X0.850000X-0.350000X-0.850000X0.350000X-0.850000X0.350000X0.850000X0*%
%ADD34RoundRect,0.250000X-0.625000X0.400000X-0.625000X-0.400000X0.625000X-0.400000X0.625000X0.400000X0*%
%ADD35RoundRect,0.250000X-0.450000X0.325000X-0.450000X-0.325000X0.450000X-0.325000X0.450000X0.325000X0*%
%ADD36RoundRect,0.237500X-0.250000X-0.237500X0.250000X-0.237500X0.250000X0.237500X-0.250000X0.237500X0*%
%ADD37RoundRect,0.250000X1.275000X1.125000X-1.275000X1.125000X-1.275000X-1.125000X1.275000X-1.125000X0*%
%ADD38RoundRect,0.250000X0.850000X0.350000X-0.850000X0.350000X-0.850000X-0.350000X0.850000X-0.350000X0*%
%ADD39RoundRect,0.249999X3.500001X-0.850001X3.500001X0.850001X-3.500001X0.850001X-3.500001X-0.850001X0*%
G04 APERTURE END LIST*
D10*
%TO.C,R22*%
X133005000Y-79927168D03*
X133005000Y-73827168D03*
%TD*%
D11*
%TO.C,R40*%
X118517350Y-106776219D03*
X116692350Y-106776219D03*
%TD*%
D12*
%TO.C,VCC*%
X96650000Y-64950000D03*
%TD*%
D13*
%TO.C,U16*%
X84254150Y-130966170D03*
X84254150Y-131616170D03*
X84254150Y-132266170D03*
X84254150Y-132916170D03*
X84254150Y-133566170D03*
X84254150Y-134216170D03*
X84254150Y-134866170D03*
X84254150Y-135516170D03*
X89979150Y-135516170D03*
X89979150Y-134866170D03*
X89979150Y-134216170D03*
X89979150Y-133566170D03*
X89979150Y-132916170D03*
X89979150Y-132266170D03*
X89979150Y-131616170D03*
X89979150Y-130966170D03*
%TD*%
D14*
%TO.C,U1*%
X111625000Y-81389232D03*
X111625000Y-80119232D03*
X111625000Y-78849232D03*
X111625000Y-77579232D03*
X111625000Y-76309232D03*
X111625000Y-75039232D03*
X111625000Y-73769232D03*
X106675000Y-73769232D03*
X106675000Y-75039232D03*
X106675000Y-76309232D03*
X106675000Y-77579232D03*
X106675000Y-78849232D03*
X106675000Y-80119232D03*
X106675000Y-81389232D03*
%TD*%
D15*
%TO.C,C4*%
X72312500Y-87385000D03*
X69212500Y-87385000D03*
%TD*%
D16*
%TO.C,D15*%
X54084207Y-65400000D03*
X56134207Y-65400000D03*
%TD*%
D17*
%TO.C,R7*%
X79437500Y-89915000D03*
X82537500Y-89915000D03*
%TD*%
D18*
%TO.C,D12*%
X114380000Y-128570274D03*
X114380000Y-126520274D03*
%TD*%
D12*
%TO.C,GND*%
X97150000Y-131683588D03*
%TD*%
D19*
%TO.C,D13*%
X74368553Y-64003764D03*
D20*
X67968553Y-64003764D03*
%TD*%
D21*
%TO.C,U15*%
X60431053Y-80500000D03*
X60431053Y-79550000D03*
X60431053Y-78600000D03*
X58156053Y-78600000D03*
X58156053Y-80500000D03*
%TD*%
D22*
%TO.C,C8*%
X104175000Y-79916732D03*
X104175000Y-77841732D03*
%TD*%
D23*
%TO.C,U6*%
X116467500Y-129420274D03*
X117417500Y-129420274D03*
X118367500Y-129420274D03*
X118367500Y-126720274D03*
X116467500Y-126720274D03*
%TD*%
D24*
%TO.C,C13*%
X113767350Y-106601219D03*
X113767350Y-104876219D03*
%TD*%
D10*
%TO.C,R20*%
X125185000Y-79927168D03*
X125185000Y-73827168D03*
%TD*%
D25*
%TO.C,C24*%
X60243553Y-82550000D03*
X58168553Y-82550000D03*
%TD*%
D14*
%TO.C,U3*%
X111617350Y-106986219D03*
X111617350Y-105716219D03*
X111617350Y-104446219D03*
X111617350Y-103176219D03*
X111617350Y-101906219D03*
X111617350Y-100636219D03*
X111617350Y-99366219D03*
X106667350Y-99366219D03*
X106667350Y-100636219D03*
X106667350Y-101906219D03*
X106667350Y-103176219D03*
X106667350Y-104446219D03*
X106667350Y-105716219D03*
X106667350Y-106986219D03*
%TD*%
D10*
%TO.C,R48*%
X125190000Y-131118210D03*
X125190000Y-125018210D03*
%TD*%
D18*
%TO.C,D6*%
X104167350Y-101451219D03*
X104167350Y-99401219D03*
%TD*%
%TO.C,D14*%
X67293553Y-54528764D03*
X67293553Y-52478764D03*
%TD*%
D12*
%TO.C,A1*%
X145000000Y-72729232D03*
%TD*%
D10*
%TO.C,R33*%
X121267350Y-105524155D03*
X121267350Y-99424155D03*
%TD*%
D26*
%TO.C,Q1*%
X144620000Y-62459232D03*
X144620000Y-65509232D03*
X147970000Y-62459232D03*
X147970000Y-65509232D03*
D27*
X139995000Y-61704232D03*
X139995000Y-66264232D03*
%TD*%
D17*
%TO.C,R6*%
X74312500Y-89915000D03*
X77412500Y-89915000D03*
%TD*%
D11*
%TO.C,R26*%
X118525000Y-81179232D03*
X116700000Y-81179232D03*
%TD*%
D10*
%TO.C,R49*%
X129100000Y-131118210D03*
X129100000Y-125018210D03*
%TD*%
%TO.C,R37*%
X136907350Y-105524155D03*
X136907350Y-99424155D03*
%TD*%
D14*
%TO.C,U5*%
X111630000Y-132580274D03*
X111630000Y-131310274D03*
X111630000Y-130040274D03*
X111630000Y-128770274D03*
X111630000Y-127500274D03*
X111630000Y-126230274D03*
X111630000Y-124960274D03*
X106680000Y-124960274D03*
X106680000Y-126230274D03*
X106680000Y-127500274D03*
X106680000Y-128770274D03*
X106680000Y-130040274D03*
X106680000Y-131310274D03*
X106680000Y-132580274D03*
%TD*%
D17*
%TO.C,R8*%
X74312500Y-92435000D03*
X77412500Y-92435000D03*
%TD*%
D11*
%TO.C,R54*%
X118530000Y-132370274D03*
X116705000Y-132370274D03*
%TD*%
D28*
%TO.C,C18*%
X116530000Y-124770274D03*
X118255000Y-124770274D03*
%TD*%
D10*
%TO.C,R21*%
X129095000Y-79927168D03*
X129095000Y-73827168D03*
%TD*%
D29*
%TO.C,C23*%
X62693553Y-81875000D03*
X62693553Y-78750000D03*
%TD*%
D30*
%TO.C,U11*%
X73993553Y-76928764D03*
X68443553Y-76928764D03*
X73993553Y-81778764D03*
X68443553Y-81778764D03*
D31*
X74618553Y-70203764D03*
X72918553Y-70203764D03*
X71218553Y-70203764D03*
X69518553Y-70203764D03*
X67818553Y-70203764D03*
%TD*%
D23*
%TO.C,U2*%
X116462500Y-78229232D03*
X117412500Y-78229232D03*
X118362500Y-78229232D03*
X118362500Y-75529232D03*
X116462500Y-75529232D03*
%TD*%
D24*
%TO.C,C17*%
X113780000Y-132195274D03*
X113780000Y-130470274D03*
%TD*%
D23*
%TO.C,U4*%
X116454850Y-103826219D03*
X117404850Y-103826219D03*
X118354850Y-103826219D03*
X118354850Y-101126219D03*
X116454850Y-101126219D03*
%TD*%
D22*
%TO.C,C12*%
X104167350Y-105513719D03*
X104167350Y-103438719D03*
%TD*%
D10*
%TO.C,R50*%
X133010000Y-131118210D03*
X133010000Y-125018210D03*
%TD*%
D24*
%TO.C,C9*%
X113775000Y-81004232D03*
X113775000Y-79279232D03*
%TD*%
D28*
%TO.C,C22*%
X57868553Y-65400000D03*
X59593553Y-65400000D03*
%TD*%
D32*
%TO.C,U14*%
X62293553Y-72325000D03*
X59243553Y-72325000D03*
X62293553Y-75675000D03*
X59243553Y-75675000D03*
D33*
X63048553Y-67700000D03*
X58488553Y-67700000D03*
%TD*%
D18*
%TO.C,D8*%
X114367350Y-102976219D03*
X114367350Y-100926219D03*
%TD*%
D34*
%TO.C,C20*%
X67193553Y-56428764D03*
X67193553Y-59528764D03*
%TD*%
D17*
%TO.C,R5*%
X79437500Y-87385000D03*
X82537500Y-87385000D03*
%TD*%
D18*
%TO.C,D4*%
X114375000Y-77379232D03*
X114375000Y-75329232D03*
%TD*%
D26*
%TO.C,Q5*%
X144625000Y-113650274D03*
X144625000Y-116700274D03*
X147975000Y-113650274D03*
X147975000Y-116700274D03*
D27*
X140000000Y-112895274D03*
X140000000Y-117455274D03*
%TD*%
D17*
%TO.C,R4*%
X74312500Y-87385000D03*
X77412500Y-87385000D03*
%TD*%
D10*
%TO.C,R23*%
X136915000Y-79927168D03*
X136915000Y-73827168D03*
%TD*%
D16*
%TO.C,D17*%
X87929150Y-129236170D03*
X89979150Y-129236170D03*
%TD*%
D25*
%TO.C,C21*%
X63552101Y-65150000D03*
X61477101Y-65150000D03*
%TD*%
D35*
%TO.C,D16*%
X56043553Y-80500000D03*
X56043553Y-82550000D03*
%TD*%
D22*
%TO.C,C16*%
X104180000Y-131107774D03*
X104180000Y-129032774D03*
%TD*%
D10*
%TO.C,R47*%
X121280000Y-131118210D03*
X121280000Y-125018210D03*
%TD*%
%TO.C,R35*%
X129087350Y-105524155D03*
X129087350Y-99424155D03*
%TD*%
D36*
%TO.C,R60*%
X84239150Y-129011170D03*
X86064150Y-129011170D03*
%TD*%
D12*
%TO.C,B1*%
X144990000Y-98339999D03*
%TD*%
D17*
%TO.C,R9*%
X79387500Y-92435000D03*
X82487500Y-92435000D03*
%TD*%
D10*
%TO.C,R19*%
X121275000Y-79927168D03*
X121275000Y-73827168D03*
%TD*%
D37*
%TO.C,Q4*%
X143962350Y-108676219D03*
X143962350Y-105626219D03*
X140612350Y-108676219D03*
X140612350Y-105626219D03*
D38*
X148587350Y-109431219D03*
X148587350Y-104871219D03*
%TD*%
D15*
%TO.C,C5*%
X72312500Y-89915000D03*
X69212500Y-89915000D03*
%TD*%
%TO.C,C6*%
X72312500Y-92435000D03*
X69212500Y-92435000D03*
%TD*%
D18*
%TO.C,D2*%
X104175000Y-75854232D03*
X104175000Y-73804232D03*
%TD*%
D10*
%TO.C,R34*%
X125177350Y-105524155D03*
X125177350Y-99424155D03*
%TD*%
D28*
%TO.C,C14*%
X116517350Y-99176219D03*
X118242350Y-99176219D03*
%TD*%
%TO.C,C10*%
X116525000Y-73579232D03*
X118250000Y-73579232D03*
%TD*%
D39*
%TO.C,L1*%
X72718553Y-59003764D03*
X72718553Y-53003764D03*
%TD*%
D26*
%TO.C,Q3*%
X144612350Y-88056219D03*
X144612350Y-91106219D03*
X147962350Y-88056219D03*
X147962350Y-91106219D03*
D27*
X139987350Y-87301219D03*
X139987350Y-91861219D03*
%TD*%
D12*
%TO.C,C1*%
X144990000Y-123930274D03*
%TD*%
D18*
%TO.C,D10*%
X104180000Y-127045274D03*
X104180000Y-124995274D03*
%TD*%
D10*
%TO.C,R36*%
X132997350Y-105524155D03*
X132997350Y-99424155D03*
%TD*%
D37*
%TO.C,Q2*%
X143970000Y-83079232D03*
X143970000Y-80029232D03*
X140620000Y-83079232D03*
X140620000Y-80029232D03*
D38*
X148595000Y-83834232D03*
X148595000Y-79274232D03*
%TD*%
D34*
%TO.C,C19*%
X78218553Y-72103764D03*
X78218553Y-75203764D03*
%TD*%
D37*
%TO.C,Q6*%
X143975000Y-134270274D03*
X143975000Y-131220274D03*
X140625000Y-134270274D03*
X140625000Y-131220274D03*
D38*
X148600000Y-135025274D03*
X148600000Y-130465274D03*
%TD*%
D10*
%TO.C,R51*%
X136920000Y-131118210D03*
X136920000Y-125018210D03*
%TD*%
M02*
