%TF.GenerationSoftware,KiCad,Pcbnew,10.0.0*%
%TF.CreationDate,2026-06-13T20:17:56+05:30*%
%TF.ProjectId,Custom ESC,43757374-6f6d-4204-9553-432e6b696361,rev?*%
%TF.SameCoordinates,Original*%
%TF.FileFunction,Paste,Top*%
%TF.FilePolarity,Positive*%
%FSLAX46Y46*%
G04 Gerber Fmt 4.6, Leading zero omitted, Abs format (unit mm)*
G04 Created by KiCad (PCBNEW 10.0.0) date 2026-06-13 20:17:56*
%MOMM*%
%LPD*%
G01*
G04 APERTURE LIST*
%TA.AperFunction,Profile*%
%ADD10C,0.050000*%
%TD*%
G04 APERTURE END LIST*
%TO.C,R22*%
G36*
G01*
X134430001Y-80627168D02*
X131579999Y-80627168D01*
G75*
G02*
X131330000Y-80377169I0J249999D01*
G01*
X131330000Y-79477167D01*
G75*
G02*
X131579999Y-79227168I249999J0D01*
G01*
X134430001Y-79227168D01*
G75*
G02*
X134680000Y-79477167I0J-249999D01*
G01*
X134680000Y-80377169D01*
G75*
G02*
X134430001Y-80627168I-249999J0D01*
G01*
G37*
G36*
G01*
X134430001Y-74527168D02*
X131579999Y-74527168D01*
G75*
G02*
X131330000Y-74277169I0J249999D01*
G01*
X131330000Y-73377167D01*
G75*
G02*
X131579999Y-73127168I249999J0D01*
G01*
X134430001Y-73127168D01*
G75*
G02*
X134680000Y-73377167I0J-249999D01*
G01*
X134680000Y-74277169D01*
G75*
G02*
X134430001Y-74527168I-249999J0D01*
G01*
G37*
%TD*%
%TO.C,R40*%
G36*
G01*
X117179850Y-106538719D02*
X117179850Y-107013719D01*
G75*
G02*
X116942350Y-107251219I-237500J0D01*
G01*
X116442350Y-107251219D01*
G75*
G02*
X116204850Y-107013719I0J237500D01*
G01*
X116204850Y-106538719D01*
G75*
G02*
X116442350Y-106301219I237500J0D01*
G01*
X116942350Y-106301219D01*
G75*
G02*
X117179850Y-106538719I0J-237500D01*
G01*
G37*
G36*
G01*
X119004850Y-106538719D02*
X119004850Y-107013719D01*
G75*
G02*
X118767350Y-107251219I-237500J0D01*
G01*
X118267350Y-107251219D01*
G75*
G02*
X118029850Y-107013719I0J237500D01*
G01*
X118029850Y-106538719D01*
G75*
G02*
X118267350Y-106301219I237500J0D01*
G01*
X118767350Y-106301219D01*
G75*
G02*
X119004850Y-106538719I0J-237500D01*
G01*
G37*
%TD*%
%TO.C,VCC1*%
G36*
G01*
X91650000Y-68950000D02*
X91650000Y-60950000D01*
G75*
G02*
X92650000Y-59950000I1000000J0D01*
G01*
X100650000Y-59950000D01*
G75*
G02*
X101650000Y-60950000I0J-1000000D01*
G01*
X101650000Y-68950000D01*
G75*
G02*
X100650000Y-69950000I-1000000J0D01*
G01*
X92650000Y-69950000D01*
G75*
G02*
X91650000Y-68950000I0J1000000D01*
G01*
G37*
%TD*%
%TO.C,U16*%
G36*
G01*
X83516650Y-131066170D02*
X83516650Y-130866170D01*
G75*
G02*
X83616650Y-130766170I100000J0D01*
G01*
X84891650Y-130766170D01*
G75*
G02*
X84991650Y-130866170I0J-100000D01*
G01*
X84991650Y-131066170D01*
G75*
G02*
X84891650Y-131166170I-100000J0D01*
G01*
X83616650Y-131166170D01*
G75*
G02*
X83516650Y-131066170I0J100000D01*
G01*
G37*
G36*
G01*
X83516650Y-131716170D02*
X83516650Y-131516170D01*
G75*
G02*
X83616650Y-131416170I100000J0D01*
G01*
X84891650Y-131416170D01*
G75*
G02*
X84991650Y-131516170I0J-100000D01*
G01*
X84991650Y-131716170D01*
G75*
G02*
X84891650Y-131816170I-100000J0D01*
G01*
X83616650Y-131816170D01*
G75*
G02*
X83516650Y-131716170I0J100000D01*
G01*
G37*
G36*
G01*
X83516650Y-132366170D02*
X83516650Y-132166170D01*
G75*
G02*
X83616650Y-132066170I100000J0D01*
G01*
X84891650Y-132066170D01*
G75*
G02*
X84991650Y-132166170I0J-100000D01*
G01*
X84991650Y-132366170D01*
G75*
G02*
X84891650Y-132466170I-100000J0D01*
G01*
X83616650Y-132466170D01*
G75*
G02*
X83516650Y-132366170I0J100000D01*
G01*
G37*
G36*
G01*
X83516650Y-133016170D02*
X83516650Y-132816170D01*
G75*
G02*
X83616650Y-132716170I100000J0D01*
G01*
X84891650Y-132716170D01*
G75*
G02*
X84991650Y-132816170I0J-100000D01*
G01*
X84991650Y-133016170D01*
G75*
G02*
X84891650Y-133116170I-100000J0D01*
G01*
X83616650Y-133116170D01*
G75*
G02*
X83516650Y-133016170I0J100000D01*
G01*
G37*
G36*
G01*
X83516650Y-133666170D02*
X83516650Y-133466170D01*
G75*
G02*
X83616650Y-133366170I100000J0D01*
G01*
X84891650Y-133366170D01*
G75*
G02*
X84991650Y-133466170I0J-100000D01*
G01*
X84991650Y-133666170D01*
G75*
G02*
X84891650Y-133766170I-100000J0D01*
G01*
X83616650Y-133766170D01*
G75*
G02*
X83516650Y-133666170I0J100000D01*
G01*
G37*
G36*
G01*
X83516650Y-134316170D02*
X83516650Y-134116170D01*
G75*
G02*
X83616650Y-134016170I100000J0D01*
G01*
X84891650Y-134016170D01*
G75*
G02*
X84991650Y-134116170I0J-100000D01*
G01*
X84991650Y-134316170D01*
G75*
G02*
X84891650Y-134416170I-100000J0D01*
G01*
X83616650Y-134416170D01*
G75*
G02*
X83516650Y-134316170I0J100000D01*
G01*
G37*
G36*
G01*
X83516650Y-134966170D02*
X83516650Y-134766170D01*
G75*
G02*
X83616650Y-134666170I100000J0D01*
G01*
X84891650Y-134666170D01*
G75*
G02*
X84991650Y-134766170I0J-100000D01*
G01*
X84991650Y-134966170D01*
G75*
G02*
X84891650Y-135066170I-100000J0D01*
G01*
X83616650Y-135066170D01*
G75*
G02*
X83516650Y-134966170I0J100000D01*
G01*
G37*
G36*
G01*
X83516650Y-135616170D02*
X83516650Y-135416170D01*
G75*
G02*
X83616650Y-135316170I100000J0D01*
G01*
X84891650Y-135316170D01*
G75*
G02*
X84991650Y-135416170I0J-100000D01*
G01*
X84991650Y-135616170D01*
G75*
G02*
X84891650Y-135716170I-100000J0D01*
G01*
X83616650Y-135716170D01*
G75*
G02*
X83516650Y-135616170I0J100000D01*
G01*
G37*
G36*
G01*
X89241650Y-135616170D02*
X89241650Y-135416170D01*
G75*
G02*
X89341650Y-135316170I100000J0D01*
G01*
X90616650Y-135316170D01*
G75*
G02*
X90716650Y-135416170I0J-100000D01*
G01*
X90716650Y-135616170D01*
G75*
G02*
X90616650Y-135716170I-100000J0D01*
G01*
X89341650Y-135716170D01*
G75*
G02*
X89241650Y-135616170I0J100000D01*
G01*
G37*
G36*
G01*
X89241650Y-134966170D02*
X89241650Y-134766170D01*
G75*
G02*
X89341650Y-134666170I100000J0D01*
G01*
X90616650Y-134666170D01*
G75*
G02*
X90716650Y-134766170I0J-100000D01*
G01*
X90716650Y-134966170D01*
G75*
G02*
X90616650Y-135066170I-100000J0D01*
G01*
X89341650Y-135066170D01*
G75*
G02*
X89241650Y-134966170I0J100000D01*
G01*
G37*
G36*
G01*
X89241650Y-134316170D02*
X89241650Y-134116170D01*
G75*
G02*
X89341650Y-134016170I100000J0D01*
G01*
X90616650Y-134016170D01*
G75*
G02*
X90716650Y-134116170I0J-100000D01*
G01*
X90716650Y-134316170D01*
G75*
G02*
X90616650Y-134416170I-100000J0D01*
G01*
X89341650Y-134416170D01*
G75*
G02*
X89241650Y-134316170I0J100000D01*
G01*
G37*
G36*
G01*
X89241650Y-133666170D02*
X89241650Y-133466170D01*
G75*
G02*
X89341650Y-133366170I100000J0D01*
G01*
X90616650Y-133366170D01*
G75*
G02*
X90716650Y-133466170I0J-100000D01*
G01*
X90716650Y-133666170D01*
G75*
G02*
X90616650Y-133766170I-100000J0D01*
G01*
X89341650Y-133766170D01*
G75*
G02*
X89241650Y-133666170I0J100000D01*
G01*
G37*
G36*
G01*
X89241650Y-133016170D02*
X89241650Y-132816170D01*
G75*
G02*
X89341650Y-132716170I100000J0D01*
G01*
X90616650Y-132716170D01*
G75*
G02*
X90716650Y-132816170I0J-100000D01*
G01*
X90716650Y-133016170D01*
G75*
G02*
X90616650Y-133116170I-100000J0D01*
G01*
X89341650Y-133116170D01*
G75*
G02*
X89241650Y-133016170I0J100000D01*
G01*
G37*
G36*
G01*
X89241650Y-132366170D02*
X89241650Y-132166170D01*
G75*
G02*
X89341650Y-132066170I100000J0D01*
G01*
X90616650Y-132066170D01*
G75*
G02*
X90716650Y-132166170I0J-100000D01*
G01*
X90716650Y-132366170D01*
G75*
G02*
X90616650Y-132466170I-100000J0D01*
G01*
X89341650Y-132466170D01*
G75*
G02*
X89241650Y-132366170I0J100000D01*
G01*
G37*
G36*
G01*
X89241650Y-131716170D02*
X89241650Y-131516170D01*
G75*
G02*
X89341650Y-131416170I100000J0D01*
G01*
X90616650Y-131416170D01*
G75*
G02*
X90716650Y-131516170I0J-100000D01*
G01*
X90716650Y-131716170D01*
G75*
G02*
X90616650Y-131816170I-100000J0D01*
G01*
X89341650Y-131816170D01*
G75*
G02*
X89241650Y-131716170I0J100000D01*
G01*
G37*
G36*
G01*
X89241650Y-131066170D02*
X89241650Y-130866170D01*
G75*
G02*
X89341650Y-130766170I100000J0D01*
G01*
X90616650Y-130766170D01*
G75*
G02*
X90716650Y-130866170I0J-100000D01*
G01*
X90716650Y-131066170D01*
G75*
G02*
X90616650Y-131166170I-100000J0D01*
G01*
X89341650Y-131166170D01*
G75*
G02*
X89241650Y-131066170I0J100000D01*
G01*
G37*
%TD*%
%TO.C,U1*%
G36*
G01*
X112600000Y-81239232D02*
X112600000Y-81539232D01*
G75*
G02*
X112450000Y-81689232I-150000J0D01*
G01*
X110800000Y-81689232D01*
G75*
G02*
X110650000Y-81539232I0J150000D01*
G01*
X110650000Y-81239232D01*
G75*
G02*
X110800000Y-81089232I150000J0D01*
G01*
X112450000Y-81089232D01*
G75*
G02*
X112600000Y-81239232I0J-150000D01*
G01*
G37*
G36*
G01*
X112600000Y-79969232D02*
X112600000Y-80269232D01*
G75*
G02*
X112450000Y-80419232I-150000J0D01*
G01*
X110800000Y-80419232D01*
G75*
G02*
X110650000Y-80269232I0J150000D01*
G01*
X110650000Y-79969232D01*
G75*
G02*
X110800000Y-79819232I150000J0D01*
G01*
X112450000Y-79819232D01*
G75*
G02*
X112600000Y-79969232I0J-150000D01*
G01*
G37*
G36*
G01*
X112600000Y-78699232D02*
X112600000Y-78999232D01*
G75*
G02*
X112450000Y-79149232I-150000J0D01*
G01*
X110800000Y-79149232D01*
G75*
G02*
X110650000Y-78999232I0J150000D01*
G01*
X110650000Y-78699232D01*
G75*
G02*
X110800000Y-78549232I150000J0D01*
G01*
X112450000Y-78549232D01*
G75*
G02*
X112600000Y-78699232I0J-150000D01*
G01*
G37*
G36*
G01*
X112600000Y-77429232D02*
X112600000Y-77729232D01*
G75*
G02*
X112450000Y-77879232I-150000J0D01*
G01*
X110800000Y-77879232D01*
G75*
G02*
X110650000Y-77729232I0J150000D01*
G01*
X110650000Y-77429232D01*
G75*
G02*
X110800000Y-77279232I150000J0D01*
G01*
X112450000Y-77279232D01*
G75*
G02*
X112600000Y-77429232I0J-150000D01*
G01*
G37*
G36*
G01*
X112600000Y-76159232D02*
X112600000Y-76459232D01*
G75*
G02*
X112450000Y-76609232I-150000J0D01*
G01*
X110800000Y-76609232D01*
G75*
G02*
X110650000Y-76459232I0J150000D01*
G01*
X110650000Y-76159232D01*
G75*
G02*
X110800000Y-76009232I150000J0D01*
G01*
X112450000Y-76009232D01*
G75*
G02*
X112600000Y-76159232I0J-150000D01*
G01*
G37*
G36*
G01*
X112600000Y-74889232D02*
X112600000Y-75189232D01*
G75*
G02*
X112450000Y-75339232I-150000J0D01*
G01*
X110800000Y-75339232D01*
G75*
G02*
X110650000Y-75189232I0J150000D01*
G01*
X110650000Y-74889232D01*
G75*
G02*
X110800000Y-74739232I150000J0D01*
G01*
X112450000Y-74739232D01*
G75*
G02*
X112600000Y-74889232I0J-150000D01*
G01*
G37*
G36*
G01*
X112600000Y-73619232D02*
X112600000Y-73919232D01*
G75*
G02*
X112450000Y-74069232I-150000J0D01*
G01*
X110800000Y-74069232D01*
G75*
G02*
X110650000Y-73919232I0J150000D01*
G01*
X110650000Y-73619232D01*
G75*
G02*
X110800000Y-73469232I150000J0D01*
G01*
X112450000Y-73469232D01*
G75*
G02*
X112600000Y-73619232I0J-150000D01*
G01*
G37*
G36*
G01*
X107650000Y-73619232D02*
X107650000Y-73919232D01*
G75*
G02*
X107500000Y-74069232I-150000J0D01*
G01*
X105850000Y-74069232D01*
G75*
G02*
X105700000Y-73919232I0J150000D01*
G01*
X105700000Y-73619232D01*
G75*
G02*
X105850000Y-73469232I150000J0D01*
G01*
X107500000Y-73469232D01*
G75*
G02*
X107650000Y-73619232I0J-150000D01*
G01*
G37*
G36*
G01*
X107650000Y-74889232D02*
X107650000Y-75189232D01*
G75*
G02*
X107500000Y-75339232I-150000J0D01*
G01*
X105850000Y-75339232D01*
G75*
G02*
X105700000Y-75189232I0J150000D01*
G01*
X105700000Y-74889232D01*
G75*
G02*
X105850000Y-74739232I150000J0D01*
G01*
X107500000Y-74739232D01*
G75*
G02*
X107650000Y-74889232I0J-150000D01*
G01*
G37*
G36*
G01*
X107650000Y-76159232D02*
X107650000Y-76459232D01*
G75*
G02*
X107500000Y-76609232I-150000J0D01*
G01*
X105850000Y-76609232D01*
G75*
G02*
X105700000Y-76459232I0J150000D01*
G01*
X105700000Y-76159232D01*
G75*
G02*
X105850000Y-76009232I150000J0D01*
G01*
X107500000Y-76009232D01*
G75*
G02*
X107650000Y-76159232I0J-150000D01*
G01*
G37*
G36*
G01*
X107650000Y-77429232D02*
X107650000Y-77729232D01*
G75*
G02*
X107500000Y-77879232I-150000J0D01*
G01*
X105850000Y-77879232D01*
G75*
G02*
X105700000Y-77729232I0J150000D01*
G01*
X105700000Y-77429232D01*
G75*
G02*
X105850000Y-77279232I150000J0D01*
G01*
X107500000Y-77279232D01*
G75*
G02*
X107650000Y-77429232I0J-150000D01*
G01*
G37*
G36*
G01*
X107650000Y-78699232D02*
X107650000Y-78999232D01*
G75*
G02*
X107500000Y-79149232I-150000J0D01*
G01*
X105850000Y-79149232D01*
G75*
G02*
X105700000Y-78999232I0J150000D01*
G01*
X105700000Y-78699232D01*
G75*
G02*
X105850000Y-78549232I150000J0D01*
G01*
X107500000Y-78549232D01*
G75*
G02*
X107650000Y-78699232I0J-150000D01*
G01*
G37*
G36*
G01*
X107650000Y-79969232D02*
X107650000Y-80269232D01*
G75*
G02*
X107500000Y-80419232I-150000J0D01*
G01*
X105850000Y-80419232D01*
G75*
G02*
X105700000Y-80269232I0J150000D01*
G01*
X105700000Y-79969232D01*
G75*
G02*
X105850000Y-79819232I150000J0D01*
G01*
X107500000Y-79819232D01*
G75*
G02*
X107650000Y-79969232I0J-150000D01*
G01*
G37*
G36*
G01*
X107650000Y-81239232D02*
X107650000Y-81539232D01*
G75*
G02*
X107500000Y-81689232I-150000J0D01*
G01*
X105850000Y-81689232D01*
G75*
G02*
X105700000Y-81539232I0J150000D01*
G01*
X105700000Y-81239232D01*
G75*
G02*
X105850000Y-81089232I150000J0D01*
G01*
X107500000Y-81089232D01*
G75*
G02*
X107650000Y-81239232I0J-150000D01*
G01*
G37*
%TD*%
%TO.C,C4*%
G36*
G01*
X72962500Y-86760000D02*
X72962500Y-88010000D01*
G75*
G02*
X72712500Y-88260000I-250000J0D01*
G01*
X71912500Y-88260000D01*
G75*
G02*
X71662500Y-88010000I0J250000D01*
G01*
X71662500Y-86760000D01*
G75*
G02*
X71912500Y-86510000I250000J0D01*
G01*
X72712500Y-86510000D01*
G75*
G02*
X72962500Y-86760000I0J-250000D01*
G01*
G37*
G36*
G01*
X69862500Y-86760000D02*
X69862500Y-88010000D01*
G75*
G02*
X69612500Y-88260000I-250000J0D01*
G01*
X68812500Y-88260000D01*
G75*
G02*
X68562500Y-88010000I0J250000D01*
G01*
X68562500Y-86760000D01*
G75*
G02*
X68812500Y-86510000I250000J0D01*
G01*
X69612500Y-86510000D01*
G75*
G02*
X69862500Y-86760000I0J-250000D01*
G01*
G37*
%TD*%
%TO.C,D15*%
G36*
G01*
X53509207Y-65850000D02*
X53509207Y-64950000D01*
G75*
G02*
X53759207Y-64700000I250000J0D01*
G01*
X54409207Y-64700000D01*
G75*
G02*
X54659207Y-64950000I0J-250000D01*
G01*
X54659207Y-65850000D01*
G75*
G02*
X54409207Y-66100000I-250000J0D01*
G01*
X53759207Y-66100000D01*
G75*
G02*
X53509207Y-65850000I0J250000D01*
G01*
G37*
G36*
G01*
X55559207Y-65850000D02*
X55559207Y-64950000D01*
G75*
G02*
X55809207Y-64700000I250000J0D01*
G01*
X56459207Y-64700000D01*
G75*
G02*
X56709207Y-64950000I0J-250000D01*
G01*
X56709207Y-65850000D01*
G75*
G02*
X56459207Y-66100000I-250000J0D01*
G01*
X55809207Y-66100000D01*
G75*
G02*
X55559207Y-65850000I0J250000D01*
G01*
G37*
%TD*%
%TO.C,R7*%
G36*
G01*
X78787500Y-90540000D02*
X78787500Y-89290000D01*
G75*
G02*
X79037500Y-89040000I250000J0D01*
G01*
X79837500Y-89040000D01*
G75*
G02*
X80087500Y-89290000I0J-250000D01*
G01*
X80087500Y-90540000D01*
G75*
G02*
X79837500Y-90790000I-250000J0D01*
G01*
X79037500Y-90790000D01*
G75*
G02*
X78787500Y-90540000I0J250000D01*
G01*
G37*
G36*
G01*
X81887500Y-90540000D02*
X81887500Y-89290000D01*
G75*
G02*
X82137500Y-89040000I250000J0D01*
G01*
X82937500Y-89040000D01*
G75*
G02*
X83187500Y-89290000I0J-250000D01*
G01*
X83187500Y-90540000D01*
G75*
G02*
X82937500Y-90790000I-250000J0D01*
G01*
X82137500Y-90790000D01*
G75*
G02*
X81887500Y-90540000I0J250000D01*
G01*
G37*
%TD*%
%TO.C,D12*%
G36*
G01*
X114830000Y-129145274D02*
X113930000Y-129145274D01*
G75*
G02*
X113680000Y-128895274I0J250000D01*
G01*
X113680000Y-128245274D01*
G75*
G02*
X113930000Y-127995274I250000J0D01*
G01*
X114830000Y-127995274D01*
G75*
G02*
X115080000Y-128245274I0J-250000D01*
G01*
X115080000Y-128895274D01*
G75*
G02*
X114830000Y-129145274I-250000J0D01*
G01*
G37*
G36*
G01*
X114830000Y-127095274D02*
X113930000Y-127095274D01*
G75*
G02*
X113680000Y-126845274I0J250000D01*
G01*
X113680000Y-126195274D01*
G75*
G02*
X113930000Y-125945274I250000J0D01*
G01*
X114830000Y-125945274D01*
G75*
G02*
X115080000Y-126195274I0J-250000D01*
G01*
X115080000Y-126845274D01*
G75*
G02*
X114830000Y-127095274I-250000J0D01*
G01*
G37*
%TD*%
%TO.C,GND1*%
G36*
G01*
X92150000Y-135683588D02*
X92150000Y-127683588D01*
G75*
G02*
X93150000Y-126683588I1000000J0D01*
G01*
X101150000Y-126683588D01*
G75*
G02*
X102150000Y-127683588I0J-1000000D01*
G01*
X102150000Y-135683588D01*
G75*
G02*
X101150000Y-136683588I-1000000J0D01*
G01*
X93150000Y-136683588D01*
G75*
G02*
X92150000Y-135683588I0J1000000D01*
G01*
G37*
%TD*%
%TO.C,D13*%
G36*
X76518553Y-62203764D02*
G01*
X72218553Y-63203764D01*
X72218553Y-64803764D01*
X76518553Y-65803764D01*
X76518553Y-62203764D01*
G37*
G36*
X65818553Y-65803764D02*
G01*
X70118553Y-64803764D01*
X70118553Y-63203764D01*
X65818553Y-62203764D01*
X65818553Y-65803764D01*
G37*
%TD*%
%TO.C,U15*%
G36*
G01*
X61093553Y-80350000D02*
X61093553Y-80650000D01*
G75*
G02*
X60943553Y-80800000I-150000J0D01*
G01*
X59918553Y-80800000D01*
G75*
G02*
X59768553Y-80650000I0J150000D01*
G01*
X59768553Y-80350000D01*
G75*
G02*
X59918553Y-80200000I150000J0D01*
G01*
X60943553Y-80200000D01*
G75*
G02*
X61093553Y-80350000I0J-150000D01*
G01*
G37*
G36*
G01*
X61093553Y-79400000D02*
X61093553Y-79700000D01*
G75*
G02*
X60943553Y-79850000I-150000J0D01*
G01*
X59918553Y-79850000D01*
G75*
G02*
X59768553Y-79700000I0J150000D01*
G01*
X59768553Y-79400000D01*
G75*
G02*
X59918553Y-79250000I150000J0D01*
G01*
X60943553Y-79250000D01*
G75*
G02*
X61093553Y-79400000I0J-150000D01*
G01*
G37*
G36*
G01*
X61093553Y-78450000D02*
X61093553Y-78750000D01*
G75*
G02*
X60943553Y-78900000I-150000J0D01*
G01*
X59918553Y-78900000D01*
G75*
G02*
X59768553Y-78750000I0J150000D01*
G01*
X59768553Y-78450000D01*
G75*
G02*
X59918553Y-78300000I150000J0D01*
G01*
X60943553Y-78300000D01*
G75*
G02*
X61093553Y-78450000I0J-150000D01*
G01*
G37*
G36*
G01*
X58818553Y-78450000D02*
X58818553Y-78750000D01*
G75*
G02*
X58668553Y-78900000I-150000J0D01*
G01*
X57643553Y-78900000D01*
G75*
G02*
X57493553Y-78750000I0J150000D01*
G01*
X57493553Y-78450000D01*
G75*
G02*
X57643553Y-78300000I150000J0D01*
G01*
X58668553Y-78300000D01*
G75*
G02*
X58818553Y-78450000I0J-150000D01*
G01*
G37*
G36*
G01*
X58818553Y-80350000D02*
X58818553Y-80650000D01*
G75*
G02*
X58668553Y-80800000I-150000J0D01*
G01*
X57643553Y-80800000D01*
G75*
G02*
X57493553Y-80650000I0J150000D01*
G01*
X57493553Y-80350000D01*
G75*
G02*
X57643553Y-80200000I150000J0D01*
G01*
X58668553Y-80200000D01*
G75*
G02*
X58818553Y-80350000I0J-150000D01*
G01*
G37*
%TD*%
%TO.C,C8*%
G36*
G01*
X104650000Y-80504232D02*
X103700000Y-80504232D01*
G75*
G02*
X103450000Y-80254232I0J250000D01*
G01*
X103450000Y-79579232D01*
G75*
G02*
X103700000Y-79329232I250000J0D01*
G01*
X104650000Y-79329232D01*
G75*
G02*
X104900000Y-79579232I0J-250000D01*
G01*
X104900000Y-80254232D01*
G75*
G02*
X104650000Y-80504232I-250000J0D01*
G01*
G37*
G36*
G01*
X104650000Y-78429232D02*
X103700000Y-78429232D01*
G75*
G02*
X103450000Y-78179232I0J250000D01*
G01*
X103450000Y-77504232D01*
G75*
G02*
X103700000Y-77254232I250000J0D01*
G01*
X104650000Y-77254232D01*
G75*
G02*
X104900000Y-77504232I0J-250000D01*
G01*
X104900000Y-78179232D01*
G75*
G02*
X104650000Y-78429232I-250000J0D01*
G01*
G37*
%TD*%
%TO.C,U6*%
G36*
G01*
X116630000Y-130200274D02*
X116305000Y-130200274D01*
G75*
G02*
X116142500Y-130037774I0J162500D01*
G01*
X116142500Y-128802774D01*
G75*
G02*
X116305000Y-128640274I162500J0D01*
G01*
X116630000Y-128640274D01*
G75*
G02*
X116792500Y-128802774I0J-162500D01*
G01*
X116792500Y-130037774D01*
G75*
G02*
X116630000Y-130200274I-162500J0D01*
G01*
G37*
G36*
G01*
X117580000Y-130200274D02*
X117255000Y-130200274D01*
G75*
G02*
X117092500Y-130037774I0J162500D01*
G01*
X117092500Y-128802774D01*
G75*
G02*
X117255000Y-128640274I162500J0D01*
G01*
X117580000Y-128640274D01*
G75*
G02*
X117742500Y-128802774I0J-162500D01*
G01*
X117742500Y-130037774D01*
G75*
G02*
X117580000Y-130200274I-162500J0D01*
G01*
G37*
G36*
G01*
X118530000Y-130200274D02*
X118205000Y-130200274D01*
G75*
G02*
X118042500Y-130037774I0J162500D01*
G01*
X118042500Y-128802774D01*
G75*
G02*
X118205000Y-128640274I162500J0D01*
G01*
X118530000Y-128640274D01*
G75*
G02*
X118692500Y-128802774I0J-162500D01*
G01*
X118692500Y-130037774D01*
G75*
G02*
X118530000Y-130200274I-162500J0D01*
G01*
G37*
G36*
G01*
X118530000Y-127500274D02*
X118205000Y-127500274D01*
G75*
G02*
X118042500Y-127337774I0J162500D01*
G01*
X118042500Y-126102774D01*
G75*
G02*
X118205000Y-125940274I162500J0D01*
G01*
X118530000Y-125940274D01*
G75*
G02*
X118692500Y-126102774I0J-162500D01*
G01*
X118692500Y-127337774D01*
G75*
G02*
X118530000Y-127500274I-162500J0D01*
G01*
G37*
G36*
G01*
X116630000Y-127500274D02*
X116305000Y-127500274D01*
G75*
G02*
X116142500Y-127337774I0J162500D01*
G01*
X116142500Y-126102774D01*
G75*
G02*
X116305000Y-125940274I162500J0D01*
G01*
X116630000Y-125940274D01*
G75*
G02*
X116792500Y-126102774I0J-162500D01*
G01*
X116792500Y-127337774D01*
G75*
G02*
X116630000Y-127500274I-162500J0D01*
G01*
G37*
%TD*%
%TO.C,C13*%
G36*
G01*
X114004850Y-105413719D02*
X113529850Y-105413719D01*
G75*
G02*
X113292350Y-105176219I0J237500D01*
G01*
X113292350Y-104576219D01*
G75*
G02*
X113529850Y-104338719I237500J0D01*
G01*
X114004850Y-104338719D01*
G75*
G02*
X114242350Y-104576219I0J-237500D01*
G01*
X114242350Y-105176219D01*
G75*
G02*
X114004850Y-105413719I-237500J0D01*
G01*
G37*
G36*
G01*
X114004850Y-107138719D02*
X113529850Y-107138719D01*
G75*
G02*
X113292350Y-106901219I0J237500D01*
G01*
X113292350Y-106301219D01*
G75*
G02*
X113529850Y-106063719I237500J0D01*
G01*
X114004850Y-106063719D01*
G75*
G02*
X114242350Y-106301219I0J-237500D01*
G01*
X114242350Y-106901219D01*
G75*
G02*
X114004850Y-107138719I-237500J0D01*
G01*
G37*
%TD*%
%TO.C,R20*%
G36*
G01*
X126610001Y-80627168D02*
X123759999Y-80627168D01*
G75*
G02*
X123510000Y-80377169I0J249999D01*
G01*
X123510000Y-79477167D01*
G75*
G02*
X123759999Y-79227168I249999J0D01*
G01*
X126610001Y-79227168D01*
G75*
G02*
X126860000Y-79477167I0J-249999D01*
G01*
X126860000Y-80377169D01*
G75*
G02*
X126610001Y-80627168I-249999J0D01*
G01*
G37*
G36*
G01*
X126610001Y-74527168D02*
X123759999Y-74527168D01*
G75*
G02*
X123510000Y-74277169I0J249999D01*
G01*
X123510000Y-73377167D01*
G75*
G02*
X123759999Y-73127168I249999J0D01*
G01*
X126610001Y-73127168D01*
G75*
G02*
X126860000Y-73377167I0J-249999D01*
G01*
X126860000Y-74277169D01*
G75*
G02*
X126610001Y-74527168I-249999J0D01*
G01*
G37*
%TD*%
%TO.C,C24*%
G36*
G01*
X60831053Y-82075000D02*
X60831053Y-83025000D01*
G75*
G02*
X60581053Y-83275000I-250000J0D01*
G01*
X59906053Y-83275000D01*
G75*
G02*
X59656053Y-83025000I0J250000D01*
G01*
X59656053Y-82075000D01*
G75*
G02*
X59906053Y-81825000I250000J0D01*
G01*
X60581053Y-81825000D01*
G75*
G02*
X60831053Y-82075000I0J-250000D01*
G01*
G37*
G36*
G01*
X58756053Y-82075000D02*
X58756053Y-83025000D01*
G75*
G02*
X58506053Y-83275000I-250000J0D01*
G01*
X57831053Y-83275000D01*
G75*
G02*
X57581053Y-83025000I0J250000D01*
G01*
X57581053Y-82075000D01*
G75*
G02*
X57831053Y-81825000I250000J0D01*
G01*
X58506053Y-81825000D01*
G75*
G02*
X58756053Y-82075000I0J-250000D01*
G01*
G37*
%TD*%
%TO.C,U3*%
G36*
G01*
X107642350Y-106836219D02*
X107642350Y-107136219D01*
G75*
G02*
X107492350Y-107286219I-150000J0D01*
G01*
X105842350Y-107286219D01*
G75*
G02*
X105692350Y-107136219I0J150000D01*
G01*
X105692350Y-106836219D01*
G75*
G02*
X105842350Y-106686219I150000J0D01*
G01*
X107492350Y-106686219D01*
G75*
G02*
X107642350Y-106836219I0J-150000D01*
G01*
G37*
G36*
G01*
X107642350Y-105566219D02*
X107642350Y-105866219D01*
G75*
G02*
X107492350Y-106016219I-150000J0D01*
G01*
X105842350Y-106016219D01*
G75*
G02*
X105692350Y-105866219I0J150000D01*
G01*
X105692350Y-105566219D01*
G75*
G02*
X105842350Y-105416219I150000J0D01*
G01*
X107492350Y-105416219D01*
G75*
G02*
X107642350Y-105566219I0J-150000D01*
G01*
G37*
G36*
G01*
X107642350Y-104296219D02*
X107642350Y-104596219D01*
G75*
G02*
X107492350Y-104746219I-150000J0D01*
G01*
X105842350Y-104746219D01*
G75*
G02*
X105692350Y-104596219I0J150000D01*
G01*
X105692350Y-104296219D01*
G75*
G02*
X105842350Y-104146219I150000J0D01*
G01*
X107492350Y-104146219D01*
G75*
G02*
X107642350Y-104296219I0J-150000D01*
G01*
G37*
G36*
G01*
X107642350Y-103026219D02*
X107642350Y-103326219D01*
G75*
G02*
X107492350Y-103476219I-150000J0D01*
G01*
X105842350Y-103476219D01*
G75*
G02*
X105692350Y-103326219I0J150000D01*
G01*
X105692350Y-103026219D01*
G75*
G02*
X105842350Y-102876219I150000J0D01*
G01*
X107492350Y-102876219D01*
G75*
G02*
X107642350Y-103026219I0J-150000D01*
G01*
G37*
G36*
G01*
X107642350Y-101756219D02*
X107642350Y-102056219D01*
G75*
G02*
X107492350Y-102206219I-150000J0D01*
G01*
X105842350Y-102206219D01*
G75*
G02*
X105692350Y-102056219I0J150000D01*
G01*
X105692350Y-101756219D01*
G75*
G02*
X105842350Y-101606219I150000J0D01*
G01*
X107492350Y-101606219D01*
G75*
G02*
X107642350Y-101756219I0J-150000D01*
G01*
G37*
G36*
G01*
X107642350Y-100486219D02*
X107642350Y-100786219D01*
G75*
G02*
X107492350Y-100936219I-150000J0D01*
G01*
X105842350Y-100936219D01*
G75*
G02*
X105692350Y-100786219I0J150000D01*
G01*
X105692350Y-100486219D01*
G75*
G02*
X105842350Y-100336219I150000J0D01*
G01*
X107492350Y-100336219D01*
G75*
G02*
X107642350Y-100486219I0J-150000D01*
G01*
G37*
G36*
G01*
X107642350Y-99216219D02*
X107642350Y-99516219D01*
G75*
G02*
X107492350Y-99666219I-150000J0D01*
G01*
X105842350Y-99666219D01*
G75*
G02*
X105692350Y-99516219I0J150000D01*
G01*
X105692350Y-99216219D01*
G75*
G02*
X105842350Y-99066219I150000J0D01*
G01*
X107492350Y-99066219D01*
G75*
G02*
X107642350Y-99216219I0J-150000D01*
G01*
G37*
G36*
G01*
X112592350Y-99216219D02*
X112592350Y-99516219D01*
G75*
G02*
X112442350Y-99666219I-150000J0D01*
G01*
X110792350Y-99666219D01*
G75*
G02*
X110642350Y-99516219I0J150000D01*
G01*
X110642350Y-99216219D01*
G75*
G02*
X110792350Y-99066219I150000J0D01*
G01*
X112442350Y-99066219D01*
G75*
G02*
X112592350Y-99216219I0J-150000D01*
G01*
G37*
G36*
G01*
X112592350Y-100486219D02*
X112592350Y-100786219D01*
G75*
G02*
X112442350Y-100936219I-150000J0D01*
G01*
X110792350Y-100936219D01*
G75*
G02*
X110642350Y-100786219I0J150000D01*
G01*
X110642350Y-100486219D01*
G75*
G02*
X110792350Y-100336219I150000J0D01*
G01*
X112442350Y-100336219D01*
G75*
G02*
X112592350Y-100486219I0J-150000D01*
G01*
G37*
G36*
G01*
X112592350Y-101756219D02*
X112592350Y-102056219D01*
G75*
G02*
X112442350Y-102206219I-150000J0D01*
G01*
X110792350Y-102206219D01*
G75*
G02*
X110642350Y-102056219I0J150000D01*
G01*
X110642350Y-101756219D01*
G75*
G02*
X110792350Y-101606219I150000J0D01*
G01*
X112442350Y-101606219D01*
G75*
G02*
X112592350Y-101756219I0J-150000D01*
G01*
G37*
G36*
G01*
X112592350Y-103026219D02*
X112592350Y-103326219D01*
G75*
G02*
X112442350Y-103476219I-150000J0D01*
G01*
X110792350Y-103476219D01*
G75*
G02*
X110642350Y-103326219I0J150000D01*
G01*
X110642350Y-103026219D01*
G75*
G02*
X110792350Y-102876219I150000J0D01*
G01*
X112442350Y-102876219D01*
G75*
G02*
X112592350Y-103026219I0J-150000D01*
G01*
G37*
G36*
G01*
X112592350Y-104296219D02*
X112592350Y-104596219D01*
G75*
G02*
X112442350Y-104746219I-150000J0D01*
G01*
X110792350Y-104746219D01*
G75*
G02*
X110642350Y-104596219I0J150000D01*
G01*
X110642350Y-104296219D01*
G75*
G02*
X110792350Y-104146219I150000J0D01*
G01*
X112442350Y-104146219D01*
G75*
G02*
X112592350Y-104296219I0J-150000D01*
G01*
G37*
G36*
G01*
X112592350Y-105566219D02*
X112592350Y-105866219D01*
G75*
G02*
X112442350Y-106016219I-150000J0D01*
G01*
X110792350Y-106016219D01*
G75*
G02*
X110642350Y-105866219I0J150000D01*
G01*
X110642350Y-105566219D01*
G75*
G02*
X110792350Y-105416219I150000J0D01*
G01*
X112442350Y-105416219D01*
G75*
G02*
X112592350Y-105566219I0J-150000D01*
G01*
G37*
G36*
G01*
X112592350Y-106836219D02*
X112592350Y-107136219D01*
G75*
G02*
X112442350Y-107286219I-150000J0D01*
G01*
X110792350Y-107286219D01*
G75*
G02*
X110642350Y-107136219I0J150000D01*
G01*
X110642350Y-106836219D01*
G75*
G02*
X110792350Y-106686219I150000J0D01*
G01*
X112442350Y-106686219D01*
G75*
G02*
X112592350Y-106836219I0J-150000D01*
G01*
G37*
%TD*%
%TO.C,R48*%
G36*
G01*
X126615001Y-131818210D02*
X123764999Y-131818210D01*
G75*
G02*
X123515000Y-131568211I0J249999D01*
G01*
X123515000Y-130668209D01*
G75*
G02*
X123764999Y-130418210I249999J0D01*
G01*
X126615001Y-130418210D01*
G75*
G02*
X126865000Y-130668209I0J-249999D01*
G01*
X126865000Y-131568211D01*
G75*
G02*
X126615001Y-131818210I-249999J0D01*
G01*
G37*
G36*
G01*
X126615001Y-125718210D02*
X123764999Y-125718210D01*
G75*
G02*
X123515000Y-125468211I0J249999D01*
G01*
X123515000Y-124568209D01*
G75*
G02*
X123764999Y-124318210I249999J0D01*
G01*
X126615001Y-124318210D01*
G75*
G02*
X126865000Y-124568209I0J-249999D01*
G01*
X126865000Y-125468211D01*
G75*
G02*
X126615001Y-125718210I-249999J0D01*
G01*
G37*
%TD*%
%TO.C,D6*%
G36*
G01*
X104617350Y-99976219D02*
X103717350Y-99976219D01*
G75*
G02*
X103467350Y-99726219I0J250000D01*
G01*
X103467350Y-99076219D01*
G75*
G02*
X103717350Y-98826219I250000J0D01*
G01*
X104617350Y-98826219D01*
G75*
G02*
X104867350Y-99076219I0J-250000D01*
G01*
X104867350Y-99726219D01*
G75*
G02*
X104617350Y-99976219I-250000J0D01*
G01*
G37*
G36*
G01*
X104617350Y-102026219D02*
X103717350Y-102026219D01*
G75*
G02*
X103467350Y-101776219I0J250000D01*
G01*
X103467350Y-101126219D01*
G75*
G02*
X103717350Y-100876219I250000J0D01*
G01*
X104617350Y-100876219D01*
G75*
G02*
X104867350Y-101126219I0J-250000D01*
G01*
X104867350Y-101776219D01*
G75*
G02*
X104617350Y-102026219I-250000J0D01*
G01*
G37*
%TD*%
%TO.C,D14*%
G36*
G01*
X67743553Y-55103764D02*
X66843553Y-55103764D01*
G75*
G02*
X66593553Y-54853764I0J250000D01*
G01*
X66593553Y-54203764D01*
G75*
G02*
X66843553Y-53953764I250000J0D01*
G01*
X67743553Y-53953764D01*
G75*
G02*
X67993553Y-54203764I0J-250000D01*
G01*
X67993553Y-54853764D01*
G75*
G02*
X67743553Y-55103764I-250000J0D01*
G01*
G37*
G36*
G01*
X67743553Y-53053764D02*
X66843553Y-53053764D01*
G75*
G02*
X66593553Y-52803764I0J250000D01*
G01*
X66593553Y-52153764D01*
G75*
G02*
X66843553Y-51903764I250000J0D01*
G01*
X67743553Y-51903764D01*
G75*
G02*
X67993553Y-52153764I0J-250000D01*
G01*
X67993553Y-52803764D01*
G75*
G02*
X67743553Y-53053764I-250000J0D01*
G01*
G37*
%TD*%
%TO.C,A1*%
G36*
G01*
X140000000Y-76729232D02*
X140000000Y-68729232D01*
G75*
G02*
X141000000Y-67729232I1000000J0D01*
G01*
X149000000Y-67729232D01*
G75*
G02*
X150000000Y-68729232I0J-1000000D01*
G01*
X150000000Y-76729232D01*
G75*
G02*
X149000000Y-77729232I-1000000J0D01*
G01*
X141000000Y-77729232D01*
G75*
G02*
X140000000Y-76729232I0J1000000D01*
G01*
G37*
%TD*%
%TO.C,R33*%
G36*
G01*
X122692351Y-100124155D02*
X119842349Y-100124155D01*
G75*
G02*
X119592350Y-99874156I0J249999D01*
G01*
X119592350Y-98974154D01*
G75*
G02*
X119842349Y-98724155I249999J0D01*
G01*
X122692351Y-98724155D01*
G75*
G02*
X122942350Y-98974154I0J-249999D01*
G01*
X122942350Y-99874156D01*
G75*
G02*
X122692351Y-100124155I-249999J0D01*
G01*
G37*
G36*
G01*
X122692351Y-106224155D02*
X119842349Y-106224155D01*
G75*
G02*
X119592350Y-105974156I0J249999D01*
G01*
X119592350Y-105074154D01*
G75*
G02*
X119842349Y-104824155I249999J0D01*
G01*
X122692351Y-104824155D01*
G75*
G02*
X122942350Y-105074154I0J-249999D01*
G01*
X122942350Y-105974156D01*
G75*
G02*
X122692351Y-106224155I-249999J0D01*
G01*
G37*
%TD*%
%TO.C,Q1*%
G36*
G01*
X143095000Y-63584232D02*
X143095000Y-61334232D01*
G75*
G02*
X143345000Y-61084232I250000J0D01*
G01*
X145895000Y-61084232D01*
G75*
G02*
X146145000Y-61334232I0J-250000D01*
G01*
X146145000Y-63584232D01*
G75*
G02*
X145895000Y-63834232I-250000J0D01*
G01*
X143345000Y-63834232D01*
G75*
G02*
X143095000Y-63584232I0J250000D01*
G01*
G37*
G36*
G01*
X143095000Y-66634232D02*
X143095000Y-64384232D01*
G75*
G02*
X143345000Y-64134232I250000J0D01*
G01*
X145895000Y-64134232D01*
G75*
G02*
X146145000Y-64384232I0J-250000D01*
G01*
X146145000Y-66634232D01*
G75*
G02*
X145895000Y-66884232I-250000J0D01*
G01*
X143345000Y-66884232D01*
G75*
G02*
X143095000Y-66634232I0J250000D01*
G01*
G37*
G36*
G01*
X146445000Y-63584232D02*
X146445000Y-61334232D01*
G75*
G02*
X146695000Y-61084232I250000J0D01*
G01*
X149245000Y-61084232D01*
G75*
G02*
X149495000Y-61334232I0J-250000D01*
G01*
X149495000Y-63584232D01*
G75*
G02*
X149245000Y-63834232I-250000J0D01*
G01*
X146695000Y-63834232D01*
G75*
G02*
X146445000Y-63584232I0J250000D01*
G01*
G37*
G36*
G01*
X146445000Y-66634232D02*
X146445000Y-64384232D01*
G75*
G02*
X146695000Y-64134232I250000J0D01*
G01*
X149245000Y-64134232D01*
G75*
G02*
X149495000Y-64384232I0J-250000D01*
G01*
X149495000Y-66634232D01*
G75*
G02*
X149245000Y-66884232I-250000J0D01*
G01*
X146695000Y-66884232D01*
G75*
G02*
X146445000Y-66634232I0J250000D01*
G01*
G37*
G36*
G01*
X138895000Y-62054232D02*
X138895000Y-61354232D01*
G75*
G02*
X139145000Y-61104232I250000J0D01*
G01*
X140845000Y-61104232D01*
G75*
G02*
X141095000Y-61354232I0J-250000D01*
G01*
X141095000Y-62054232D01*
G75*
G02*
X140845000Y-62304232I-250000J0D01*
G01*
X139145000Y-62304232D01*
G75*
G02*
X138895000Y-62054232I0J250000D01*
G01*
G37*
G36*
G01*
X138895000Y-66614232D02*
X138895000Y-65914232D01*
G75*
G02*
X139145000Y-65664232I250000J0D01*
G01*
X140845000Y-65664232D01*
G75*
G02*
X141095000Y-65914232I0J-250000D01*
G01*
X141095000Y-66614232D01*
G75*
G02*
X140845000Y-66864232I-250000J0D01*
G01*
X139145000Y-66864232D01*
G75*
G02*
X138895000Y-66614232I0J250000D01*
G01*
G37*
%TD*%
%TO.C,R6*%
G36*
G01*
X73662500Y-90540000D02*
X73662500Y-89290000D01*
G75*
G02*
X73912500Y-89040000I250000J0D01*
G01*
X74712500Y-89040000D01*
G75*
G02*
X74962500Y-89290000I0J-250000D01*
G01*
X74962500Y-90540000D01*
G75*
G02*
X74712500Y-90790000I-250000J0D01*
G01*
X73912500Y-90790000D01*
G75*
G02*
X73662500Y-90540000I0J250000D01*
G01*
G37*
G36*
G01*
X76762500Y-90540000D02*
X76762500Y-89290000D01*
G75*
G02*
X77012500Y-89040000I250000J0D01*
G01*
X77812500Y-89040000D01*
G75*
G02*
X78062500Y-89290000I0J-250000D01*
G01*
X78062500Y-90540000D01*
G75*
G02*
X77812500Y-90790000I-250000J0D01*
G01*
X77012500Y-90790000D01*
G75*
G02*
X76762500Y-90540000I0J250000D01*
G01*
G37*
%TD*%
%TO.C,R26*%
G36*
G01*
X119012500Y-80941732D02*
X119012500Y-81416732D01*
G75*
G02*
X118775000Y-81654232I-237500J0D01*
G01*
X118275000Y-81654232D01*
G75*
G02*
X118037500Y-81416732I0J237500D01*
G01*
X118037500Y-80941732D01*
G75*
G02*
X118275000Y-80704232I237500J0D01*
G01*
X118775000Y-80704232D01*
G75*
G02*
X119012500Y-80941732I0J-237500D01*
G01*
G37*
G36*
G01*
X117187500Y-80941732D02*
X117187500Y-81416732D01*
G75*
G02*
X116950000Y-81654232I-237500J0D01*
G01*
X116450000Y-81654232D01*
G75*
G02*
X116212500Y-81416732I0J237500D01*
G01*
X116212500Y-80941732D01*
G75*
G02*
X116450000Y-80704232I237500J0D01*
G01*
X116950000Y-80704232D01*
G75*
G02*
X117187500Y-80941732I0J-237500D01*
G01*
G37*
%TD*%
%TO.C,R49*%
G36*
G01*
X130525001Y-131818210D02*
X127674999Y-131818210D01*
G75*
G02*
X127425000Y-131568211I0J249999D01*
G01*
X127425000Y-130668209D01*
G75*
G02*
X127674999Y-130418210I249999J0D01*
G01*
X130525001Y-130418210D01*
G75*
G02*
X130775000Y-130668209I0J-249999D01*
G01*
X130775000Y-131568211D01*
G75*
G02*
X130525001Y-131818210I-249999J0D01*
G01*
G37*
G36*
G01*
X130525001Y-125718210D02*
X127674999Y-125718210D01*
G75*
G02*
X127425000Y-125468211I0J249999D01*
G01*
X127425000Y-124568209D01*
G75*
G02*
X127674999Y-124318210I249999J0D01*
G01*
X130525001Y-124318210D01*
G75*
G02*
X130775000Y-124568209I0J-249999D01*
G01*
X130775000Y-125468211D01*
G75*
G02*
X130525001Y-125718210I-249999J0D01*
G01*
G37*
%TD*%
%TO.C,R37*%
G36*
G01*
X138332351Y-100124155D02*
X135482349Y-100124155D01*
G75*
G02*
X135232350Y-99874156I0J249999D01*
G01*
X135232350Y-98974154D01*
G75*
G02*
X135482349Y-98724155I249999J0D01*
G01*
X138332351Y-98724155D01*
G75*
G02*
X138582350Y-98974154I0J-249999D01*
G01*
X138582350Y-99874156D01*
G75*
G02*
X138332351Y-100124155I-249999J0D01*
G01*
G37*
G36*
G01*
X138332351Y-106224155D02*
X135482349Y-106224155D01*
G75*
G02*
X135232350Y-105974156I0J249999D01*
G01*
X135232350Y-105074154D01*
G75*
G02*
X135482349Y-104824155I249999J0D01*
G01*
X138332351Y-104824155D01*
G75*
G02*
X138582350Y-105074154I0J-249999D01*
G01*
X138582350Y-105974156D01*
G75*
G02*
X138332351Y-106224155I-249999J0D01*
G01*
G37*
%TD*%
%TO.C,U5*%
G36*
G01*
X112605000Y-132430274D02*
X112605000Y-132730274D01*
G75*
G02*
X112455000Y-132880274I-150000J0D01*
G01*
X110805000Y-132880274D01*
G75*
G02*
X110655000Y-132730274I0J150000D01*
G01*
X110655000Y-132430274D01*
G75*
G02*
X110805000Y-132280274I150000J0D01*
G01*
X112455000Y-132280274D01*
G75*
G02*
X112605000Y-132430274I0J-150000D01*
G01*
G37*
G36*
G01*
X112605000Y-131160274D02*
X112605000Y-131460274D01*
G75*
G02*
X112455000Y-131610274I-150000J0D01*
G01*
X110805000Y-131610274D01*
G75*
G02*
X110655000Y-131460274I0J150000D01*
G01*
X110655000Y-131160274D01*
G75*
G02*
X110805000Y-131010274I150000J0D01*
G01*
X112455000Y-131010274D01*
G75*
G02*
X112605000Y-131160274I0J-150000D01*
G01*
G37*
G36*
G01*
X112605000Y-129890274D02*
X112605000Y-130190274D01*
G75*
G02*
X112455000Y-130340274I-150000J0D01*
G01*
X110805000Y-130340274D01*
G75*
G02*
X110655000Y-130190274I0J150000D01*
G01*
X110655000Y-129890274D01*
G75*
G02*
X110805000Y-129740274I150000J0D01*
G01*
X112455000Y-129740274D01*
G75*
G02*
X112605000Y-129890274I0J-150000D01*
G01*
G37*
G36*
G01*
X112605000Y-128620274D02*
X112605000Y-128920274D01*
G75*
G02*
X112455000Y-129070274I-150000J0D01*
G01*
X110805000Y-129070274D01*
G75*
G02*
X110655000Y-128920274I0J150000D01*
G01*
X110655000Y-128620274D01*
G75*
G02*
X110805000Y-128470274I150000J0D01*
G01*
X112455000Y-128470274D01*
G75*
G02*
X112605000Y-128620274I0J-150000D01*
G01*
G37*
G36*
G01*
X112605000Y-127350274D02*
X112605000Y-127650274D01*
G75*
G02*
X112455000Y-127800274I-150000J0D01*
G01*
X110805000Y-127800274D01*
G75*
G02*
X110655000Y-127650274I0J150000D01*
G01*
X110655000Y-127350274D01*
G75*
G02*
X110805000Y-127200274I150000J0D01*
G01*
X112455000Y-127200274D01*
G75*
G02*
X112605000Y-127350274I0J-150000D01*
G01*
G37*
G36*
G01*
X112605000Y-126080274D02*
X112605000Y-126380274D01*
G75*
G02*
X112455000Y-126530274I-150000J0D01*
G01*
X110805000Y-126530274D01*
G75*
G02*
X110655000Y-126380274I0J150000D01*
G01*
X110655000Y-126080274D01*
G75*
G02*
X110805000Y-125930274I150000J0D01*
G01*
X112455000Y-125930274D01*
G75*
G02*
X112605000Y-126080274I0J-150000D01*
G01*
G37*
G36*
G01*
X112605000Y-124810274D02*
X112605000Y-125110274D01*
G75*
G02*
X112455000Y-125260274I-150000J0D01*
G01*
X110805000Y-125260274D01*
G75*
G02*
X110655000Y-125110274I0J150000D01*
G01*
X110655000Y-124810274D01*
G75*
G02*
X110805000Y-124660274I150000J0D01*
G01*
X112455000Y-124660274D01*
G75*
G02*
X112605000Y-124810274I0J-150000D01*
G01*
G37*
G36*
G01*
X107655000Y-124810274D02*
X107655000Y-125110274D01*
G75*
G02*
X107505000Y-125260274I-150000J0D01*
G01*
X105855000Y-125260274D01*
G75*
G02*
X105705000Y-125110274I0J150000D01*
G01*
X105705000Y-124810274D01*
G75*
G02*
X105855000Y-124660274I150000J0D01*
G01*
X107505000Y-124660274D01*
G75*
G02*
X107655000Y-124810274I0J-150000D01*
G01*
G37*
G36*
G01*
X107655000Y-126080274D02*
X107655000Y-126380274D01*
G75*
G02*
X107505000Y-126530274I-150000J0D01*
G01*
X105855000Y-126530274D01*
G75*
G02*
X105705000Y-126380274I0J150000D01*
G01*
X105705000Y-126080274D01*
G75*
G02*
X105855000Y-125930274I150000J0D01*
G01*
X107505000Y-125930274D01*
G75*
G02*
X107655000Y-126080274I0J-150000D01*
G01*
G37*
G36*
G01*
X107655000Y-127350274D02*
X107655000Y-127650274D01*
G75*
G02*
X107505000Y-127800274I-150000J0D01*
G01*
X105855000Y-127800274D01*
G75*
G02*
X105705000Y-127650274I0J150000D01*
G01*
X105705000Y-127350274D01*
G75*
G02*
X105855000Y-127200274I150000J0D01*
G01*
X107505000Y-127200274D01*
G75*
G02*
X107655000Y-127350274I0J-150000D01*
G01*
G37*
G36*
G01*
X107655000Y-128620274D02*
X107655000Y-128920274D01*
G75*
G02*
X107505000Y-129070274I-150000J0D01*
G01*
X105855000Y-129070274D01*
G75*
G02*
X105705000Y-128920274I0J150000D01*
G01*
X105705000Y-128620274D01*
G75*
G02*
X105855000Y-128470274I150000J0D01*
G01*
X107505000Y-128470274D01*
G75*
G02*
X107655000Y-128620274I0J-150000D01*
G01*
G37*
G36*
G01*
X107655000Y-129890274D02*
X107655000Y-130190274D01*
G75*
G02*
X107505000Y-130340274I-150000J0D01*
G01*
X105855000Y-130340274D01*
G75*
G02*
X105705000Y-130190274I0J150000D01*
G01*
X105705000Y-129890274D01*
G75*
G02*
X105855000Y-129740274I150000J0D01*
G01*
X107505000Y-129740274D01*
G75*
G02*
X107655000Y-129890274I0J-150000D01*
G01*
G37*
G36*
G01*
X107655000Y-131160274D02*
X107655000Y-131460274D01*
G75*
G02*
X107505000Y-131610274I-150000J0D01*
G01*
X105855000Y-131610274D01*
G75*
G02*
X105705000Y-131460274I0J150000D01*
G01*
X105705000Y-131160274D01*
G75*
G02*
X105855000Y-131010274I150000J0D01*
G01*
X107505000Y-131010274D01*
G75*
G02*
X107655000Y-131160274I0J-150000D01*
G01*
G37*
G36*
G01*
X107655000Y-132430274D02*
X107655000Y-132730274D01*
G75*
G02*
X107505000Y-132880274I-150000J0D01*
G01*
X105855000Y-132880274D01*
G75*
G02*
X105705000Y-132730274I0J150000D01*
G01*
X105705000Y-132430274D01*
G75*
G02*
X105855000Y-132280274I150000J0D01*
G01*
X107505000Y-132280274D01*
G75*
G02*
X107655000Y-132430274I0J-150000D01*
G01*
G37*
%TD*%
%TO.C,R8*%
G36*
G01*
X73662500Y-93060000D02*
X73662500Y-91810000D01*
G75*
G02*
X73912500Y-91560000I250000J0D01*
G01*
X74712500Y-91560000D01*
G75*
G02*
X74962500Y-91810000I0J-250000D01*
G01*
X74962500Y-93060000D01*
G75*
G02*
X74712500Y-93310000I-250000J0D01*
G01*
X73912500Y-93310000D01*
G75*
G02*
X73662500Y-93060000I0J250000D01*
G01*
G37*
G36*
G01*
X76762500Y-93060000D02*
X76762500Y-91810000D01*
G75*
G02*
X77012500Y-91560000I250000J0D01*
G01*
X77812500Y-91560000D01*
G75*
G02*
X78062500Y-91810000I0J-250000D01*
G01*
X78062500Y-93060000D01*
G75*
G02*
X77812500Y-93310000I-250000J0D01*
G01*
X77012500Y-93310000D01*
G75*
G02*
X76762500Y-93060000I0J250000D01*
G01*
G37*
%TD*%
%TO.C,R54*%
G36*
G01*
X119017500Y-132132774D02*
X119017500Y-132607774D01*
G75*
G02*
X118780000Y-132845274I-237500J0D01*
G01*
X118280000Y-132845274D01*
G75*
G02*
X118042500Y-132607774I0J237500D01*
G01*
X118042500Y-132132774D01*
G75*
G02*
X118280000Y-131895274I237500J0D01*
G01*
X118780000Y-131895274D01*
G75*
G02*
X119017500Y-132132774I0J-237500D01*
G01*
G37*
G36*
G01*
X117192500Y-132132774D02*
X117192500Y-132607774D01*
G75*
G02*
X116955000Y-132845274I-237500J0D01*
G01*
X116455000Y-132845274D01*
G75*
G02*
X116217500Y-132607774I0J237500D01*
G01*
X116217500Y-132132774D01*
G75*
G02*
X116455000Y-131895274I237500J0D01*
G01*
X116955000Y-131895274D01*
G75*
G02*
X117192500Y-132132774I0J-237500D01*
G01*
G37*
%TD*%
%TO.C,C18*%
G36*
G01*
X115992500Y-125007774D02*
X115992500Y-124532774D01*
G75*
G02*
X116230000Y-124295274I237500J0D01*
G01*
X116830000Y-124295274D01*
G75*
G02*
X117067500Y-124532774I0J-237500D01*
G01*
X117067500Y-125007774D01*
G75*
G02*
X116830000Y-125245274I-237500J0D01*
G01*
X116230000Y-125245274D01*
G75*
G02*
X115992500Y-125007774I0J237500D01*
G01*
G37*
G36*
G01*
X117717500Y-125007774D02*
X117717500Y-124532774D01*
G75*
G02*
X117955000Y-124295274I237500J0D01*
G01*
X118555000Y-124295274D01*
G75*
G02*
X118792500Y-124532774I0J-237500D01*
G01*
X118792500Y-125007774D01*
G75*
G02*
X118555000Y-125245274I-237500J0D01*
G01*
X117955000Y-125245274D01*
G75*
G02*
X117717500Y-125007774I0J237500D01*
G01*
G37*
%TD*%
%TO.C,R21*%
G36*
G01*
X130520001Y-80627168D02*
X127669999Y-80627168D01*
G75*
G02*
X127420000Y-80377169I0J249999D01*
G01*
X127420000Y-79477167D01*
G75*
G02*
X127669999Y-79227168I249999J0D01*
G01*
X130520001Y-79227168D01*
G75*
G02*
X130770000Y-79477167I0J-249999D01*
G01*
X130770000Y-80377169D01*
G75*
G02*
X130520001Y-80627168I-249999J0D01*
G01*
G37*
G36*
G01*
X130520001Y-74527168D02*
X127669999Y-74527168D01*
G75*
G02*
X127420000Y-74277169I0J249999D01*
G01*
X127420000Y-73377167D01*
G75*
G02*
X127669999Y-73127168I249999J0D01*
G01*
X130520001Y-73127168D01*
G75*
G02*
X130770000Y-73377167I0J-249999D01*
G01*
X130770000Y-74277169D01*
G75*
G02*
X130520001Y-74527168I-249999J0D01*
G01*
G37*
%TD*%
%TO.C,C23*%
G36*
G01*
X63343553Y-82537500D02*
X62043553Y-82537500D01*
G75*
G02*
X61793553Y-82287500I0J250000D01*
G01*
X61793553Y-81462500D01*
G75*
G02*
X62043553Y-81212500I250000J0D01*
G01*
X63343553Y-81212500D01*
G75*
G02*
X63593553Y-81462500I0J-250000D01*
G01*
X63593553Y-82287500D01*
G75*
G02*
X63343553Y-82537500I-250000J0D01*
G01*
G37*
G36*
G01*
X63343553Y-79412500D02*
X62043553Y-79412500D01*
G75*
G02*
X61793553Y-79162500I0J250000D01*
G01*
X61793553Y-78337500D01*
G75*
G02*
X62043553Y-78087500I250000J0D01*
G01*
X63343553Y-78087500D01*
G75*
G02*
X63593553Y-78337500I0J-250000D01*
G01*
X63593553Y-79162500D01*
G75*
G02*
X63343553Y-79412500I-250000J0D01*
G01*
G37*
%TD*%
%TO.C,U11*%
G36*
G01*
X71618553Y-74653764D02*
X76368553Y-74653764D01*
G75*
G02*
X76618553Y-74903764I0J-250000D01*
G01*
X76618553Y-78953764D01*
G75*
G02*
X76368553Y-79203764I-250000J0D01*
G01*
X71618553Y-79203764D01*
G75*
G02*
X71368553Y-78953764I0J250000D01*
G01*
X71368553Y-74903764D01*
G75*
G02*
X71618553Y-74653764I250000J0D01*
G01*
G37*
G36*
G01*
X66068553Y-74653764D02*
X70818553Y-74653764D01*
G75*
G02*
X71068553Y-74903764I0J-250000D01*
G01*
X71068553Y-78953764D01*
G75*
G02*
X70818553Y-79203764I-250000J0D01*
G01*
X66068553Y-79203764D01*
G75*
G02*
X65818553Y-78953764I0J250000D01*
G01*
X65818553Y-74903764D01*
G75*
G02*
X66068553Y-74653764I250000J0D01*
G01*
G37*
G36*
G01*
X71618553Y-79503764D02*
X76368553Y-79503764D01*
G75*
G02*
X76618553Y-79753764I0J-250000D01*
G01*
X76618553Y-83803764D01*
G75*
G02*
X76368553Y-84053764I-250000J0D01*
G01*
X71618553Y-84053764D01*
G75*
G02*
X71368553Y-83803764I0J250000D01*
G01*
X71368553Y-79753764D01*
G75*
G02*
X71618553Y-79503764I250000J0D01*
G01*
G37*
G36*
G01*
X66068553Y-79503764D02*
X70818553Y-79503764D01*
G75*
G02*
X71068553Y-79753764I0J-250000D01*
G01*
X71068553Y-83803764D01*
G75*
G02*
X70818553Y-84053764I-250000J0D01*
G01*
X66068553Y-84053764D01*
G75*
G02*
X65818553Y-83803764I0J250000D01*
G01*
X65818553Y-79753764D01*
G75*
G02*
X66068553Y-79503764I250000J0D01*
G01*
G37*
G36*
G01*
X74318553Y-67903764D02*
X74918553Y-67903764D01*
G75*
G02*
X75168553Y-68153764I0J-250000D01*
G01*
X75168553Y-72253764D01*
G75*
G02*
X74918553Y-72503764I-250000J0D01*
G01*
X74318553Y-72503764D01*
G75*
G02*
X74068553Y-72253764I0J250000D01*
G01*
X74068553Y-68153764D01*
G75*
G02*
X74318553Y-67903764I250000J0D01*
G01*
G37*
G36*
G01*
X72618553Y-67903764D02*
X73218553Y-67903764D01*
G75*
G02*
X73468553Y-68153764I0J-250000D01*
G01*
X73468553Y-72253764D01*
G75*
G02*
X73218553Y-72503764I-250000J0D01*
G01*
X72618553Y-72503764D01*
G75*
G02*
X72368553Y-72253764I0J250000D01*
G01*
X72368553Y-68153764D01*
G75*
G02*
X72618553Y-67903764I250000J0D01*
G01*
G37*
G36*
G01*
X70918553Y-67903764D02*
X71518553Y-67903764D01*
G75*
G02*
X71768553Y-68153764I0J-250000D01*
G01*
X71768553Y-72253764D01*
G75*
G02*
X71518553Y-72503764I-250000J0D01*
G01*
X70918553Y-72503764D01*
G75*
G02*
X70668553Y-72253764I0J250000D01*
G01*
X70668553Y-68153764D01*
G75*
G02*
X70918553Y-67903764I250000J0D01*
G01*
G37*
G36*
G01*
X69218553Y-67903764D02*
X69818553Y-67903764D01*
G75*
G02*
X70068553Y-68153764I0J-250000D01*
G01*
X70068553Y-72253764D01*
G75*
G02*
X69818553Y-72503764I-250000J0D01*
G01*
X69218553Y-72503764D01*
G75*
G02*
X68968553Y-72253764I0J250000D01*
G01*
X68968553Y-68153764D01*
G75*
G02*
X69218553Y-67903764I250000J0D01*
G01*
G37*
G36*
G01*
X67518553Y-67903764D02*
X68118553Y-67903764D01*
G75*
G02*
X68368553Y-68153764I0J-250000D01*
G01*
X68368553Y-72253764D01*
G75*
G02*
X68118553Y-72503764I-250000J0D01*
G01*
X67518553Y-72503764D01*
G75*
G02*
X67268553Y-72253764I0J250000D01*
G01*
X67268553Y-68153764D01*
G75*
G02*
X67518553Y-67903764I250000J0D01*
G01*
G37*
%TD*%
%TO.C,U2*%
G36*
G01*
X116625000Y-79009232D02*
X116300000Y-79009232D01*
G75*
G02*
X116137500Y-78846732I0J162500D01*
G01*
X116137500Y-77611732D01*
G75*
G02*
X116300000Y-77449232I162500J0D01*
G01*
X116625000Y-77449232D01*
G75*
G02*
X116787500Y-77611732I0J-162500D01*
G01*
X116787500Y-78846732D01*
G75*
G02*
X116625000Y-79009232I-162500J0D01*
G01*
G37*
G36*
G01*
X117575000Y-79009232D02*
X117250000Y-79009232D01*
G75*
G02*
X117087500Y-78846732I0J162500D01*
G01*
X117087500Y-77611732D01*
G75*
G02*
X117250000Y-77449232I162500J0D01*
G01*
X117575000Y-77449232D01*
G75*
G02*
X117737500Y-77611732I0J-162500D01*
G01*
X117737500Y-78846732D01*
G75*
G02*
X117575000Y-79009232I-162500J0D01*
G01*
G37*
G36*
G01*
X118525000Y-79009232D02*
X118200000Y-79009232D01*
G75*
G02*
X118037500Y-78846732I0J162500D01*
G01*
X118037500Y-77611732D01*
G75*
G02*
X118200000Y-77449232I162500J0D01*
G01*
X118525000Y-77449232D01*
G75*
G02*
X118687500Y-77611732I0J-162500D01*
G01*
X118687500Y-78846732D01*
G75*
G02*
X118525000Y-79009232I-162500J0D01*
G01*
G37*
G36*
G01*
X118525000Y-76309232D02*
X118200000Y-76309232D01*
G75*
G02*
X118037500Y-76146732I0J162500D01*
G01*
X118037500Y-74911732D01*
G75*
G02*
X118200000Y-74749232I162500J0D01*
G01*
X118525000Y-74749232D01*
G75*
G02*
X118687500Y-74911732I0J-162500D01*
G01*
X118687500Y-76146732D01*
G75*
G02*
X118525000Y-76309232I-162500J0D01*
G01*
G37*
G36*
G01*
X116625000Y-76309232D02*
X116300000Y-76309232D01*
G75*
G02*
X116137500Y-76146732I0J162500D01*
G01*
X116137500Y-74911732D01*
G75*
G02*
X116300000Y-74749232I162500J0D01*
G01*
X116625000Y-74749232D01*
G75*
G02*
X116787500Y-74911732I0J-162500D01*
G01*
X116787500Y-76146732D01*
G75*
G02*
X116625000Y-76309232I-162500J0D01*
G01*
G37*
%TD*%
%TO.C,C17*%
G36*
G01*
X114017500Y-132732774D02*
X113542500Y-132732774D01*
G75*
G02*
X113305000Y-132495274I0J237500D01*
G01*
X113305000Y-131895274D01*
G75*
G02*
X113542500Y-131657774I237500J0D01*
G01*
X114017500Y-131657774D01*
G75*
G02*
X114255000Y-131895274I0J-237500D01*
G01*
X114255000Y-132495274D01*
G75*
G02*
X114017500Y-132732774I-237500J0D01*
G01*
G37*
G36*
G01*
X114017500Y-131007774D02*
X113542500Y-131007774D01*
G75*
G02*
X113305000Y-130770274I0J237500D01*
G01*
X113305000Y-130170274D01*
G75*
G02*
X113542500Y-129932774I237500J0D01*
G01*
X114017500Y-129932774D01*
G75*
G02*
X114255000Y-130170274I0J-237500D01*
G01*
X114255000Y-130770274D01*
G75*
G02*
X114017500Y-131007774I-237500J0D01*
G01*
G37*
%TD*%
%TO.C,U4*%
G36*
G01*
X116617350Y-101906219D02*
X116292350Y-101906219D01*
G75*
G02*
X116129850Y-101743719I0J162500D01*
G01*
X116129850Y-100508719D01*
G75*
G02*
X116292350Y-100346219I162500J0D01*
G01*
X116617350Y-100346219D01*
G75*
G02*
X116779850Y-100508719I0J-162500D01*
G01*
X116779850Y-101743719D01*
G75*
G02*
X116617350Y-101906219I-162500J0D01*
G01*
G37*
G36*
G01*
X118517350Y-101906219D02*
X118192350Y-101906219D01*
G75*
G02*
X118029850Y-101743719I0J162500D01*
G01*
X118029850Y-100508719D01*
G75*
G02*
X118192350Y-100346219I162500J0D01*
G01*
X118517350Y-100346219D01*
G75*
G02*
X118679850Y-100508719I0J-162500D01*
G01*
X118679850Y-101743719D01*
G75*
G02*
X118517350Y-101906219I-162500J0D01*
G01*
G37*
G36*
G01*
X118517350Y-104606219D02*
X118192350Y-104606219D01*
G75*
G02*
X118029850Y-104443719I0J162500D01*
G01*
X118029850Y-103208719D01*
G75*
G02*
X118192350Y-103046219I162500J0D01*
G01*
X118517350Y-103046219D01*
G75*
G02*
X118679850Y-103208719I0J-162500D01*
G01*
X118679850Y-104443719D01*
G75*
G02*
X118517350Y-104606219I-162500J0D01*
G01*
G37*
G36*
G01*
X117567350Y-104606219D02*
X117242350Y-104606219D01*
G75*
G02*
X117079850Y-104443719I0J162500D01*
G01*
X117079850Y-103208719D01*
G75*
G02*
X117242350Y-103046219I162500J0D01*
G01*
X117567350Y-103046219D01*
G75*
G02*
X117729850Y-103208719I0J-162500D01*
G01*
X117729850Y-104443719D01*
G75*
G02*
X117567350Y-104606219I-162500J0D01*
G01*
G37*
G36*
G01*
X116617350Y-104606219D02*
X116292350Y-104606219D01*
G75*
G02*
X116129850Y-104443719I0J162500D01*
G01*
X116129850Y-103208719D01*
G75*
G02*
X116292350Y-103046219I162500J0D01*
G01*
X116617350Y-103046219D01*
G75*
G02*
X116779850Y-103208719I0J-162500D01*
G01*
X116779850Y-104443719D01*
G75*
G02*
X116617350Y-104606219I-162500J0D01*
G01*
G37*
%TD*%
%TO.C,C12*%
G36*
G01*
X104642350Y-104026219D02*
X103692350Y-104026219D01*
G75*
G02*
X103442350Y-103776219I0J250000D01*
G01*
X103442350Y-103101219D01*
G75*
G02*
X103692350Y-102851219I250000J0D01*
G01*
X104642350Y-102851219D01*
G75*
G02*
X104892350Y-103101219I0J-250000D01*
G01*
X104892350Y-103776219D01*
G75*
G02*
X104642350Y-104026219I-250000J0D01*
G01*
G37*
G36*
G01*
X104642350Y-106101219D02*
X103692350Y-106101219D01*
G75*
G02*
X103442350Y-105851219I0J250000D01*
G01*
X103442350Y-105176219D01*
G75*
G02*
X103692350Y-104926219I250000J0D01*
G01*
X104642350Y-104926219D01*
G75*
G02*
X104892350Y-105176219I0J-250000D01*
G01*
X104892350Y-105851219D01*
G75*
G02*
X104642350Y-106101219I-250000J0D01*
G01*
G37*
%TD*%
%TO.C,R50*%
G36*
G01*
X134435001Y-131818210D02*
X131584999Y-131818210D01*
G75*
G02*
X131335000Y-131568211I0J249999D01*
G01*
X131335000Y-130668209D01*
G75*
G02*
X131584999Y-130418210I249999J0D01*
G01*
X134435001Y-130418210D01*
G75*
G02*
X134685000Y-130668209I0J-249999D01*
G01*
X134685000Y-131568211D01*
G75*
G02*
X134435001Y-131818210I-249999J0D01*
G01*
G37*
G36*
G01*
X134435001Y-125718210D02*
X131584999Y-125718210D01*
G75*
G02*
X131335000Y-125468211I0J249999D01*
G01*
X131335000Y-124568209D01*
G75*
G02*
X131584999Y-124318210I249999J0D01*
G01*
X134435001Y-124318210D01*
G75*
G02*
X134685000Y-124568209I0J-249999D01*
G01*
X134685000Y-125468211D01*
G75*
G02*
X134435001Y-125718210I-249999J0D01*
G01*
G37*
%TD*%
%TO.C,C9*%
G36*
G01*
X114012500Y-81541732D02*
X113537500Y-81541732D01*
G75*
G02*
X113300000Y-81304232I0J237500D01*
G01*
X113300000Y-80704232D01*
G75*
G02*
X113537500Y-80466732I237500J0D01*
G01*
X114012500Y-80466732D01*
G75*
G02*
X114250000Y-80704232I0J-237500D01*
G01*
X114250000Y-81304232D01*
G75*
G02*
X114012500Y-81541732I-237500J0D01*
G01*
G37*
G36*
G01*
X114012500Y-79816732D02*
X113537500Y-79816732D01*
G75*
G02*
X113300000Y-79579232I0J237500D01*
G01*
X113300000Y-78979232D01*
G75*
G02*
X113537500Y-78741732I237500J0D01*
G01*
X114012500Y-78741732D01*
G75*
G02*
X114250000Y-78979232I0J-237500D01*
G01*
X114250000Y-79579232D01*
G75*
G02*
X114012500Y-79816732I-237500J0D01*
G01*
G37*
%TD*%
%TO.C,C22*%
G36*
G01*
X57331053Y-65637500D02*
X57331053Y-65162500D01*
G75*
G02*
X57568553Y-64925000I237500J0D01*
G01*
X58168553Y-64925000D01*
G75*
G02*
X58406053Y-65162500I0J-237500D01*
G01*
X58406053Y-65637500D01*
G75*
G02*
X58168553Y-65875000I-237500J0D01*
G01*
X57568553Y-65875000D01*
G75*
G02*
X57331053Y-65637500I0J237500D01*
G01*
G37*
G36*
G01*
X59056053Y-65637500D02*
X59056053Y-65162500D01*
G75*
G02*
X59293553Y-64925000I237500J0D01*
G01*
X59893553Y-64925000D01*
G75*
G02*
X60131053Y-65162500I0J-237500D01*
G01*
X60131053Y-65637500D01*
G75*
G02*
X59893553Y-65875000I-237500J0D01*
G01*
X59293553Y-65875000D01*
G75*
G02*
X59056053Y-65637500I0J237500D01*
G01*
G37*
%TD*%
%TO.C,U14*%
G36*
G01*
X61168553Y-70800000D02*
X63418553Y-70800000D01*
G75*
G02*
X63668553Y-71050000I0J-250000D01*
G01*
X63668553Y-73600000D01*
G75*
G02*
X63418553Y-73850000I-250000J0D01*
G01*
X61168553Y-73850000D01*
G75*
G02*
X60918553Y-73600000I0J250000D01*
G01*
X60918553Y-71050000D01*
G75*
G02*
X61168553Y-70800000I250000J0D01*
G01*
G37*
G36*
G01*
X58118553Y-70800000D02*
X60368553Y-70800000D01*
G75*
G02*
X60618553Y-71050000I0J-250000D01*
G01*
X60618553Y-73600000D01*
G75*
G02*
X60368553Y-73850000I-250000J0D01*
G01*
X58118553Y-73850000D01*
G75*
G02*
X57868553Y-73600000I0J250000D01*
G01*
X57868553Y-71050000D01*
G75*
G02*
X58118553Y-70800000I250000J0D01*
G01*
G37*
G36*
G01*
X61168553Y-74150000D02*
X63418553Y-74150000D01*
G75*
G02*
X63668553Y-74400000I0J-250000D01*
G01*
X63668553Y-76950000D01*
G75*
G02*
X63418553Y-77200000I-250000J0D01*
G01*
X61168553Y-77200000D01*
G75*
G02*
X60918553Y-76950000I0J250000D01*
G01*
X60918553Y-74400000D01*
G75*
G02*
X61168553Y-74150000I250000J0D01*
G01*
G37*
G36*
G01*
X58118553Y-74150000D02*
X60368553Y-74150000D01*
G75*
G02*
X60618553Y-74400000I0J-250000D01*
G01*
X60618553Y-76950000D01*
G75*
G02*
X60368553Y-77200000I-250000J0D01*
G01*
X58118553Y-77200000D01*
G75*
G02*
X57868553Y-76950000I0J250000D01*
G01*
X57868553Y-74400000D01*
G75*
G02*
X58118553Y-74150000I250000J0D01*
G01*
G37*
G36*
G01*
X62698553Y-66600000D02*
X63398553Y-66600000D01*
G75*
G02*
X63648553Y-66850000I0J-250000D01*
G01*
X63648553Y-68550000D01*
G75*
G02*
X63398553Y-68800000I-250000J0D01*
G01*
X62698553Y-68800000D01*
G75*
G02*
X62448553Y-68550000I0J250000D01*
G01*
X62448553Y-66850000D01*
G75*
G02*
X62698553Y-66600000I250000J0D01*
G01*
G37*
G36*
G01*
X58138553Y-66600000D02*
X58838553Y-66600000D01*
G75*
G02*
X59088553Y-66850000I0J-250000D01*
G01*
X59088553Y-68550000D01*
G75*
G02*
X58838553Y-68800000I-250000J0D01*
G01*
X58138553Y-68800000D01*
G75*
G02*
X57888553Y-68550000I0J250000D01*
G01*
X57888553Y-66850000D01*
G75*
G02*
X58138553Y-66600000I250000J0D01*
G01*
G37*
%TD*%
%TO.C,D8*%
G36*
G01*
X114817350Y-101501219D02*
X113917350Y-101501219D01*
G75*
G02*
X113667350Y-101251219I0J250000D01*
G01*
X113667350Y-100601219D01*
G75*
G02*
X113917350Y-100351219I250000J0D01*
G01*
X114817350Y-100351219D01*
G75*
G02*
X115067350Y-100601219I0J-250000D01*
G01*
X115067350Y-101251219D01*
G75*
G02*
X114817350Y-101501219I-250000J0D01*
G01*
G37*
G36*
G01*
X114817350Y-103551219D02*
X113917350Y-103551219D01*
G75*
G02*
X113667350Y-103301219I0J250000D01*
G01*
X113667350Y-102651219D01*
G75*
G02*
X113917350Y-102401219I250000J0D01*
G01*
X114817350Y-102401219D01*
G75*
G02*
X115067350Y-102651219I0J-250000D01*
G01*
X115067350Y-103301219D01*
G75*
G02*
X114817350Y-103551219I-250000J0D01*
G01*
G37*
%TD*%
%TO.C,R5*%
G36*
G01*
X78787500Y-88010000D02*
X78787500Y-86760000D01*
G75*
G02*
X79037500Y-86510000I250000J0D01*
G01*
X79837500Y-86510000D01*
G75*
G02*
X80087500Y-86760000I0J-250000D01*
G01*
X80087500Y-88010000D01*
G75*
G02*
X79837500Y-88260000I-250000J0D01*
G01*
X79037500Y-88260000D01*
G75*
G02*
X78787500Y-88010000I0J250000D01*
G01*
G37*
G36*
G01*
X81887500Y-88010000D02*
X81887500Y-86760000D01*
G75*
G02*
X82137500Y-86510000I250000J0D01*
G01*
X82937500Y-86510000D01*
G75*
G02*
X83187500Y-86760000I0J-250000D01*
G01*
X83187500Y-88010000D01*
G75*
G02*
X82937500Y-88260000I-250000J0D01*
G01*
X82137500Y-88260000D01*
G75*
G02*
X81887500Y-88010000I0J250000D01*
G01*
G37*
%TD*%
%TO.C,D4*%
G36*
G01*
X114825000Y-77954232D02*
X113925000Y-77954232D01*
G75*
G02*
X113675000Y-77704232I0J250000D01*
G01*
X113675000Y-77054232D01*
G75*
G02*
X113925000Y-76804232I250000J0D01*
G01*
X114825000Y-76804232D01*
G75*
G02*
X115075000Y-77054232I0J-250000D01*
G01*
X115075000Y-77704232D01*
G75*
G02*
X114825000Y-77954232I-250000J0D01*
G01*
G37*
G36*
G01*
X114825000Y-75904232D02*
X113925000Y-75904232D01*
G75*
G02*
X113675000Y-75654232I0J250000D01*
G01*
X113675000Y-75004232D01*
G75*
G02*
X113925000Y-74754232I250000J0D01*
G01*
X114825000Y-74754232D01*
G75*
G02*
X115075000Y-75004232I0J-250000D01*
G01*
X115075000Y-75654232D01*
G75*
G02*
X114825000Y-75904232I-250000J0D01*
G01*
G37*
%TD*%
%TO.C,Q5*%
G36*
G01*
X143100000Y-114775274D02*
X143100000Y-112525274D01*
G75*
G02*
X143350000Y-112275274I250000J0D01*
G01*
X145900000Y-112275274D01*
G75*
G02*
X146150000Y-112525274I0J-250000D01*
G01*
X146150000Y-114775274D01*
G75*
G02*
X145900000Y-115025274I-250000J0D01*
G01*
X143350000Y-115025274D01*
G75*
G02*
X143100000Y-114775274I0J250000D01*
G01*
G37*
G36*
G01*
X143100000Y-117825274D02*
X143100000Y-115575274D01*
G75*
G02*
X143350000Y-115325274I250000J0D01*
G01*
X145900000Y-115325274D01*
G75*
G02*
X146150000Y-115575274I0J-250000D01*
G01*
X146150000Y-117825274D01*
G75*
G02*
X145900000Y-118075274I-250000J0D01*
G01*
X143350000Y-118075274D01*
G75*
G02*
X143100000Y-117825274I0J250000D01*
G01*
G37*
G36*
G01*
X146450000Y-114775274D02*
X146450000Y-112525274D01*
G75*
G02*
X146700000Y-112275274I250000J0D01*
G01*
X149250000Y-112275274D01*
G75*
G02*
X149500000Y-112525274I0J-250000D01*
G01*
X149500000Y-114775274D01*
G75*
G02*
X149250000Y-115025274I-250000J0D01*
G01*
X146700000Y-115025274D01*
G75*
G02*
X146450000Y-114775274I0J250000D01*
G01*
G37*
G36*
G01*
X146450000Y-117825274D02*
X146450000Y-115575274D01*
G75*
G02*
X146700000Y-115325274I250000J0D01*
G01*
X149250000Y-115325274D01*
G75*
G02*
X149500000Y-115575274I0J-250000D01*
G01*
X149500000Y-117825274D01*
G75*
G02*
X149250000Y-118075274I-250000J0D01*
G01*
X146700000Y-118075274D01*
G75*
G02*
X146450000Y-117825274I0J250000D01*
G01*
G37*
G36*
G01*
X138900000Y-113245274D02*
X138900000Y-112545274D01*
G75*
G02*
X139150000Y-112295274I250000J0D01*
G01*
X140850000Y-112295274D01*
G75*
G02*
X141100000Y-112545274I0J-250000D01*
G01*
X141100000Y-113245274D01*
G75*
G02*
X140850000Y-113495274I-250000J0D01*
G01*
X139150000Y-113495274D01*
G75*
G02*
X138900000Y-113245274I0J250000D01*
G01*
G37*
G36*
G01*
X138900000Y-117805274D02*
X138900000Y-117105274D01*
G75*
G02*
X139150000Y-116855274I250000J0D01*
G01*
X140850000Y-116855274D01*
G75*
G02*
X141100000Y-117105274I0J-250000D01*
G01*
X141100000Y-117805274D01*
G75*
G02*
X140850000Y-118055274I-250000J0D01*
G01*
X139150000Y-118055274D01*
G75*
G02*
X138900000Y-117805274I0J250000D01*
G01*
G37*
%TD*%
%TO.C,R4*%
G36*
G01*
X73662500Y-88010000D02*
X73662500Y-86760000D01*
G75*
G02*
X73912500Y-86510000I250000J0D01*
G01*
X74712500Y-86510000D01*
G75*
G02*
X74962500Y-86760000I0J-250000D01*
G01*
X74962500Y-88010000D01*
G75*
G02*
X74712500Y-88260000I-250000J0D01*
G01*
X73912500Y-88260000D01*
G75*
G02*
X73662500Y-88010000I0J250000D01*
G01*
G37*
G36*
G01*
X76762500Y-88010000D02*
X76762500Y-86760000D01*
G75*
G02*
X77012500Y-86510000I250000J0D01*
G01*
X77812500Y-86510000D01*
G75*
G02*
X78062500Y-86760000I0J-250000D01*
G01*
X78062500Y-88010000D01*
G75*
G02*
X77812500Y-88260000I-250000J0D01*
G01*
X77012500Y-88260000D01*
G75*
G02*
X76762500Y-88010000I0J250000D01*
G01*
G37*
%TD*%
%TO.C,R23*%
G36*
G01*
X138340001Y-80627168D02*
X135489999Y-80627168D01*
G75*
G02*
X135240000Y-80377169I0J249999D01*
G01*
X135240000Y-79477167D01*
G75*
G02*
X135489999Y-79227168I249999J0D01*
G01*
X138340001Y-79227168D01*
G75*
G02*
X138590000Y-79477167I0J-249999D01*
G01*
X138590000Y-80377169D01*
G75*
G02*
X138340001Y-80627168I-249999J0D01*
G01*
G37*
G36*
G01*
X138340001Y-74527168D02*
X135489999Y-74527168D01*
G75*
G02*
X135240000Y-74277169I0J249999D01*
G01*
X135240000Y-73377167D01*
G75*
G02*
X135489999Y-73127168I249999J0D01*
G01*
X138340001Y-73127168D01*
G75*
G02*
X138590000Y-73377167I0J-249999D01*
G01*
X138590000Y-74277169D01*
G75*
G02*
X138340001Y-74527168I-249999J0D01*
G01*
G37*
%TD*%
%TO.C,D17*%
G36*
G01*
X87354150Y-129686170D02*
X87354150Y-128786170D01*
G75*
G02*
X87604150Y-128536170I250000J0D01*
G01*
X88254150Y-128536170D01*
G75*
G02*
X88504150Y-128786170I0J-250000D01*
G01*
X88504150Y-129686170D01*
G75*
G02*
X88254150Y-129936170I-250000J0D01*
G01*
X87604150Y-129936170D01*
G75*
G02*
X87354150Y-129686170I0J250000D01*
G01*
G37*
G36*
G01*
X89404150Y-129686170D02*
X89404150Y-128786170D01*
G75*
G02*
X89654150Y-128536170I250000J0D01*
G01*
X90304150Y-128536170D01*
G75*
G02*
X90554150Y-128786170I0J-250000D01*
G01*
X90554150Y-129686170D01*
G75*
G02*
X90304150Y-129936170I-250000J0D01*
G01*
X89654150Y-129936170D01*
G75*
G02*
X89404150Y-129686170I0J250000D01*
G01*
G37*
%TD*%
%TO.C,C21*%
G36*
G01*
X64139601Y-64675000D02*
X64139601Y-65625000D01*
G75*
G02*
X63889601Y-65875000I-250000J0D01*
G01*
X63214601Y-65875000D01*
G75*
G02*
X62964601Y-65625000I0J250000D01*
G01*
X62964601Y-64675000D01*
G75*
G02*
X63214601Y-64425000I250000J0D01*
G01*
X63889601Y-64425000D01*
G75*
G02*
X64139601Y-64675000I0J-250000D01*
G01*
G37*
G36*
G01*
X62064601Y-64675000D02*
X62064601Y-65625000D01*
G75*
G02*
X61814601Y-65875000I-250000J0D01*
G01*
X61139601Y-65875000D01*
G75*
G02*
X60889601Y-65625000I0J250000D01*
G01*
X60889601Y-64675000D01*
G75*
G02*
X61139601Y-64425000I250000J0D01*
G01*
X61814601Y-64425000D01*
G75*
G02*
X62064601Y-64675000I0J-250000D01*
G01*
G37*
%TD*%
%TO.C,D16*%
G36*
G01*
X55593553Y-79925000D02*
X56493553Y-79925000D01*
G75*
G02*
X56743553Y-80175000I0J-250000D01*
G01*
X56743553Y-80825000D01*
G75*
G02*
X56493553Y-81075000I-250000J0D01*
G01*
X55593553Y-81075000D01*
G75*
G02*
X55343553Y-80825000I0J250000D01*
G01*
X55343553Y-80175000D01*
G75*
G02*
X55593553Y-79925000I250000J0D01*
G01*
G37*
G36*
G01*
X55593553Y-81975000D02*
X56493553Y-81975000D01*
G75*
G02*
X56743553Y-82225000I0J-250000D01*
G01*
X56743553Y-82875000D01*
G75*
G02*
X56493553Y-83125000I-250000J0D01*
G01*
X55593553Y-83125000D01*
G75*
G02*
X55343553Y-82875000I0J250000D01*
G01*
X55343553Y-82225000D01*
G75*
G02*
X55593553Y-81975000I250000J0D01*
G01*
G37*
%TD*%
%TO.C,C16*%
G36*
G01*
X104655000Y-131695274D02*
X103705000Y-131695274D01*
G75*
G02*
X103455000Y-131445274I0J250000D01*
G01*
X103455000Y-130770274D01*
G75*
G02*
X103705000Y-130520274I250000J0D01*
G01*
X104655000Y-130520274D01*
G75*
G02*
X104905000Y-130770274I0J-250000D01*
G01*
X104905000Y-131445274D01*
G75*
G02*
X104655000Y-131695274I-250000J0D01*
G01*
G37*
G36*
G01*
X104655000Y-129620274D02*
X103705000Y-129620274D01*
G75*
G02*
X103455000Y-129370274I0J250000D01*
G01*
X103455000Y-128695274D01*
G75*
G02*
X103705000Y-128445274I250000J0D01*
G01*
X104655000Y-128445274D01*
G75*
G02*
X104905000Y-128695274I0J-250000D01*
G01*
X104905000Y-129370274D01*
G75*
G02*
X104655000Y-129620274I-250000J0D01*
G01*
G37*
%TD*%
%TO.C,R47*%
G36*
G01*
X122705001Y-131818210D02*
X119854999Y-131818210D01*
G75*
G02*
X119605000Y-131568211I0J249999D01*
G01*
X119605000Y-130668209D01*
G75*
G02*
X119854999Y-130418210I249999J0D01*
G01*
X122705001Y-130418210D01*
G75*
G02*
X122955000Y-130668209I0J-249999D01*
G01*
X122955000Y-131568211D01*
G75*
G02*
X122705001Y-131818210I-249999J0D01*
G01*
G37*
G36*
G01*
X122705001Y-125718210D02*
X119854999Y-125718210D01*
G75*
G02*
X119605000Y-125468211I0J249999D01*
G01*
X119605000Y-124568209D01*
G75*
G02*
X119854999Y-124318210I249999J0D01*
G01*
X122705001Y-124318210D01*
G75*
G02*
X122955000Y-124568209I0J-249999D01*
G01*
X122955000Y-125468211D01*
G75*
G02*
X122705001Y-125718210I-249999J0D01*
G01*
G37*
%TD*%
%TO.C,R35*%
G36*
G01*
X130512351Y-100124155D02*
X127662349Y-100124155D01*
G75*
G02*
X127412350Y-99874156I0J249999D01*
G01*
X127412350Y-98974154D01*
G75*
G02*
X127662349Y-98724155I249999J0D01*
G01*
X130512351Y-98724155D01*
G75*
G02*
X130762350Y-98974154I0J-249999D01*
G01*
X130762350Y-99874156D01*
G75*
G02*
X130512351Y-100124155I-249999J0D01*
G01*
G37*
G36*
G01*
X130512351Y-106224155D02*
X127662349Y-106224155D01*
G75*
G02*
X127412350Y-105974156I0J249999D01*
G01*
X127412350Y-105074154D01*
G75*
G02*
X127662349Y-104824155I249999J0D01*
G01*
X130512351Y-104824155D01*
G75*
G02*
X130762350Y-105074154I0J-249999D01*
G01*
X130762350Y-105974156D01*
G75*
G02*
X130512351Y-106224155I-249999J0D01*
G01*
G37*
%TD*%
%TO.C,R60*%
G36*
G01*
X83751650Y-129248670D02*
X83751650Y-128773670D01*
G75*
G02*
X83989150Y-128536170I237500J0D01*
G01*
X84489150Y-128536170D01*
G75*
G02*
X84726650Y-128773670I0J-237500D01*
G01*
X84726650Y-129248670D01*
G75*
G02*
X84489150Y-129486170I-237500J0D01*
G01*
X83989150Y-129486170D01*
G75*
G02*
X83751650Y-129248670I0J237500D01*
G01*
G37*
G36*
G01*
X85576650Y-129248670D02*
X85576650Y-128773670D01*
G75*
G02*
X85814150Y-128536170I237500J0D01*
G01*
X86314150Y-128536170D01*
G75*
G02*
X86551650Y-128773670I0J-237500D01*
G01*
X86551650Y-129248670D01*
G75*
G02*
X86314150Y-129486170I-237500J0D01*
G01*
X85814150Y-129486170D01*
G75*
G02*
X85576650Y-129248670I0J237500D01*
G01*
G37*
%TD*%
%TO.C,B1*%
G36*
G01*
X139990000Y-102339999D02*
X139990000Y-94339999D01*
G75*
G02*
X140990000Y-93339999I1000000J0D01*
G01*
X148990000Y-93339999D01*
G75*
G02*
X149990000Y-94339999I0J-1000000D01*
G01*
X149990000Y-102339999D01*
G75*
G02*
X148990000Y-103339999I-1000000J0D01*
G01*
X140990000Y-103339999D01*
G75*
G02*
X139990000Y-102339999I0J1000000D01*
G01*
G37*
%TD*%
%TO.C,R9*%
G36*
G01*
X78737500Y-93060000D02*
X78737500Y-91810000D01*
G75*
G02*
X78987500Y-91560000I250000J0D01*
G01*
X79787500Y-91560000D01*
G75*
G02*
X80037500Y-91810000I0J-250000D01*
G01*
X80037500Y-93060000D01*
G75*
G02*
X79787500Y-93310000I-250000J0D01*
G01*
X78987500Y-93310000D01*
G75*
G02*
X78737500Y-93060000I0J250000D01*
G01*
G37*
G36*
G01*
X81837500Y-93060000D02*
X81837500Y-91810000D01*
G75*
G02*
X82087500Y-91560000I250000J0D01*
G01*
X82887500Y-91560000D01*
G75*
G02*
X83137500Y-91810000I0J-250000D01*
G01*
X83137500Y-93060000D01*
G75*
G02*
X82887500Y-93310000I-250000J0D01*
G01*
X82087500Y-93310000D01*
G75*
G02*
X81837500Y-93060000I0J250000D01*
G01*
G37*
%TD*%
%TO.C,R19*%
G36*
G01*
X122700001Y-80627168D02*
X119849999Y-80627168D01*
G75*
G02*
X119600000Y-80377169I0J249999D01*
G01*
X119600000Y-79477167D01*
G75*
G02*
X119849999Y-79227168I249999J0D01*
G01*
X122700001Y-79227168D01*
G75*
G02*
X122950000Y-79477167I0J-249999D01*
G01*
X122950000Y-80377169D01*
G75*
G02*
X122700001Y-80627168I-249999J0D01*
G01*
G37*
G36*
G01*
X122700001Y-74527168D02*
X119849999Y-74527168D01*
G75*
G02*
X119600000Y-74277169I0J249999D01*
G01*
X119600000Y-73377167D01*
G75*
G02*
X119849999Y-73127168I249999J0D01*
G01*
X122700001Y-73127168D01*
G75*
G02*
X122950000Y-73377167I0J-249999D01*
G01*
X122950000Y-74277169D01*
G75*
G02*
X122700001Y-74527168I-249999J0D01*
G01*
G37*
%TD*%
%TO.C,Q4*%
G36*
G01*
X145487350Y-107551219D02*
X145487350Y-109801219D01*
G75*
G02*
X145237350Y-110051219I-250000J0D01*
G01*
X142687350Y-110051219D01*
G75*
G02*
X142437350Y-109801219I0J250000D01*
G01*
X142437350Y-107551219D01*
G75*
G02*
X142687350Y-107301219I250000J0D01*
G01*
X145237350Y-107301219D01*
G75*
G02*
X145487350Y-107551219I0J-250000D01*
G01*
G37*
G36*
G01*
X145487350Y-104501219D02*
X145487350Y-106751219D01*
G75*
G02*
X145237350Y-107001219I-250000J0D01*
G01*
X142687350Y-107001219D01*
G75*
G02*
X142437350Y-106751219I0J250000D01*
G01*
X142437350Y-104501219D01*
G75*
G02*
X142687350Y-104251219I250000J0D01*
G01*
X145237350Y-104251219D01*
G75*
G02*
X145487350Y-104501219I0J-250000D01*
G01*
G37*
G36*
G01*
X142137350Y-107551219D02*
X142137350Y-109801219D01*
G75*
G02*
X141887350Y-110051219I-250000J0D01*
G01*
X139337350Y-110051219D01*
G75*
G02*
X139087350Y-109801219I0J250000D01*
G01*
X139087350Y-107551219D01*
G75*
G02*
X139337350Y-107301219I250000J0D01*
G01*
X141887350Y-107301219D01*
G75*
G02*
X142137350Y-107551219I0J-250000D01*
G01*
G37*
G36*
G01*
X142137350Y-104501219D02*
X142137350Y-106751219D01*
G75*
G02*
X141887350Y-107001219I-250000J0D01*
G01*
X139337350Y-107001219D01*
G75*
G02*
X139087350Y-106751219I0J250000D01*
G01*
X139087350Y-104501219D01*
G75*
G02*
X139337350Y-104251219I250000J0D01*
G01*
X141887350Y-104251219D01*
G75*
G02*
X142137350Y-104501219I0J-250000D01*
G01*
G37*
G36*
G01*
X149687350Y-109081219D02*
X149687350Y-109781219D01*
G75*
G02*
X149437350Y-110031219I-250000J0D01*
G01*
X147737350Y-110031219D01*
G75*
G02*
X147487350Y-109781219I0J250000D01*
G01*
X147487350Y-109081219D01*
G75*
G02*
X147737350Y-108831219I250000J0D01*
G01*
X149437350Y-108831219D01*
G75*
G02*
X149687350Y-109081219I0J-250000D01*
G01*
G37*
G36*
G01*
X149687350Y-104521219D02*
X149687350Y-105221219D01*
G75*
G02*
X149437350Y-105471219I-250000J0D01*
G01*
X147737350Y-105471219D01*
G75*
G02*
X147487350Y-105221219I0J250000D01*
G01*
X147487350Y-104521219D01*
G75*
G02*
X147737350Y-104271219I250000J0D01*
G01*
X149437350Y-104271219D01*
G75*
G02*
X149687350Y-104521219I0J-250000D01*
G01*
G37*
%TD*%
%TO.C,C5*%
G36*
G01*
X72962500Y-89290000D02*
X72962500Y-90540000D01*
G75*
G02*
X72712500Y-90790000I-250000J0D01*
G01*
X71912500Y-90790000D01*
G75*
G02*
X71662500Y-90540000I0J250000D01*
G01*
X71662500Y-89290000D01*
G75*
G02*
X71912500Y-89040000I250000J0D01*
G01*
X72712500Y-89040000D01*
G75*
G02*
X72962500Y-89290000I0J-250000D01*
G01*
G37*
G36*
G01*
X69862500Y-89290000D02*
X69862500Y-90540000D01*
G75*
G02*
X69612500Y-90790000I-250000J0D01*
G01*
X68812500Y-90790000D01*
G75*
G02*
X68562500Y-90540000I0J250000D01*
G01*
X68562500Y-89290000D01*
G75*
G02*
X68812500Y-89040000I250000J0D01*
G01*
X69612500Y-89040000D01*
G75*
G02*
X69862500Y-89290000I0J-250000D01*
G01*
G37*
%TD*%
%TO.C,C6*%
G36*
G01*
X72962500Y-91810000D02*
X72962500Y-93060000D01*
G75*
G02*
X72712500Y-93310000I-250000J0D01*
G01*
X71912500Y-93310000D01*
G75*
G02*
X71662500Y-93060000I0J250000D01*
G01*
X71662500Y-91810000D01*
G75*
G02*
X71912500Y-91560000I250000J0D01*
G01*
X72712500Y-91560000D01*
G75*
G02*
X72962500Y-91810000I0J-250000D01*
G01*
G37*
G36*
G01*
X69862500Y-91810000D02*
X69862500Y-93060000D01*
G75*
G02*
X69612500Y-93310000I-250000J0D01*
G01*
X68812500Y-93310000D01*
G75*
G02*
X68562500Y-93060000I0J250000D01*
G01*
X68562500Y-91810000D01*
G75*
G02*
X68812500Y-91560000I250000J0D01*
G01*
X69612500Y-91560000D01*
G75*
G02*
X69862500Y-91810000I0J-250000D01*
G01*
G37*
%TD*%
%TO.C,D2*%
G36*
G01*
X104625000Y-76429232D02*
X103725000Y-76429232D01*
G75*
G02*
X103475000Y-76179232I0J250000D01*
G01*
X103475000Y-75529232D01*
G75*
G02*
X103725000Y-75279232I250000J0D01*
G01*
X104625000Y-75279232D01*
G75*
G02*
X104875000Y-75529232I0J-250000D01*
G01*
X104875000Y-76179232D01*
G75*
G02*
X104625000Y-76429232I-250000J0D01*
G01*
G37*
G36*
G01*
X104625000Y-74379232D02*
X103725000Y-74379232D01*
G75*
G02*
X103475000Y-74129232I0J250000D01*
G01*
X103475000Y-73479232D01*
G75*
G02*
X103725000Y-73229232I250000J0D01*
G01*
X104625000Y-73229232D01*
G75*
G02*
X104875000Y-73479232I0J-250000D01*
G01*
X104875000Y-74129232D01*
G75*
G02*
X104625000Y-74379232I-250000J0D01*
G01*
G37*
%TD*%
%TO.C,R34*%
G36*
G01*
X126602351Y-100124155D02*
X123752349Y-100124155D01*
G75*
G02*
X123502350Y-99874156I0J249999D01*
G01*
X123502350Y-98974154D01*
G75*
G02*
X123752349Y-98724155I249999J0D01*
G01*
X126602351Y-98724155D01*
G75*
G02*
X126852350Y-98974154I0J-249999D01*
G01*
X126852350Y-99874156D01*
G75*
G02*
X126602351Y-100124155I-249999J0D01*
G01*
G37*
G36*
G01*
X126602351Y-106224155D02*
X123752349Y-106224155D01*
G75*
G02*
X123502350Y-105974156I0J249999D01*
G01*
X123502350Y-105074154D01*
G75*
G02*
X123752349Y-104824155I249999J0D01*
G01*
X126602351Y-104824155D01*
G75*
G02*
X126852350Y-105074154I0J-249999D01*
G01*
X126852350Y-105974156D01*
G75*
G02*
X126602351Y-106224155I-249999J0D01*
G01*
G37*
%TD*%
%TO.C,C14*%
G36*
G01*
X117704850Y-99413719D02*
X117704850Y-98938719D01*
G75*
G02*
X117942350Y-98701219I237500J0D01*
G01*
X118542350Y-98701219D01*
G75*
G02*
X118779850Y-98938719I0J-237500D01*
G01*
X118779850Y-99413719D01*
G75*
G02*
X118542350Y-99651219I-237500J0D01*
G01*
X117942350Y-99651219D01*
G75*
G02*
X117704850Y-99413719I0J237500D01*
G01*
G37*
G36*
G01*
X115979850Y-99413719D02*
X115979850Y-98938719D01*
G75*
G02*
X116217350Y-98701219I237500J0D01*
G01*
X116817350Y-98701219D01*
G75*
G02*
X117054850Y-98938719I0J-237500D01*
G01*
X117054850Y-99413719D01*
G75*
G02*
X116817350Y-99651219I-237500J0D01*
G01*
X116217350Y-99651219D01*
G75*
G02*
X115979850Y-99413719I0J237500D01*
G01*
G37*
%TD*%
%TO.C,C10*%
G36*
G01*
X115987500Y-73816732D02*
X115987500Y-73341732D01*
G75*
G02*
X116225000Y-73104232I237500J0D01*
G01*
X116825000Y-73104232D01*
G75*
G02*
X117062500Y-73341732I0J-237500D01*
G01*
X117062500Y-73816732D01*
G75*
G02*
X116825000Y-74054232I-237500J0D01*
G01*
X116225000Y-74054232D01*
G75*
G02*
X115987500Y-73816732I0J237500D01*
G01*
G37*
G36*
G01*
X117712500Y-73816732D02*
X117712500Y-73341732D01*
G75*
G02*
X117950000Y-73104232I237500J0D01*
G01*
X118550000Y-73104232D01*
G75*
G02*
X118787500Y-73341732I0J-237500D01*
G01*
X118787500Y-73816732D01*
G75*
G02*
X118550000Y-74054232I-237500J0D01*
G01*
X117950000Y-74054232D01*
G75*
G02*
X117712500Y-73816732I0J237500D01*
G01*
G37*
%TD*%
%TO.C,L1*%
G36*
G01*
X76218554Y-60103764D02*
X69218552Y-60103764D01*
G75*
G02*
X68968553Y-59853765I0J249999D01*
G01*
X68968553Y-58153763D01*
G75*
G02*
X69218552Y-57903764I249999J0D01*
G01*
X76218554Y-57903764D01*
G75*
G02*
X76468553Y-58153763I0J-249999D01*
G01*
X76468553Y-59853765D01*
G75*
G02*
X76218554Y-60103764I-249999J0D01*
G01*
G37*
G36*
G01*
X76218554Y-54103764D02*
X69218552Y-54103764D01*
G75*
G02*
X68968553Y-53853765I0J249999D01*
G01*
X68968553Y-52153763D01*
G75*
G02*
X69218552Y-51903764I249999J0D01*
G01*
X76218554Y-51903764D01*
G75*
G02*
X76468553Y-52153763I0J-249999D01*
G01*
X76468553Y-53853765D01*
G75*
G02*
X76218554Y-54103764I-249999J0D01*
G01*
G37*
%TD*%
%TO.C,Q3*%
G36*
G01*
X143087350Y-89181219D02*
X143087350Y-86931219D01*
G75*
G02*
X143337350Y-86681219I250000J0D01*
G01*
X145887350Y-86681219D01*
G75*
G02*
X146137350Y-86931219I0J-250000D01*
G01*
X146137350Y-89181219D01*
G75*
G02*
X145887350Y-89431219I-250000J0D01*
G01*
X143337350Y-89431219D01*
G75*
G02*
X143087350Y-89181219I0J250000D01*
G01*
G37*
G36*
G01*
X143087350Y-92231219D02*
X143087350Y-89981219D01*
G75*
G02*
X143337350Y-89731219I250000J0D01*
G01*
X145887350Y-89731219D01*
G75*
G02*
X146137350Y-89981219I0J-250000D01*
G01*
X146137350Y-92231219D01*
G75*
G02*
X145887350Y-92481219I-250000J0D01*
G01*
X143337350Y-92481219D01*
G75*
G02*
X143087350Y-92231219I0J250000D01*
G01*
G37*
G36*
G01*
X146437350Y-89181219D02*
X146437350Y-86931219D01*
G75*
G02*
X146687350Y-86681219I250000J0D01*
G01*
X149237350Y-86681219D01*
G75*
G02*
X149487350Y-86931219I0J-250000D01*
G01*
X149487350Y-89181219D01*
G75*
G02*
X149237350Y-89431219I-250000J0D01*
G01*
X146687350Y-89431219D01*
G75*
G02*
X146437350Y-89181219I0J250000D01*
G01*
G37*
G36*
G01*
X146437350Y-92231219D02*
X146437350Y-89981219D01*
G75*
G02*
X146687350Y-89731219I250000J0D01*
G01*
X149237350Y-89731219D01*
G75*
G02*
X149487350Y-89981219I0J-250000D01*
G01*
X149487350Y-92231219D01*
G75*
G02*
X149237350Y-92481219I-250000J0D01*
G01*
X146687350Y-92481219D01*
G75*
G02*
X146437350Y-92231219I0J250000D01*
G01*
G37*
G36*
G01*
X138887350Y-87651219D02*
X138887350Y-86951219D01*
G75*
G02*
X139137350Y-86701219I250000J0D01*
G01*
X140837350Y-86701219D01*
G75*
G02*
X141087350Y-86951219I0J-250000D01*
G01*
X141087350Y-87651219D01*
G75*
G02*
X140837350Y-87901219I-250000J0D01*
G01*
X139137350Y-87901219D01*
G75*
G02*
X138887350Y-87651219I0J250000D01*
G01*
G37*
G36*
G01*
X138887350Y-92211219D02*
X138887350Y-91511219D01*
G75*
G02*
X139137350Y-91261219I250000J0D01*
G01*
X140837350Y-91261219D01*
G75*
G02*
X141087350Y-91511219I0J-250000D01*
G01*
X141087350Y-92211219D01*
G75*
G02*
X140837350Y-92461219I-250000J0D01*
G01*
X139137350Y-92461219D01*
G75*
G02*
X138887350Y-92211219I0J250000D01*
G01*
G37*
%TD*%
%TO.C,C1*%
G36*
G01*
X139990000Y-127930274D02*
X139990000Y-119930274D01*
G75*
G02*
X140990000Y-118930274I1000000J0D01*
G01*
X148990000Y-118930274D01*
G75*
G02*
X149990000Y-119930274I0J-1000000D01*
G01*
X149990000Y-127930274D01*
G75*
G02*
X148990000Y-128930274I-1000000J0D01*
G01*
X140990000Y-128930274D01*
G75*
G02*
X139990000Y-127930274I0J1000000D01*
G01*
G37*
%TD*%
%TO.C,D10*%
G36*
G01*
X104630000Y-127620274D02*
X103730000Y-127620274D01*
G75*
G02*
X103480000Y-127370274I0J250000D01*
G01*
X103480000Y-126720274D01*
G75*
G02*
X103730000Y-126470274I250000J0D01*
G01*
X104630000Y-126470274D01*
G75*
G02*
X104880000Y-126720274I0J-250000D01*
G01*
X104880000Y-127370274D01*
G75*
G02*
X104630000Y-127620274I-250000J0D01*
G01*
G37*
G36*
G01*
X104630000Y-125570274D02*
X103730000Y-125570274D01*
G75*
G02*
X103480000Y-125320274I0J250000D01*
G01*
X103480000Y-124670274D01*
G75*
G02*
X103730000Y-124420274I250000J0D01*
G01*
X104630000Y-124420274D01*
G75*
G02*
X104880000Y-124670274I0J-250000D01*
G01*
X104880000Y-125320274D01*
G75*
G02*
X104630000Y-125570274I-250000J0D01*
G01*
G37*
%TD*%
%TO.C,R36*%
G36*
G01*
X134422351Y-100124155D02*
X131572349Y-100124155D01*
G75*
G02*
X131322350Y-99874156I0J249999D01*
G01*
X131322350Y-98974154D01*
G75*
G02*
X131572349Y-98724155I249999J0D01*
G01*
X134422351Y-98724155D01*
G75*
G02*
X134672350Y-98974154I0J-249999D01*
G01*
X134672350Y-99874156D01*
G75*
G02*
X134422351Y-100124155I-249999J0D01*
G01*
G37*
G36*
G01*
X134422351Y-106224155D02*
X131572349Y-106224155D01*
G75*
G02*
X131322350Y-105974156I0J249999D01*
G01*
X131322350Y-105074154D01*
G75*
G02*
X131572349Y-104824155I249999J0D01*
G01*
X134422351Y-104824155D01*
G75*
G02*
X134672350Y-105074154I0J-249999D01*
G01*
X134672350Y-105974156D01*
G75*
G02*
X134422351Y-106224155I-249999J0D01*
G01*
G37*
%TD*%
%TO.C,Q2*%
G36*
G01*
X145495000Y-81954232D02*
X145495000Y-84204232D01*
G75*
G02*
X145245000Y-84454232I-250000J0D01*
G01*
X142695000Y-84454232D01*
G75*
G02*
X142445000Y-84204232I0J250000D01*
G01*
X142445000Y-81954232D01*
G75*
G02*
X142695000Y-81704232I250000J0D01*
G01*
X145245000Y-81704232D01*
G75*
G02*
X145495000Y-81954232I0J-250000D01*
G01*
G37*
G36*
G01*
X145495000Y-78904232D02*
X145495000Y-81154232D01*
G75*
G02*
X145245000Y-81404232I-250000J0D01*
G01*
X142695000Y-81404232D01*
G75*
G02*
X142445000Y-81154232I0J250000D01*
G01*
X142445000Y-78904232D01*
G75*
G02*
X142695000Y-78654232I250000J0D01*
G01*
X145245000Y-78654232D01*
G75*
G02*
X145495000Y-78904232I0J-250000D01*
G01*
G37*
G36*
G01*
X142145000Y-81954232D02*
X142145000Y-84204232D01*
G75*
G02*
X141895000Y-84454232I-250000J0D01*
G01*
X139345000Y-84454232D01*
G75*
G02*
X139095000Y-84204232I0J250000D01*
G01*
X139095000Y-81954232D01*
G75*
G02*
X139345000Y-81704232I250000J0D01*
G01*
X141895000Y-81704232D01*
G75*
G02*
X142145000Y-81954232I0J-250000D01*
G01*
G37*
G36*
G01*
X142145000Y-78904232D02*
X142145000Y-81154232D01*
G75*
G02*
X141895000Y-81404232I-250000J0D01*
G01*
X139345000Y-81404232D01*
G75*
G02*
X139095000Y-81154232I0J250000D01*
G01*
X139095000Y-78904232D01*
G75*
G02*
X139345000Y-78654232I250000J0D01*
G01*
X141895000Y-78654232D01*
G75*
G02*
X142145000Y-78904232I0J-250000D01*
G01*
G37*
G36*
G01*
X149695000Y-83484232D02*
X149695000Y-84184232D01*
G75*
G02*
X149445000Y-84434232I-250000J0D01*
G01*
X147745000Y-84434232D01*
G75*
G02*
X147495000Y-84184232I0J250000D01*
G01*
X147495000Y-83484232D01*
G75*
G02*
X147745000Y-83234232I250000J0D01*
G01*
X149445000Y-83234232D01*
G75*
G02*
X149695000Y-83484232I0J-250000D01*
G01*
G37*
G36*
G01*
X149695000Y-78924232D02*
X149695000Y-79624232D01*
G75*
G02*
X149445000Y-79874232I-250000J0D01*
G01*
X147745000Y-79874232D01*
G75*
G02*
X147495000Y-79624232I0J250000D01*
G01*
X147495000Y-78924232D01*
G75*
G02*
X147745000Y-78674232I250000J0D01*
G01*
X149445000Y-78674232D01*
G75*
G02*
X149695000Y-78924232I0J-250000D01*
G01*
G37*
%TD*%
%TO.C,C19*%
G36*
G01*
X77593553Y-71453764D02*
X78843553Y-71453764D01*
G75*
G02*
X79093553Y-71703764I0J-250000D01*
G01*
X79093553Y-72503764D01*
G75*
G02*
X78843553Y-72753764I-250000J0D01*
G01*
X77593553Y-72753764D01*
G75*
G02*
X77343553Y-72503764I0J250000D01*
G01*
X77343553Y-71703764D01*
G75*
G02*
X77593553Y-71453764I250000J0D01*
G01*
G37*
G36*
G01*
X77593553Y-74553764D02*
X78843553Y-74553764D01*
G75*
G02*
X79093553Y-74803764I0J-250000D01*
G01*
X79093553Y-75603764D01*
G75*
G02*
X78843553Y-75853764I-250000J0D01*
G01*
X77593553Y-75853764D01*
G75*
G02*
X77343553Y-75603764I0J250000D01*
G01*
X77343553Y-74803764D01*
G75*
G02*
X77593553Y-74553764I250000J0D01*
G01*
G37*
%TD*%
%TO.C,Q6*%
G36*
G01*
X145500000Y-133145274D02*
X145500000Y-135395274D01*
G75*
G02*
X145250000Y-135645274I-250000J0D01*
G01*
X142700000Y-135645274D01*
G75*
G02*
X142450000Y-135395274I0J250000D01*
G01*
X142450000Y-133145274D01*
G75*
G02*
X142700000Y-132895274I250000J0D01*
G01*
X145250000Y-132895274D01*
G75*
G02*
X145500000Y-133145274I0J-250000D01*
G01*
G37*
G36*
G01*
X145500000Y-130095274D02*
X145500000Y-132345274D01*
G75*
G02*
X145250000Y-132595274I-250000J0D01*
G01*
X142700000Y-132595274D01*
G75*
G02*
X142450000Y-132345274I0J250000D01*
G01*
X142450000Y-130095274D01*
G75*
G02*
X142700000Y-129845274I250000J0D01*
G01*
X145250000Y-129845274D01*
G75*
G02*
X145500000Y-130095274I0J-250000D01*
G01*
G37*
G36*
G01*
X142150000Y-133145274D02*
X142150000Y-135395274D01*
G75*
G02*
X141900000Y-135645274I-250000J0D01*
G01*
X139350000Y-135645274D01*
G75*
G02*
X139100000Y-135395274I0J250000D01*
G01*
X139100000Y-133145274D01*
G75*
G02*
X139350000Y-132895274I250000J0D01*
G01*
X141900000Y-132895274D01*
G75*
G02*
X142150000Y-133145274I0J-250000D01*
G01*
G37*
G36*
G01*
X142150000Y-130095274D02*
X142150000Y-132345274D01*
G75*
G02*
X141900000Y-132595274I-250000J0D01*
G01*
X139350000Y-132595274D01*
G75*
G02*
X139100000Y-132345274I0J250000D01*
G01*
X139100000Y-130095274D01*
G75*
G02*
X139350000Y-129845274I250000J0D01*
G01*
X141900000Y-129845274D01*
G75*
G02*
X142150000Y-130095274I0J-250000D01*
G01*
G37*
G36*
G01*
X149700000Y-134675274D02*
X149700000Y-135375274D01*
G75*
G02*
X149450000Y-135625274I-250000J0D01*
G01*
X147750000Y-135625274D01*
G75*
G02*
X147500000Y-135375274I0J250000D01*
G01*
X147500000Y-134675274D01*
G75*
G02*
X147750000Y-134425274I250000J0D01*
G01*
X149450000Y-134425274D01*
G75*
G02*
X149700000Y-134675274I0J-250000D01*
G01*
G37*
G36*
G01*
X149700000Y-130115274D02*
X149700000Y-130815274D01*
G75*
G02*
X149450000Y-131065274I-250000J0D01*
G01*
X147750000Y-131065274D01*
G75*
G02*
X147500000Y-130815274I0J250000D01*
G01*
X147500000Y-130115274D01*
G75*
G02*
X147750000Y-129865274I250000J0D01*
G01*
X149450000Y-129865274D01*
G75*
G02*
X149700000Y-130115274I0J-250000D01*
G01*
G37*
%TD*%
%TO.C,R51*%
G36*
G01*
X138345001Y-131818210D02*
X135494999Y-131818210D01*
G75*
G02*
X135245000Y-131568211I0J249999D01*
G01*
X135245000Y-130668209D01*
G75*
G02*
X135494999Y-130418210I249999J0D01*
G01*
X138345001Y-130418210D01*
G75*
G02*
X138595000Y-130668209I0J-249999D01*
G01*
X138595000Y-131568211D01*
G75*
G02*
X138345001Y-131818210I-249999J0D01*
G01*
G37*
G36*
G01*
X138345001Y-125718210D02*
X135494999Y-125718210D01*
G75*
G02*
X135245000Y-125468211I0J249999D01*
G01*
X135245000Y-124568209D01*
G75*
G02*
X135494999Y-124318210I249999J0D01*
G01*
X138345001Y-124318210D01*
G75*
G02*
X138595000Y-124568209I0J-249999D01*
G01*
X138595000Y-125468211D01*
G75*
G02*
X138345001Y-125718210I-249999J0D01*
G01*
G37*
%TD*%
D10*
X50000000Y-52500000D02*
X50000000Y-146000000D01*
X50000000Y-52500000D02*
G75*
G02*
X54000000Y-48500000I4000000J0D01*
G01*
X54000000Y-150000000D02*
G75*
G02*
X50000000Y-146000000I0J4000000D01*
G01*
X54000000Y-150000000D02*
X88656887Y-150000000D01*
X78999998Y-48499996D02*
X54000000Y-48500000D01*
X78999998Y-48499996D02*
G75*
G02*
X88653417Y-52496580I2J-13656804D01*
G01*
X98310317Y-146003427D02*
G75*
G02*
X88656887Y-149999980I-9653417J9660327D01*
G01*
X98313612Y-56500000D02*
G75*
G02*
X88656895Y-52500026I88J13656800D01*
G01*
X98313776Y-145999962D02*
G75*
G02*
X107970501Y-141999979I9656824J-9656838D01*
G01*
X136850000Y-56500000D02*
X98313612Y-56500000D01*
X136850000Y-142000000D02*
X107970582Y-141999996D01*
X136850000Y-142000000D02*
G75*
G02*
X143671561Y-144828439I-6900J-9656900D01*
G01*
X143671575Y-53671575D02*
G75*
G02*
X136850000Y-56500019I-6828475J6828475D01*
G01*
X143671573Y-53671573D02*
G75*
G02*
X150500000Y-56500000I2828427J-2828427D01*
G01*
X150500000Y-142000000D02*
G75*
G02*
X143671573Y-144828427I-4000000J0D01*
G01*
X150500000Y-142000000D02*
X150500000Y-56500000D01*
M02*
