%TF.GenerationSoftware,KiCad,Pcbnew,10.0.0*%
%TF.CreationDate,2026-06-10T22:40:30+05:30*%
%TF.ProjectId,Custom ESC,43757374-6f6d-4204-9553-432e6b696361,rev?*%
%TF.SameCoordinates,Original*%
%TF.FileFunction,Soldermask,Bot*%
%TF.FilePolarity,Negative*%
%FSLAX46Y46*%
G04 Gerber Fmt 4.6, Leading zero omitted, Abs format (unit mm)*
G04 Created by KiCad (PCBNEW 10.0.0) date 2026-06-10 22:40:30*
%MOMM*%
%LPD*%
G01*
G04 APERTURE LIST*
G04 Aperture macros list*
%AMRoundRect*
0 Rectangle with rounded corners*
0 $1 Rounding radius*
0 $2 $3 $4 $5 $6 $7 $8 $9 X,Y pos of 4 corners*
0 Add a 4 corners polygon primitive as box body*
4,1,4,$2,$3,$4,$5,$6,$7,$8,$9,$2,$3,0*
0 Add four circle primitives for the rounded corners*
1,1,$1+$1,$2,$3*
1,1,$1+$1,$4,$5*
1,1,$1+$1,$6,$7*
1,1,$1+$1,$8,$9*
0 Add four rect primitives between the rounded corners*
20,1,$1+$1,$2,$3,$4,$5,0*
20,1,$1+$1,$4,$5,$6,$7,0*
20,1,$1+$1,$6,$7,$8,$9,0*
20,1,$1+$1,$8,$9,$2,$3,0*%
%AMOutline4P*
0 Free polygon, 4 corners , with rotation*
0 The origin of the aperture is its center*
0 number of corners: always 4*
0 $1 to $8 corner X, Y*
0 $9 Rotation angle, in degrees counterclockwise*
0 create outline with 4 corners*
4,1,4,$1,$2,$3,$4,$5,$6,$7,$8,$1,$2,$9*%
%AMFreePoly0*
4,1,23,0.500000,-0.750000,0.000000,-0.750000,0.000000,-0.745722,-0.065263,-0.745722,-0.191342,-0.711940,-0.304381,-0.646677,-0.396677,-0.554381,-0.461940,-0.441342,-0.495722,-0.315263,-0.495722,-0.250000,-0.500000,-0.250000,-0.500000,0.250000,-0.495722,0.250000,-0.495722,0.315263,-0.461940,0.441342,-0.396677,0.554381,-0.304381,0.646677,-0.191342,0.711940,-0.065263,0.745722,0.000000,0.745722,
0.000000,0.750000,0.500000,0.750000,0.500000,-0.750000,0.500000,-0.750000,$1*%
%AMFreePoly1*
4,1,23,0.000000,0.745722,0.065263,0.745722,0.191342,0.711940,0.304381,0.646677,0.396677,0.554381,0.461940,0.441342,0.495722,0.315263,0.495722,0.250000,0.500000,0.250000,0.500000,-0.250000,0.495722,-0.250000,0.495722,-0.315263,0.461940,-0.441342,0.396677,-0.554381,0.304381,-0.646677,0.191342,-0.711940,0.065263,-0.745722,0.000000,-0.745722,0.000000,-0.750000,-0.500000,-0.750000,
-0.500000,0.750000,0.000000,0.750000,0.000000,0.745722,0.000000,0.745722,$1*%
%AMFreePoly2*
4,1,23,0.550000,-0.750000,0.000000,-0.750000,0.000000,-0.745722,-0.065263,-0.745722,-0.191342,-0.711940,-0.304381,-0.646677,-0.396677,-0.554381,-0.461940,-0.441342,-0.495722,-0.315263,-0.495722,-0.250000,-0.500000,-0.250000,-0.500000,0.250000,-0.495722,0.250000,-0.495722,0.315263,-0.461940,0.441342,-0.396677,0.554381,-0.304381,0.646677,-0.191342,0.711940,-0.065263,0.745722,0.000000,0.745722,
0.000000,0.750000,0.550000,0.750000,0.550000,-0.750000,0.550000,-0.750000,$1*%
%AMFreePoly3*
4,1,23,0.000000,0.745722,0.065263,0.745722,0.191342,0.711940,0.304381,0.646677,0.396677,0.554381,0.461940,0.441342,0.495722,0.315263,0.495722,0.250000,0.500000,0.250000,0.500000,-0.250000,0.495722,-0.250000,0.495722,-0.315263,0.461940,-0.441342,0.396677,-0.554381,0.304381,-0.646677,0.191342,-0.711940,0.065263,-0.745722,0.000000,-0.745722,0.000000,-0.750000,-0.550000,-0.750000,
-0.550000,0.750000,0.000000,0.750000,0.000000,0.745722,0.000000,0.745722,$1*%
G04 Aperture macros list end*
%ADD10C,1.600000*%
%ADD11R,1.700000X1.700000*%
%ADD12C,1.700000*%
%ADD13C,0.800000*%
%ADD14C,6.400000*%
%ADD15RoundRect,0.250001X0.949999X0.949999X-0.949999X0.949999X-0.949999X-0.949999X0.949999X-0.949999X0*%
%ADD16C,2.400000*%
%ADD17RoundRect,0.250000X-0.600000X-0.750000X0.600000X-0.750000X0.600000X0.750000X-0.600000X0.750000X0*%
%ADD18O,1.700000X2.000000*%
%ADD19R,1.800000X1.800000*%
%ADD20C,1.800000*%
%ADD21RoundRect,0.250000X-0.550000X0.550000X-0.550000X-0.550000X0.550000X-0.550000X0.550000X0.550000X0*%
%ADD22RoundRect,0.250000X-0.725000X0.600000X-0.725000X-0.600000X0.725000X-0.600000X0.725000X0.600000X0*%
%ADD23O,1.950000X1.700000*%
%ADD24RoundRect,0.237500X-0.237500X0.250000X-0.237500X-0.250000X0.237500X-0.250000X0.237500X0.250000X0*%
%ADD25C,1.500000*%
%ADD26RoundRect,0.250000X-0.400000X-0.625000X0.400000X-0.625000X0.400000X0.625000X-0.400000X0.625000X0*%
%ADD27RoundRect,0.250000X0.400000X0.625000X-0.400000X0.625000X-0.400000X-0.625000X0.400000X-0.625000X0*%
%ADD28RoundRect,0.237500X0.250000X0.237500X-0.250000X0.237500X-0.250000X-0.237500X0.250000X-0.237500X0*%
%ADD29FreePoly0,0.000000*%
%ADD30FreePoly1,0.000000*%
%ADD31Outline4P,-2.150000X-1.800000X2.150000X-0.800000X2.150000X0.800000X-2.150000X1.800000X0.000000*%
%ADD32Outline4P,-2.150000X-1.800000X2.150000X-0.800000X2.150000X0.800000X-2.150000X1.800000X180.000000*%
%ADD33FreePoly0,180.000000*%
%ADD34FreePoly1,180.000000*%
%ADD35RoundRect,0.237500X-0.250000X-0.237500X0.250000X-0.237500X0.250000X0.237500X-0.250000X0.237500X0*%
%ADD36RoundRect,0.250001X-0.949999X0.949999X-0.949999X-0.949999X0.949999X-0.949999X0.949999X0.949999X0*%
%ADD37RoundRect,0.237500X0.237500X-0.250000X0.237500X0.250000X-0.237500X0.250000X-0.237500X-0.250000X0*%
%ADD38Outline4P,-1.800000X-1.150000X1.800000X-0.550000X1.800000X0.550000X-1.800000X1.150000X270.000000*%
%ADD39Outline4P,-1.800000X-1.150000X1.800000X-0.550000X1.800000X0.550000X-1.800000X1.150000X90.000000*%
%ADD40FreePoly2,90.000000*%
%ADD41R,1.500000X1.000000*%
%ADD42FreePoly3,90.000000*%
%ADD43RoundRect,0.250000X0.625000X-0.400000X0.625000X0.400000X-0.625000X0.400000X-0.625000X-0.400000X0*%
%ADD44FreePoly2,0.000000*%
%ADD45R,1.000000X1.500000*%
%ADD46FreePoly3,0.000000*%
G04 APERTURE END LIST*
%TO.C,JP9*%
G36*
X77089740Y-137283849D02*
G01*
X77389740Y-137283849D01*
X77389740Y-138783849D01*
X77089740Y-138783849D01*
X77089740Y-137283849D01*
G37*
%TO.C,JP26*%
G36*
X67415190Y-111873560D02*
G01*
X67715190Y-111873560D01*
X67715190Y-113373560D01*
X67415190Y-113373560D01*
X67415190Y-111873560D01*
G37*
%TO.C,JP7*%
G36*
X67389518Y-142358773D02*
G01*
X67689518Y-142358773D01*
X67689518Y-143858773D01*
X67389518Y-143858773D01*
X67389518Y-142358773D01*
G37*
%TO.C,JP6*%
G36*
X77089740Y-142351447D02*
G01*
X77389740Y-142351447D01*
X77389740Y-143851447D01*
X77089740Y-143851447D01*
X77089740Y-142351447D01*
G37*
%TO.C,JP18*%
G36*
X77109739Y-119486447D02*
G01*
X77409739Y-119486447D01*
X77409739Y-120986447D01*
X77109739Y-120986447D01*
X77109739Y-119486447D01*
G37*
%TO.C,JP17*%
G36*
X67401502Y-122042288D02*
G01*
X67701502Y-122042288D01*
X67701502Y-123542288D01*
X67401502Y-123542288D01*
X67401502Y-122042288D01*
G37*
%TO.C,JP11*%
G36*
X77097582Y-134746236D02*
G01*
X77397582Y-134746236D01*
X77397582Y-136246236D01*
X77097582Y-136246236D01*
X77097582Y-134746236D01*
G37*
%TO.C,JP2*%
G36*
X116152350Y-101626219D02*
G01*
X116452350Y-101626219D01*
X116452350Y-103126219D01*
X116152350Y-103126219D01*
X116152350Y-101626219D01*
G37*
%TO.C,JP5*%
G36*
X67389740Y-144876447D02*
G01*
X67689740Y-144876447D01*
X67689740Y-146376447D01*
X67389740Y-146376447D01*
X67389740Y-144876447D01*
G37*
%TO.C,JP25*%
G36*
X77119740Y-111875883D02*
G01*
X77419740Y-111875883D01*
X77419740Y-113375883D01*
X77119740Y-113375883D01*
X77119740Y-111875883D01*
G37*
%TO.C,JP13*%
G36*
X67399740Y-129656447D02*
G01*
X67699740Y-129656447D01*
X67699740Y-131156447D01*
X67399740Y-131156447D01*
X67399740Y-129656447D01*
G37*
%TO.C,JP20*%
G36*
X77115951Y-116948188D02*
G01*
X77415951Y-116948188D01*
X77415951Y-118448188D01*
X77115951Y-118448188D01*
X77115951Y-116948188D01*
G37*
%TO.C,JP16*%
G36*
X77105273Y-122036447D02*
G01*
X77405273Y-122036447D01*
X77405273Y-123536447D01*
X77105273Y-123536447D01*
X77105273Y-122036447D01*
G37*
%TO.C,JP30*%
G36*
X67409740Y-104256447D02*
G01*
X67709740Y-104256447D01*
X67709740Y-105756447D01*
X67409740Y-105756447D01*
X67409740Y-104256447D01*
G37*
%TO.C,JP4*%
G36*
X77089740Y-144876447D02*
G01*
X77389740Y-144876447D01*
X77389740Y-146376447D01*
X77089740Y-146376447D01*
X77089740Y-144876447D01*
G37*
%TO.C,JP33*%
G36*
X67409740Y-99176447D02*
G01*
X67709740Y-99176447D01*
X67709740Y-100676447D01*
X67409740Y-100676447D01*
X67409740Y-99176447D01*
G37*
%TO.C,JP21*%
G36*
X67402519Y-116956447D02*
G01*
X67702519Y-116956447D01*
X67702519Y-118456447D01*
X67402519Y-118456447D01*
X67402519Y-116956447D01*
G37*
%TO.C,JP1*%
G36*
X116160000Y-76029232D02*
G01*
X116460000Y-76029232D01*
X116460000Y-77529232D01*
X116160000Y-77529232D01*
X116160000Y-76029232D01*
G37*
%TO.C,JP31*%
G36*
X67409740Y-101714023D02*
G01*
X67709740Y-101714023D01*
X67709740Y-103214023D01*
X67409740Y-103214023D01*
X67409740Y-101714023D01*
G37*
%TO.C,JP29*%
G36*
X77129740Y-104256447D02*
G01*
X77429740Y-104256447D01*
X77429740Y-105756447D01*
X77129740Y-105756447D01*
X77129740Y-104256447D01*
G37*
%TO.C,JP3*%
G36*
X116165000Y-127220274D02*
G01*
X116465000Y-127220274D01*
X116465000Y-128720274D01*
X116165000Y-128720274D01*
X116165000Y-127220274D01*
G37*
%TO.C,JP15*%
G36*
X67408163Y-124578888D02*
G01*
X67708163Y-124578888D01*
X67708163Y-126078888D01*
X67408163Y-126078888D01*
X67408163Y-124578888D01*
G37*
%TO.C,JP34*%
G36*
X55099264Y-112676170D02*
G01*
X56599264Y-112676170D01*
X56599264Y-114176170D01*
X55099264Y-114176170D01*
X55099264Y-112676170D01*
G37*
%TO.C,JP10*%
G36*
X67390042Y-137269718D02*
G01*
X67690042Y-137269718D01*
X67690042Y-138769718D01*
X67390042Y-138769718D01*
X67390042Y-137269718D01*
G37*
%TO.C,JP8*%
G36*
X77089702Y-139811433D02*
G01*
X77389702Y-139811433D01*
X77389702Y-141311433D01*
X77089702Y-141311433D01*
X77089702Y-139811433D01*
G37*
%TO.C,JP24*%
G36*
X86366650Y-136436170D02*
G01*
X87866650Y-136436170D01*
X87866650Y-137936170D01*
X86366650Y-137936170D01*
X86366650Y-136436170D01*
G37*
%TO.C,JP22*%
G36*
X77119740Y-114416447D02*
G01*
X77419740Y-114416447D01*
X77419740Y-115916447D01*
X77119740Y-115916447D01*
X77119740Y-114416447D01*
G37*
%TO.C,JP23*%
G36*
X67408375Y-114412317D02*
G01*
X67708375Y-114412317D01*
X67708375Y-115912317D01*
X67408375Y-115912317D01*
X67408375Y-114412317D01*
G37*
%TO.C,JP28*%
G36*
X77119740Y-106794156D02*
G01*
X77419740Y-106794156D01*
X77419740Y-108294156D01*
X77119740Y-108294156D01*
X77119740Y-106794156D01*
G37*
%TO.C,JP27*%
G36*
X77119740Y-109336601D02*
G01*
X77419740Y-109336601D01*
X77419740Y-110836601D01*
X77119740Y-110836601D01*
X77119740Y-109336601D01*
G37*
%TO.C,JP32*%
G36*
X77119740Y-99176447D02*
G01*
X77419740Y-99176447D01*
X77419740Y-100676447D01*
X77119740Y-100676447D01*
X77119740Y-99176447D01*
G37*
%TO.C,JP12*%
G36*
X67391348Y-132201533D02*
G01*
X67691348Y-132201533D01*
X67691348Y-133701533D01*
X67391348Y-133701533D01*
X67391348Y-132201533D01*
G37*
%TO.C,JP19*%
G36*
X67398792Y-119492431D02*
G01*
X67698792Y-119492431D01*
X67698792Y-120992431D01*
X67398792Y-120992431D01*
X67398792Y-119492431D01*
G37*
%TO.C,JP14*%
G36*
X67409740Y-127116447D02*
G01*
X67709740Y-127116447D01*
X67709740Y-128616447D01*
X67409740Y-128616447D01*
X67409740Y-127116447D01*
G37*
%TD*%
D10*
%TO.C,R16*%
X105433682Y-70891799D03*
X115593682Y-70891799D03*
%TD*%
D11*
%TO.C,MCU1*%
X79989740Y-145646447D03*
D12*
X79989740Y-143106447D03*
X79989740Y-140566447D03*
X79989740Y-138026447D03*
X79989740Y-135486447D03*
X79989740Y-132946447D03*
X79989740Y-130406447D03*
X79989740Y-127866447D03*
X79989740Y-125326447D03*
X79989740Y-122786447D03*
X79989740Y-120246447D03*
X79989740Y-117706447D03*
X79989740Y-115166447D03*
X79989740Y-112626447D03*
X79989740Y-110086447D03*
X79989740Y-107546447D03*
X79989740Y-105006447D03*
X79989740Y-102466447D03*
X79989740Y-99926447D03*
X79989740Y-97386447D03*
X64775140Y-97386447D03*
X64775140Y-99926447D03*
X64775140Y-102466447D03*
X64775140Y-105006447D03*
X64775140Y-107546447D03*
X64775140Y-110086447D03*
X64775140Y-112626447D03*
X64775140Y-115166447D03*
X64775140Y-117706447D03*
X64775140Y-120246447D03*
X64775140Y-122786447D03*
X64775140Y-125326447D03*
X64775140Y-127866447D03*
X64775140Y-130406447D03*
X64775140Y-132946447D03*
X64775140Y-135486447D03*
X64775140Y-138026447D03*
X64775140Y-140566447D03*
X64775140Y-143106447D03*
D11*
X64775140Y-145646447D03*
%TD*%
D13*
%TO.C,REF\u002A\u002A*%
X94650000Y-142000000D03*
X95352944Y-140302944D03*
X95352944Y-143697056D03*
X97050000Y-139600000D03*
D14*
X97050000Y-142000000D03*
D13*
X97050000Y-144400000D03*
X98747056Y-140302944D03*
X98747056Y-143697056D03*
X99450000Y-142000000D03*
%TD*%
D15*
%TO.C,C2*%
X94330000Y-79320000D03*
D16*
X86830000Y-79320000D03*
%TD*%
D15*
%TO.C,C3*%
X93980835Y-103220000D03*
D16*
X88980835Y-103220000D03*
%TD*%
D10*
%TO.C,R44*%
X105438682Y-122082841D03*
X115598682Y-122082841D03*
%TD*%
D13*
%TO.C,REF\u002A\u002A*%
X144100000Y-56500000D03*
X144802944Y-54802944D03*
X144802944Y-58197056D03*
X146500000Y-54100000D03*
D14*
X146500000Y-56500000D03*
D13*
X146500000Y-58900000D03*
X148197056Y-54802944D03*
X148197056Y-58197056D03*
X148900000Y-56500000D03*
%TD*%
D17*
%TO.C,J2*%
X55573553Y-124326170D03*
D18*
X58073553Y-124326170D03*
%TD*%
D19*
%TO.C,D18*%
X87116650Y-139608808D03*
D20*
X87116650Y-141767808D03*
X87116650Y-143926808D03*
X87116650Y-146085808D03*
%TD*%
D10*
%TO.C,R30*%
X105426032Y-96488786D03*
X115586032Y-96488786D03*
%TD*%
D17*
%TO.C,J4*%
X55573553Y-131326170D03*
D18*
X58073553Y-131326170D03*
%TD*%
D11*
%TO.C,J1*%
X59718553Y-93461170D03*
D12*
X59718553Y-96001170D03*
X59718553Y-98541170D03*
X59718553Y-101081170D03*
%TD*%
D21*
%TO.C,SW1*%
X58131053Y-138041170D03*
D10*
X55591053Y-138041170D03*
X55591053Y-145661170D03*
X58131053Y-145661170D03*
%TD*%
D11*
%TO.C,J5*%
X55923553Y-93446170D03*
D12*
X55923553Y-95986170D03*
X55923553Y-98526170D03*
X55923553Y-101066170D03*
%TD*%
D13*
%TO.C,REF\u002A\u002A*%
X144100000Y-142000000D03*
X144802944Y-140302944D03*
X144802944Y-143697056D03*
X146500000Y-139600000D03*
D14*
X146500000Y-142000000D03*
D13*
X146500000Y-144400000D03*
X148197056Y-140302944D03*
X148197056Y-143697056D03*
X148900000Y-142000000D03*
%TD*%
D22*
%TO.C,J3*%
X58099264Y-105926170D03*
D23*
X58099264Y-108426170D03*
X58099264Y-110926170D03*
X58099264Y-113426170D03*
X58099264Y-115926170D03*
%TD*%
D24*
%TO.C,TH5*%
X143340000Y-131832774D03*
X143340000Y-133657774D03*
%TD*%
D25*
%TO.C,TP2*%
X77253553Y-132946447D03*
%TD*%
D24*
%TO.C,R24*%
X113925000Y-74491732D03*
X113925000Y-76316732D03*
%TD*%
D25*
%TO.C,TP5*%
X77253553Y-125326447D03*
%TD*%
%TO.C,X1*%
X89899150Y-134216170D03*
%TD*%
D26*
%TO.C,R45*%
X145955000Y-132620274D03*
X149055000Y-132620274D03*
%TD*%
%TO.C,R1*%
X74312500Y-87385000D03*
X77412500Y-87385000D03*
%TD*%
%TO.C,R2*%
X74312500Y-89915000D03*
X77412500Y-89915000D03*
%TD*%
D27*
%TO.C,R43*%
X115955000Y-130895274D03*
X112855000Y-130895274D03*
%TD*%
D28*
%TO.C,TH4*%
X129999850Y-102474155D03*
X128174850Y-102474155D03*
%TD*%
D25*
%TO.C,TP7*%
X67561623Y-107556164D03*
%TD*%
D29*
%TO.C,JP9*%
X76589740Y-138033849D03*
D30*
X77889740Y-138033849D03*
%TD*%
D31*
%TO.C,D7*%
X137042350Y-92526219D03*
D32*
X143442350Y-92526219D03*
%TD*%
D33*
%TO.C,JP26*%
X68215190Y-112623560D03*
D34*
X66915190Y-112623560D03*
%TD*%
D33*
%TO.C,JP7*%
X68189518Y-143108773D03*
D34*
X66889518Y-143108773D03*
%TD*%
D28*
%TO.C,TH2*%
X130007500Y-76877168D03*
X128182500Y-76877168D03*
%TD*%
D29*
%TO.C,JP6*%
X76589740Y-143101447D03*
D30*
X77889740Y-143101447D03*
%TD*%
D27*
%TO.C,R15*%
X115950000Y-79704232D03*
X112850000Y-79704232D03*
%TD*%
D29*
%TO.C,JP18*%
X76609739Y-120236447D03*
D30*
X77909739Y-120236447D03*
%TD*%
D24*
%TO.C,R18*%
X105500000Y-74029232D03*
X105500000Y-75854232D03*
%TD*%
D35*
%TO.C,R39*%
X146579850Y-109201219D03*
X148404850Y-109201219D03*
%TD*%
D33*
%TO.C,JP17*%
X68201502Y-122792288D03*
D34*
X66901502Y-122792288D03*
%TD*%
D25*
%TO.C,TP8*%
X67563553Y-97386170D03*
%TD*%
D36*
%TO.C,C7*%
X127059352Y-66174486D03*
D16*
X127059352Y-71174486D03*
%TD*%
D26*
%TO.C,R31*%
X145942350Y-107026219D03*
X149042350Y-107026219D03*
%TD*%
D24*
%TO.C,R52*%
X113930000Y-125682774D03*
X113930000Y-127507774D03*
%TD*%
D29*
%TO.C,JP11*%
X76597582Y-135496236D03*
D30*
X77897582Y-135496236D03*
%TD*%
D33*
%TO.C,JP2*%
X116952350Y-102376219D03*
D34*
X115652350Y-102376219D03*
%TD*%
D33*
%TO.C,JP5*%
X68189740Y-145626447D03*
D34*
X66889740Y-145626447D03*
%TD*%
D29*
%TO.C,JP25*%
X76619740Y-112625883D03*
D30*
X77919740Y-112625883D03*
%TD*%
D33*
%TO.C,JP13*%
X68199740Y-130406447D03*
D34*
X66899740Y-130406447D03*
%TD*%
D29*
%TO.C,JP20*%
X76615951Y-117698188D03*
D30*
X77915951Y-117698188D03*
%TD*%
D27*
%TO.C,R41*%
X141555000Y-112895274D03*
X138455000Y-112895274D03*
%TD*%
D29*
%TO.C,JP16*%
X76605273Y-122786447D03*
D30*
X77905273Y-122786447D03*
%TD*%
D37*
%TO.C,R56*%
X69518553Y-73053764D03*
X69518553Y-71228764D03*
%TD*%
D28*
%TO.C,R10*%
X82350000Y-87385000D03*
X80525000Y-87385000D03*
%TD*%
%TO.C,R11*%
X82350000Y-89915000D03*
X80525000Y-89915000D03*
%TD*%
D25*
%TO.C,TP3*%
X77253553Y-130406447D03*
%TD*%
D27*
%TO.C,R27*%
X141542350Y-87301219D03*
X138442350Y-87301219D03*
%TD*%
D36*
%TO.C,C15*%
X127064352Y-117365528D03*
D16*
X127064352Y-122365528D03*
%TD*%
D36*
%TO.C,C11*%
X127051702Y-91771473D03*
D16*
X127051702Y-96771473D03*
%TD*%
D28*
%TO.C,R61*%
X85528429Y-139610954D03*
X83703429Y-139610954D03*
%TD*%
D35*
%TO.C,R53*%
X146592500Y-134795274D03*
X148417500Y-134795274D03*
%TD*%
D33*
%TO.C,JP30*%
X68209740Y-105006447D03*
D34*
X66909740Y-105006447D03*
%TD*%
D29*
%TO.C,JP4*%
X76589740Y-145626447D03*
D30*
X77889740Y-145626447D03*
%TD*%
D25*
%TO.C,Y1*%
X84189150Y-132906170D03*
%TD*%
D33*
%TO.C,JP33*%
X68209740Y-99926447D03*
D34*
X66909740Y-99926447D03*
%TD*%
D33*
%TO.C,JP21*%
X68202519Y-117706447D03*
D34*
X66902519Y-117706447D03*
%TD*%
D33*
%TO.C,JP1*%
X116960000Y-76779232D03*
D34*
X115660000Y-76779232D03*
%TD*%
D33*
%TO.C,JP31*%
X68209740Y-102464023D03*
D34*
X66909740Y-102464023D03*
%TD*%
D27*
%TO.C,R13*%
X141550000Y-61704232D03*
X138450000Y-61704232D03*
%TD*%
D24*
%TO.C,R38*%
X113917350Y-100088719D03*
X113917350Y-101913719D03*
%TD*%
D27*
%TO.C,R14*%
X115950000Y-82154232D03*
X112850000Y-82154232D03*
%TD*%
D29*
%TO.C,JP29*%
X76629740Y-105006447D03*
D30*
X77929740Y-105006447D03*
%TD*%
D24*
%TO.C,TH3*%
X143327350Y-106238719D03*
X143327350Y-108063719D03*
%TD*%
D33*
%TO.C,JP3*%
X116965000Y-127970274D03*
D34*
X115665000Y-127970274D03*
%TD*%
D33*
%TO.C,JP15*%
X68208163Y-125328888D03*
D34*
X66908163Y-125328888D03*
%TD*%
D28*
%TO.C,R63*%
X85529508Y-146094857D03*
X83704508Y-146094857D03*
%TD*%
D24*
%TO.C,R32*%
X105492350Y-99626219D03*
X105492350Y-101451219D03*
%TD*%
D38*
%TO.C,D1*%
X109150000Y-74679232D03*
D39*
X109150000Y-80479232D03*
%TD*%
D25*
%TO.C,TP1*%
X67533553Y-135496170D03*
%TD*%
D35*
%TO.C,R25*%
X146587500Y-83604232D03*
X148412500Y-83604232D03*
%TD*%
D27*
%TO.C,R28*%
X115942350Y-107751219D03*
X112842350Y-107751219D03*
%TD*%
%TO.C,R42*%
X115955000Y-133345274D03*
X112855000Y-133345274D03*
%TD*%
D38*
%TO.C,D9*%
X109155000Y-125870274D03*
D39*
X109155000Y-131670274D03*
%TD*%
D40*
%TO.C,JP34*%
X55849264Y-114726170D03*
D41*
X55849264Y-113426170D03*
D42*
X55849264Y-112126170D03*
%TD*%
D33*
%TO.C,JP10*%
X68190042Y-138019718D03*
D34*
X66890042Y-138019718D03*
%TD*%
D43*
%TO.C,R55*%
X69518553Y-68728764D03*
X69518553Y-65628764D03*
%TD*%
D29*
%TO.C,JP8*%
X76589702Y-140561433D03*
D30*
X77889702Y-140561433D03*
%TD*%
D38*
%TO.C,D5*%
X109142350Y-100276219D03*
D39*
X109142350Y-106076219D03*
%TD*%
D28*
%TO.C,R62*%
X85528744Y-143931581D03*
X83703744Y-143931581D03*
%TD*%
D25*
%TO.C,TP4*%
X77253553Y-127866447D03*
%TD*%
D28*
%TO.C,R59*%
X59299025Y-80500264D03*
X57474025Y-80500264D03*
%TD*%
%TO.C,R12*%
X82300000Y-92435000D03*
X80475000Y-92435000D03*
%TD*%
D44*
%TO.C,JP24*%
X85816650Y-137186170D03*
D45*
X87116650Y-137186170D03*
D46*
X88416650Y-137186170D03*
%TD*%
D28*
%TO.C,R58*%
X57166053Y-65400000D03*
X55341053Y-65400000D03*
%TD*%
D29*
%TO.C,JP22*%
X76619740Y-115166447D03*
D30*
X77919740Y-115166447D03*
%TD*%
D37*
%TO.C,R57*%
X65492801Y-56352299D03*
X65492801Y-54527299D03*
%TD*%
D31*
%TO.C,D11*%
X137055000Y-118120274D03*
D32*
X143455000Y-118120274D03*
%TD*%
D27*
%TO.C,R29*%
X115942350Y-105301219D03*
X112842350Y-105301219D03*
%TD*%
D33*
%TO.C,JP23*%
X68208375Y-115162317D03*
D34*
X66908375Y-115162317D03*
%TD*%
D24*
%TO.C,R46*%
X105505000Y-125220274D03*
X105505000Y-127045274D03*
%TD*%
D29*
%TO.C,JP28*%
X76619740Y-107544156D03*
D30*
X77919740Y-107544156D03*
%TD*%
D29*
%TO.C,JP27*%
X76619740Y-110086601D03*
D30*
X77919740Y-110086601D03*
%TD*%
D26*
%TO.C,R17*%
X145950000Y-81429232D03*
X149050000Y-81429232D03*
%TD*%
D29*
%TO.C,JP32*%
X76619740Y-99926447D03*
D30*
X77919740Y-99926447D03*
%TD*%
D24*
%TO.C,TH1*%
X143335000Y-80641732D03*
X143335000Y-82466732D03*
%TD*%
D31*
%TO.C,D3*%
X137050000Y-66929232D03*
D32*
X143450000Y-66929232D03*
%TD*%
D25*
%TO.C,TP6*%
X67562749Y-110082117D03*
%TD*%
D33*
%TO.C,JP12*%
X68191348Y-132951533D03*
D34*
X66891348Y-132951533D03*
%TD*%
D28*
%TO.C,TH6*%
X130012500Y-128068210D03*
X128187500Y-128068210D03*
%TD*%
D33*
%TO.C,JP19*%
X68198792Y-120242431D03*
D34*
X66898792Y-120242431D03*
%TD*%
D33*
%TO.C,JP14*%
X68209740Y-127866447D03*
D34*
X66909740Y-127866447D03*
%TD*%
D26*
%TO.C,R3*%
X74312500Y-92435000D03*
X77412500Y-92435000D03*
%TD*%
G36*
X101428150Y-60104161D02*
G01*
X101449995Y-60109968D01*
X101505309Y-60141617D01*
X101509463Y-60145723D01*
X101541747Y-60200645D01*
X101547812Y-60222423D01*
X101552349Y-60254230D01*
X101553783Y-60376059D01*
X101681344Y-60376152D01*
X101748369Y-60395885D01*
X101794086Y-60448722D01*
X101805245Y-60498692D01*
X101895653Y-68176245D01*
X101876760Y-68243512D01*
X101824498Y-68289885D01*
X101771380Y-68301705D01*
X101647110Y-68301422D01*
X101647109Y-68301422D01*
X101855983Y-86039405D01*
X101983543Y-86039498D01*
X102050568Y-86059231D01*
X102096285Y-86112069D01*
X102107444Y-86162038D01*
X102197858Y-93840065D01*
X102178965Y-93907332D01*
X102126703Y-93953705D01*
X102073585Y-93965525D01*
X101949314Y-93965242D01*
X101949313Y-93965242D01*
X102156786Y-111584279D01*
X102284348Y-111584372D01*
X102351373Y-111604105D01*
X102397090Y-111656943D01*
X102408249Y-111706912D01*
X102498668Y-119385386D01*
X102479775Y-119452653D01*
X102427513Y-119499026D01*
X102374394Y-119510846D01*
X94111226Y-119491970D01*
X94103128Y-119491686D01*
X93789498Y-119470440D01*
X93773445Y-119468293D01*
X93469214Y-119407145D01*
X93453578Y-119402923D01*
X93159917Y-119302647D01*
X93144963Y-119296423D01*
X92866881Y-119158728D01*
X92852867Y-119150609D01*
X92595096Y-118977839D01*
X92582260Y-118967962D01*
X92349212Y-118763074D01*
X92337772Y-118751608D01*
X92133412Y-118518087D01*
X92123565Y-118505228D01*
X91951392Y-118247075D01*
X91943304Y-118233043D01*
X91806239Y-117954635D01*
X91800050Y-117939668D01*
X91700445Y-117645781D01*
X91696259Y-117630134D01*
X91635809Y-117325772D01*
X91633698Y-117309714D01*
X91613167Y-116996016D01*
X91612902Y-116987918D01*
X91612902Y-111644587D01*
X91629605Y-111587701D01*
X91611051Y-93920007D01*
X91603531Y-93906213D01*
X91600715Y-93879937D01*
X91600715Y-86085278D01*
X91602817Y-86078118D01*
X91602754Y-86019933D01*
X91602754Y-86019928D01*
X91585048Y-69159315D01*
X91578166Y-62606691D01*
X91578423Y-62598575D01*
X91598712Y-62284187D01*
X91600815Y-62268094D01*
X91661202Y-61963041D01*
X91665390Y-61947359D01*
X91765100Y-61652818D01*
X91771299Y-61637818D01*
X91908629Y-61358818D01*
X91916735Y-61344756D01*
X92089335Y-61086074D01*
X92099207Y-61073191D01*
X92304102Y-60839285D01*
X92315573Y-60827802D01*
X92549280Y-60622647D01*
X92562153Y-60612761D01*
X92820642Y-60439897D01*
X92834695Y-60431777D01*
X93113547Y-60294156D01*
X93128541Y-60287940D01*
X93422993Y-60187915D01*
X93438670Y-60183712D01*
X93743650Y-60123006D01*
X93759741Y-60120886D01*
X94074104Y-60100267D01*
X94082220Y-60100001D01*
X94521267Y-60100001D01*
X101396294Y-60099999D01*
X101428150Y-60104161D01*
G37*
G36*
X144255395Y-78554704D02*
G01*
X144456249Y-78572276D01*
X144477535Y-78576029D01*
X144667047Y-78626808D01*
X144687359Y-78634201D01*
X144865169Y-78717115D01*
X144883887Y-78727922D01*
X145044598Y-78840453D01*
X145061156Y-78854347D01*
X145199884Y-78993075D01*
X145213778Y-79009633D01*
X145326309Y-79170344D01*
X145337116Y-79189062D01*
X145420030Y-79366872D01*
X145427423Y-79387184D01*
X145478202Y-79576696D01*
X145481955Y-79597981D01*
X145499528Y-79798835D01*
X145500000Y-79809643D01*
X145500000Y-83757895D01*
X145499532Y-83768653D01*
X145482120Y-83968597D01*
X145478402Y-83989787D01*
X145428086Y-84178485D01*
X145420760Y-84198715D01*
X145338588Y-84375866D01*
X145327876Y-84394524D01*
X145216314Y-84554814D01*
X145202537Y-84571340D01*
X145064955Y-84709926D01*
X145048531Y-84723822D01*
X144889056Y-84836548D01*
X144870475Y-84847395D01*
X144693926Y-84930853D01*
X144673751Y-84938326D01*
X144485427Y-84990012D01*
X144464263Y-84993885D01*
X144264461Y-85012749D01*
X144253708Y-85013295D01*
X138629514Y-85054199D01*
X138629296Y-85054200D01*
X138625307Y-85054222D01*
X138624849Y-85054224D01*
X138620463Y-85054232D01*
X120820412Y-85054232D01*
X120809604Y-85053760D01*
X120608749Y-85036187D01*
X120587464Y-85032434D01*
X120397952Y-84981655D01*
X120377640Y-84974262D01*
X120199830Y-84891348D01*
X120181112Y-84880541D01*
X120020401Y-84768010D01*
X120003843Y-84754116D01*
X119865115Y-84615388D01*
X119851221Y-84598830D01*
X119738690Y-84438119D01*
X119727883Y-84419401D01*
X119644969Y-84241591D01*
X119637576Y-84221279D01*
X119586797Y-84031767D01*
X119583044Y-84010481D01*
X119565472Y-83809627D01*
X119565000Y-83798820D01*
X119565000Y-79809643D01*
X119565472Y-79798836D01*
X119583044Y-79597982D01*
X119586797Y-79576696D01*
X119637576Y-79387184D01*
X119644969Y-79366872D01*
X119727883Y-79189062D01*
X119738690Y-79170344D01*
X119851221Y-79009633D01*
X119865115Y-78993075D01*
X120003843Y-78854347D01*
X120020401Y-78840453D01*
X120181112Y-78727922D01*
X120199830Y-78717115D01*
X120377640Y-78634201D01*
X120397952Y-78626808D01*
X120587464Y-78576029D01*
X120608750Y-78572276D01*
X120809605Y-78554704D01*
X120820412Y-78554232D01*
X144244588Y-78554232D01*
X144255395Y-78554704D01*
G37*
G36*
X144247745Y-104151691D02*
G01*
X144448599Y-104169263D01*
X144469885Y-104173016D01*
X144659397Y-104223795D01*
X144679709Y-104231188D01*
X144857519Y-104314102D01*
X144876237Y-104324909D01*
X145036948Y-104437440D01*
X145053506Y-104451334D01*
X145192234Y-104590062D01*
X145206128Y-104606620D01*
X145318659Y-104767331D01*
X145329466Y-104786049D01*
X145412380Y-104963859D01*
X145419773Y-104984171D01*
X145470552Y-105173683D01*
X145474305Y-105194968D01*
X145491878Y-105395822D01*
X145492350Y-105406630D01*
X145492350Y-109348223D01*
X145491879Y-109359017D01*
X145474349Y-109559627D01*
X145470605Y-109580888D01*
X145419949Y-109770182D01*
X145412574Y-109790471D01*
X145329857Y-109968107D01*
X145319075Y-109986810D01*
X145206804Y-110147406D01*
X145192942Y-110163956D01*
X145054512Y-110302653D01*
X145037989Y-110316547D01*
X144877608Y-110429129D01*
X144858926Y-110439947D01*
X144681449Y-110523007D01*
X144661174Y-110530421D01*
X144471979Y-110581441D01*
X144450725Y-110585226D01*
X144250151Y-110603142D01*
X144239358Y-110603634D01*
X120815181Y-110648793D01*
X120804360Y-110648341D01*
X120603219Y-110631113D01*
X120581900Y-110627391D01*
X120392084Y-110576856D01*
X120371737Y-110569485D01*
X120193591Y-110486717D01*
X120174835Y-110475920D01*
X120013800Y-110363443D01*
X119997208Y-110349551D01*
X119858172Y-110210784D01*
X119844246Y-110194218D01*
X119731454Y-110033391D01*
X119720622Y-110014656D01*
X119637514Y-109836679D01*
X119630104Y-109816346D01*
X119579201Y-109626619D01*
X119575438Y-109605307D01*
X119557823Y-109404205D01*
X119557350Y-109393385D01*
X119557350Y-105406630D01*
X119557822Y-105395823D01*
X119575394Y-105194969D01*
X119579147Y-105173683D01*
X119629926Y-104984171D01*
X119637319Y-104963859D01*
X119720233Y-104786049D01*
X119731040Y-104767331D01*
X119843571Y-104606620D01*
X119857465Y-104590062D01*
X119996193Y-104451334D01*
X120012751Y-104437440D01*
X120173462Y-104324909D01*
X120192180Y-104314102D01*
X120369990Y-104231188D01*
X120390302Y-104223795D01*
X120579814Y-104173016D01*
X120601100Y-104169263D01*
X120801955Y-104151691D01*
X120812762Y-104151219D01*
X144236938Y-104151219D01*
X144247745Y-104151691D01*
G37*
G36*
X144260395Y-129745746D02*
G01*
X144461249Y-129763318D01*
X144482535Y-129767071D01*
X144672047Y-129817850D01*
X144692359Y-129825243D01*
X144870169Y-129908157D01*
X144888887Y-129918964D01*
X145049598Y-130031495D01*
X145066156Y-130045389D01*
X145204884Y-130184117D01*
X145218778Y-130200675D01*
X145331309Y-130361386D01*
X145342116Y-130380104D01*
X145425030Y-130557914D01*
X145432423Y-130578226D01*
X145483202Y-130767738D01*
X145486955Y-130789023D01*
X145504528Y-130989877D01*
X145505000Y-131000685D01*
X145505000Y-134942278D01*
X145504529Y-134953072D01*
X145486999Y-135153682D01*
X145483255Y-135174943D01*
X145432599Y-135364237D01*
X145425224Y-135384526D01*
X145342507Y-135562162D01*
X145331725Y-135580865D01*
X145219454Y-135741461D01*
X145205592Y-135758011D01*
X145067162Y-135896708D01*
X145050639Y-135910602D01*
X144890258Y-136023184D01*
X144871576Y-136034002D01*
X144694099Y-136117062D01*
X144673824Y-136124476D01*
X144484629Y-136175496D01*
X144463375Y-136179281D01*
X144262801Y-136197197D01*
X144252008Y-136197689D01*
X120827831Y-136242848D01*
X120817010Y-136242396D01*
X120615869Y-136225168D01*
X120594550Y-136221446D01*
X120404734Y-136170911D01*
X120384387Y-136163540D01*
X120206241Y-136080772D01*
X120187485Y-136069975D01*
X120026450Y-135957498D01*
X120009858Y-135943606D01*
X119870822Y-135804839D01*
X119856896Y-135788273D01*
X119744104Y-135627446D01*
X119733272Y-135608711D01*
X119650164Y-135430734D01*
X119642754Y-135410401D01*
X119591851Y-135220674D01*
X119588088Y-135199362D01*
X119570473Y-134998260D01*
X119570000Y-134987440D01*
X119570000Y-131000685D01*
X119570472Y-130989878D01*
X119588044Y-130789024D01*
X119591797Y-130767738D01*
X119642576Y-130578226D01*
X119649969Y-130557914D01*
X119732883Y-130380104D01*
X119743690Y-130361386D01*
X119856221Y-130200675D01*
X119870115Y-130184117D01*
X120008843Y-130045389D01*
X120025401Y-130031495D01*
X120186112Y-129918964D01*
X120204830Y-129908157D01*
X120382640Y-129825243D01*
X120402952Y-129817850D01*
X120592464Y-129767071D01*
X120613750Y-129763318D01*
X120814605Y-129745746D01*
X120825412Y-129745274D01*
X144249588Y-129745274D01*
X144260395Y-129745746D01*
G37*
G36*
X101426855Y-60125965D02*
G01*
X101493880Y-60145699D01*
X101539596Y-60198536D01*
X101546221Y-60216708D01*
X101547814Y-60222430D01*
X101552348Y-60254226D01*
X101553783Y-60376059D01*
X101553783Y-60376060D01*
X125763889Y-60393858D01*
X125771999Y-60394129D01*
X126086146Y-60414951D01*
X126102225Y-60417080D01*
X126406971Y-60477930D01*
X126422636Y-60482140D01*
X126716830Y-60582248D01*
X126731810Y-60588466D01*
X127010419Y-60726115D01*
X127024460Y-60734235D01*
X127282725Y-60907076D01*
X127295587Y-60916960D01*
X127529077Y-61122030D01*
X127540537Y-61133508D01*
X127745261Y-61367297D01*
X127755126Y-61380172D01*
X127927587Y-61638689D01*
X127935687Y-61652742D01*
X128072931Y-61931563D01*
X128079127Y-61946553D01*
X128178800Y-62240889D01*
X128182986Y-62256559D01*
X128243388Y-62561395D01*
X128245493Y-62577478D01*
X128265853Y-62891640D01*
X128266113Y-62899750D01*
X128263941Y-65854280D01*
X128263669Y-65862398D01*
X128242806Y-66176844D01*
X128240673Y-66192939D01*
X128179704Y-66497975D01*
X128175486Y-66513654D01*
X128075186Y-66808104D01*
X128068956Y-66823097D01*
X127931044Y-67101920D01*
X127922909Y-67115970D01*
X127749749Y-67374386D01*
X127739847Y-67387254D01*
X127534406Y-67620832D01*
X127522908Y-67632295D01*
X127288711Y-67837029D01*
X127275814Y-67846891D01*
X127016887Y-68019264D01*
X127002812Y-68027358D01*
X126723562Y-68164432D01*
X126708550Y-68170616D01*
X126413806Y-68270024D01*
X126398115Y-68274195D01*
X126092890Y-68334246D01*
X126076788Y-68336330D01*
X125762291Y-68356241D01*
X125754173Y-68356489D01*
X114914164Y-68331728D01*
X101647110Y-68301422D01*
X101647109Y-68301422D01*
X101648572Y-68425682D01*
X101629678Y-68492948D01*
X101577416Y-68539321D01*
X101524298Y-68551141D01*
X91707972Y-68528718D01*
X91640977Y-68508880D01*
X91595343Y-68455972D01*
X91584255Y-68404848D01*
X91578166Y-62606695D01*
X91578423Y-62598579D01*
X91598712Y-62284187D01*
X91600815Y-62268094D01*
X91661202Y-61963041D01*
X91665390Y-61947359D01*
X91765100Y-61652818D01*
X91771299Y-61637818D01*
X91908629Y-61358818D01*
X91916735Y-61344756D01*
X92089335Y-61086074D01*
X92099207Y-61073191D01*
X92304102Y-60839285D01*
X92315573Y-60827802D01*
X92549280Y-60622647D01*
X92562153Y-60612761D01*
X92820642Y-60439897D01*
X92834695Y-60431777D01*
X93113547Y-60294156D01*
X93128541Y-60287940D01*
X93422993Y-60187915D01*
X93438670Y-60183712D01*
X93743651Y-60123006D01*
X93759757Y-60120885D01*
X93764049Y-60120604D01*
X93772241Y-60120339D01*
X101426855Y-60125965D01*
G37*
G36*
X101730581Y-85789312D02*
G01*
X101797606Y-85809046D01*
X101843322Y-85861883D01*
X101854481Y-85911852D01*
X101855983Y-86039405D01*
X125759604Y-86056978D01*
X125767714Y-86057249D01*
X126081861Y-86078071D01*
X126097940Y-86080200D01*
X126402686Y-86141050D01*
X126418351Y-86145260D01*
X126712545Y-86245368D01*
X126727525Y-86251586D01*
X127006134Y-86389235D01*
X127020175Y-86397355D01*
X127278440Y-86570196D01*
X127291302Y-86580080D01*
X127524792Y-86785150D01*
X127536252Y-86796628D01*
X127740976Y-87030417D01*
X127750841Y-87043292D01*
X127923302Y-87301809D01*
X127931402Y-87315862D01*
X128068646Y-87594683D01*
X128074842Y-87609673D01*
X128174515Y-87904009D01*
X128178701Y-87919679D01*
X128239103Y-88224515D01*
X128241208Y-88240598D01*
X128261568Y-88554760D01*
X128261828Y-88562870D01*
X128259656Y-91517400D01*
X128259384Y-91525518D01*
X128238521Y-91839964D01*
X128236388Y-91856059D01*
X128175419Y-92161095D01*
X128171201Y-92176774D01*
X128070901Y-92471224D01*
X128064671Y-92486217D01*
X127926759Y-92765040D01*
X127918624Y-92779090D01*
X127745464Y-93037506D01*
X127735562Y-93050374D01*
X127530121Y-93283952D01*
X127518623Y-93295415D01*
X127284426Y-93500149D01*
X127271529Y-93510011D01*
X127012602Y-93682384D01*
X126998527Y-93690478D01*
X126719277Y-93827552D01*
X126704265Y-93833736D01*
X126409521Y-93933144D01*
X126393830Y-93937315D01*
X126088605Y-93997366D01*
X126072503Y-93999450D01*
X125758006Y-94019361D01*
X125749888Y-94019609D01*
X115060126Y-93995191D01*
X101949314Y-93965242D01*
X101949313Y-93965242D01*
X101950776Y-94089502D01*
X101931882Y-94156768D01*
X101879620Y-94203141D01*
X101826502Y-94214961D01*
X91734923Y-94191909D01*
X91667928Y-94172071D01*
X91622294Y-94119163D01*
X91611206Y-94068039D01*
X91611051Y-93920007D01*
X91603531Y-93906213D01*
X91600715Y-93879937D01*
X91600715Y-86085282D01*
X91602811Y-86078140D01*
X91602766Y-86030847D01*
X91602634Y-85906090D01*
X91622248Y-85839030D01*
X91675003Y-85793219D01*
X91726725Y-85781959D01*
X101730581Y-85789312D01*
G37*
G36*
X102031385Y-111334185D02*
G01*
X102098410Y-111353919D01*
X102144126Y-111406756D01*
X102155285Y-111456725D01*
X102156787Y-111584279D01*
X104601061Y-111586074D01*
X104601067Y-111586076D01*
X106457072Y-111587440D01*
X125771807Y-111601639D01*
X125779917Y-111601910D01*
X126094040Y-111622731D01*
X126110119Y-111624860D01*
X126414873Y-111685711D01*
X126430538Y-111689921D01*
X126724732Y-111790029D01*
X126739712Y-111796247D01*
X127018321Y-111933896D01*
X127032362Y-111942016D01*
X127290623Y-112114855D01*
X127303484Y-112124739D01*
X127536978Y-112329812D01*
X127548439Y-112341290D01*
X127753166Y-112575082D01*
X127763031Y-112587957D01*
X127935489Y-112846470D01*
X127943589Y-112860523D01*
X128080833Y-113139344D01*
X128087029Y-113154334D01*
X128186702Y-113448670D01*
X128190888Y-113464340D01*
X128251290Y-113769176D01*
X128253395Y-113785259D01*
X128273755Y-114099421D01*
X128274015Y-114107531D01*
X128271843Y-117062061D01*
X128271571Y-117070179D01*
X128250708Y-117384625D01*
X128248575Y-117400720D01*
X128187606Y-117705756D01*
X128183388Y-117721435D01*
X128083088Y-118015885D01*
X128076858Y-118030878D01*
X127938946Y-118309701D01*
X127930811Y-118323751D01*
X127757651Y-118582167D01*
X127747749Y-118595035D01*
X127542308Y-118828613D01*
X127530810Y-118840076D01*
X127296613Y-119044810D01*
X127283716Y-119054672D01*
X127024789Y-119227045D01*
X127010714Y-119235139D01*
X126731464Y-119372213D01*
X126716453Y-119378397D01*
X126421709Y-119477806D01*
X126406017Y-119481977D01*
X126100792Y-119542027D01*
X126084690Y-119544111D01*
X125770193Y-119564022D01*
X125762075Y-119564270D01*
X107278678Y-119522049D01*
X94111227Y-119491970D01*
X94103129Y-119491686D01*
X93789498Y-119470440D01*
X93773445Y-119468293D01*
X93469214Y-119407145D01*
X93453578Y-119402923D01*
X93159917Y-119302647D01*
X93144963Y-119296423D01*
X92866881Y-119158728D01*
X92852867Y-119150609D01*
X92595096Y-118977839D01*
X92582260Y-118967962D01*
X92349212Y-118763074D01*
X92337772Y-118751608D01*
X92133412Y-118518087D01*
X92123565Y-118505228D01*
X91951392Y-118247075D01*
X91943304Y-118233043D01*
X91806239Y-117954635D01*
X91800050Y-117939668D01*
X91700445Y-117645781D01*
X91696259Y-117630134D01*
X91635809Y-117325772D01*
X91633698Y-117309714D01*
X91613167Y-116996016D01*
X91612902Y-116987918D01*
X91612902Y-111644588D01*
X91629606Y-111587699D01*
X91629462Y-111450761D01*
X91649076Y-111383701D01*
X91701832Y-111337890D01*
X91753553Y-111326630D01*
X102031385Y-111334185D01*
G37*
M02*
