ISO-10303-21;
HEADER;
/* Generated by software containing ST-Developer
 * from STEP Tools, Inc. (www.steptools.com) 
 */
/* OPTION: using custom renumber hook */

FILE_DESCRIPTION(
/* description */ ('STEP AP242 Edition 2',
'CAx-IF Rec.Pracs.---Representation and Presentation of Product Manufa
cturing Information (PMI)---4.0---2014-10-13',
'CAx-IF Rec.Pracs.---3D Tessellated Geometry---0.4---2014-09-14','2;1',
'CAx-IF Rec.Pracs.---User Defined Attributes---1.5---2016-08-15'),
/* implementation_level */ '2;1');

FILE_NAME(
/* name */ 'Main chassis - Part 42',
/* time_stamp */ '2026-06-20T13:46:14Z',
/* author */ (''),
/* organization */ (''),
/* preprocessor_version */ 'ST-DEVELOPER v20',
/* originating_system */ 'ONSHAPE BY PTC INC, 1.216',
/* authorisation */ '  ');

FILE_SCHEMA (('AP242_MANAGED_MODEL_BASED_3D_ENGINEERING_MIM_LF { 1 0 10303 442 3 1 4 }'));
ENDSEC;

DATA;
#10=SHAPE_REPRESENTATION_RELATIONSHIP('','',#439,#11);
#11=ADVANCED_BREP_SHAPE_REPRESENTATION('',(#437),#825);
#12=B_SPLINE_CURVE_WITH_KNOTS('',3,(#617,#618,#619,#620,#621,#622),
 .UNSPECIFIED.,.F.,.F.,(4,1,1,4),(6.93889390390723E-18,0.0137671588310958,
0.0206507382466437,0.0275343176621916),.UNSPECIFIED.);
#13=B_SPLINE_CURVE_WITH_KNOTS('',3,(#626,#627,#628,#629,#630),
 .UNSPECIFIED.,.F.,.F.,(4,1,4),(0.,0.013463573937802,0.026927147875604),
 .UNSPECIFIED.);
#14=B_SPLINE_CURVE_WITH_KNOTS('',3,(#642,#643,#644,#645,#646,#647),
 .UNSPECIFIED.,.F.,.F.,(4,1,1,4),(0.,0.0068821420187684,0.0137642840375368,
0.0275285680750736),.UNSPECIFIED.);
#15=B_SPLINE_CURVE_WITH_KNOTS('',3,(#651,#652,#653,#654,#655),
 .UNSPECIFIED.,.F.,.F.,(4,1,4),(6.93889390390723E-18,0.0134553573586487,
0.0269107147172975),.UNSPECIFIED.);
#16=B_SPLINE_CURVE_WITH_KNOTS('',3,(#664,#665,#666,#667,#668,#669,#670,
#671,#672,#673,#674,#675,#676,#677,#678),.UNSPECIFIED.,.F.,.F.,(4,1,1,1,
1,1,1,1,1,1,1,1,4),(0.,0.0029344981619395,0.005868996323879,0.00733624540484875,
0.0088034944858185,0.0102707435667882,0.011737992647758,0.0132052417287277,
0.0146724908096975,0.0161397398906672,0.017606988971637,0.0205414871335765,
0.023475985295516),.UNSPECIFIED.);
#17=B_SPLINE_CURVE_WITH_KNOTS('',3,(#679,#680,#681,#682,#683),
 .UNSPECIFIED.,.F.,.F.,(4,1,4),(0.,0.0145948945357137,0.0291897890714273),
 .UNSPECIFIED.);
#18=B_SPLINE_CURVE_WITH_KNOTS('',3,(#687,#688,#689,#690,#691),
 .UNSPECIFIED.,.F.,.F.,(4,1,4),(0.,0.0145952010908782,0.0291904021817564),
 .UNSPECIFIED.);
#19=B_SPLINE_CURVE_WITH_KNOTS('',3,(#706,#707,#708,#709,#710,#711,#712,
#713,#714,#715,#716,#717,#718,#719,#720),.UNSPECIFIED.,.F.,.F.,(4,1,1,1,
1,1,1,1,1,1,1,1,4),(0.,0.00293449816193943,0.00586899632387886,0.00733624540484857,
0.00880349448581829,0.010270743566788,0.0117379926477577,0.0132052417287274,
0.0146724908096971,0.0161397398906669,0.0176069889716366,0.020541487133576,
0.0234759852955154),.UNSPECIFIED.);
#20=B_SPLINE_CURVE_WITH_KNOTS('',3,(#725,#726,#727,#728,#729),
 .UNSPECIFIED.,.F.,.F.,(4,1,4),(0.,0.0145948945357137,0.0291897890714273),
 .UNSPECIFIED.);
#21=B_SPLINE_CURVE_WITH_KNOTS('',3,(#733,#734,#735,#736,#737),
 .UNSPECIFIED.,.F.,.F.,(4,1,4),(0.,0.0145952010908782,0.0291904021817565),
 .UNSPECIFIED.);
#22=B_SPLINE_CURVE_WITH_KNOTS('',3,(#748,#749,#750,#751,#752,#753),
 .UNSPECIFIED.,.F.,.F.,(4,1,1,4),(0.,0.0137671588310958,0.0206507382466437,
0.0275343176621916),.UNSPECIFIED.);
#23=B_SPLINE_CURVE_WITH_KNOTS('',3,(#754,#755,#756,#757,#758),
 .UNSPECIFIED.,.F.,.F.,(4,1,4),(0.,0.013463573937802,0.026927147875604),
 .UNSPECIFIED.);
#24=B_SPLINE_CURVE_WITH_KNOTS('',3,(#767,#768,#769,#770,#771,#772),
 .UNSPECIFIED.,.F.,.F.,(4,1,1,4),(0.,0.0068821420187684,0.0137642840375368,
0.0275285680750736),.UNSPECIFIED.);
#25=B_SPLINE_CURVE_WITH_KNOTS('',3,(#774,#775,#776,#777,#778),
 .UNSPECIFIED.,.F.,.F.,(4,1,4),(0.,0.0134553573586487,0.0269107147172975),
 .UNSPECIFIED.);
#26=B_SPLINE_SURFACE_WITH_KNOTS('',3,1,((#609,#610),(#611,#612),(#613,#614),
(#615,#616)),.SURF_OF_LINEAR_EXTRUSION.,.F.,.F.,.F.,(4,4),(2,2),(-6.06311557052297E-16,
1.),(0.,1.),.PIECEWISE_BEZIER_KNOTS.);
#27=B_SPLINE_SURFACE_WITH_KNOTS('',3,1,((#631,#632),(#633,#634),(#635,#636),
(#637,#638)),.SURF_OF_LINEAR_EXTRUSION.,.F.,.F.,.F.,(4,4),(2,2),(-1.76435419485934E-16,
1.),(0.,1.),.PIECEWISE_BEZIER_KNOTS.);
#28=B_SPLINE_SURFACE_WITH_KNOTS('',3,1,((#656,#657),(#658,#659),(#660,#661),
(#662,#663)),.SURF_OF_LINEAR_EXTRUSION.,.F.,.F.,.F.,(4,4),(2,2),(-1.27189242225009E-15,
1.),(0.,1.),.PIECEWISE_BEZIER_KNOTS.);
#29=B_SPLINE_SURFACE_WITH_KNOTS('',3,1,((#698,#699),(#700,#701),(#702,#703),
(#704,#705)),.SURF_OF_LINEAR_EXTRUSION.,.F.,.F.,.F.,(4,4),(2,2),(-6.99892520260459E-15,
1.),(0.,1.),.PIECEWISE_BEZIER_KNOTS.);
#30=B_SPLINE_SURFACE_WITH_KNOTS('',3,1,((#740,#741),(#742,#743),(#744,#745),
(#746,#747)),.SURF_OF_LINEAR_EXTRUSION.,.F.,.F.,.F.,(4,4),(2,2),(-6.06311557052297E-16,
1.),(0.,1.),.PIECEWISE_BEZIER_KNOTS.);
#31=B_SPLINE_SURFACE_WITH_KNOTS('',3,1,((#759,#760),(#761,#762),(#763,#764),
(#765,#766)),.SURF_OF_LINEAR_EXTRUSION.,.F.,.F.,.F.,(4,4),(2,2),(0.,1.),
(0.,1.),.PIECEWISE_BEZIER_KNOTS.);
#32=B_SPLINE_SURFACE_WITH_KNOTS('',3,1,((#787,#788),(#789,#790),(#791,#792),
(#793,#794)),.SURF_OF_LINEAR_EXTRUSION.,.F.,.F.,.F.,(4,4),(2,2),(-5.14243469677145E-17,
1.),(0.,1.),.PIECEWISE_BEZIER_KNOTS.);
#33=PLANE('',#447);
#34=PLANE('',#448);
#35=PLANE('',#449);
#36=PLANE('',#450);
#37=PLANE('',#454);
#38=PLANE('',#458);
#39=PLANE('',#465);
#40=PLANE('',#466);
#41=PLANE('',#469);
#42=PLANE('',#474);
#43=CIRCLE('',#442,0.0025);
#44=CIRCLE('',#443,0.0025);
#45=CIRCLE('',#445,0.0015);
#46=CIRCLE('',#446,0.0015);
#47=CIRCLE('',#452,0.0015);
#48=CIRCLE('',#453,0.0015);
#49=CIRCLE('',#455,0.0025);
#50=CIRCLE('',#456,0.0999999999999989);
#51=CIRCLE('',#457,0.1);
#52=CIRCLE('',#459,0.0999999999999989);
#53=CIRCLE('',#460,0.0025);
#54=CIRCLE('',#461,0.1);
#55=CIRCLE('',#467,0.0025);
#56=CIRCLE('',#468,0.0015);
#57=CIRCLE('',#470,0.0025);
#58=CIRCLE('',#471,0.0015);
#59=ORIENTED_EDGE('',*,*,#175,.T.);
#60=ORIENTED_EDGE('',*,*,#176,.T.);
#61=ORIENTED_EDGE('',*,*,#177,.F.);
#62=ORIENTED_EDGE('',*,*,#178,.F.);
#63=ORIENTED_EDGE('',*,*,#179,.F.);
#64=ORIENTED_EDGE('',*,*,#180,.T.);
#65=ORIENTED_EDGE('',*,*,#179,.T.);
#66=ORIENTED_EDGE('',*,*,#181,.T.);
#67=ORIENTED_EDGE('',*,*,#176,.F.);
#68=ORIENTED_EDGE('',*,*,#182,.F.);
#69=ORIENTED_EDGE('',*,*,#183,.T.);
#70=ORIENTED_EDGE('',*,*,#180,.F.);
#71=ORIENTED_EDGE('',*,*,#178,.T.);
#72=ORIENTED_EDGE('',*,*,#184,.F.);
#73=ORIENTED_EDGE('',*,*,#185,.F.);
#74=ORIENTED_EDGE('',*,*,#186,.T.);
#75=ORIENTED_EDGE('',*,*,#182,.T.);
#76=ORIENTED_EDGE('',*,*,#175,.F.);
#77=ORIENTED_EDGE('',*,*,#186,.F.);
#78=ORIENTED_EDGE('',*,*,#187,.T.);
#79=ORIENTED_EDGE('',*,*,#181,.F.);
#80=ORIENTED_EDGE('',*,*,#188,.F.);
#81=ORIENTED_EDGE('',*,*,#184,.T.);
#82=ORIENTED_EDGE('',*,*,#177,.T.);
#83=ORIENTED_EDGE('',*,*,#189,.T.);
#84=ORIENTED_EDGE('',*,*,#190,.F.);
#85=ORIENTED_EDGE('',*,*,#187,.F.);
#86=ORIENTED_EDGE('',*,*,#191,.T.);
#87=ORIENTED_EDGE('',*,*,#192,.T.);
#88=ORIENTED_EDGE('',*,*,#193,.T.);
#89=ORIENTED_EDGE('',*,*,#194,.T.);
#90=ORIENTED_EDGE('',*,*,#195,.T.);
#91=ORIENTED_EDGE('',*,*,#196,.F.);
#92=ORIENTED_EDGE('',*,*,#197,.T.);
#93=ORIENTED_EDGE('',*,*,#198,.F.);
#94=ORIENTED_EDGE('',*,*,#194,.F.);
#95=ORIENTED_EDGE('',*,*,#199,.F.);
#96=ORIENTED_EDGE('',*,*,#200,.T.);
#97=ORIENTED_EDGE('',*,*,#201,.F.);
#98=ORIENTED_EDGE('',*,*,#192,.F.);
#99=ORIENTED_EDGE('',*,*,#189,.F.);
#100=ORIENTED_EDGE('',*,*,#202,.T.);
#101=ORIENTED_EDGE('',*,*,#203,.T.);
#102=ORIENTED_EDGE('',*,*,#200,.F.);
#103=ORIENTED_EDGE('',*,*,#204,.T.);
#104=ORIENTED_EDGE('',*,*,#205,.F.);
#105=ORIENTED_EDGE('',*,*,#206,.T.);
#106=ORIENTED_EDGE('',*,*,#207,.F.);
#107=ORIENTED_EDGE('',*,*,#208,.F.);
#108=ORIENTED_EDGE('',*,*,#209,.F.);
#109=ORIENTED_EDGE('',*,*,#210,.T.);
#110=ORIENTED_EDGE('',*,*,#211,.F.);
#111=ORIENTED_EDGE('',*,*,#188,.T.);
#112=ORIENTED_EDGE('',*,*,#212,.F.);
#113=ORIENTED_EDGE('',*,*,#206,.F.);
#114=ORIENTED_EDGE('',*,*,#213,.F.);
#115=ORIENTED_EDGE('',*,*,#210,.F.);
#116=ORIENTED_EDGE('',*,*,#214,.F.);
#117=ORIENTED_EDGE('',*,*,#215,.T.);
#118=ORIENTED_EDGE('',*,*,#190,.T.);
#119=ORIENTED_EDGE('',*,*,#216,.F.);
#120=ORIENTED_EDGE('',*,*,#217,.F.);
#121=ORIENTED_EDGE('',*,*,#218,.F.);
#122=ORIENTED_EDGE('',*,*,#208,.T.);
#123=ORIENTED_EDGE('',*,*,#211,.T.);
#124=ORIENTED_EDGE('',*,*,#205,.T.);
#125=ORIENTED_EDGE('',*,*,#213,.T.);
#126=ORIENTED_EDGE('',*,*,#219,.F.);
#127=ORIENTED_EDGE('',*,*,#195,.F.);
#128=ORIENTED_EDGE('',*,*,#198,.T.);
#129=ORIENTED_EDGE('',*,*,#191,.F.);
#130=ORIENTED_EDGE('',*,*,#185,.T.);
#131=ORIENTED_EDGE('',*,*,#216,.T.);
#132=ORIENTED_EDGE('',*,*,#207,.T.);
#133=ORIENTED_EDGE('',*,*,#212,.T.);
#134=ORIENTED_EDGE('',*,*,#183,.F.);
#135=ORIENTED_EDGE('',*,*,#193,.F.);
#136=ORIENTED_EDGE('',*,*,#201,.T.);
#137=ORIENTED_EDGE('',*,*,#203,.F.);
#138=ORIENTED_EDGE('',*,*,#220,.T.);
#139=ORIENTED_EDGE('',*,*,#217,.T.);
#140=ORIENTED_EDGE('',*,*,#220,.F.);
#141=ORIENTED_EDGE('',*,*,#202,.F.);
#142=ORIENTED_EDGE('',*,*,#221,.T.);
#143=ORIENTED_EDGE('',*,*,#218,.T.);
#144=ORIENTED_EDGE('',*,*,#221,.F.);
#145=ORIENTED_EDGE('',*,*,#204,.F.);
#146=ORIENTED_EDGE('',*,*,#199,.T.);
#147=ORIENTED_EDGE('',*,*,#197,.F.);
#148=ORIENTED_EDGE('',*,*,#222,.T.);
#149=ORIENTED_EDGE('',*,*,#214,.T.);
#150=ORIENTED_EDGE('',*,*,#209,.T.);
#151=ORIENTED_EDGE('',*,*,#223,.T.);
#152=ORIENTED_EDGE('',*,*,#196,.T.);
#153=ORIENTED_EDGE('',*,*,#224,.F.);
#154=ORIENTED_EDGE('',*,*,#225,.T.);
#155=ORIENTED_EDGE('',*,*,#224,.T.);
#156=ORIENTED_EDGE('',*,*,#219,.T.);
#157=ORIENTED_EDGE('',*,*,#226,.T.);
#158=ORIENTED_EDGE('',*,*,#227,.F.);
#159=ORIENTED_EDGE('',*,*,#228,.T.);
#160=ORIENTED_EDGE('',*,*,#223,.F.);
#161=ORIENTED_EDGE('',*,*,#229,.T.);
#162=ORIENTED_EDGE('',*,*,#230,.F.);
#163=ORIENTED_EDGE('',*,*,#222,.F.);
#164=ORIENTED_EDGE('',*,*,#231,.F.);
#165=ORIENTED_EDGE('',*,*,#231,.T.);
#166=ORIENTED_EDGE('',*,*,#228,.F.);
#167=ORIENTED_EDGE('',*,*,#227,.T.);
#168=ORIENTED_EDGE('',*,*,#232,.T.);
#169=ORIENTED_EDGE('',*,*,#229,.F.);
#170=ORIENTED_EDGE('',*,*,#225,.F.);
#171=ORIENTED_EDGE('',*,*,#230,.T.);
#172=ORIENTED_EDGE('',*,*,#232,.F.);
#173=ORIENTED_EDGE('',*,*,#226,.F.);
#174=ORIENTED_EDGE('',*,*,#215,.F.);
#175=EDGE_CURVE('',#233,#234,#271,.T.);
#176=EDGE_CURVE('',#234,#235,#43,.T.);
#177=EDGE_CURVE('',#236,#235,#272,.T.);
#178=EDGE_CURVE('',#233,#236,#44,.T.);
#179=EDGE_CURVE('',#237,#237,#45,.T.);
#180=EDGE_CURVE('',#238,#238,#46,.T.);
#181=EDGE_CURVE('',#239,#235,#273,.T.);
#182=EDGE_CURVE('',#240,#234,#274,.T.);
#183=EDGE_CURVE('',#240,#239,#275,.T.);
#184=EDGE_CURVE('',#241,#236,#276,.T.);
#185=EDGE_CURVE('',#242,#241,#277,.T.);
#186=EDGE_CURVE('',#242,#233,#278,.T.);
#187=EDGE_CURVE('',#242,#240,#279,.T.);
#188=EDGE_CURVE('',#241,#239,#280,.T.);
#189=EDGE_CURVE('',#243,#243,#47,.T.);
#190=EDGE_CURVE('',#244,#244,#48,.T.);
#191=EDGE_CURVE('',#242,#245,#12,.T.);
#192=EDGE_CURVE('',#245,#246,#281,.T.);
#193=EDGE_CURVE('',#246,#240,#13,.T.);
#194=EDGE_CURVE('',#247,#248,#282,.T.);
#195=EDGE_CURVE('',#248,#249,#14,.T.);
#196=EDGE_CURVE('',#250,#249,#283,.T.);
#197=EDGE_CURVE('',#250,#247,#15,.T.);
#198=EDGE_CURVE('',#248,#245,#16,.T.);
#199=EDGE_CURVE('',#251,#247,#17,.T.);
#200=EDGE_CURVE('',#251,#252,#284,.T.);
#201=EDGE_CURVE('',#246,#252,#18,.T.);
#202=EDGE_CURVE('',#253,#254,#49,.T.);
#203=EDGE_CURVE('',#254,#252,#50,.T.);
#204=EDGE_CURVE('',#251,#253,#51,.T.);
#205=EDGE_CURVE('',#255,#256,#19,.T.);
#206=EDGE_CURVE('',#255,#257,#285,.T.);
#207=EDGE_CURVE('',#258,#257,#20,.T.);
#208=EDGE_CURVE('',#259,#258,#286,.T.);
#209=EDGE_CURVE('',#260,#259,#21,.T.);
#210=EDGE_CURVE('',#260,#256,#287,.T.);
#211=EDGE_CURVE('',#241,#255,#22,.T.);
#212=EDGE_CURVE('',#257,#239,#23,.T.);
#213=EDGE_CURVE('',#256,#261,#24,.T.);
#214=EDGE_CURVE('',#262,#260,#25,.T.);
#215=EDGE_CURVE('',#262,#261,#288,.T.);
#216=EDGE_CURVE('',#263,#258,#52,.T.);
#217=EDGE_CURVE('',#264,#263,#53,.T.);
#218=EDGE_CURVE('',#259,#264,#54,.T.);
#219=EDGE_CURVE('',#249,#261,#289,.T.);
#220=EDGE_CURVE('',#254,#263,#290,.T.);
#221=EDGE_CURVE('',#253,#264,#291,.T.);
#222=EDGE_CURVE('',#250,#262,#292,.T.);
#223=EDGE_CURVE('',#265,#250,#293,.T.);
#224=EDGE_CURVE('',#266,#249,#294,.T.);
#225=EDGE_CURVE('',#266,#265,#295,.T.);
#226=EDGE_CURVE('',#261,#267,#296,.T.);
#227=EDGE_CURVE('',#266,#267,#55,.T.);
#228=EDGE_CURVE('',#268,#268,#56,.T.);
#229=EDGE_CURVE('',#265,#269,#57,.T.);
#230=EDGE_CURVE('',#262,#269,#297,.T.);
#231=EDGE_CURVE('',#270,#270,#58,.T.);
#232=EDGE_CURVE('',#267,#269,#298,.T.);
#233=VERTEX_POINT('',#576);
#234=VERTEX_POINT('',#577);
#235=VERTEX_POINT('',#579);
#236=VERTEX_POINT('',#581);
#237=VERTEX_POINT('',#585);
#238=VERTEX_POINT('',#587);
#239=VERTEX_POINT('',#590);
#240=VERTEX_POINT('',#592);
#241=VERTEX_POINT('',#596);
#242=VERTEX_POINT('',#598);
#243=VERTEX_POINT('',#606);
#244=VERTEX_POINT('',#608);
#245=VERTEX_POINT('',#623);
#246=VERTEX_POINT('',#625);
#247=VERTEX_POINT('',#640);
#248=VERTEX_POINT('',#641);
#249=VERTEX_POINT('',#648);
#250=VERTEX_POINT('',#650);
#251=VERTEX_POINT('',#684);
#252=VERTEX_POINT('',#686);
#253=VERTEX_POINT('',#694);
#254=VERTEX_POINT('',#695);
#255=VERTEX_POINT('',#721);
#256=VERTEX_POINT('',#722);
#257=VERTEX_POINT('',#724);
#258=VERTEX_POINT('',#730);
#259=VERTEX_POINT('',#732);
#260=VERTEX_POINT('',#738);
#261=VERTEX_POINT('',#773);
#262=VERTEX_POINT('',#779);
#263=VERTEX_POINT('',#783);
#264=VERTEX_POINT('',#785);
#265=VERTEX_POINT('',#804);
#266=VERTEX_POINT('',#806);
#267=VERTEX_POINT('',#810);
#268=VERTEX_POINT('',#813);
#269=VERTEX_POINT('',#816);
#270=VERTEX_POINT('',#819);
#271=LINE('',#575,#299);
#272=LINE('',#580,#300);
#273=LINE('',#589,#301);
#274=LINE('',#591,#302);
#275=LINE('',#593,#303);
#276=LINE('',#595,#304);
#277=LINE('',#597,#305);
#278=LINE('',#599,#306);
#279=LINE('',#601,#307);
#280=LINE('',#603,#308);
#281=LINE('',#624,#309);
#282=LINE('',#639,#310);
#283=LINE('',#649,#311);
#284=LINE('',#685,#312);
#285=LINE('',#723,#313);
#286=LINE('',#731,#314);
#287=LINE('',#739,#315);
#288=LINE('',#780,#316);
#289=LINE('',#795,#317);
#290=LINE('',#797,#318);
#291=LINE('',#799,#319);
#292=LINE('',#801,#320);
#293=LINE('',#803,#321);
#294=LINE('',#805,#322);
#295=LINE('',#807,#323);
#296=LINE('',#809,#324);
#297=LINE('',#817,#325);
#298=LINE('',#822,#326);
#299=VECTOR('',#479,1.);
#300=VECTOR('',#482,1.);
#301=VECTOR('',#493,1.);
#302=VECTOR('',#494,1.);
#303=VECTOR('',#495,1.);
#304=VECTOR('',#498,1.);
#305=VECTOR('',#499,1.);
#306=VECTOR('',#500,1.);
#307=VECTOR('',#503,1.);
#308=VECTOR('',#506,1.);
#309=VECTOR('',#513,1.);
#310=VECTOR('',#514,1.);
#311=VECTOR('',#515,1.);
#312=VECTOR('',#516,1.);
#313=VECTOR('',#525,1.);
#314=VECTOR('',#526,1.);
#315=VECTOR('',#527,1.);
#316=VECTOR('',#528,1.);
#317=VECTOR('',#537,1.);
#318=VECTOR('',#540,1.);
#319=VECTOR('',#543,1.);
#320=VECTOR('',#546,1.);
#321=VECTOR('',#549,1.);
#322=VECTOR('',#550,1.);
#323=VECTOR('',#551,1.);
#324=VECTOR('',#554,1.);
#325=VECTOR('',#563,1.);
#326=VECTOR('',#570,1.);
#327=EDGE_LOOP('',(#59,#60,#61,#62));
#328=EDGE_LOOP('',(#63));
#329=EDGE_LOOP('',(#64));
#330=EDGE_LOOP('',(#65));
#331=EDGE_LOOP('',(#66,#67,#68,#69));
#332=EDGE_LOOP('',(#70));
#333=EDGE_LOOP('',(#71,#72,#73,#74));
#334=EDGE_LOOP('',(#75,#76,#77,#78));
#335=EDGE_LOOP('',(#79,#80,#81,#82));
#336=EDGE_LOOP('',(#83));
#337=EDGE_LOOP('',(#84));
#338=EDGE_LOOP('',(#85,#86,#87,#88));
#339=EDGE_LOOP('',(#89,#90,#91,#92));
#340=EDGE_LOOP('',(#93,#94,#95,#96,#97,#98));
#341=EDGE_LOOP('',(#99));
#342=EDGE_LOOP('',(#100,#101,#102,#103));
#343=EDGE_LOOP('',(#104,#105,#106,#107,#108,#109));
#344=EDGE_LOOP('',(#110,#111,#112,#113));
#345=EDGE_LOOP('',(#114,#115,#116,#117));
#346=EDGE_LOOP('',(#118));
#347=EDGE_LOOP('',(#119,#120,#121,#122));
#348=EDGE_LOOP('',(#123,#124,#125,#126,#127,#128,#129,#130));
#349=EDGE_LOOP('',(#131,#132,#133,#134,#135,#136,#137,#138));
#350=EDGE_LOOP('',(#139,#140,#141,#142));
#351=EDGE_LOOP('',(#143,#144,#145,#146,#147,#148,#149,#150));
#352=EDGE_LOOP('',(#151,#152,#153,#154));
#353=EDGE_LOOP('',(#155,#156,#157,#158));
#354=EDGE_LOOP('',(#159));
#355=EDGE_LOOP('',(#160,#161,#162,#163));
#356=EDGE_LOOP('',(#164));
#357=EDGE_LOOP('',(#165));
#358=EDGE_LOOP('',(#166));
#359=EDGE_LOOP('',(#167,#168,#169,#170));
#360=EDGE_LOOP('',(#171,#172,#173,#174));
#361=FACE_BOUND('',#327,.T.);
#362=FACE_BOUND('',#328,.T.);
#363=FACE_BOUND('',#329,.T.);
#364=FACE_BOUND('',#330,.T.);
#365=FACE_BOUND('',#331,.T.);
#366=FACE_BOUND('',#332,.T.);
#367=FACE_BOUND('',#333,.T.);
#368=FACE_BOUND('',#334,.T.);
#369=FACE_BOUND('',#335,.T.);
#370=FACE_BOUND('',#336,.T.);
#371=FACE_BOUND('',#337,.T.);
#372=FACE_BOUND('',#338,.T.);
#373=FACE_BOUND('',#339,.T.);
#374=FACE_BOUND('',#340,.T.);
#375=FACE_BOUND('',#341,.T.);
#376=FACE_BOUND('',#342,.T.);
#377=FACE_BOUND('',#343,.T.);
#378=FACE_BOUND('',#344,.T.);
#379=FACE_BOUND('',#345,.T.);
#380=FACE_BOUND('',#346,.T.);
#381=FACE_BOUND('',#347,.T.);
#382=FACE_BOUND('',#348,.T.);
#383=FACE_BOUND('',#349,.T.);
#384=FACE_BOUND('',#350,.T.);
#385=FACE_BOUND('',#351,.T.);
#386=FACE_BOUND('',#352,.T.);
#387=FACE_BOUND('',#353,.T.);
#388=FACE_BOUND('',#354,.T.);
#389=FACE_BOUND('',#355,.T.);
#390=FACE_BOUND('',#356,.T.);
#391=FACE_BOUND('',#357,.T.);
#392=FACE_BOUND('',#358,.T.);
#393=FACE_BOUND('',#359,.T.);
#394=FACE_BOUND('',#360,.T.);
#395=CYLINDRICAL_SURFACE('',#441,0.0025);
#396=CYLINDRICAL_SURFACE('',#444,0.0015);
#397=CYLINDRICAL_SURFACE('',#451,0.0015);
#398=CYLINDRICAL_SURFACE('',#462,0.0999999999999989);
#399=CYLINDRICAL_SURFACE('',#463,0.0025);
#400=CYLINDRICAL_SURFACE('',#464,0.1);
#401=CYLINDRICAL_SURFACE('',#472,0.0015);
#402=CYLINDRICAL_SURFACE('',#473,0.0025);
#403=ADVANCED_FACE('',(#361),#395,.T.);
#404=ADVANCED_FACE('',(#362,#363),#396,.F.);
#405=ADVANCED_FACE('',(#364,#365),#33,.T.);
#406=ADVANCED_FACE('',(#366,#367),#34,.F.);
#407=ADVANCED_FACE('',(#368),#35,.T.);
#408=ADVANCED_FACE('',(#369),#36,.F.);
#409=ADVANCED_FACE('',(#370,#371),#397,.F.);
#410=ADVANCED_FACE('',(#372),#26,.T.);
#411=ADVANCED_FACE('',(#373),#27,.T.);
#412=ADVANCED_FACE('',(#374),#28,.F.);
#413=ADVANCED_FACE('',(#375,#376),#37,.F.);
#414=ADVANCED_FACE('',(#377),#29,.F.);
#415=ADVANCED_FACE('',(#378),#30,.F.);
#416=ADVANCED_FACE('',(#379),#31,.F.);
#417=ADVANCED_FACE('',(#380,#381),#38,.T.);
#418=ADVANCED_FACE('',(#382),#32,.T.);
#419=ADVANCED_FACE('',(#383),#398,.T.);
#420=ADVANCED_FACE('',(#384),#399,.T.);
#421=ADVANCED_FACE('',(#385),#400,.T.);
#422=ADVANCED_FACE('',(#386),#39,.T.);
#423=ADVANCED_FACE('',(#387,#388),#40,.F.);
#424=ADVANCED_FACE('',(#389,#390),#41,.T.);
#425=ADVANCED_FACE('',(#391,#392),#401,.F.);
#426=ADVANCED_FACE('',(#393),#402,.T.);
#427=ADVANCED_FACE('',(#394),#42,.T.);
#428=CLOSED_SHELL('',(#403,#404,#405,#406,#407,#408,#409,#410,#411,#412,
#413,#414,#415,#416,#417,#418,#419,#420,#421,#422,#423,#424,#425,#426,#427));
#429=STYLED_ITEM('',(#430),#437);
#430=PRESENTATION_STYLE_ASSIGNMENT((#431));
#431=SURFACE_STYLE_USAGE(.BOTH.,#432);
#432=SURFACE_SIDE_STYLE('',(#433));
#433=SURFACE_STYLE_FILL_AREA(#434);
#434=FILL_AREA_STYLE('',(#435));
#435=FILL_AREA_STYLE_COLOUR('',#436);
#436=COLOUR_RGB('',0.917647058823529,0.917647058823529,0.917647058823529);
#437=MANIFOLD_SOLID_BREP('Part 42',#428);
#438=SHAPE_DEFINITION_REPRESENTATION(#830,#439);
#439=SHAPE_REPRESENTATION('Part 42',(#440),#825);
#440=AXIS2_PLACEMENT_3D('',#573,#475,#476);
#441=AXIS2_PLACEMENT_3D('',#574,#477,#478);
#442=AXIS2_PLACEMENT_3D('',#578,#480,#481);
#443=AXIS2_PLACEMENT_3D('',#582,#483,#484);
#444=AXIS2_PLACEMENT_3D('',#583,#485,#486);
#445=AXIS2_PLACEMENT_3D('',#584,#487,#488);
#446=AXIS2_PLACEMENT_3D('',#586,#489,#490);
#447=AXIS2_PLACEMENT_3D('',#588,#491,#492);
#448=AXIS2_PLACEMENT_3D('',#594,#496,#497);
#449=AXIS2_PLACEMENT_3D('',#600,#501,#502);
#450=AXIS2_PLACEMENT_3D('',#602,#504,#505);
#451=AXIS2_PLACEMENT_3D('',#604,#507,#508);
#452=AXIS2_PLACEMENT_3D('',#605,#509,#510);
#453=AXIS2_PLACEMENT_3D('',#607,#511,#512);
#454=AXIS2_PLACEMENT_3D('',#692,#517,#518);
#455=AXIS2_PLACEMENT_3D('',#693,#519,#520);
#456=AXIS2_PLACEMENT_3D('',#696,#521,#522);
#457=AXIS2_PLACEMENT_3D('',#697,#523,#524);
#458=AXIS2_PLACEMENT_3D('',#781,#529,#530);
#459=AXIS2_PLACEMENT_3D('',#782,#531,#532);
#460=AXIS2_PLACEMENT_3D('',#784,#533,#534);
#461=AXIS2_PLACEMENT_3D('',#786,#535,#536);
#462=AXIS2_PLACEMENT_3D('',#796,#538,#539);
#463=AXIS2_PLACEMENT_3D('',#798,#541,#542);
#464=AXIS2_PLACEMENT_3D('',#800,#544,#545);
#465=AXIS2_PLACEMENT_3D('',#802,#547,#548);
#466=AXIS2_PLACEMENT_3D('',#808,#552,#553);
#467=AXIS2_PLACEMENT_3D('',#811,#555,#556);
#468=AXIS2_PLACEMENT_3D('',#812,#557,#558);
#469=AXIS2_PLACEMENT_3D('',#814,#559,#560);
#470=AXIS2_PLACEMENT_3D('',#815,#561,#562);
#471=AXIS2_PLACEMENT_3D('',#818,#564,#565);
#472=AXIS2_PLACEMENT_3D('',#820,#566,#567);
#473=AXIS2_PLACEMENT_3D('',#821,#568,#569);
#474=AXIS2_PLACEMENT_3D('',#823,#571,#572);
#475=DIRECTION('',(0.,0.,1.));
#476=DIRECTION('',(1.,0.,0.));
#477=DIRECTION('',(0.,0.,1.));
#478=DIRECTION('',(0.,1.,0.));
#479=DIRECTION('',(0.,0.,-1.));
#480=DIRECTION('',(0.,0.,1.));
#481=DIRECTION('',(0.,-1.,0.));
#482=DIRECTION('',(0.,0.,-1.));
#483=DIRECTION('',(0.,0.,1.));
#484=DIRECTION('',(0.,-1.,0.));
#485=DIRECTION('',(0.,0.,1.));
#486=DIRECTION('',(0.,1.,0.));
#487=DIRECTION('',(0.,0.,1.));
#488=DIRECTION('',(0.,-1.,0.));
#489=DIRECTION('',(0.,0.,1.));
#490=DIRECTION('',(0.,-1.,0.));
#491=DIRECTION('',(0.,0.,-1.));
#492=DIRECTION('',(1.,0.,0.));
#493=DIRECTION('',(-0.983016157635326,0.183519028517151,0.));
#494=DIRECTION('',(-0.983016157635327,0.183519028517151,0.));
#495=DIRECTION('',(0.,-1.,-6.12323399573677E-17));
#496=DIRECTION('',(0.,0.,-1.));
#497=DIRECTION('',(1.,0.,0.));
#498=DIRECTION('',(-0.983016157635326,0.183519028517151,0.));
#499=DIRECTION('',(0.,-1.,-6.12323399573677E-17));
#500=DIRECTION('',(-0.983016157635327,0.183519028517151,0.));
#501=DIRECTION('',(0.183519028517151,0.983016157635326,0.));
#502=DIRECTION('',(0.983016157635327,-0.183519028517151,0.));
#503=DIRECTION('',(0.,0.,-1.));
#504=DIRECTION('',(0.183519028517151,0.983016157635327,0.));
#505=DIRECTION('',(0.983016157635327,-0.183519028517151,0.));
#506=DIRECTION('',(0.,0.,-1.));
#507=DIRECTION('',(0.,-1.,-6.12323399573677E-17));
#508=DIRECTION('',(0.,-6.12323399573677E-17,1.));
#509=DIRECTION('',(0.,1.,0.));
#510=DIRECTION('',(-1.,0.,0.));
#511=DIRECTION('',(0.,1.,0.));
#512=DIRECTION('',(-1.,0.,0.));
#513=DIRECTION('',(0.,0.,-1.));
#514=DIRECTION('',(0.,0.,-1.));
#515=DIRECTION('',(0.,0.,-1.));
#516=DIRECTION('',(0.,0.,-1.));
#517=DIRECTION('',(0.,-1.,0.));
#518=DIRECTION('',(-1.,0.,0.));
#519=DIRECTION('',(0.,1.,0.));
#520=DIRECTION('',(-1.,0.,0.));
#521=DIRECTION('',(0.,1.,0.));
#522=DIRECTION('',(-1.,0.,0.));
#523=DIRECTION('',(0.,1.,0.));
#524=DIRECTION('',(-1.,0.,0.));
#525=DIRECTION('',(0.,0.,-1.));
#526=DIRECTION('',(0.,0.,-1.));
#527=DIRECTION('',(0.,0.,-1.));
#528=DIRECTION('',(0.,0.,-1.));
#529=DIRECTION('',(0.,-1.,0.));
#530=DIRECTION('',(-1.,0.,0.));
#531=DIRECTION('',(0.,1.,0.));
#532=DIRECTION('',(-1.,0.,0.));
#533=DIRECTION('',(0.,1.,0.));
#534=DIRECTION('',(-1.,0.,0.));
#535=DIRECTION('',(0.,1.,0.));
#536=DIRECTION('',(-1.,0.,0.));
#537=DIRECTION('',(0.,-1.,-6.12323399573677E-17));
#538=DIRECTION('',(0.,-1.,-6.12323399573677E-17));
#539=DIRECTION('',(0.,-6.12323399573677E-17,1.));
#540=DIRECTION('',(0.,-1.,-6.12323399573677E-17));
#541=DIRECTION('',(0.,-1.,-6.12323399573677E-17));
#542=DIRECTION('',(0.,-6.12323399573677E-17,1.));
#543=DIRECTION('',(0.,-1.,-6.12323399573677E-17));
#544=DIRECTION('',(0.,-1.,-6.12323399573677E-17));
#545=DIRECTION('',(0.,-6.12323399573677E-17,1.));
#546=DIRECTION('',(0.,-1.,-6.12323399573677E-17));
#547=DIRECTION('',(0.183519028517149,0.983016157635327,0.));
#548=DIRECTION('',(0.983016157635327,-0.183519028517149,0.));
#549=DIRECTION('',(0.983016157635327,-0.183519028517149,0.));
#550=DIRECTION('',(0.983016157635327,-0.183519028517149,0.));
#551=DIRECTION('',(0.,0.,1.));
#552=DIRECTION('',(0.,0.,1.));
#553=DIRECTION('',(-1.,0.,0.));
#554=DIRECTION('',(-0.983016157635326,0.183519028517153,0.));
#555=DIRECTION('',(0.,0.,1.));
#556=DIRECTION('',(0.,-1.,0.));
#557=DIRECTION('',(0.,0.,1.));
#558=DIRECTION('',(0.,-1.,0.));
#559=DIRECTION('',(0.,0.,1.));
#560=DIRECTION('',(-1.,0.,0.));
#561=DIRECTION('',(0.,0.,1.));
#562=DIRECTION('',(0.,-1.,0.));
#563=DIRECTION('',(-0.983016157635326,0.183519028517153,0.));
#564=DIRECTION('',(0.,0.,1.));
#565=DIRECTION('',(0.,-1.,0.));
#566=DIRECTION('',(0.,0.,-1.));
#567=DIRECTION('',(0.,-1.,0.));
#568=DIRECTION('',(0.,0.,-1.));
#569=DIRECTION('',(0.,-1.,0.));
#570=DIRECTION('',(0.,0.,1.));
#571=DIRECTION('',(-0.183519028517153,-0.983016157635326,0.));
#572=DIRECTION('',(-0.983016157635326,0.183519028517153,0.));
#573=CARTESIAN_POINT('',(0.,0.,0.));
#574=CARTESIAN_POINT('',(0.0426811687648296,0.0452823737887711,-0.2625));
#575=CARTESIAN_POINT('',(0.0431399663361225,0.0477399141828594,-0.2565));
#576=CARTESIAN_POINT('',(0.0431399663361225,0.0477399141828594,-0.2565));
#577=CARTESIAN_POINT('',(0.0431399663361225,0.0477399141828594,-0.2625));
#578=CARTESIAN_POINT('',(0.0426811687648296,0.0452823737887711,-0.2625));
#579=CARTESIAN_POINT('',(0.0422223711935368,0.0428248333946828,-0.2625));
#580=CARTESIAN_POINT('',(0.0422223711935368,0.0428248333946828,-0.2565));
#581=CARTESIAN_POINT('',(0.0422223711935368,0.0428248333946828,-0.2565));
#582=CARTESIAN_POINT('',(0.0426811687648296,0.0452823737887711,-0.2565));
#583=CARTESIAN_POINT('',(0.0426811687648296,0.0452823737887711,-0.2625));
#584=CARTESIAN_POINT('',(0.0426811687648296,0.0452823737887711,-0.2625));
#585=CARTESIAN_POINT('',(0.0426811687648296,0.0437823737887711,-0.2625));
#586=CARTESIAN_POINT('',(0.0426811687648296,0.0452823737887711,-0.2565));
#587=CARTESIAN_POINT('',(0.0426811687648296,0.0437823737887711,-0.2565));
#588=CARTESIAN_POINT('',(0.0417215528439567,0.0452823737887711,-0.2625));
#589=CARTESIAN_POINT('',(0.0437017699791832,0.0425486448235972,-0.2625));
#590=CARTESIAN_POINT('',(0.0451811687648296,0.0422724562525118,-0.2625));
#591=CARTESIAN_POINT('',(0.044160567550476,0.0475493784099662,-0.2625));
#592=CARTESIAN_POINT('',(0.0451811687648296,0.0473588426370729,-0.2625));
#593=CARTESIAN_POINT('',(0.0451811687648297,0.0632823737887711,-0.2625));
#594=CARTESIAN_POINT('',(0.0417215528439567,0.0452823737887711,-0.2565));
#595=CARTESIAN_POINT('',(0.0437017699791832,0.0425486448235972,-0.2565));
#596=CARTESIAN_POINT('',(0.0451811687648296,0.0422724562525118,-0.2565));
#597=CARTESIAN_POINT('',(0.0451811687648296,0.0632823737887711,-0.2565));
#598=CARTESIAN_POINT('',(0.0451811687648296,0.047358842637073,-0.2565));
#599=CARTESIAN_POINT('',(0.044160567550476,0.0475493784099662,-0.2565));
#600=CARTESIAN_POINT('',(0.044160567550476,0.0475493784099662,-0.2565));
#601=CARTESIAN_POINT('',(0.0451811687648296,0.0473588426370729,-0.213));
#602=CARTESIAN_POINT('',(0.0437017699791832,0.0425486448235972,-0.2565));
#603=CARTESIAN_POINT('',(0.0451811687648296,0.0422724562525118,-0.213));
#604=CARTESIAN_POINT('',(0.0987,0.0632823737887711,-0.242));
#605=CARTESIAN_POINT('',(0.0987,0.0376863746662879,-0.242));
#606=CARTESIAN_POINT('',(0.0972,0.0376863746662879,-0.242));
#607=CARTESIAN_POINT('',(0.0987,0.0325999882817267,-0.242));
#608=CARTESIAN_POINT('',(0.0972,0.0325999882817267,-0.242));
#609=CARTESIAN_POINT('',(0.0451811687648296,0.0473588426370729,-0.249080258286402));
#610=CARTESIAN_POINT('',(0.0451811687648296,0.0473588426370729,-0.262580038220956));
#611=CARTESIAN_POINT('',(0.0538162336373195,0.0473588426370729,-0.249080258286402));
#612=CARTESIAN_POINT('',(0.0538162336373195,0.0473588426370729,-0.262580038220956));
#613=CARTESIAN_POINT('',(0.0624512985098095,0.0457467646419421,-0.249080258286402));
#614=CARTESIAN_POINT('',(0.0624512985098095,0.0457467646419421,-0.262580038220956));
#615=CARTESIAN_POINT('',(0.0710863633822994,0.0425226086516804,-0.249080258286402));
#616=CARTESIAN_POINT('',(0.0710863633822994,0.0425226086516804,-0.262580038220956));
#617=CARTESIAN_POINT('',(0.0451811687648296,0.0473588426370729,-0.2565));
#618=CARTESIAN_POINT('',(0.0496757596223942,0.0473588426370729,-0.255548851735211));
#619=CARTESIAN_POINT('',(0.0563715293565334,0.0466956118762396,-0.254002094034976));
#620=CARTESIAN_POINT('',(0.0649715914234131,0.0446323507500911,-0.251493886921628));
#621=CARTESIAN_POINT('',(0.0690880694477822,0.0432687305922118,-0.250016652658326));
#622=CARTESIAN_POINT('',(0.0710863633822994,0.0425226086516804,-0.249160296507358));
#623=CARTESIAN_POINT('',(0.0710863633822994,0.0425226086516804,-0.249160296507358));
#624=CARTESIAN_POINT('',(0.0710863633822994,0.0425226086516804,-0.213));
#625=CARTESIAN_POINT('',(0.0710863633822994,0.0425226086516804,-0.258279424948712));
#626=CARTESIAN_POINT('',(0.0710863633822994,0.0425226086516804,-0.258279424948712));
#627=CARTESIAN_POINT('',(0.0670358941948861,0.0440349707111218,-0.259501904922254));
#628=CARTESIAN_POINT('',(0.0585618911433872,0.0464798836616725,-0.261491984237822));
#629=CARTESIAN_POINT('',(0.0496744180891327,0.0473588426370729,-0.262365650363779));
#630=CARTESIAN_POINT('',(0.0451811687648296,0.0473588426370729,-0.2625));
#631=CARTESIAN_POINT('',(0.0451811687648296,0.0473588426370729,-0.221419961779044));
#632=CARTESIAN_POINT('',(0.0451811687648296,0.0473588426370729,-0.234919741713598));
#633=CARTESIAN_POINT('',(0.0538162336373195,0.0473588426370729,-0.221419961779044));
#634=CARTESIAN_POINT('',(0.0538162336373195,0.0473588426370729,-0.234919741713598));
#635=CARTESIAN_POINT('',(0.0624512985098095,0.0457467646419421,-0.221419961779044));
#636=CARTESIAN_POINT('',(0.0624512985098095,0.0457467646419421,-0.234919741713598));
#637=CARTESIAN_POINT('',(0.0710863633822994,0.0425226086516804,-0.221419961779044));
#638=CARTESIAN_POINT('',(0.0710863633822994,0.0425226086516804,-0.234919741713598));
#639=CARTESIAN_POINT('',(0.0710863633822994,0.0425226086516804,-0.213));
#640=CARTESIAN_POINT('',(0.0710863633822994,0.0425226086516804,-0.225720575051289));
#641=CARTESIAN_POINT('',(0.0710863633822994,0.0425226086516804,-0.234839703492642));
#642=CARTESIAN_POINT('',(0.0710863633822994,0.0425226086516804,-0.234839703492642));
#643=CARTESIAN_POINT('',(0.0690882501204965,0.0432686631327286,-0.233983424767816));
#644=CARTESIAN_POINT('',(0.0649627623210084,0.0446353604183345,-0.232502949295761));
#645=CARTESIAN_POINT('',(0.0563540439007232,0.0466981314264941,-0.229993652783113));
#646=CARTESIAN_POINT('',(0.0496769145189219,0.0473588426370729,-0.228451392664749));
#647=CARTESIAN_POINT('',(0.0451811687648296,0.0473588426370729,-0.2275));
#648=CARTESIAN_POINT('',(0.0451811687648296,0.0473588426370729,-0.2275));
#649=CARTESIAN_POINT('',(0.0451811687648296,0.0473588426370729,-0.213));
#650=CARTESIAN_POINT('',(0.0451811687648296,0.047358842637073,-0.2215));
#651=CARTESIAN_POINT('',(0.0451811687648296,0.0473588426370729,-0.2215));
#652=CARTESIAN_POINT('',(0.0496724919655074,0.0473588426370729,-0.22163429204449));
#653=CARTESIAN_POINT('',(0.0586276580772058,0.0464676926348832,-0.222518568980271));
#654=CARTESIAN_POINT('',(0.0670383802862667,0.0440340424556268,-0.224498845409816));
#655=CARTESIAN_POINT('',(0.0710863633822994,0.0425226086516804,-0.225720575051289));
#656=CARTESIAN_POINT('',(0.0969915579997691,0.0376863746662879,-0.225525221951904));
#657=CARTESIAN_POINT('',(0.0969915579997691,0.0376863746662879,-0.258474778048097));
#658=CARTESIAN_POINT('',(0.0883564931272792,0.0376863746662879,-0.225525221951904));
#659=CARTESIAN_POINT('',(0.0883564931272792,0.0376863746662879,-0.258474778048097));
#660=CARTESIAN_POINT('',(0.0797214282547894,0.0392984526614187,-0.225525221951904));
#661=CARTESIAN_POINT('',(0.0797214282547894,0.0392984526614187,-0.258474778048097));
#662=CARTESIAN_POINT('',(0.0710863633822994,0.0425226086516804,-0.225525221951904));
#663=CARTESIAN_POINT('',(0.0710863633822994,0.0425226086516804,-0.258474778048097));
#664=CARTESIAN_POINT('',(0.0710863633822994,0.0425226086516804,-0.234839703492642));
#665=CARTESIAN_POINT('',(0.0719427179898178,0.0422028634177546,-0.235206688810913));
#666=CARTESIAN_POINT('',(0.0736404398646315,0.0416008053469361,-0.235990075144596));
#667=CARTESIAN_POINT('',(0.0756893419573391,0.0409487679593205,-0.237150308101507));
#668=CARTESIAN_POINT('',(0.0772403248060554,0.0404947193664262,-0.238286590150071));
#669=CARTESIAN_POINT('',(0.0783098938870525,0.0401991665934819,-0.239293332206134));
#670=CARTESIAN_POINT('',(0.0791681721167556,0.0399747372903566,-0.24049060056565));
#671=CARTESIAN_POINT('',(0.0795703193182919,0.0398737167331226,-0.241970427655111));
#672=CARTESIAN_POINT('',(0.0791933355717848,0.0399683060350205,-0.243464713627456));
#673=CARTESIAN_POINT('',(0.0783330628286308,0.0401929650423844,-0.244680760730113));
#674=CARTESIAN_POINT('',(0.0772785244513799,0.0404838911393626,-0.245681716058288));
#675=CARTESIAN_POINT('',(0.0757177877279271,0.0409398875474981,-0.24683343786541));
#676=CARTESIAN_POINT('',(0.0736531003601445,0.04159635686566,-0.248003855014852));
#677=CARTESIAN_POINT('',(0.0719467578219489,0.0422013550273537,-0.248791579944731));
#678=CARTESIAN_POINT('',(0.0710863633822994,0.0425226086516804,-0.249160296507358));
#679=CARTESIAN_POINT('',(0.0969915579997691,0.0376863746662879,-0.237806896815102));
#680=CARTESIAN_POINT('',(0.0929085837453079,0.0376863746662879,-0.235132091621747));
#681=CARTESIAN_POINT('',(0.0843680437413695,0.0384177140254514,-0.230399260574206));
#682=CARTESIAN_POINT('',(0.0754871728099736,0.0408794367371949,-0.227048791893284));
#683=CARTESIAN_POINT('',(0.0710863633822994,0.0425226086516804,-0.225720575051289));
#684=CARTESIAN_POINT('',(0.0969915579997691,0.0376863746662879,-0.237806896815101));
#685=CARTESIAN_POINT('',(0.0969915579997691,0.0376863746662879,-0.213));
#686=CARTESIAN_POINT('',(0.0969915579997691,0.0376863746662879,-0.246193103184899));
#687=CARTESIAN_POINT('',(0.0710863633822994,0.0425226086516804,-0.258279424948712));
#688=CARTESIAN_POINT('',(0.0754869985860652,0.0408795017888264,-0.256951260689573));
#689=CARTESIAN_POINT('',(0.0843570526800314,0.0384197285273115,-0.253605834981501));
#690=CARTESIAN_POINT('',(0.0929083942317004,0.0376863746662879,-0.248868032530881));
#691=CARTESIAN_POINT('',(0.0969915579997691,0.0376863746662879,-0.246193103184899));
#692=CARTESIAN_POINT('',(0.0990957789998845,0.0376863746662879,-0.213));
#693=CARTESIAN_POINT('',(0.0987,0.0376863746662879,-0.242));
#694=CARTESIAN_POINT('',(0.100148910987476,0.0376863746662879,-0.239962683885508));
#695=CARTESIAN_POINT('',(0.100148910987476,0.0376863746662879,-0.244037316114493));
#696=CARTESIAN_POINT('',(0.0421924714884482,0.0376863746662879,-0.16254467153478));
#697=CARTESIAN_POINT('',(0.0421924714884475,0.0376863746662879,-0.321455328465221));
#698=CARTESIAN_POINT('',(0.0710863633822994,0.0374362222671192,-0.225525221951904));
#699=CARTESIAN_POINT('',(0.0710863633822994,0.0374362222671192,-0.258474778048097));
#700=CARTESIAN_POINT('',(0.0797214282547893,0.0342120662768575,-0.225525221951904));
#701=CARTESIAN_POINT('',(0.0797214282547893,0.0342120662768575,-0.258474778048097));
#702=CARTESIAN_POINT('',(0.0883564931272792,0.0325999882817267,-0.225525221951904));
#703=CARTESIAN_POINT('',(0.0883564931272792,0.0325999882817267,-0.258474778048097));
#704=CARTESIAN_POINT('',(0.0969915579997691,0.0325999882817267,-0.225525221951904));
#705=CARTESIAN_POINT('',(0.0969915579997691,0.0325999882817267,-0.258474778048097));
#706=CARTESIAN_POINT('',(0.0710863633822994,0.0374362222671192,-0.249160296507358));
#707=CARTESIAN_POINT('',(0.0719427179898178,0.0371164770331934,-0.248793311189087));
#708=CARTESIAN_POINT('',(0.0736404398646315,0.0365144189623749,-0.248009924855403));
#709=CARTESIAN_POINT('',(0.0756893419573391,0.0358623815747593,-0.246849691898494));
#710=CARTESIAN_POINT('',(0.0772403248060552,0.035408332981865,-0.245713409849929));
#711=CARTESIAN_POINT('',(0.0783098938870525,0.0351127802089207,-0.244706667793866));
#712=CARTESIAN_POINT('',(0.0791681721167555,0.0348883509057955,-0.24350939943435));
#713=CARTESIAN_POINT('',(0.0795703193182919,0.0347873303485614,-0.24202957234489));
#714=CARTESIAN_POINT('',(0.0791933355717849,0.0348819196504594,-0.240535286372544));
#715=CARTESIAN_POINT('',(0.078333062828631,0.0351065786578231,-0.239319239269887));
#716=CARTESIAN_POINT('',(0.0772785244513799,0.0353975047548014,-0.238318283941713));
#717=CARTESIAN_POINT('',(0.0757177877279271,0.0358535011629368,-0.23716656213459));
#718=CARTESIAN_POINT('',(0.0736531003601446,0.0365099704810988,-0.235996144985148));
#719=CARTESIAN_POINT('',(0.0719467578219489,0.0371149686427925,-0.235208420055269));
#720=CARTESIAN_POINT('',(0.0710863633822994,0.0374362222671192,-0.234839703492642));
#721=CARTESIAN_POINT('',(0.0710863633822994,0.0374362222671192,-0.249160296507358));
#722=CARTESIAN_POINT('',(0.0710863633822994,0.0374362222671192,-0.234839703492642));
#723=CARTESIAN_POINT('',(0.0710863633822994,0.0374362222671192,-0.213));
#724=CARTESIAN_POINT('',(0.0710863633822994,0.0374362222671192,-0.258279424948712));
#725=CARTESIAN_POINT('',(0.0969915579997691,0.0325999882817267,-0.246193103184899));
#726=CARTESIAN_POINT('',(0.0929085837453079,0.0325999882817267,-0.248867908378254));
#727=CARTESIAN_POINT('',(0.0843680437413695,0.0333313276408902,-0.253600739425795));
#728=CARTESIAN_POINT('',(0.0754871728099735,0.0357930503526337,-0.256951208106716));
#729=CARTESIAN_POINT('',(0.0710863633822994,0.0374362222671192,-0.258279424948712));
#730=CARTESIAN_POINT('',(0.0969915579997691,0.0325999882817267,-0.246193103184899));
#731=CARTESIAN_POINT('',(0.0969915579997691,0.0325999882817267,-0.213));
#732=CARTESIAN_POINT('',(0.0969915579997691,0.0325999882817267,-0.237806896815101));
#733=CARTESIAN_POINT('',(0.0710863633822994,0.0374362222671192,-0.225720575051289));
#734=CARTESIAN_POINT('',(0.0754869985860652,0.0357931154042652,-0.227048739310428));
#735=CARTESIAN_POINT('',(0.0843570526800314,0.0333333421427503,-0.2303941650185));
#736=CARTESIAN_POINT('',(0.0929083942317004,0.0325999882817267,-0.235131967469119));
#737=CARTESIAN_POINT('',(0.0969915579997691,0.0325999882817267,-0.237806896815101));
#738=CARTESIAN_POINT('',(0.0710863633822994,0.0374362222671192,-0.225720575051289));
#739=CARTESIAN_POINT('',(0.0710863633822994,0.0374362222671192,-0.213));
#740=CARTESIAN_POINT('',(0.0451811687648296,0.0422724562525118,-0.249080258286402));
#741=CARTESIAN_POINT('',(0.0451811687648296,0.0422724562525118,-0.262580038220956));
#742=CARTESIAN_POINT('',(0.0538162336373195,0.0422724562525118,-0.249080258286402));
#743=CARTESIAN_POINT('',(0.0538162336373195,0.0422724562525118,-0.262580038220956));
#744=CARTESIAN_POINT('',(0.0624512985098095,0.0406603782573809,-0.249080258286402));
#745=CARTESIAN_POINT('',(0.0624512985098095,0.0406603782573809,-0.262580038220956));
#746=CARTESIAN_POINT('',(0.0710863633822994,0.0374362222671192,-0.249080258286402));
#747=CARTESIAN_POINT('',(0.0710863633822994,0.0374362222671192,-0.262580038220956));
#748=CARTESIAN_POINT('',(0.0451811687648296,0.0422724562525118,-0.2565));
#749=CARTESIAN_POINT('',(0.0496757596223942,0.0422724562525118,-0.255548851735211));
#750=CARTESIAN_POINT('',(0.0563715293565334,0.0416092254916784,-0.254002094034976));
#751=CARTESIAN_POINT('',(0.0649715914234131,0.0395459643655299,-0.251493886921628));
#752=CARTESIAN_POINT('',(0.0690880694477822,0.0381823442076506,-0.250016652658326));
#753=CARTESIAN_POINT('',(0.0710863633822994,0.0374362222671192,-0.249160296507358));
#754=CARTESIAN_POINT('',(0.0710863633822994,0.0374362222671192,-0.258279424948712));
#755=CARTESIAN_POINT('',(0.0670358941948861,0.0389485843265606,-0.259501904922254));
#756=CARTESIAN_POINT('',(0.0585618911433872,0.0413934972771113,-0.261491984237822));
#757=CARTESIAN_POINT('',(0.0496744180891327,0.0422724562525118,-0.262365650363779));
#758=CARTESIAN_POINT('',(0.0451811687648296,0.0422724562525118,-0.2625));
#759=CARTESIAN_POINT('',(0.0451811687648296,0.0422724562525118,-0.221419961779044));
#760=CARTESIAN_POINT('',(0.0451811687648296,0.0422724562525118,-0.234919741713598));
#761=CARTESIAN_POINT('',(0.0538162336373195,0.0422724562525118,-0.221419961779044));
#762=CARTESIAN_POINT('',(0.0538162336373195,0.0422724562525118,-0.234919741713598));
#763=CARTESIAN_POINT('',(0.0624512985098095,0.0406603782573809,-0.221419961779044));
#764=CARTESIAN_POINT('',(0.0624512985098095,0.0406603782573809,-0.234919741713598));
#765=CARTESIAN_POINT('',(0.0710863633822994,0.0374362222671192,-0.221419961779044));
#766=CARTESIAN_POINT('',(0.0710863633822994,0.0374362222671192,-0.234919741713598));
#767=CARTESIAN_POINT('',(0.0710863633822994,0.0374362222671192,-0.234839703492642));
#768=CARTESIAN_POINT('',(0.0690882501204965,0.0381822767481674,-0.233983424767816));
#769=CARTESIAN_POINT('',(0.0649627623210085,0.0395489740337734,-0.23250294929576));
#770=CARTESIAN_POINT('',(0.0563540439007233,0.041611745041933,-0.229993652783113));
#771=CARTESIAN_POINT('',(0.0496769145189219,0.0422724562525118,-0.228451392664749));
#772=CARTESIAN_POINT('',(0.0451811687648296,0.0422724562525118,-0.2275));
#773=CARTESIAN_POINT('',(0.0451811687648296,0.0422724562525118,-0.2275));
#774=CARTESIAN_POINT('',(0.0451811687648296,0.0422724562525118,-0.2215));
#775=CARTESIAN_POINT('',(0.0496724919655074,0.0422724562525117,-0.22163429204449));
#776=CARTESIAN_POINT('',(0.0586276580772058,0.041381306250322,-0.222518568980271));
#777=CARTESIAN_POINT('',(0.0670383802862667,0.0389476560710657,-0.224498845409816));
#778=CARTESIAN_POINT('',(0.0710863633822994,0.0374362222671192,-0.225720575051289));
#779=CARTESIAN_POINT('',(0.0451811687648296,0.0422724562525118,-0.2215));
#780=CARTESIAN_POINT('',(0.0451811687648296,0.0422724562525118,-0.213));
#781=CARTESIAN_POINT('',(0.0990957789998845,0.0325999882817267,-0.213));
#782=CARTESIAN_POINT('',(0.0421924714884482,0.0325999882817267,-0.16254467153478));
#783=CARTESIAN_POINT('',(0.100148910987476,0.0325999882817267,-0.244037316114493));
#784=CARTESIAN_POINT('',(0.0987,0.0325999882817267,-0.242));
#785=CARTESIAN_POINT('',(0.100148910987476,0.0325999882817267,-0.239962683885508));
#786=CARTESIAN_POINT('',(0.0421924714884475,0.0325999882817267,-0.321455328465221));
#787=CARTESIAN_POINT('',(0.0451811687648296,0.0474340916263428,-0.2275));
#788=CARTESIAN_POINT('',(0.0451811687648296,0.0347420954361695,-0.2275));
#789=CARTESIAN_POINT('',(0.0908603895882765,0.0474340916263428,-0.237166666666667));
#790=CARTESIAN_POINT('',(0.0908603895882765,0.0347420954361695,-0.237166666666667));
#791=CARTESIAN_POINT('',(0.0908603895882765,0.0474340916263428,-0.246833333333333));
#792=CARTESIAN_POINT('',(0.0908603895882765,0.0347420954361695,-0.246833333333333));
#793=CARTESIAN_POINT('',(0.0451811687648296,0.0474340916263428,-0.2565));
#794=CARTESIAN_POINT('',(0.0451811687648296,0.0347420954361695,-0.2565));
#795=CARTESIAN_POINT('',(0.0451811687648296,0.0632823737887711,-0.2275));
#796=CARTESIAN_POINT('',(0.0421924714884482,0.0632823737887711,-0.16254467153478));
#797=CARTESIAN_POINT('',(0.100148910987476,0.0632823737887711,-0.244037316114493));
#798=CARTESIAN_POINT('',(0.0987,0.0632823737887711,-0.242));
#799=CARTESIAN_POINT('',(0.100148910987476,0.0632823737887711,-0.239962683885508));
#800=CARTESIAN_POINT('',(0.0421924714884475,0.0632823737887711,-0.321455328465221));
#801=CARTESIAN_POINT('',(0.0451811687648296,0.0632823737887711,-0.2215));
#802=CARTESIAN_POINT('',(0.044160567550476,0.0475493784099662,-0.2275));
#803=CARTESIAN_POINT('',(0.044160567550476,0.0475493784099662,-0.2215));
#804=CARTESIAN_POINT('',(0.0431399663361225,0.0477399141828594,-0.2215));
#805=CARTESIAN_POINT('',(0.044160567550476,0.0475493784099662,-0.2275));
#806=CARTESIAN_POINT('',(0.0431399663361225,0.0477399141828594,-0.2275));
#807=CARTESIAN_POINT('',(0.0431399663361225,0.0477399141828594,-0.2275));
#808=CARTESIAN_POINT('',(0.0426811687648296,0.0450274150206414,-0.2275));
#809=CARTESIAN_POINT('',(0.0437017699791832,0.0425486448235972,-0.2275));
#810=CARTESIAN_POINT('',(0.0422223711935368,0.0428248333946828,-0.2275));
#811=CARTESIAN_POINT('',(0.0426811687648296,0.0452823737887711,-0.2275));
#812=CARTESIAN_POINT('',(0.0426811687648296,0.0452823737887711,-0.2275));
#813=CARTESIAN_POINT('',(0.0426811687648296,0.0437823737887711,-0.2275));
#814=CARTESIAN_POINT('',(0.0426811687648296,0.0450274150206414,-0.2215));
#815=CARTESIAN_POINT('',(0.0426811687648296,0.0452823737887711,-0.2215));
#816=CARTESIAN_POINT('',(0.0422223711935368,0.0428248333946828,-0.2215));
#817=CARTESIAN_POINT('',(0.0437017699791832,0.0425486448235972,-0.2215));
#818=CARTESIAN_POINT('',(0.0426811687648296,0.0452823737887711,-0.2215));
#819=CARTESIAN_POINT('',(0.0426811687648296,0.0437823737887711,-0.2215));
#820=CARTESIAN_POINT('',(0.0426811687648296,0.0452823737887711,-0.2215));
#821=CARTESIAN_POINT('',(0.0426811687648296,0.0452823737887711,-0.2215));
#822=CARTESIAN_POINT('',(0.0422223711935368,0.0428248333946828,-0.2275));
#823=CARTESIAN_POINT('',(0.0437017699791832,0.0425486448235972,-0.2275));
#824=MECHANICAL_DESIGN_GEOMETRIC_PRESENTATION_REPRESENTATION('',(#429),
#825);
#825=(
GEOMETRIC_REPRESENTATION_CONTEXT(3)
GLOBAL_UNCERTAINTY_ASSIGNED_CONTEXT((#826))
GLOBAL_UNIT_ASSIGNED_CONTEXT((#829,#828,#827))
REPRESENTATION_CONTEXT('Part 42','TOP_LEVEL_ASSEMBLY_PART')
);
#826=UNCERTAINTY_MEASURE_WITH_UNIT(LENGTH_MEASURE(2.E-5),#829,
'DISTANCE_ACCURACY_VALUE','Maximum Tolerance applied to model');
#827=(
NAMED_UNIT(*)
SI_UNIT($,.STERADIAN.)
SOLID_ANGLE_UNIT()
);
#828=(
NAMED_UNIT(*)
PLANE_ANGLE_UNIT()
SI_UNIT($,.RADIAN.)
);
#829=(
LENGTH_UNIT()
NAMED_UNIT(*)
SI_UNIT($,.METRE.)
);
#830=PRODUCT_DEFINITION_SHAPE('','',#831);
#831=PRODUCT_DEFINITION('','',#833,#832);
#832=PRODUCT_DEFINITION_CONTEXT('',#839,'design');
#833=PRODUCT_DEFINITION_FORMATION_WITH_SPECIFIED_SOURCE('','',#835,
 .NOT_KNOWN.);
#834=PRODUCT_RELATED_PRODUCT_CATEGORY('','',(#835));
#835=PRODUCT('Part 42','Part 42','Part 42',(#837));
#836=PRODUCT_CATEGORY('','');
#837=PRODUCT_CONTEXT('',#839,'mechanical');
#838=APPLICATION_PROTOCOL_DEFINITION('international standard',
'ap242_managed_model_based_3d_engineering',2020,#839);
#839=APPLICATION_CONTEXT('managed model based 3d engineering');
ENDSEC;
END-ISO-10303-21;
